ISO-10303-21;
HEADER;
/* Generated by software containing ST-Developer
 * from STEP Tools, Inc. (www.steptools.com) 
 */

FILE_DESCRIPTION(
/* description */ (
'Spur Gear; Module: 1.0; Num Teeth: 16; Pressure Angle: 20.0; Backlash
: 0.00 mm'),
/* implementation_level */ '2;1');

FILE_NAME(
/* name */ 'leftleg1.step',
/* time_stamp */ '2026-08-23T13:44:44-04:00',
/* author */ (''),
/* organization */ (''),
/* preprocessor_version */ 'ST-DEVELOPER v20.1',
/* originating_system */ 'Autodesk Translation Framework v15.8.0.0',
/* authorisation */ '');

FILE_SCHEMA (('AUTOMOTIVE_DESIGN { 1 0 10303 214 3 1 1 }'));
ENDSEC;

DATA;
#10=MECHANICAL_DESIGN_GEOMETRIC_PRESENTATION_REPRESENTATION('',(#13),#1425);
#11=SHAPE_REPRESENTATION_RELATIONSHIP('SRR','None',#1432,#12);
#12=ADVANCED_BREP_SHAPE_REPRESENTATION('',(#14),#1424);
#13=STYLED_ITEM('',(#1441),#14);
#14=MANIFOLD_SOLID_BREP('Body314',#797);
#15=B_SPLINE_SURFACE_WITH_KNOTS('',3,3,((#1173,#1174,#1175,#1176),(#1177,
#1178,#1179,#1180),(#1181,#1182,#1183,#1184),(#1185,#1186,#1187,#1188),
(#1189,#1190,#1191,#1192),(#1193,#1194,#1195,#1196),(#1197,#1198,#1199,
#1200)),.UNSPECIFIED.,.F.,.F.,.F.,(4,1,1,1,4),(4,4),(0.,0.285714285714286,
0.571428571428571,0.857142857142857,1.),(-1.90000002831221,1.1),
 .UNSPECIFIED.);
#16=B_SPLINE_SURFACE_WITH_KNOTS('',3,3,((#1231,#1232,#1233,#1234),(#1235,
#1236,#1237,#1238),(#1239,#1240,#1241,#1242),(#1243,#1244,#1245,#1246),
(#1247,#1248,#1249,#1250),(#1251,#1252,#1253,#1254),(#1255,#1256,#1257,
#1258)),.UNSPECIFIED.,.F.,.F.,.F.,(4,1,1,1,4),(4,4),(0.,0.285714285714286,
0.571428571428571,0.857142857142857,1.),(-1.90000002831221,1.10000000000001),
 .UNSPECIFIED.);
#17=B_SPLINE_CURVE_WITH_KNOTS('',3,(#1128,#1129,#1130,#1131,#1132,#1133,
#1134,#1135,#1136,#1137,#1138,#1139,#1140),.UNSPECIFIED.,.F.,.F.,(4,3,3,
3,4),(0.,0.33767754812112,0.67535509624224,1.01303264436336,1.18187141842392),
 .UNSPECIFIED.);
#18=B_SPLINE_CURVE_WITH_KNOTS('',3,(#1144,#1145,#1146,#1147,#1148,#1149,
#1150,#1151,#1152,#1153,#1154,#1155,#1156),.UNSPECIFIED.,.F.,.F.,(4,3,3,
3,4),(0.,0.33767754812112,0.67535509624224,1.01303264436336,1.18187141842392),
 .UNSPECIFIED.);
#19=B_SPLINE_CURVE_WITH_KNOTS('',3,(#1203,#1204,#1205,#1206,#1207,#1208,
#1209,#1210,#1211,#1212,#1213,#1214,#1215),.UNSPECIFIED.,.F.,.F.,(4,3,3,
3,4),(0.,0.16883877406056,0.50651632218168,0.8441938703028,1.18187141842392),
 .UNSPECIFIED.);
#20=B_SPLINE_CURVE_WITH_KNOTS('',3,(#1216,#1217,#1218,#1219),
 .UNSPECIFIED.,.F.,.F.,(4,4),(-1.90000002831221,1.1),.UNSPECIFIED.);
#21=B_SPLINE_CURVE_WITH_KNOTS('',3,(#1220,#1221,#1222,#1223),
 .UNSPECIFIED.,.F.,.F.,(4,4),(-1.1,1.90000002831221),.UNSPECIFIED.);
#22=B_SPLINE_CURVE_WITH_KNOTS('',3,(#1226,#1227,#1228,#1229),
 .UNSPECIFIED.,.F.,.F.,(4,4),(-1.90000002831221,1.10000000000001),
 .UNSPECIFIED.);
#23=B_SPLINE_CURVE_WITH_KNOTS('',3,(#1260,#1261,#1262,#1263,#1264,#1265,
#1266,#1267,#1268,#1269,#1270,#1271,#1272),.UNSPECIFIED.,.F.,.F.,(4,3,3,
3,4),(0.,0.16883877406056,0.50651632218168,0.8441938703028,1.18187141842392),
 .UNSPECIFIED.);
#24=B_SPLINE_CURVE_WITH_KNOTS('',3,(#1273,#1274,#1275,#1276),
 .UNSPECIFIED.,.F.,.F.,(4,4),(-1.10000000000001,1.90000002831221),
 .UNSPECIFIED.);
#25=CYLINDRICAL_SURFACE('',#815,2.00000000000001);
#26=CYLINDRICAL_SURFACE('',#820,2.00000000000001);
#27=CYLINDRICAL_SURFACE('',#845,2.00000000000001);
#28=CYLINDRICAL_SURFACE('',#850,2.00000000000001);
#29=CYLINDRICAL_SURFACE('',#851,2.00000000000002);
#30=CYLINDRICAL_SURFACE('',#858,10.);
#31=CYLINDRICAL_SURFACE('',#866,1.5);
#32=CYLINDRICAL_SURFACE('',#868,1.5);
#33=CYLINDRICAL_SURFACE('',#870,1.5);
#34=CYLINDRICAL_SURFACE('',#872,1.49999999999999);
#35=CYLINDRICAL_SURFACE('',#874,1.5);
#36=FACE_BOUND('',#97,.T.);
#37=FACE_BOUND('',#109,.T.);
#38=FACE_BOUND('',#113,.T.);
#39=FACE_BOUND('',#114,.T.);
#40=FACE_BOUND('',#115,.T.);
#41=FACE_BOUND('',#116,.T.);
#42=FACE_BOUND('',#117,.T.);
#43=FACE_BOUND('',#120,.T.);
#44=FACE_BOUND('',#121,.T.);
#45=FACE_BOUND('',#123,.T.);
#46=FACE_BOUND('',#124,.T.);
#47=FACE_BOUND('',#137,.T.);
#48=FACE_BOUND('',#141,.T.);
#49=FACE_BOUND('',#151,.T.);
#50=FACE_BOUND('',#152,.T.);
#51=FACE_BOUND('',#153,.T.);
#52=FACE_BOUND('',#154,.T.);
#53=FACE_BOUND('',#155,.T.);
#54=FACE_OUTER_BOUND('',#96,.T.);
#55=FACE_OUTER_BOUND('',#98,.T.);
#56=FACE_OUTER_BOUND('',#99,.T.);
#57=FACE_OUTER_BOUND('',#100,.T.);
#58=FACE_OUTER_BOUND('',#101,.T.);
#59=FACE_OUTER_BOUND('',#102,.T.);
#60=FACE_OUTER_BOUND('',#103,.T.);
#61=FACE_OUTER_BOUND('',#104,.T.);
#62=FACE_OUTER_BOUND('',#105,.T.);
#63=FACE_OUTER_BOUND('',#106,.T.);
#64=FACE_OUTER_BOUND('',#107,.T.);
#65=FACE_OUTER_BOUND('',#108,.T.);
#66=FACE_OUTER_BOUND('',#110,.T.);
#67=FACE_OUTER_BOUND('',#111,.T.);
#68=FACE_OUTER_BOUND('',#112,.T.);
#69=FACE_OUTER_BOUND('',#118,.T.);
#70=FACE_OUTER_BOUND('',#119,.T.);
#71=FACE_OUTER_BOUND('',#122,.T.);
#72=FACE_OUTER_BOUND('',#125,.T.);
#73=FACE_OUTER_BOUND('',#126,.T.);
#74=FACE_OUTER_BOUND('',#127,.T.);
#75=FACE_OUTER_BOUND('',#128,.T.);
#76=FACE_OUTER_BOUND('',#129,.T.);
#77=FACE_OUTER_BOUND('',#130,.T.);
#78=FACE_OUTER_BOUND('',#131,.T.);
#79=FACE_OUTER_BOUND('',#132,.T.);
#80=FACE_OUTER_BOUND('',#133,.T.);
#81=FACE_OUTER_BOUND('',#134,.T.);
#82=FACE_OUTER_BOUND('',#135,.T.);
#83=FACE_OUTER_BOUND('',#136,.T.);
#84=FACE_OUTER_BOUND('',#138,.T.);
#85=FACE_OUTER_BOUND('',#139,.T.);
#86=FACE_OUTER_BOUND('',#140,.T.);
#87=FACE_OUTER_BOUND('',#142,.T.);
#88=FACE_OUTER_BOUND('',#143,.T.);
#89=FACE_OUTER_BOUND('',#144,.T.);
#90=FACE_OUTER_BOUND('',#145,.T.);
#91=FACE_OUTER_BOUND('',#146,.T.);
#92=FACE_OUTER_BOUND('',#147,.T.);
#93=FACE_OUTER_BOUND('',#148,.T.);
#94=FACE_OUTER_BOUND('',#149,.T.);
#95=FACE_OUTER_BOUND('',#150,.T.);
#96=EDGE_LOOP('',(#510,#511,#512,#513,#514,#515,#516));
#97=EDGE_LOOP('',(#517));
#98=EDGE_LOOP('',(#518,#519,#520,#521));
#99=EDGE_LOOP('',(#522,#523,#524,#525));
#100=EDGE_LOOP('',(#526,#527,#528,#529,#530,#531,#532,#533,#534,#535));
#101=EDGE_LOOP('',(#536,#537,#538,#539,#540,#541,#542,#543));
#102=EDGE_LOOP('',(#544,#545,#546,#547));
#103=EDGE_LOOP('',(#548,#549,#550,#551));
#104=EDGE_LOOP('',(#552,#553,#554,#555));
#105=EDGE_LOOP('',(#556,#557,#558,#559));
#106=EDGE_LOOP('',(#560,#561,#562,#563));
#107=EDGE_LOOP('',(#564,#565,#566,#567));
#108=EDGE_LOOP('',(#568,#569,#570,#571,#572,#573,#574));
#109=EDGE_LOOP('',(#575));
#110=EDGE_LOOP('',(#576,#577,#578,#579));
#111=EDGE_LOOP('',(#580,#581,#582,#583));
#112=EDGE_LOOP('',(#584,#585,#586,#587,#588,#589,#590,#591,#592,#593));
#113=EDGE_LOOP('',(#594));
#114=EDGE_LOOP('',(#595));
#115=EDGE_LOOP('',(#596));
#116=EDGE_LOOP('',(#597,#598,#599,#600));
#117=EDGE_LOOP('',(#601));
#118=EDGE_LOOP('',(#602,#603,#604,#605));
#119=EDGE_LOOP('',(#606,#607,#608,#609,#610,#611));
#120=EDGE_LOOP('',(#612));
#121=EDGE_LOOP('',(#613));
#122=EDGE_LOOP('',(#614,#615,#616,#617,#618,#619));
#123=EDGE_LOOP('',(#620));
#124=EDGE_LOOP('',(#621));
#125=EDGE_LOOP('',(#622));
#126=EDGE_LOOP('',(#623));
#127=EDGE_LOOP('',(#624,#625,#626,#627,#628,#629,#630,#631,#632,#633,#634,
#635));
#128=EDGE_LOOP('',(#636));
#129=EDGE_LOOP('',(#637));
#130=EDGE_LOOP('',(#638,#639,#640,#641));
#131=EDGE_LOOP('',(#642,#643,#644,#645));
#132=EDGE_LOOP('',(#646,#647,#648,#649));
#133=EDGE_LOOP('',(#650,#651,#652,#653,#654,#655,#656,#657));
#134=EDGE_LOOP('',(#658,#659,#660,#661));
#135=EDGE_LOOP('',(#662,#663,#664,#665));
#136=EDGE_LOOP('',(#666,#667,#668,#669,#670,#671,#672,#673));
#137=EDGE_LOOP('',(#674));
#138=EDGE_LOOP('',(#675,#676,#677,#678));
#139=EDGE_LOOP('',(#679,#680,#681,#682));
#140=EDGE_LOOP('',(#683,#684,#685,#686));
#141=EDGE_LOOP('',(#687));
#142=EDGE_LOOP('',(#688,#689,#690,#691));
#143=EDGE_LOOP('',(#692,#693,#694,#695));
#144=EDGE_LOOP('',(#696,#697,#698,#699));
#145=EDGE_LOOP('',(#700,#701,#702,#703));
#146=EDGE_LOOP('',(#704,#705,#706,#707));
#147=EDGE_LOOP('',(#708,#709,#710,#711));
#148=EDGE_LOOP('',(#712,#713,#714,#715));
#149=EDGE_LOOP('',(#716,#717,#718,#719));
#150=EDGE_LOOP('',(#720));
#151=EDGE_LOOP('',(#721));
#152=EDGE_LOOP('',(#722));
#153=EDGE_LOOP('',(#723));
#154=EDGE_LOOP('',(#724));
#155=EDGE_LOOP('',(#725));
#156=CIRCLE('',#812,2.00000000000001);
#157=CIRCLE('',#813,2.00000000000001);
#158=CIRCLE('',#814,2.00000000000001);
#159=CIRCLE('',#816,2.00000000000001);
#160=CIRCLE('',#821,2.00000000000001);
#161=CIRCLE('',#822,2.00000000000001);
#162=CIRCLE('',#827,2.00000000000001);
#163=CIRCLE('',#828,2.00000000000001);
#164=CIRCLE('',#832,1.5);
#165=CIRCLE('',#833,1.5);
#166=CIRCLE('',#834,1.49999999999999);
#167=CIRCLE('',#835,1.5);
#168=CIRCLE('',#838,2.00000000000001);
#169=CIRCLE('',#839,2.00000000000002);
#170=CIRCLE('',#841,2.00000000000001);
#171=CIRCLE('',#843,2.00000000000001);
#172=CIRCLE('',#847,2.00000000000001);
#173=CIRCLE('',#849,2.00000000000002);
#174=CIRCLE('',#857,10.);
#175=CIRCLE('',#859,10.);
#176=CIRCLE('',#862,1.5);
#177=CIRCLE('',#867,1.5);
#178=CIRCLE('',#869,1.5);
#179=CIRCLE('',#871,1.5);
#180=CIRCLE('',#873,1.49999999999999);
#181=CIRCLE('',#875,1.5);
#182=LINE('',#1089,#256);
#183=LINE('',#1091,#257);
#184=LINE('',#1093,#258);
#185=LINE('',#1099,#259);
#186=LINE('',#1100,#260);
#187=LINE('',#1105,#261);
#188=LINE('',#1109,#262);
#189=LINE('',#1111,#263);
#190=LINE('',#1112,#264);
#191=LINE('',#1116,#265);
#192=LINE('',#1118,#266);
#193=LINE('',#1120,#267);
#194=LINE('',#1122,#268);
#195=LINE('',#1124,#269);
#196=LINE('',#1126,#270);
#197=LINE('',#1142,#271);
#198=LINE('',#1157,#272);
#199=LINE('',#1160,#273);
#200=LINE('',#1162,#274);
#201=LINE('',#1163,#275);
#202=LINE('',#1165,#276);
#203=LINE('',#1166,#277);
#204=LINE('',#1171,#278);
#205=LINE('',#1230,#279);
#206=LINE('',#1279,#280);
#207=LINE('',#1281,#281);
#208=LINE('',#1282,#282);
#209=LINE('',#1285,#283);
#210=LINE('',#1286,#284);
#211=LINE('',#1288,#285);
#212=LINE('',#1295,#286);
#213=LINE('',#1297,#287);
#214=LINE('',#1299,#288);
#215=LINE('',#1300,#289);
#216=LINE('',#1303,#290);
#217=LINE('',#1305,#291);
#218=LINE('',#1306,#292);
#219=LINE('',#1309,#293);
#220=LINE('',#1311,#294);
#221=LINE('',#1312,#295);
#222=LINE('',#1314,#296);
#223=LINE('',#1315,#297);
#224=LINE('',#1324,#298);
#225=LINE('',#1326,#299);
#226=LINE('',#1328,#300);
#227=LINE('',#1329,#301);
#228=LINE('',#1334,#302);
#229=LINE('',#1335,#303);
#230=LINE('',#1337,#304);
#231=LINE('',#1339,#305);
#232=LINE('',#1340,#306);
#233=LINE('',#1346,#307);
#234=LINE('',#1347,#308);
#235=LINE('',#1355,#309);
#236=LINE('',#1356,#310);
#237=LINE('',#1364,#311);
#238=LINE('',#1366,#312);
#239=LINE('',#1369,#313);
#240=LINE('',#1370,#314);
#241=LINE('',#1374,#315);
#242=LINE('',#1380,#316);
#243=LINE('',#1384,#317);
#244=LINE('',#1386,#318);
#245=LINE('',#1387,#319);
#246=LINE('',#1390,#320);
#247=LINE('',#1392,#321);
#248=LINE('',#1393,#322);
#249=LINE('',#1397,#323);
#250=LINE('',#1398,#324);
#251=LINE('',#1404,#325);
#252=LINE('',#1408,#326);
#253=LINE('',#1412,#327);
#254=LINE('',#1416,#328);
#255=LINE('',#1420,#329);
#256=VECTOR('',#881,10.);
#257=VECTOR('',#882,10.);
#258=VECTOR('',#883,10.);
#259=VECTOR('',#888,10.);
#260=VECTOR('',#889,10.);
#261=VECTOR('',#894,2.00000000000001);
#262=VECTOR('',#899,10.);
#263=VECTOR('',#900,10.);
#264=VECTOR('',#901,10.);
#265=VECTOR('',#904,10.);
#266=VECTOR('',#905,10.);
#267=VECTOR('',#906,10.);
#268=VECTOR('',#907,10.);
#269=VECTOR('',#908,10.);
#270=VECTOR('',#909,10.);
#271=VECTOR('',#910,10.);
#272=VECTOR('',#911,10.);
#273=VECTOR('',#914,10.);
#274=VECTOR('',#915,10.);
#275=VECTOR('',#916,10.);
#276=VECTOR('',#917,10.);
#277=VECTOR('',#918,10.);
#278=VECTOR('',#923,2.00000000000001);
#279=VECTOR('',#928,10.);
#280=VECTOR('',#931,10.);
#281=VECTOR('',#932,10.);
#282=VECTOR('',#933,10.);
#283=VECTOR('',#936,10.);
#284=VECTOR('',#937,10.);
#285=VECTOR('',#940,10.);
#286=VECTOR('',#947,10.);
#287=VECTOR('',#948,10.);
#288=VECTOR('',#949,10.);
#289=VECTOR('',#950,10.);
#290=VECTOR('',#953,10.);
#291=VECTOR('',#954,10.);
#292=VECTOR('',#955,10.);
#293=VECTOR('',#958,10.);
#294=VECTOR('',#959,10.);
#295=VECTOR('',#960,10.);
#296=VECTOR('',#961,10.);
#297=VECTOR('',#962,10.);
#298=VECTOR('',#969,10.);
#299=VECTOR('',#970,10.);
#300=VECTOR('',#971,10.);
#301=VECTOR('',#972,10.);
#302=VECTOR('',#977,10.);
#303=VECTOR('',#978,10.);
#304=VECTOR('',#981,10.);
#305=VECTOR('',#982,10.);
#306=VECTOR('',#983,10.);
#307=VECTOR('',#990,10.);
#308=VECTOR('',#991,10.);
#309=VECTOR('',#1002,2.00000000000001);
#310=VECTOR('',#1003,2.00000000000001);
#311=VECTOR('',#1014,2.00000000000001);
#312=VECTOR('',#1017,2.00000000000002);
#313=VECTOR('',#1020,10.);
#314=VECTOR('',#1021,10.);
#315=VECTOR('',#1028,10.);
#316=VECTOR('',#1035,10.);
#317=VECTOR('',#1040,10.);
#318=VECTOR('',#1041,10.);
#319=VECTOR('',#1042,10.);
#320=VECTOR('',#1045,10.);
#321=VECTOR('',#1046,10.);
#322=VECTOR('',#1047,10.);
#323=VECTOR('',#1052,10.);
#324=VECTOR('',#1053,10.);
#325=VECTOR('',#1062,1.5);
#326=VECTOR('',#1067,1.5);
#327=VECTOR('',#1072,1.5);
#328=VECTOR('',#1077,1.49999999999999);
#329=VECTOR('',#1082,1.5);
#330=VERTEX_POINT('',#1087);
#331=VERTEX_POINT('',#1088);
#332=VERTEX_POINT('',#1090);
#333=VERTEX_POINT('',#1092);
#334=VERTEX_POINT('',#1094);
#335=VERTEX_POINT('',#1096);
#336=VERTEX_POINT('',#1098);
#337=VERTEX_POINT('',#1101);
#338=VERTEX_POINT('',#1104);
#339=VERTEX_POINT('',#1108);
#340=VERTEX_POINT('',#1110);
#341=VERTEX_POINT('',#1114);
#342=VERTEX_POINT('',#1115);
#343=VERTEX_POINT('',#1117);
#344=VERTEX_POINT('',#1119);
#345=VERTEX_POINT('',#1121);
#346=VERTEX_POINT('',#1123);
#347=VERTEX_POINT('',#1125);
#348=VERTEX_POINT('',#1127);
#349=VERTEX_POINT('',#1141);
#350=VERTEX_POINT('',#1143);
#351=VERTEX_POINT('',#1159);
#352=VERTEX_POINT('',#1161);
#353=VERTEX_POINT('',#1164);
#354=VERTEX_POINT('',#1168);
#355=VERTEX_POINT('',#1170);
#356=VERTEX_POINT('',#1201);
#357=VERTEX_POINT('',#1202);
#358=VERTEX_POINT('',#1225);
#359=VERTEX_POINT('',#1259);
#360=VERTEX_POINT('',#1278);
#361=VERTEX_POINT('',#1280);
#362=VERTEX_POINT('',#1284);
#363=VERTEX_POINT('',#1289);
#364=VERTEX_POINT('',#1293);
#365=VERTEX_POINT('',#1294);
#366=VERTEX_POINT('',#1296);
#367=VERTEX_POINT('',#1298);
#368=VERTEX_POINT('',#1302);
#369=VERTEX_POINT('',#1304);
#370=VERTEX_POINT('',#1308);
#371=VERTEX_POINT('',#1310);
#372=VERTEX_POINT('',#1313);
#373=VERTEX_POINT('',#1316);
#374=VERTEX_POINT('',#1318);
#375=VERTEX_POINT('',#1320);
#376=VERTEX_POINT('',#1322);
#377=VERTEX_POINT('',#1323);
#378=VERTEX_POINT('',#1325);
#379=VERTEX_POINT('',#1327);
#380=VERTEX_POINT('',#1330);
#381=VERTEX_POINT('',#1333);
#382=VERTEX_POINT('',#1338);
#383=VERTEX_POINT('',#1341);
#384=VERTEX_POINT('',#1343);
#385=VERTEX_POINT('',#1348);
#386=VERTEX_POINT('',#1351);
#387=VERTEX_POINT('',#1358);
#388=VERTEX_POINT('',#1361);
#389=VERTEX_POINT('',#1368);
#390=VERTEX_POINT('',#1376);
#391=VERTEX_POINT('',#1379);
#392=VERTEX_POINT('',#1383);
#393=VERTEX_POINT('',#1385);
#394=VERTEX_POINT('',#1389);
#395=VERTEX_POINT('',#1391);
#396=VERTEX_POINT('',#1394);
#397=VERTEX_POINT('',#1402);
#398=VERTEX_POINT('',#1406);
#399=VERTEX_POINT('',#1410);
#400=VERTEX_POINT('',#1414);
#401=VERTEX_POINT('',#1418);
#402=EDGE_CURVE('',#330,#331,#182,.T.);
#403=EDGE_CURVE('',#331,#332,#183,.T.);
#404=EDGE_CURVE('',#333,#332,#184,.T.);
#405=EDGE_CURVE('',#333,#334,#156,.T.);
#406=EDGE_CURVE('',#334,#335,#157,.T.);
#407=EDGE_CURVE('',#336,#335,#185,.T.);
#408=EDGE_CURVE('',#336,#330,#186,.T.);
#409=EDGE_CURVE('',#337,#337,#158,.T.);
#410=EDGE_CURVE('',#337,#338,#187,.T.);
#411=EDGE_CURVE('',#338,#338,#159,.T.);
#412=EDGE_CURVE('',#339,#330,#188,.T.);
#413=EDGE_CURVE('',#340,#339,#189,.T.);
#414=EDGE_CURVE('',#340,#331,#190,.T.);
#415=EDGE_CURVE('',#341,#342,#191,.T.);
#416=EDGE_CURVE('',#341,#343,#192,.T.);
#417=EDGE_CURVE('',#343,#344,#193,.T.);
#418=EDGE_CURVE('',#345,#344,#194,.T.);
#419=EDGE_CURVE('',#346,#345,#195,.T.);
#420=EDGE_CURVE('',#346,#347,#196,.T.);
#421=EDGE_CURVE('',#347,#348,#17,.T.);
#422=EDGE_CURVE('',#348,#349,#197,.T.);
#423=EDGE_CURVE('',#349,#350,#18,.T.);
#424=EDGE_CURVE('',#342,#350,#198,.T.);
#425=EDGE_CURVE('',#340,#351,#199,.T.);
#426=EDGE_CURVE('',#351,#352,#200,.T.);
#427=EDGE_CURVE('',#343,#352,#201,.T.);
#428=EDGE_CURVE('',#353,#341,#202,.T.);
#429=EDGE_CURVE('',#332,#353,#203,.T.);
#430=EDGE_CURVE('',#354,#354,#160,.T.);
#431=EDGE_CURVE('',#354,#355,#204,.T.);
#432=EDGE_CURVE('',#355,#355,#161,.T.);
#433=EDGE_CURVE('',#356,#357,#19,.T.);
#434=EDGE_CURVE('',#350,#356,#20,.T.);
#435=EDGE_CURVE('',#357,#349,#21,.T.);
#436=EDGE_CURVE('',#348,#358,#22,.T.);
#437=EDGE_CURVE('',#358,#357,#205,.T.);
#438=EDGE_CURVE('',#358,#359,#23,.T.);
#439=EDGE_CURVE('',#359,#347,#24,.T.);
#440=EDGE_CURVE('',#335,#360,#206,.T.);
#441=EDGE_CURVE('',#361,#360,#207,.T.);
#442=EDGE_CURVE('',#361,#336,#208,.T.);
#443=EDGE_CURVE('',#362,#333,#209,.T.);
#444=EDGE_CURVE('',#362,#353,#210,.T.);
#445=EDGE_CURVE('',#342,#361,#211,.T.);
#446=EDGE_CURVE('',#360,#363,#162,.T.);
#447=EDGE_CURVE('',#363,#362,#163,.T.);
#448=EDGE_CURVE('',#364,#365,#212,.T.);
#449=EDGE_CURVE('',#365,#366,#213,.T.);
#450=EDGE_CURVE('',#366,#367,#214,.T.);
#451=EDGE_CURVE('',#367,#364,#215,.T.);
#452=EDGE_CURVE('',#364,#368,#216,.T.);
#453=EDGE_CURVE('',#369,#368,#217,.T.);
#454=EDGE_CURVE('',#369,#365,#218,.T.);
#455=EDGE_CURVE('',#370,#359,#219,.T.);
#456=EDGE_CURVE('',#371,#370,#220,.T.);
#457=EDGE_CURVE('',#371,#366,#221,.T.);
#458=EDGE_CURVE('',#372,#369,#222,.T.);
#459=EDGE_CURVE('',#356,#372,#223,.T.);
#460=EDGE_CURVE('',#373,#373,#164,.T.);
#461=EDGE_CURVE('',#374,#374,#165,.T.);
#462=EDGE_CURVE('',#375,#375,#166,.T.);
#463=EDGE_CURVE('',#376,#377,#224,.T.);
#464=EDGE_CURVE('',#376,#378,#225,.T.);
#465=EDGE_CURVE('',#379,#378,#226,.T.);
#466=EDGE_CURVE('',#377,#379,#227,.T.);
#467=EDGE_CURVE('',#380,#380,#167,.T.);
#468=EDGE_CURVE('',#371,#381,#228,.T.);
#469=EDGE_CURVE('',#367,#381,#229,.T.);
#470=EDGE_CURVE('',#346,#370,#230,.T.);
#471=EDGE_CURVE('',#345,#382,#231,.T.);
#472=EDGE_CURVE('',#381,#382,#232,.T.);
#473=EDGE_CURVE('',#383,#383,#168,.T.);
#474=EDGE_CURVE('',#384,#384,#169,.T.);
#475=EDGE_CURVE('',#368,#351,#233,.T.);
#476=EDGE_CURVE('',#339,#372,#234,.T.);
#477=EDGE_CURVE('',#385,#385,#170,.T.);
#478=EDGE_CURVE('',#386,#386,#171,.T.);
#479=EDGE_CURVE('',#386,#363,#235,.T.);
#480=EDGE_CURVE('',#334,#385,#236,.T.);
#481=EDGE_CURVE('',#387,#387,#172,.T.);
#482=EDGE_CURVE('',#388,#388,#173,.T.);
#483=EDGE_CURVE('',#387,#383,#237,.T.);
#484=EDGE_CURVE('',#388,#384,#238,.T.);
#485=EDGE_CURVE('',#352,#389,#239,.T.);
#486=EDGE_CURVE('',#389,#344,#240,.T.);
#487=EDGE_CURVE('',#389,#382,#241,.T.);
#488=EDGE_CURVE('',#390,#390,#174,.T.);
#489=EDGE_CURVE('',#390,#391,#242,.T.);
#490=EDGE_CURVE('',#391,#391,#175,.T.);
#491=EDGE_CURVE('',#377,#392,#243,.T.);
#492=EDGE_CURVE('',#392,#393,#244,.T.);
#493=EDGE_CURVE('',#393,#376,#245,.T.);
#494=EDGE_CURVE('',#394,#392,#246,.T.);
#495=EDGE_CURVE('',#395,#394,#247,.T.);
#496=EDGE_CURVE('',#393,#395,#248,.T.);
#497=EDGE_CURVE('',#396,#396,#176,.T.);
#498=EDGE_CURVE('',#395,#378,#249,.T.);
#499=EDGE_CURVE('',#379,#394,#250,.T.);
#500=EDGE_CURVE('',#397,#397,#177,.T.);
#501=EDGE_CURVE('',#397,#373,#251,.T.);
#502=EDGE_CURVE('',#398,#398,#178,.T.);
#503=EDGE_CURVE('',#398,#374,#252,.T.);
#504=EDGE_CURVE('',#399,#399,#179,.T.);
#505=EDGE_CURVE('',#399,#396,#253,.T.);
#506=EDGE_CURVE('',#400,#400,#180,.T.);
#507=EDGE_CURVE('',#400,#375,#254,.T.);
#508=EDGE_CURVE('',#401,#401,#181,.T.);
#509=EDGE_CURVE('',#401,#380,#255,.T.);
#510=ORIENTED_EDGE('',*,*,#402,.T.);
#511=ORIENTED_EDGE('',*,*,#403,.T.);
#512=ORIENTED_EDGE('',*,*,#404,.F.);
#513=ORIENTED_EDGE('',*,*,#405,.T.);
#514=ORIENTED_EDGE('',*,*,#406,.T.);
#515=ORIENTED_EDGE('',*,*,#407,.F.);
#516=ORIENTED_EDGE('',*,*,#408,.T.);
#517=ORIENTED_EDGE('',*,*,#409,.T.);
#518=ORIENTED_EDGE('',*,*,#409,.F.);
#519=ORIENTED_EDGE('',*,*,#410,.T.);
#520=ORIENTED_EDGE('',*,*,#411,.F.);
#521=ORIENTED_EDGE('',*,*,#410,.F.);
#522=ORIENTED_EDGE('',*,*,#402,.F.);
#523=ORIENTED_EDGE('',*,*,#412,.F.);
#524=ORIENTED_EDGE('',*,*,#413,.F.);
#525=ORIENTED_EDGE('',*,*,#414,.T.);
#526=ORIENTED_EDGE('',*,*,#415,.F.);
#527=ORIENTED_EDGE('',*,*,#416,.T.);
#528=ORIENTED_EDGE('',*,*,#417,.T.);
#529=ORIENTED_EDGE('',*,*,#418,.F.);
#530=ORIENTED_EDGE('',*,*,#419,.F.);
#531=ORIENTED_EDGE('',*,*,#420,.T.);
#532=ORIENTED_EDGE('',*,*,#421,.T.);
#533=ORIENTED_EDGE('',*,*,#422,.T.);
#534=ORIENTED_EDGE('',*,*,#423,.T.);
#535=ORIENTED_EDGE('',*,*,#424,.F.);
#536=ORIENTED_EDGE('',*,*,#403,.F.);
#537=ORIENTED_EDGE('',*,*,#414,.F.);
#538=ORIENTED_EDGE('',*,*,#425,.T.);
#539=ORIENTED_EDGE('',*,*,#426,.T.);
#540=ORIENTED_EDGE('',*,*,#427,.F.);
#541=ORIENTED_EDGE('',*,*,#416,.F.);
#542=ORIENTED_EDGE('',*,*,#428,.F.);
#543=ORIENTED_EDGE('',*,*,#429,.F.);
#544=ORIENTED_EDGE('',*,*,#430,.F.);
#545=ORIENTED_EDGE('',*,*,#431,.T.);
#546=ORIENTED_EDGE('',*,*,#432,.F.);
#547=ORIENTED_EDGE('',*,*,#431,.F.);
#548=ORIENTED_EDGE('',*,*,#433,.F.);
#549=ORIENTED_EDGE('',*,*,#434,.F.);
#550=ORIENTED_EDGE('',*,*,#423,.F.);
#551=ORIENTED_EDGE('',*,*,#435,.F.);
#552=ORIENTED_EDGE('',*,*,#435,.T.);
#553=ORIENTED_EDGE('',*,*,#422,.F.);
#554=ORIENTED_EDGE('',*,*,#436,.T.);
#555=ORIENTED_EDGE('',*,*,#437,.T.);
#556=ORIENTED_EDGE('',*,*,#438,.F.);
#557=ORIENTED_EDGE('',*,*,#436,.F.);
#558=ORIENTED_EDGE('',*,*,#421,.F.);
#559=ORIENTED_EDGE('',*,*,#439,.F.);
#560=ORIENTED_EDGE('',*,*,#440,.T.);
#561=ORIENTED_EDGE('',*,*,#441,.F.);
#562=ORIENTED_EDGE('',*,*,#442,.T.);
#563=ORIENTED_EDGE('',*,*,#407,.T.);
#564=ORIENTED_EDGE('',*,*,#443,.T.);
#565=ORIENTED_EDGE('',*,*,#404,.T.);
#566=ORIENTED_EDGE('',*,*,#429,.T.);
#567=ORIENTED_EDGE('',*,*,#444,.F.);
#568=ORIENTED_EDGE('',*,*,#415,.T.);
#569=ORIENTED_EDGE('',*,*,#445,.T.);
#570=ORIENTED_EDGE('',*,*,#441,.T.);
#571=ORIENTED_EDGE('',*,*,#446,.T.);
#572=ORIENTED_EDGE('',*,*,#447,.T.);
#573=ORIENTED_EDGE('',*,*,#444,.T.);
#574=ORIENTED_EDGE('',*,*,#428,.T.);
#575=ORIENTED_EDGE('',*,*,#432,.T.);
#576=ORIENTED_EDGE('',*,*,#448,.T.);
#577=ORIENTED_EDGE('',*,*,#449,.T.);
#578=ORIENTED_EDGE('',*,*,#450,.T.);
#579=ORIENTED_EDGE('',*,*,#451,.T.);
#580=ORIENTED_EDGE('',*,*,#448,.F.);
#581=ORIENTED_EDGE('',*,*,#452,.T.);
#582=ORIENTED_EDGE('',*,*,#453,.F.);
#583=ORIENTED_EDGE('',*,*,#454,.T.);
#584=ORIENTED_EDGE('',*,*,#433,.T.);
#585=ORIENTED_EDGE('',*,*,#437,.F.);
#586=ORIENTED_EDGE('',*,*,#438,.T.);
#587=ORIENTED_EDGE('',*,*,#455,.F.);
#588=ORIENTED_EDGE('',*,*,#456,.F.);
#589=ORIENTED_EDGE('',*,*,#457,.T.);
#590=ORIENTED_EDGE('',*,*,#449,.F.);
#591=ORIENTED_EDGE('',*,*,#454,.F.);
#592=ORIENTED_EDGE('',*,*,#458,.F.);
#593=ORIENTED_EDGE('',*,*,#459,.F.);
#594=ORIENTED_EDGE('',*,*,#460,.F.);
#595=ORIENTED_EDGE('',*,*,#461,.F.);
#596=ORIENTED_EDGE('',*,*,#462,.F.);
#597=ORIENTED_EDGE('',*,*,#463,.F.);
#598=ORIENTED_EDGE('',*,*,#464,.T.);
#599=ORIENTED_EDGE('',*,*,#465,.F.);
#600=ORIENTED_EDGE('',*,*,#466,.F.);
#601=ORIENTED_EDGE('',*,*,#467,.F.);
#602=ORIENTED_EDGE('',*,*,#450,.F.);
#603=ORIENTED_EDGE('',*,*,#457,.F.);
#604=ORIENTED_EDGE('',*,*,#468,.T.);
#605=ORIENTED_EDGE('',*,*,#469,.F.);
#606=ORIENTED_EDGE('',*,*,#468,.F.);
#607=ORIENTED_EDGE('',*,*,#456,.T.);
#608=ORIENTED_EDGE('',*,*,#470,.F.);
#609=ORIENTED_EDGE('',*,*,#419,.T.);
#610=ORIENTED_EDGE('',*,*,#471,.T.);
#611=ORIENTED_EDGE('',*,*,#472,.F.);
#612=ORIENTED_EDGE('',*,*,#473,.T.);
#613=ORIENTED_EDGE('',*,*,#474,.T.);
#614=ORIENTED_EDGE('',*,*,#475,.T.);
#615=ORIENTED_EDGE('',*,*,#425,.F.);
#616=ORIENTED_EDGE('',*,*,#413,.T.);
#617=ORIENTED_EDGE('',*,*,#476,.T.);
#618=ORIENTED_EDGE('',*,*,#458,.T.);
#619=ORIENTED_EDGE('',*,*,#453,.T.);
#620=ORIENTED_EDGE('',*,*,#411,.T.);
#621=ORIENTED_EDGE('',*,*,#477,.T.);
#622=ORIENTED_EDGE('',*,*,#478,.T.);
#623=ORIENTED_EDGE('',*,*,#430,.T.);
#624=ORIENTED_EDGE('',*,*,#478,.F.);
#625=ORIENTED_EDGE('',*,*,#479,.T.);
#626=ORIENTED_EDGE('',*,*,#446,.F.);
#627=ORIENTED_EDGE('',*,*,#440,.F.);
#628=ORIENTED_EDGE('',*,*,#406,.F.);
#629=ORIENTED_EDGE('',*,*,#480,.T.);
#630=ORIENTED_EDGE('',*,*,#477,.F.);
#631=ORIENTED_EDGE('',*,*,#480,.F.);
#632=ORIENTED_EDGE('',*,*,#405,.F.);
#633=ORIENTED_EDGE('',*,*,#443,.F.);
#634=ORIENTED_EDGE('',*,*,#447,.F.);
#635=ORIENTED_EDGE('',*,*,#479,.F.);
#636=ORIENTED_EDGE('',*,*,#481,.T.);
#637=ORIENTED_EDGE('',*,*,#482,.T.);
#638=ORIENTED_EDGE('',*,*,#481,.F.);
#639=ORIENTED_EDGE('',*,*,#483,.T.);
#640=ORIENTED_EDGE('',*,*,#473,.F.);
#641=ORIENTED_EDGE('',*,*,#483,.F.);
#642=ORIENTED_EDGE('',*,*,#482,.F.);
#643=ORIENTED_EDGE('',*,*,#484,.T.);
#644=ORIENTED_EDGE('',*,*,#474,.F.);
#645=ORIENTED_EDGE('',*,*,#484,.F.);
#646=ORIENTED_EDGE('',*,*,#485,.T.);
#647=ORIENTED_EDGE('',*,*,#486,.T.);
#648=ORIENTED_EDGE('',*,*,#417,.F.);
#649=ORIENTED_EDGE('',*,*,#427,.T.);
#650=ORIENTED_EDGE('',*,*,#408,.F.);
#651=ORIENTED_EDGE('',*,*,#442,.F.);
#652=ORIENTED_EDGE('',*,*,#445,.F.);
#653=ORIENTED_EDGE('',*,*,#424,.T.);
#654=ORIENTED_EDGE('',*,*,#434,.T.);
#655=ORIENTED_EDGE('',*,*,#459,.T.);
#656=ORIENTED_EDGE('',*,*,#476,.F.);
#657=ORIENTED_EDGE('',*,*,#412,.T.);
#658=ORIENTED_EDGE('',*,*,#439,.T.);
#659=ORIENTED_EDGE('',*,*,#420,.F.);
#660=ORIENTED_EDGE('',*,*,#470,.T.);
#661=ORIENTED_EDGE('',*,*,#455,.T.);
#662=ORIENTED_EDGE('',*,*,#487,.T.);
#663=ORIENTED_EDGE('',*,*,#471,.F.);
#664=ORIENTED_EDGE('',*,*,#418,.T.);
#665=ORIENTED_EDGE('',*,*,#486,.F.);
#666=ORIENTED_EDGE('',*,*,#451,.F.);
#667=ORIENTED_EDGE('',*,*,#469,.T.);
#668=ORIENTED_EDGE('',*,*,#472,.T.);
#669=ORIENTED_EDGE('',*,*,#487,.F.);
#670=ORIENTED_EDGE('',*,*,#485,.F.);
#671=ORIENTED_EDGE('',*,*,#426,.F.);
#672=ORIENTED_EDGE('',*,*,#475,.F.);
#673=ORIENTED_EDGE('',*,*,#452,.F.);
#674=ORIENTED_EDGE('',*,*,#488,.F.);
#675=ORIENTED_EDGE('',*,*,#488,.T.);
#676=ORIENTED_EDGE('',*,*,#489,.T.);
#677=ORIENTED_EDGE('',*,*,#490,.T.);
#678=ORIENTED_EDGE('',*,*,#489,.F.);
#679=ORIENTED_EDGE('',*,*,#491,.T.);
#680=ORIENTED_EDGE('',*,*,#492,.T.);
#681=ORIENTED_EDGE('',*,*,#493,.T.);
#682=ORIENTED_EDGE('',*,*,#463,.T.);
#683=ORIENTED_EDGE('',*,*,#492,.F.);
#684=ORIENTED_EDGE('',*,*,#494,.F.);
#685=ORIENTED_EDGE('',*,*,#495,.F.);
#686=ORIENTED_EDGE('',*,*,#496,.F.);
#687=ORIENTED_EDGE('',*,*,#497,.T.);
#688=ORIENTED_EDGE('',*,*,#498,.F.);
#689=ORIENTED_EDGE('',*,*,#495,.T.);
#690=ORIENTED_EDGE('',*,*,#499,.F.);
#691=ORIENTED_EDGE('',*,*,#465,.T.);
#692=ORIENTED_EDGE('',*,*,#493,.F.);
#693=ORIENTED_EDGE('',*,*,#496,.T.);
#694=ORIENTED_EDGE('',*,*,#498,.T.);
#695=ORIENTED_EDGE('',*,*,#464,.F.);
#696=ORIENTED_EDGE('',*,*,#491,.F.);
#697=ORIENTED_EDGE('',*,*,#466,.T.);
#698=ORIENTED_EDGE('',*,*,#499,.T.);
#699=ORIENTED_EDGE('',*,*,#494,.T.);
#700=ORIENTED_EDGE('',*,*,#500,.T.);
#701=ORIENTED_EDGE('',*,*,#501,.T.);
#702=ORIENTED_EDGE('',*,*,#460,.T.);
#703=ORIENTED_EDGE('',*,*,#501,.F.);
#704=ORIENTED_EDGE('',*,*,#502,.T.);
#705=ORIENTED_EDGE('',*,*,#503,.T.);
#706=ORIENTED_EDGE('',*,*,#461,.T.);
#707=ORIENTED_EDGE('',*,*,#503,.F.);
#708=ORIENTED_EDGE('',*,*,#504,.T.);
#709=ORIENTED_EDGE('',*,*,#505,.T.);
#710=ORIENTED_EDGE('',*,*,#497,.F.);
#711=ORIENTED_EDGE('',*,*,#505,.F.);
#712=ORIENTED_EDGE('',*,*,#506,.T.);
#713=ORIENTED_EDGE('',*,*,#507,.T.);
#714=ORIENTED_EDGE('',*,*,#462,.T.);
#715=ORIENTED_EDGE('',*,*,#507,.F.);
#716=ORIENTED_EDGE('',*,*,#508,.T.);
#717=ORIENTED_EDGE('',*,*,#509,.T.);
#718=ORIENTED_EDGE('',*,*,#467,.T.);
#719=ORIENTED_EDGE('',*,*,#509,.F.);
#720=ORIENTED_EDGE('',*,*,#490,.F.);
#721=ORIENTED_EDGE('',*,*,#508,.F.);
#722=ORIENTED_EDGE('',*,*,#502,.F.);
#723=ORIENTED_EDGE('',*,*,#506,.F.);
#724=ORIENTED_EDGE('',*,*,#500,.F.);
#725=ORIENTED_EDGE('',*,*,#504,.F.);
#726=PLANE('',#811);
#727=PLANE('',#817);
#728=PLANE('',#818);
#729=PLANE('',#819);
#730=PLANE('',#823);
#731=PLANE('',#824);
#732=PLANE('',#825);
#733=PLANE('',#826);
#734=PLANE('',#829);
#735=PLANE('',#830);
#736=PLANE('',#831);
#737=PLANE('',#836);
#738=PLANE('',#837);
#739=PLANE('',#840);
#740=PLANE('',#842);
#741=PLANE('',#844);
#742=PLANE('',#846);
#743=PLANE('',#848);
#744=PLANE('',#852);
#745=PLANE('',#853);
#746=PLANE('',#854);
#747=PLANE('',#855);
#748=PLANE('',#856);
#749=PLANE('',#860);
#750=PLANE('',#861);
#751=PLANE('',#863);
#752=PLANE('',#864);
#753=PLANE('',#865);
#754=PLANE('',#876);
#755=ADVANCED_FACE('',(#54,#36),#726,.T.);
#756=ADVANCED_FACE('',(#55),#25,.F.);
#757=ADVANCED_FACE('',(#56),#727,.F.);
#758=ADVANCED_FACE('',(#57),#728,.F.);
#759=ADVANCED_FACE('',(#58),#729,.F.);
#760=ADVANCED_FACE('',(#59),#26,.F.);
#761=ADVANCED_FACE('',(#60),#15,.F.);
#762=ADVANCED_FACE('',(#61),#730,.F.);
#763=ADVANCED_FACE('',(#62),#16,.F.);
#764=ADVANCED_FACE('',(#63),#731,.T.);
#765=ADVANCED_FACE('',(#64),#732,.T.);
#766=ADVANCED_FACE('',(#65,#37),#733,.T.);
#767=ADVANCED_FACE('',(#66),#734,.T.);
#768=ADVANCED_FACE('',(#67),#735,.T.);
#769=ADVANCED_FACE('',(#68,#38,#39,#40,#41,#42),#736,.T.);
#770=ADVANCED_FACE('',(#69),#737,.F.);
#771=ADVANCED_FACE('',(#70,#43,#44),#738,.F.);
#772=ADVANCED_FACE('',(#71,#45,#46),#739,.F.);
#773=ADVANCED_FACE('',(#72),#740,.T.);
#774=ADVANCED_FACE('',(#73),#741,.T.);
#775=ADVANCED_FACE('',(#74),#27,.F.);
#776=ADVANCED_FACE('',(#75),#742,.T.);
#777=ADVANCED_FACE('',(#76),#743,.T.);
#778=ADVANCED_FACE('',(#77),#28,.F.);
#779=ADVANCED_FACE('',(#78),#29,.F.);
#780=ADVANCED_FACE('',(#79),#744,.F.);
#781=ADVANCED_FACE('',(#80),#745,.F.);
#782=ADVANCED_FACE('',(#81),#746,.F.);
#783=ADVANCED_FACE('',(#82),#747,.F.);
#784=ADVANCED_FACE('',(#83,#47),#748,.F.);
#785=ADVANCED_FACE('',(#84),#30,.F.);
#786=ADVANCED_FACE('',(#85),#749,.F.);
#787=ADVANCED_FACE('',(#86,#48),#750,.T.);
#788=ADVANCED_FACE('',(#87),#751,.F.);
#789=ADVANCED_FACE('',(#88),#752,.F.);
#790=ADVANCED_FACE('',(#89),#753,.F.);
#791=ADVANCED_FACE('',(#90),#31,.F.);
#792=ADVANCED_FACE('',(#91),#32,.F.);
#793=ADVANCED_FACE('',(#92),#33,.F.);
#794=ADVANCED_FACE('',(#93),#34,.F.);
#795=ADVANCED_FACE('',(#94),#35,.F.);
#796=ADVANCED_FACE('',(#95,#49,#50,#51,#52,#53),#754,.F.);
#797=CLOSED_SHELL('',(#755,#756,#757,#758,#759,#760,#761,#762,#763,#764,
#765,#766,#767,#768,#769,#770,#771,#772,#773,#774,#775,#776,#777,#778,#779,
#780,#781,#782,#783,#784,#785,#786,#787,#788,#789,#790,#791,#792,#793,#794,
#795,#796));
#798=DERIVED_UNIT_ELEMENT(#800,1.);
#799=DERIVED_UNIT_ELEMENT(#1427,-3.);
#800=(
MASS_UNIT()
NAMED_UNIT(*)
SI_UNIT(.KILO.,.GRAM.)
);
#801=DERIVED_UNIT((#798,#799));
#802=MEASURE_REPRESENTATION_ITEM('density measure',
POSITIVE_RATIO_MEASURE(7850.),#801);
#803=PROPERTY_DEFINITION_REPRESENTATION(#808,#805);
#804=PROPERTY_DEFINITION_REPRESENTATION(#809,#806);
#805=REPRESENTATION('material name',(#807),#1424);
#806=REPRESENTATION('density',(#802),#1424);
#807=DESCRIPTIVE_REPRESENTATION_ITEM('Steel','Steel');
#808=PROPERTY_DEFINITION('material property','material name',#1434);
#809=PROPERTY_DEFINITION('material property','density of part',#1434);
#810=AXIS2_PLACEMENT_3D('',#1085,#877,#878);
#811=AXIS2_PLACEMENT_3D('',#1086,#879,#880);
#812=AXIS2_PLACEMENT_3D('',#1095,#884,#885);
#813=AXIS2_PLACEMENT_3D('',#1097,#886,#887);
#814=AXIS2_PLACEMENT_3D('',#1102,#890,#891);
#815=AXIS2_PLACEMENT_3D('',#1103,#892,#893);
#816=AXIS2_PLACEMENT_3D('',#1106,#895,#896);
#817=AXIS2_PLACEMENT_3D('',#1107,#897,#898);
#818=AXIS2_PLACEMENT_3D('',#1113,#902,#903);
#819=AXIS2_PLACEMENT_3D('',#1158,#912,#913);
#820=AXIS2_PLACEMENT_3D('',#1167,#919,#920);
#821=AXIS2_PLACEMENT_3D('',#1169,#921,#922);
#822=AXIS2_PLACEMENT_3D('',#1172,#924,#925);
#823=AXIS2_PLACEMENT_3D('',#1224,#926,#927);
#824=AXIS2_PLACEMENT_3D('',#1277,#929,#930);
#825=AXIS2_PLACEMENT_3D('',#1283,#934,#935);
#826=AXIS2_PLACEMENT_3D('',#1287,#938,#939);
#827=AXIS2_PLACEMENT_3D('',#1290,#941,#942);
#828=AXIS2_PLACEMENT_3D('',#1291,#943,#944);
#829=AXIS2_PLACEMENT_3D('',#1292,#945,#946);
#830=AXIS2_PLACEMENT_3D('',#1301,#951,#952);
#831=AXIS2_PLACEMENT_3D('',#1307,#956,#957);
#832=AXIS2_PLACEMENT_3D('',#1317,#963,#964);
#833=AXIS2_PLACEMENT_3D('',#1319,#965,#966);
#834=AXIS2_PLACEMENT_3D('',#1321,#967,#968);
#835=AXIS2_PLACEMENT_3D('',#1331,#973,#974);
#836=AXIS2_PLACEMENT_3D('',#1332,#975,#976);
#837=AXIS2_PLACEMENT_3D('',#1336,#979,#980);
#838=AXIS2_PLACEMENT_3D('',#1342,#984,#985);
#839=AXIS2_PLACEMENT_3D('',#1344,#986,#987);
#840=AXIS2_PLACEMENT_3D('',#1345,#988,#989);
#841=AXIS2_PLACEMENT_3D('',#1349,#992,#993);
#842=AXIS2_PLACEMENT_3D('',#1350,#994,#995);
#843=AXIS2_PLACEMENT_3D('',#1352,#996,#997);
#844=AXIS2_PLACEMENT_3D('',#1353,#998,#999);
#845=AXIS2_PLACEMENT_3D('',#1354,#1000,#1001);
#846=AXIS2_PLACEMENT_3D('',#1357,#1004,#1005);
#847=AXIS2_PLACEMENT_3D('',#1359,#1006,#1007);
#848=AXIS2_PLACEMENT_3D('',#1360,#1008,#1009);
#849=AXIS2_PLACEMENT_3D('',#1362,#1010,#1011);
#850=AXIS2_PLACEMENT_3D('',#1363,#1012,#1013);
#851=AXIS2_PLACEMENT_3D('',#1365,#1015,#1016);
#852=AXIS2_PLACEMENT_3D('',#1367,#1018,#1019);
#853=AXIS2_PLACEMENT_3D('',#1371,#1022,#1023);
#854=AXIS2_PLACEMENT_3D('',#1372,#1024,#1025);
#855=AXIS2_PLACEMENT_3D('',#1373,#1026,#1027);
#856=AXIS2_PLACEMENT_3D('',#1375,#1029,#1030);
#857=AXIS2_PLACEMENT_3D('',#1377,#1031,#1032);
#858=AXIS2_PLACEMENT_3D('',#1378,#1033,#1034);
#859=AXIS2_PLACEMENT_3D('',#1381,#1036,#1037);
#860=AXIS2_PLACEMENT_3D('',#1382,#1038,#1039);
#861=AXIS2_PLACEMENT_3D('',#1388,#1043,#1044);
#862=AXIS2_PLACEMENT_3D('',#1395,#1048,#1049);
#863=AXIS2_PLACEMENT_3D('',#1396,#1050,#1051);
#864=AXIS2_PLACEMENT_3D('',#1399,#1054,#1055);
#865=AXIS2_PLACEMENT_3D('',#1400,#1056,#1057);
#866=AXIS2_PLACEMENT_3D('',#1401,#1058,#1059);
#867=AXIS2_PLACEMENT_3D('',#1403,#1060,#1061);
#868=AXIS2_PLACEMENT_3D('',#1405,#1063,#1064);
#869=AXIS2_PLACEMENT_3D('',#1407,#1065,#1066);
#870=AXIS2_PLACEMENT_3D('',#1409,#1068,#1069);
#871=AXIS2_PLACEMENT_3D('',#1411,#1070,#1071);
#872=AXIS2_PLACEMENT_3D('',#1413,#1073,#1074);
#873=AXIS2_PLACEMENT_3D('',#1415,#1075,#1076);
#874=AXIS2_PLACEMENT_3D('',#1417,#1078,#1079);
#875=AXIS2_PLACEMENT_3D('',#1419,#1080,#1081);
#876=AXIS2_PLACEMENT_3D('',#1421,#1083,#1084);
#877=DIRECTION('axis',(0.,0.,1.));
#878=DIRECTION('refdir',(1.,0.,0.));
#879=DIRECTION('center_axis',(4.44089209850062E-16,-4.44089209850062E-16,
-1.));
#880=DIRECTION('ref_axis',(2.22044604925031E-16,-1.,4.44089209850062E-16));
#881=DIRECTION('',(-1.,-8.88178419700126E-16,-4.44089209850062E-16));
#882=DIRECTION('',(-8.27620800175117E-16,1.,-4.44089209850062E-16));
#883=DIRECTION('',(-1.,-2.22044604925032E-16,-4.44089209850062E-16));
#884=DIRECTION('center_axis',(-4.44089209850062E-16,4.44089209850062E-16,
1.));
#885=DIRECTION('ref_axis',(-1.,-8.88178419700125E-16,-5.66553889764798E-16));
#886=DIRECTION('center_axis',(-4.44089209850062E-16,4.44089209850062E-16,
1.));
#887=DIRECTION('ref_axis',(-1.,-8.88178419700125E-16,-5.66553889764798E-16));
#888=DIRECTION('',(-1.,-2.22044604925032E-16,-4.44089209850062E-16));
#889=DIRECTION('',(8.27620800175117E-16,-1.,4.44089209850062E-16));
#890=DIRECTION('center_axis',(-4.44089209850062E-16,4.44089209850062E-16,
1.));
#891=DIRECTION('ref_axis',(-1.,-8.88178419700125E-16,-5.66553889764798E-16));
#892=DIRECTION('center_axis',(-5.66553889764798E-16,-2.22044604925032E-16,
1.));
#893=DIRECTION('ref_axis',(-1.,-8.88178419700125E-16,-5.66553889764798E-16));
#894=DIRECTION('',(-5.66553889764798E-16,-2.22044604925032E-16,1.));
#895=DIRECTION('center_axis',(5.66553889764798E-16,2.22044604925032E-16,
-1.));
#896=DIRECTION('ref_axis',(-1.,-8.88178419700125E-16,-5.66553889764798E-16));
#897=DIRECTION('center_axis',(-8.88178419700125E-16,1.,2.22044604925031E-16));
#898=DIRECTION('ref_axis',(1.,8.88178419700125E-16,5.66553889764798E-16));
#899=DIRECTION('',(5.66553889764798E-16,2.22044604925032E-16,-1.));
#900=DIRECTION('',(1.,8.88178419700125E-16,5.66553889764798E-16));
#901=DIRECTION('',(5.66553889764798E-16,2.22044604925032E-16,-1.));
#902=DIRECTION('center_axis',(-8.88178419700125E-16,1.,2.22044604925031E-16));
#903=DIRECTION('ref_axis',(1.,8.88178419700125E-16,5.66553889764798E-16));
#904=DIRECTION('',(1.,8.88178419700126E-16,4.44089209850062E-16));
#905=DIRECTION('',(5.66553889764798E-16,2.22044604925032E-16,-1.));
#906=DIRECTION('',(-1.,-8.88178419700125E-16,-5.66553889764798E-16));
#907=DIRECTION('',(5.66553889764798E-16,2.22044604925032E-16,-1.));
#908=DIRECTION('',(1.,8.88178419700125E-16,5.66553889764798E-16));
#909=DIRECTION('',(5.66553889764798E-16,2.22044604925032E-16,-1.));
#910=DIRECTION('',(1.,8.88178419700125E-16,5.66553889764798E-16));
#911=DIRECTION('',(5.66553889764798E-16,2.22044604925032E-16,-1.));
#912=DIRECTION('center_axis',(1.,8.27620800175117E-16,5.66553889764798E-16));
#913=DIRECTION('ref_axis',(5.66553889764798E-16,2.22044604925032E-16,-1.));
#914=DIRECTION('',(-8.27620800175117E-16,1.,3.63345717150051E-16));
#915=DIRECTION('',(5.66553889764798E-16,-2.22044604925031E-16,-1.));
#916=DIRECTION('',(-8.27620800175117E-16,1.,3.63345717150051E-16));
#917=DIRECTION('',(8.27620800175117E-16,-1.,4.44089209850062E-16));
#918=DIRECTION('',(5.66553889764798E-16,-4.44089209850062E-16,-1.));
#919=DIRECTION('center_axis',(-5.66553889764798E-16,-2.22044604925032E-16,
1.));
#920=DIRECTION('ref_axis',(-1.,-8.88178419700125E-16,-5.66553889764798E-16));
#921=DIRECTION('center_axis',(-5.66553889764798E-16,-2.22044604925032E-16,
1.));
#922=DIRECTION('ref_axis',(-1.,-8.88178419700125E-16,-5.66553889764798E-16));
#923=DIRECTION('',(-5.66553889764798E-16,-2.22044604925032E-16,1.));
#924=DIRECTION('center_axis',(4.44089209850062E-16,-4.44089209850062E-16,
-1.));
#925=DIRECTION('ref_axis',(-1.,-8.88178419700125E-16,-5.66553889764798E-16));
#926=DIRECTION('center_axis',(-5.66553889764797E-16,-3.63345717150052E-16,
1.));
#927=DIRECTION('ref_axis',(1.,8.88178419700125E-16,5.66553889764798E-16));
#928=DIRECTION('',(1.,8.88178419700125E-16,5.66553889764798E-16));
#929=DIRECTION('center_axis',(2.22044604925031E-16,-1.,4.44089209850062E-16));
#930=DIRECTION('ref_axis',(-4.44089209850062E-16,4.44089209850062E-16,1.));
#931=DIRECTION('',(5.66553889764798E-16,2.22044604925032E-16,-1.));
#932=DIRECTION('',(-1.,-2.22044604925032E-16,-4.44089209850062E-16));
#933=DIRECTION('',(-5.66553889764798E-16,4.44089209850062E-16,1.));
#934=DIRECTION('center_axis',(2.22044604925031E-16,-1.,4.44089209850062E-16));
#935=DIRECTION('ref_axis',(-4.44089209850062E-16,4.44089209850062E-16,1.));
#936=DIRECTION('',(-5.66553889764798E-16,-2.22044604925032E-16,1.));
#937=DIRECTION('',(-1.,-2.22044604925032E-16,-4.44089209850062E-16));
#938=DIRECTION('center_axis',(-4.44089209850062E-16,4.44089209850062E-16,
1.));
#939=DIRECTION('ref_axis',(-2.22044604925031E-16,1.,-4.44089209850062E-16));
#940=DIRECTION('',(-8.27620800175117E-16,1.,-4.44089209850062E-16));
#941=DIRECTION('center_axis',(4.44089209850062E-16,-4.44089209850062E-16,
-1.));
#942=DIRECTION('ref_axis',(-1.,-8.88178419700125E-16,-5.66553889764798E-16));
#943=DIRECTION('center_axis',(4.44089209850062E-16,-4.44089209850062E-16,
-1.));
#944=DIRECTION('ref_axis',(-1.,-8.88178419700125E-16,-5.66553889764798E-16));
#945=DIRECTION('center_axis',(-4.44089209850062E-16,4.44089209850062E-16,
1.));
#946=DIRECTION('ref_axis',(-2.22044604925031E-16,1.,-4.44089209850062E-16));
#947=DIRECTION('',(-2.22044604925031E-16,1.,-4.44089209850062E-16));
#948=DIRECTION('',(-1.,-2.22044604925032E-16,-4.44089209850062E-16));
#949=DIRECTION('',(2.22044604925031E-16,-1.,4.44089209850062E-16));
#950=DIRECTION('',(1.,2.22044604925032E-16,4.44089209850062E-16));
#951=DIRECTION('center_axis',(1.,2.22044604925032E-16,4.44089209850062E-16));
#952=DIRECTION('ref_axis',(-2.22044604925032E-16,1.,-2.22044604925031E-16));
#953=DIRECTION('',(4.44089209850062E-16,-2.22044604925031E-16,-1.));
#954=DIRECTION('',(2.22044604925032E-16,-1.,-3.63345717150052E-16));
#955=DIRECTION('',(-4.44089209850062E-16,4.44089209850062E-16,1.));
#956=DIRECTION('center_axis',(-2.22044604925031E-16,1.,-4.44089209850062E-16));
#957=DIRECTION('ref_axis',(4.44089209850062E-16,-4.44089209850062E-16,-1.));
#958=DIRECTION('',(5.66553889764798E-16,2.22044604925032E-16,-1.));
#959=DIRECTION('',(-1.,-8.88178419700125E-16,-5.66553889764798E-16));
#960=DIRECTION('',(-4.44089209850062E-16,4.44089209850062E-16,1.));
#961=DIRECTION('',(-1.,-8.88178419700125E-16,-5.66553889764798E-16));
#962=DIRECTION('',(-5.66553889764798E-16,-2.22044604925032E-16,1.));
#963=DIRECTION('center_axis',(-2.22044604925031E-16,1.,-4.44089209850062E-16));
#964=DIRECTION('ref_axis',(4.44089209850062E-16,-4.44089209850062E-16,-1.));
#965=DIRECTION('center_axis',(-2.22044604925031E-16,1.,-4.44089209850062E-16));
#966=DIRECTION('ref_axis',(4.44089209850062E-16,-4.44089209850062E-16,-1.));
#967=DIRECTION('center_axis',(-2.22044604925031E-16,1.,-4.44089209850062E-16));
#968=DIRECTION('ref_axis',(4.44089209850062E-16,-4.44089209850062E-16,-1.));
#969=DIRECTION('',(4.44089209850062E-16,-4.44089209850062E-16,-1.));
#970=DIRECTION('',(-1.,-2.22044604925032E-16,-4.44089209850062E-16));
#971=DIRECTION('',(-4.44089209850062E-16,4.44089209850062E-16,1.));
#972=DIRECTION('',(-1.,-2.22044604925032E-16,-4.44089209850062E-16));
#973=DIRECTION('center_axis',(-2.22044604925031E-16,1.,-4.44089209850062E-16));
#974=DIRECTION('ref_axis',(4.44089209850062E-16,-4.44089209850062E-16,-1.));
#975=DIRECTION('center_axis',(1.,2.22044604925032E-16,4.44089209850062E-16));
#976=DIRECTION('ref_axis',(4.44089209850062E-16,-4.44089209850062E-16,-1.));
#977=DIRECTION('',(2.22044604925032E-16,-1.,-3.63345717150052E-16));
#978=DIRECTION('',(4.44089209850062E-16,-4.53341068388605E-16,-1.));
#979=DIRECTION('center_axis',(5.66553889764797E-16,3.63345717150052E-16,
-1.));
#980=DIRECTION('ref_axis',(-1.,-8.88178419700125E-16,-5.66553889764798E-16));
#981=DIRECTION('',(-8.27620800175117E-16,1.,3.63345717150051E-16));
#982=DIRECTION('',(-8.27620800175117E-16,1.,3.63345717150051E-16));
#983=DIRECTION('',(1.,2.22044604925032E-16,5.66553889764797E-16));
#984=DIRECTION('center_axis',(5.66553889764798E-16,2.22044604925032E-16,
-1.));
#985=DIRECTION('ref_axis',(-1.,-8.88178419700125E-16,-5.66553889764798E-16));
#986=DIRECTION('center_axis',(5.66553889764798E-16,2.22044604925032E-16,
-1.));
#987=DIRECTION('ref_axis',(-0.800000000000003,0.599999999999995,-3.20016348856822E-16));
#988=DIRECTION('center_axis',(5.66553889764797E-16,3.63345717150052E-16,
-1.));
#989=DIRECTION('ref_axis',(-1.,-8.88178419700125E-16,-5.66553889764798E-16));
#990=DIRECTION('',(-1.,-2.22044604925032E-16,-5.66553889764797E-16));
#991=DIRECTION('',(-8.27620800175117E-16,1.,3.63345717150051E-16));
#992=DIRECTION('center_axis',(5.66553889764798E-16,2.22044604925032E-16,
-1.));
#993=DIRECTION('ref_axis',(-1.,-8.88178419700125E-16,-5.66553889764798E-16));
#994=DIRECTION('center_axis',(-5.66553889764798E-16,-2.22044604925032E-16,
1.));
#995=DIRECTION('ref_axis',(1.,8.88178419700125E-16,5.66553889764798E-16));
#996=DIRECTION('center_axis',(-5.66553889764798E-16,-2.22044604925032E-16,
1.));
#997=DIRECTION('ref_axis',(-1.,-8.88178419700125E-16,-5.66553889764798E-16));
#998=DIRECTION('center_axis',(-5.66553889764798E-16,-2.22044604925032E-16,
1.));
#999=DIRECTION('ref_axis',(1.,8.88178419700125E-16,5.66553889764798E-16));
#1000=DIRECTION('center_axis',(-5.66553889764798E-16,-2.22044604925032E-16,
1.));
#1001=DIRECTION('ref_axis',(-1.,-8.88178419700125E-16,-5.66553889764798E-16));
#1002=DIRECTION('',(-5.66553889764798E-16,-2.22044604925032E-16,1.));
#1003=DIRECTION('',(-5.66553889764798E-16,-2.22044604925032E-16,1.));
#1004=DIRECTION('center_axis',(-5.66553889764798E-16,-2.22044604925032E-16,
1.));
#1005=DIRECTION('ref_axis',(1.,8.88178419700125E-16,5.66553889764798E-16));
#1006=DIRECTION('center_axis',(-5.66553889764798E-16,-2.22044604925032E-16,
1.));
#1007=DIRECTION('ref_axis',(-1.,-8.88178419700125E-16,-5.66553889764798E-16));
#1008=DIRECTION('center_axis',(-5.66553889764798E-16,-2.22044604925032E-16,
1.));
#1009=DIRECTION('ref_axis',(1.,8.88178419700125E-16,5.66553889764798E-16));
#1010=DIRECTION('center_axis',(-5.66553889764798E-16,-2.22044604925032E-16,
1.));
#1011=DIRECTION('ref_axis',(-0.800000000000003,0.599999999999995,-3.20016348856822E-16));
#1012=DIRECTION('center_axis',(-5.66553889764798E-16,-2.22044604925032E-16,
1.));
#1013=DIRECTION('ref_axis',(-1.,-8.88178419700125E-16,-5.66553889764798E-16));
#1014=DIRECTION('',(-5.66553889764797E-16,-2.22044604925032E-16,1.));
#1015=DIRECTION('center_axis',(-5.66553889764798E-16,-2.22044604925032E-16,
1.));
#1016=DIRECTION('ref_axis',(-0.800000000000003,0.599999999999995,-3.20016348856822E-16));
#1017=DIRECTION('',(-5.66553889764798E-16,-2.22044604925032E-16,1.));
#1018=DIRECTION('center_axis',(5.66553889764797E-16,3.63345717150052E-16,
-1.));
#1019=DIRECTION('ref_axis',(-1.,-8.88178419700125E-16,-5.66553889764798E-16));
#1020=DIRECTION('',(-1.,-2.22044604925032E-16,-5.66553889764797E-16));
#1021=DIRECTION('',(8.88178419700125E-16,-1.,-2.22044604925031E-16));
#1022=DIRECTION('center_axis',(-1.,-8.27620800175117E-16,-5.66553889764798E-16));
#1023=DIRECTION('ref_axis',(-5.66553889764798E-16,-2.22044604925032E-16,
1.));
#1024=DIRECTION('center_axis',(1.,8.27620800175117E-16,5.66553889764798E-16));
#1025=DIRECTION('ref_axis',(5.66553889764798E-16,2.22044604925032E-16,-1.));
#1026=DIRECTION('center_axis',(-1.,-8.27620800175117E-16,-5.66553889764798E-16));
#1027=DIRECTION('ref_axis',(-5.66553889764798E-16,-2.22044604925032E-16,
1.));
#1028=DIRECTION('',(-5.66553889764798E-16,2.22044604925031E-16,1.));
#1029=DIRECTION('center_axis',(-2.22044604925032E-16,1.,-2.22044604925031E-16));
#1030=DIRECTION('ref_axis',(4.44089209850062E-16,-2.22044604925031E-16,
-1.));
#1031=DIRECTION('center_axis',(2.22044604925032E-16,-1.,2.22044604925031E-16));
#1032=DIRECTION('ref_axis',(4.44089209850062E-16,-2.22044604925031E-16,
-1.));
#1033=DIRECTION('center_axis',(-2.22044604925032E-16,1.,-2.22044604925031E-16));
#1034=DIRECTION('ref_axis',(4.44089209850062E-16,-2.22044604925031E-16,
-1.));
#1035=DIRECTION('',(-2.22044604925032E-16,1.,-2.22044604925031E-16));
#1036=DIRECTION('center_axis',(-2.22044604925031E-16,1.,-4.44089209850062E-16));
#1037=DIRECTION('ref_axis',(4.44089209850062E-16,-2.22044604925031E-16,
-1.));
#1038=DIRECTION('center_axis',(1.,2.22044604925032E-16,4.44089209850062E-16));
#1039=DIRECTION('ref_axis',(2.22044604925031E-16,-1.,4.44089209850062E-16));
#1040=DIRECTION('',(2.22044604925031E-16,-1.,4.44089209850062E-16));
#1041=DIRECTION('',(-4.44089209850062E-16,4.44089209850062E-16,1.));
#1042=DIRECTION('',(-2.22044604925031E-16,1.,-4.44089209850062E-16));
#1043=DIRECTION('center_axis',(-2.22044604925031E-16,1.,-4.44089209850062E-16));
#1044=DIRECTION('ref_axis',(4.44089209850062E-16,-4.44089209850062E-16,
-1.));
#1045=DIRECTION('',(1.,2.22044604925032E-16,4.44089209850062E-16));
#1046=DIRECTION('',(4.44089209850062E-16,-4.44089209850062E-16,-1.));
#1047=DIRECTION('',(-1.,-2.22044604925032E-16,-4.44089209850062E-16));
#1048=DIRECTION('center_axis',(2.22044604925031E-16,-1.,4.44089209850062E-16));
#1049=DIRECTION('ref_axis',(4.44089209850062E-16,-4.44089209850062E-16,
-1.));
#1050=DIRECTION('center_axis',(-1.,-2.22044604925032E-16,-4.44089209850062E-16));
#1051=DIRECTION('ref_axis',(-4.44089209850062E-16,4.44089209850062E-16,
1.));
#1052=DIRECTION('',(-2.22044604925031E-16,1.,-4.44089209850062E-16));
#1053=DIRECTION('',(2.22044604925031E-16,-1.,4.44089209850062E-16));
#1054=DIRECTION('center_axis',(-4.44089209850062E-16,4.44089209850062E-16,
1.));
#1055=DIRECTION('ref_axis',(1.,2.22044604925032E-16,4.44089209850062E-16));
#1056=DIRECTION('center_axis',(4.44089209850062E-16,-4.44089209850062E-16,
-1.));
#1057=DIRECTION('ref_axis',(-1.,-2.22044604925032E-16,-4.44089209850062E-16));
#1058=DIRECTION('center_axis',(-2.22044604925031E-16,1.,-4.44089209850062E-16));
#1059=DIRECTION('ref_axis',(4.44089209850062E-16,-4.44089209850062E-16,
-1.));
#1060=DIRECTION('center_axis',(2.22044604925031E-16,-1.,4.44089209850062E-16));
#1061=DIRECTION('ref_axis',(4.44089209850062E-16,-4.44089209850062E-16,
-1.));
#1062=DIRECTION('',(-2.22044604925031E-16,1.,-4.44089209850062E-16));
#1063=DIRECTION('center_axis',(-2.22044604925031E-16,1.,-4.44089209850062E-16));
#1064=DIRECTION('ref_axis',(4.44089209850062E-16,-4.44089209850062E-16,
-1.));
#1065=DIRECTION('center_axis',(2.22044604925031E-16,-1.,4.44089209850062E-16));
#1066=DIRECTION('ref_axis',(4.44089209850062E-16,-4.44089209850062E-16,
-1.));
#1067=DIRECTION('',(-2.22044604925031E-16,1.,-4.44089209850062E-16));
#1068=DIRECTION('center_axis',(-2.22044604925031E-16,1.,-4.44089209850062E-16));
#1069=DIRECTION('ref_axis',(4.44089209850062E-16,-4.44089209850062E-16,
-1.));
#1070=DIRECTION('center_axis',(2.22044604925031E-16,-1.,4.44089209850062E-16));
#1071=DIRECTION('ref_axis',(4.44089209850062E-16,-4.44089209850062E-16,
-1.));
#1072=DIRECTION('',(-2.22044604925031E-16,1.,-4.44089209850062E-16));
#1073=DIRECTION('center_axis',(-2.22044604925031E-16,1.,-4.44089209850062E-16));
#1074=DIRECTION('ref_axis',(4.44089209850062E-16,-4.44089209850062E-16,
-1.));
#1075=DIRECTION('center_axis',(2.22044604925031E-16,-1.,4.44089209850062E-16));
#1076=DIRECTION('ref_axis',(4.44089209850062E-16,-4.44089209850062E-16,
-1.));
#1077=DIRECTION('',(-2.22044604925031E-16,1.,-4.44089209850062E-16));
#1078=DIRECTION('center_axis',(-2.22044604925031E-16,1.,-4.44089209850062E-16));
#1079=DIRECTION('ref_axis',(4.44089209850062E-16,-4.44089209850062E-16,
-1.));
#1080=DIRECTION('center_axis',(2.22044604925031E-16,-1.,4.44089209850062E-16));
#1081=DIRECTION('ref_axis',(4.44089209850062E-16,-4.44089209850062E-16,
-1.));
#1082=DIRECTION('',(-2.22044604925031E-16,1.,-4.44089209850062E-16));
#1083=DIRECTION('center_axis',(-2.22044604925031E-16,1.,-4.44089209850062E-16));
#1084=DIRECTION('ref_axis',(4.44089209850062E-16,-4.44089209850062E-16,
-1.));
#1085=CARTESIAN_POINT('',(0.,0.,0.));
#1086=CARTESIAN_POINT('Origin',(71.9550600340572,-36.3429794385269,47.9595189333223));
#1087=CARTESIAN_POINT('',(71.9550600340572,-51.3429794385268,47.9595189333223));
#1088=CARTESIAN_POINT('',(64.4550599222984,-51.3429794385268,47.9595189333223));
#1089=CARTESIAN_POINT('',(40.2050585603556,-51.3429794385269,47.9595189333223));
#1090=CARTESIAN_POINT('',(64.4550599222984,-36.3429794385268,47.9595189333223));
#1091=CARTESIAN_POINT('',(64.4550599222984,-39.3429792969658,47.9595189333223));
#1092=CARTESIAN_POINT('',(66.1703937481233,-36.3429794385269,47.9595189333223));
#1093=CARTESIAN_POINT('',(71.9550600340572,-36.3429794385269,47.9595189333223));
#1094=CARTESIAN_POINT('',(70.1050591697898,-36.8499998584388,47.9595189333223));
#1095=CARTESIAN_POINT('Origin',(68.1050591697898,-36.8499998584388,47.9595189333223));
#1096=CARTESIAN_POINT('',(70.0397245914564,-36.3429794385269,47.9595189333223));
#1097=CARTESIAN_POINT('Origin',(68.1050591697898,-36.8499998584388,47.9595189333223));
#1098=CARTESIAN_POINT('',(71.9550600340572,-36.3429794385269,47.9595189333223));
#1099=CARTESIAN_POINT('',(71.9550600340572,-36.3429794385269,47.9595189333223));
#1100=CARTESIAN_POINT('',(71.9550600340572,-39.3429792969658,47.9595189333224));
#1101=CARTESIAN_POINT('',(70.1050591697899,-46.8359587354928,47.9595189333223));
#1102=CARTESIAN_POINT('Origin',(68.1050591697898,-46.8359587354928,47.9595189333223));
#1103=CARTESIAN_POINT('Origin',(68.1050591697899,-46.8359587354928,70.2999980286229));
#1104=CARTESIAN_POINT('',(70.1050591697899,-46.8359587354928,67.2999980286229));
#1105=CARTESIAN_POINT('',(70.1050591697899,-46.8359587354928,70.2999980286229));
#1106=CARTESIAN_POINT('Origin',(68.1050591697899,-46.8359587354928,67.2999980286229));
#1107=CARTESIAN_POINT('Origin',(15.9550571984127,-51.3429794385269,70.2999980286229));
#1108=CARTESIAN_POINT('',(71.9550600340572,-51.3429794385268,67.299998028623));
#1109=CARTESIAN_POINT('',(71.9550600340572,-51.3429794385269,70.299998028623));
#1110=CARTESIAN_POINT('',(64.4550599222984,-51.3429794385268,67.2999980286229));
#1111=CARTESIAN_POINT('',(66.3300599502381,-51.3429794385268,67.2999980286229));
#1112=CARTESIAN_POINT('',(64.4550599222985,-51.3429794385269,70.2999980286229));
#1113=CARTESIAN_POINT('Origin',(15.9550571984127,-51.3429794385269,70.2999980286229));
#1114=CARTESIAN_POINT('',(64.4550599222984,-51.3429794385268,41.9595189333224));
#1115=CARTESIAN_POINT('',(71.9550600340572,-51.3429794385268,41.9595189333224));
#1116=CARTESIAN_POINT('',(41.0609127599307,-51.3429794385269,41.9595189333223));
#1117=CARTESIAN_POINT('',(64.4550599222985,-51.3429794385269,38.9120779536009));
#1118=CARTESIAN_POINT('',(64.4550599222985,-51.3429794385269,70.2999980286229));
#1119=CARTESIAN_POINT('',(23.4550573101714,-51.3429794385269,38.9120779536009));
#1120=CARTESIAN_POINT('',(64.4550599222985,-51.3429794385269,38.9120779536009));
#1121=CARTESIAN_POINT('',(23.4550573101714,-51.3429794385269,67.2999980286229));
#1122=CARTESIAN_POINT('',(23.4550573101714,-51.3429794385269,70.2999980286229));
#1123=CARTESIAN_POINT('',(15.9550571984127,-51.3429794385269,67.2999980286229));
#1124=CARTESIAN_POINT('',(17.8300572263524,-51.3429794385269,67.2999980286229));
#1125=CARTESIAN_POINT('',(15.9550571984128,-51.3429794385269,40.7999980286229));
#1126=CARTESIAN_POINT('',(15.9550571984127,-51.3429794385269,70.2999980286229));
#1127=CARTESIAN_POINT('',(23.4550571984128,-51.3429794385269,33.2999980286229));
#1128=CARTESIAN_POINT('Ctrl Pts',(15.9550571984128,-51.3429794385269,40.7999980286229));
#1129=CARTESIAN_POINT('Ctrl Pts',(15.9550571984128,-51.3429794385269,39.7898454840707));
#1130=CARTESIAN_POINT('Ctrl Pts',(16.1654274751684,-51.3429794385269,38.6830712245404));
#1131=CARTESIAN_POINT('Ctrl Pts',(16.6490878761859,-51.3429794385269,37.6443890629866));
#1132=CARTESIAN_POINT('Ctrl Pts',(17.1327482772034,-51.3429794385269,36.6057069014328));
#1133=CARTESIAN_POINT('Ctrl Pts',(17.8896988024827,-51.3429794385269,35.6351168378555));
#1134=CARTESIAN_POINT('Ctrl Pts',(18.8138525923039,-51.3429794385269,34.9061874782991));
#1135=CARTESIAN_POINT('Ctrl Pts',(19.7380063821251,-51.3429794385269,34.1772581187428));
#1136=CARTESIAN_POINT('Ctrl Pts',(20.8293634364881,-51.3429794385269,33.6899894632074));
#1137=CARTESIAN_POINT('Ctrl Pts',(21.8931219934834,-51.3429794385269,33.4625189749993));
#1138=CARTESIAN_POINT('Ctrl Pts',(22.425001271981,-51.3429794385269,33.3487837308952));
#1139=CARTESIAN_POINT('Ctrl Pts',(22.9499809261367,-51.3429794385269,33.2999980286229));
#1140=CARTESIAN_POINT('Ctrl Pts',(23.4550571984128,-51.3429794385269,33.2999980286229));
#1141=CARTESIAN_POINT('',(64.4550600340572,-51.3429794385268,33.2999980286229));
#1142=CARTESIAN_POINT('',(15.9550571984128,-51.3429794385269,33.2999980286229));
#1143=CARTESIAN_POINT('',(71.9550600340572,-51.3429794385269,40.7999980286229));
#1144=CARTESIAN_POINT('Ctrl Pts',(64.4550600340572,-51.3429794385268,33.299998028623));
#1145=CARTESIAN_POINT('Ctrl Pts',(65.4652125786094,-51.3429794385268,33.299998028623));
#1146=CARTESIAN_POINT('Ctrl Pts',(66.572071720885,-51.3429794385268,33.5104103474954));
#1147=CARTESIAN_POINT('Ctrl Pts',(67.6107870103704,-51.3429794385268,33.9940946232577));
#1148=CARTESIAN_POINT('Ctrl Pts',(68.6495022998558,-51.3429794385268,34.4777788990201));
#1149=CARTESIAN_POINT('Ctrl Pts',(69.6200737365509,-51.3429794385268,35.2347351316722));
#1150=CARTESIAN_POINT('Ctrl Pts',(70.3489917056654,-51.3429794385268,36.1588841710769));
#1151=CARTESIAN_POINT('Ctrl Pts',(71.0779096747798,-51.3429794385268,37.0830332104817));
#1152=CARTESIAN_POINT('Ctrl Pts',(71.5651741763136,-51.3429794385268,38.174375056639));
#1153=CARTESIAN_POINT('Ctrl Pts',(71.7925972799256,-51.3429794385268,39.2381004616378));
#1154=CARTESIAN_POINT('Ctrl Pts',(71.9063088317316,-51.3429794385268,39.7699631641371));
#1155=CARTESIAN_POINT('Ctrl Pts',(71.9550600340572,-51.3429794385268,40.2949217563468));
#1156=CARTESIAN_POINT('Ctrl Pts',(71.9550600340572,-51.3429794385268,40.799998028623));
#1157=CARTESIAN_POINT('',(71.9550600340572,-51.3429794385269,70.299998028623));
#1158=CARTESIAN_POINT('Origin',(64.4550599222984,-32.3429791554048,67.299998028623));
#1159=CARTESIAN_POINT('',(64.4550599222984,-30.3429791554048,67.299998028623));
#1160=CARTESIAN_POINT('',(64.4550599222984,-32.3429791554048,67.299998028623));
#1161=CARTESIAN_POINT('',(64.4550599222984,-30.3429791554048,38.9120779536009));
#1162=CARTESIAN_POINT('',(64.4550599222984,-30.3429791554047,63.0997464826173));
#1163=CARTESIAN_POINT('',(64.4550599222984,-32.3429791554048,38.9120779536009));
#1164=CARTESIAN_POINT('',(64.4550599222984,-36.3429794385269,41.9595189333223));
#1165=CARTESIAN_POINT('',(64.4550599222984,-39.3429792969658,41.9595189333223));
#1166=CARTESIAN_POINT('',(64.4550599222985,-36.3429794385269,54.6297584809727));
#1167=CARTESIAN_POINT('Origin',(68.1050591697899,-46.8359587354928,70.2999980286229));
#1168=CARTESIAN_POINT('',(70.1050591697899,-46.8359587354928,39.2999980286229));
#1169=CARTESIAN_POINT('Origin',(68.1050591697899,-46.8359587354928,39.2999980286229));
#1170=CARTESIAN_POINT('',(70.1050591697899,-46.8359587354928,41.9595189333224));
#1171=CARTESIAN_POINT('',(70.1050591697899,-46.8359587354928,70.2999980286229));
#1172=CARTESIAN_POINT('Origin',(68.1050591697898,-46.8359587354928,41.9595189333224));
#1173=CARTESIAN_POINT('Ctrl Pts',(64.4550600340572,-51.3429794385268,33.299998028623));
#1174=CARTESIAN_POINT('Ctrl Pts',(64.4550600340572,-41.3429793441528,33.299998028623));
#1175=CARTESIAN_POINT('Ctrl Pts',(64.4550600340571,-31.3429792497788,33.299998028623));
#1176=CARTESIAN_POINT('Ctrl Pts',(64.4550600340571,-21.3429791554048,33.299998028623));
#1177=CARTESIAN_POINT('Ctrl Pts',(65.4652125786094,-51.3429794385268,33.299998028623));
#1178=CARTESIAN_POINT('Ctrl Pts',(65.4652125786094,-41.3429793441528,33.299998028623));
#1179=CARTESIAN_POINT('Ctrl Pts',(65.4652125786094,-31.3429792497788,33.299998028623));
#1180=CARTESIAN_POINT('Ctrl Pts',(65.4652125786094,-21.3429791554048,33.299998028623));
#1181=CARTESIAN_POINT('Ctrl Pts',(67.6789308631606,-51.3429794385268,33.7208226663679));
#1182=CARTESIAN_POINT('Ctrl Pts',(67.6789308631606,-41.3429793441528,33.7208226663679));
#1183=CARTESIAN_POINT('Ctrl Pts',(67.6789308631606,-31.3429792497788,33.7208226663679));
#1184=CARTESIAN_POINT('Ctrl Pts',(67.6789308631606,-21.3429791554048,33.7208226663679));
#1185=CARTESIAN_POINT('Ctrl Pts',(70.5906451732461,-51.3429794385268,35.9916913643243));
#1186=CARTESIAN_POINT('Ctrl Pts',(70.5906451732461,-41.3429793441528,35.9916913643243));
#1187=CARTESIAN_POINT('Ctrl Pts',(70.590645173246,-31.3429792497788,35.9916913643243));
#1188=CARTESIAN_POINT('Ctrl Pts',(70.590645173246,-21.3429791554048,35.9916913643243));
#1189=CARTESIAN_POINT('Ctrl Pts',(71.8088064270805,-51.3429794385268,38.7200459797177));
#1190=CARTESIAN_POINT('Ctrl Pts',(71.8088064270805,-41.3429793441528,38.7200459797177));
#1191=CARTESIAN_POINT('Ctrl Pts',(71.8088064270805,-31.3429792497788,38.7200459797177));
#1192=CARTESIAN_POINT('Ctrl Pts',(71.8088064270805,-21.3429791554048,38.7200459797177));
#1193=CARTESIAN_POINT('Ctrl Pts',(71.9550600340572,-51.3429794385268,40.2949217563468));
#1194=CARTESIAN_POINT('Ctrl Pts',(71.9550600340572,-41.3429793441528,40.2949217563468));
#1195=CARTESIAN_POINT('Ctrl Pts',(71.9550600340572,-31.3429792497788,40.2949217563468));
#1196=CARTESIAN_POINT('Ctrl Pts',(71.9550600340571,-21.3429791554048,40.2949217563468));
#1197=CARTESIAN_POINT('Ctrl Pts',(71.9550600340572,-51.3429794385268,40.799998028623));
#1198=CARTESIAN_POINT('Ctrl Pts',(71.9550600340572,-41.3429793441528,40.799998028623));
#1199=CARTESIAN_POINT('Ctrl Pts',(71.9550600340572,-31.3429792497788,40.799998028623));
#1200=CARTESIAN_POINT('Ctrl Pts',(71.9550600340571,-21.3429791554048,40.799998028623));
#1201=CARTESIAN_POINT('',(71.9550600340571,-21.3429791554048,40.799998028623));
#1202=CARTESIAN_POINT('',(64.4550600340572,-21.3429791554048,33.299998028623));
#1203=CARTESIAN_POINT('Ctrl Pts',(71.9550600340571,-21.3429791554048,40.799998028623));
#1204=CARTESIAN_POINT('Ctrl Pts',(71.9550600340571,-21.3429791554048,40.2949217563468));
#1205=CARTESIAN_POINT('Ctrl Pts',(71.9063088317316,-21.3429791554048,39.7699631641371));
#1206=CARTESIAN_POINT('Ctrl Pts',(71.7925972799256,-21.3429791554048,39.2381004616378));
#1207=CARTESIAN_POINT('Ctrl Pts',(71.5651741763136,-21.3429791554048,38.174375056639));
#1208=CARTESIAN_POINT('Ctrl Pts',(71.0779096747798,-21.3429791554048,37.0830332104817));
#1209=CARTESIAN_POINT('Ctrl Pts',(70.3489917056653,-21.3429791554048,36.1588841710769));
#1210=CARTESIAN_POINT('Ctrl Pts',(69.6200737365509,-21.3429791554048,35.2347351316722));
#1211=CARTESIAN_POINT('Ctrl Pts',(68.6495022998558,-21.3429791554048,34.4777788990201));
#1212=CARTESIAN_POINT('Ctrl Pts',(67.6107870103704,-21.3429791554048,33.9940946232578));
#1213=CARTESIAN_POINT('Ctrl Pts',(66.572071720885,-21.3429791554048,33.5104103474954));
#1214=CARTESIAN_POINT('Ctrl Pts',(65.4652125786094,-21.3429791554048,33.299998028623));
#1215=CARTESIAN_POINT('Ctrl Pts',(64.4550600340571,-21.3429791554048,33.299998028623));
#1216=CARTESIAN_POINT('Ctrl Pts',(71.9550600340572,-51.3429794385268,40.799998028623));
#1217=CARTESIAN_POINT('Ctrl Pts',(71.9550600340572,-41.3429793441528,40.799998028623));
#1218=CARTESIAN_POINT('Ctrl Pts',(71.9550600340572,-31.3429792497788,40.799998028623));
#1219=CARTESIAN_POINT('Ctrl Pts',(71.9550600340571,-21.3429791554048,40.799998028623));
#1220=CARTESIAN_POINT('Ctrl Pts',(64.4550600340571,-21.3429791554048,33.299998028623));
#1221=CARTESIAN_POINT('Ctrl Pts',(64.4550600340571,-31.3429792497788,33.299998028623));
#1222=CARTESIAN_POINT('Ctrl Pts',(64.4550600340572,-41.3429793441528,33.299998028623));
#1223=CARTESIAN_POINT('Ctrl Pts',(64.4550600340572,-51.3429794385268,33.299998028623));
#1224=CARTESIAN_POINT('Origin',(15.9550571984128,-32.3429791554048,33.2999980286229));
#1225=CARTESIAN_POINT('',(23.4550571984127,-21.3429791554048,33.2999980286229));
#1226=CARTESIAN_POINT('Ctrl Pts',(23.4550571984128,-51.3429794385269,33.2999980286229));
#1227=CARTESIAN_POINT('Ctrl Pts',(23.4550571984128,-41.3429793441528,33.2999980286229));
#1228=CARTESIAN_POINT('Ctrl Pts',(23.4550571984128,-31.3429792497788,33.2999980286229));
#1229=CARTESIAN_POINT('Ctrl Pts',(23.4550571984128,-21.3429791554047,33.2999980286229));
#1230=CARTESIAN_POINT('',(71.9550600340572,-21.3429791554048,33.299998028623));
#1231=CARTESIAN_POINT('Ctrl Pts',(15.9550571984128,-51.3429794385269,40.7999980286229));
#1232=CARTESIAN_POINT('Ctrl Pts',(15.9550571984128,-41.3429793441528,40.7999980286229));
#1233=CARTESIAN_POINT('Ctrl Pts',(15.9550571984127,-31.3429792497788,40.7999980286229));
#1234=CARTESIAN_POINT('Ctrl Pts',(15.9550571984127,-21.3429791554048,40.7999980286229));
#1235=CARTESIAN_POINT('Ctrl Pts',(15.9550571984128,-51.3429794385269,39.7898454840707));
#1236=CARTESIAN_POINT('Ctrl Pts',(15.9550571984128,-41.3429793441528,39.7898454840707));
#1237=CARTESIAN_POINT('Ctrl Pts',(15.9550571984127,-31.3429792497788,39.7898454840707));
#1238=CARTESIAN_POINT('Ctrl Pts',(15.9550571984127,-21.3429791554048,39.7898454840707));
#1239=CARTESIAN_POINT('Ctrl Pts',(16.375797751924,-51.3429794385269,37.5762969650102));
#1240=CARTESIAN_POINT('Ctrl Pts',(16.375797751924,-41.3429793441529,37.5762969650102));
#1241=CARTESIAN_POINT('Ctrl Pts',(16.375797751924,-31.3429792497788,37.5762969650102));
#1242=CARTESIAN_POINT('Ctrl Pts',(16.375797751924,-21.3429791554048,37.5762969650102));
#1243=CARTESIAN_POINT('Ctrl Pts',(18.6466493277621,-51.3429794385269,34.6645267742781));
#1244=CARTESIAN_POINT('Ctrl Pts',(18.6466493277621,-41.3429793441528,34.6645267742781));
#1245=CARTESIAN_POINT('Ctrl Pts',(18.6466493277621,-31.3429792497788,34.6645267742781));
#1246=CARTESIAN_POINT('Ctrl Pts',(18.6466493277621,-21.3429791554048,34.6645267742781));
#1247=CARTESIAN_POINT('Ctrl Pts',(21.3750419636697,-51.3429794385269,33.4463551354397));
#1248=CARTESIAN_POINT('Ctrl Pts',(21.3750419636697,-41.3429793441529,33.4463551354397));
#1249=CARTESIAN_POINT('Ctrl Pts',(21.3750419636696,-31.3429792497788,33.4463551354397));
#1250=CARTESIAN_POINT('Ctrl Pts',(21.3750419636696,-21.3429791554048,33.4463551354398));
#1251=CARTESIAN_POINT('Ctrl Pts',(22.9499809261367,-51.3429794385269,33.2999980286229));
#1252=CARTESIAN_POINT('Ctrl Pts',(22.9499809261367,-41.3429793441528,33.2999980286229));
#1253=CARTESIAN_POINT('Ctrl Pts',(22.9499809261367,-31.3429792497788,33.2999980286229));
#1254=CARTESIAN_POINT('Ctrl Pts',(22.9499809261366,-21.3429791554047,33.2999980286229));
#1255=CARTESIAN_POINT('Ctrl Pts',(23.4550571984128,-51.3429794385269,33.2999980286229));
#1256=CARTESIAN_POINT('Ctrl Pts',(23.4550571984128,-41.3429793441528,33.2999980286229));
#1257=CARTESIAN_POINT('Ctrl Pts',(23.4550571984128,-31.3429792497788,33.2999980286229));
#1258=CARTESIAN_POINT('Ctrl Pts',(23.4550571984128,-21.3429791554047,33.2999980286229));
#1259=CARTESIAN_POINT('',(15.9550571984127,-21.3429791554048,40.7999980286229));
#1260=CARTESIAN_POINT('Ctrl Pts',(23.4550571984128,-21.3429791554048,33.2999980286229));
#1261=CARTESIAN_POINT('Ctrl Pts',(22.9499809261366,-21.3429791554048,33.2999980286229));
#1262=CARTESIAN_POINT('Ctrl Pts',(22.425001271981,-21.3429791554048,33.3487837308952));
#1263=CARTESIAN_POINT('Ctrl Pts',(21.8931219934834,-21.3429791554048,33.4625189749993));
#1264=CARTESIAN_POINT('Ctrl Pts',(20.8293634364881,-21.3429791554048,33.6899894632074));
#1265=CARTESIAN_POINT('Ctrl Pts',(19.7380063821251,-21.3429791554048,34.1772581187428));
#1266=CARTESIAN_POINT('Ctrl Pts',(18.8138525923039,-21.3429791554048,34.9061874782991));
#1267=CARTESIAN_POINT('Ctrl Pts',(17.8896988024827,-21.3429791554048,35.6351168378555));
#1268=CARTESIAN_POINT('Ctrl Pts',(17.1327482772034,-21.3429791554048,36.6057069014328));
#1269=CARTESIAN_POINT('Ctrl Pts',(16.6490878761859,-21.3429791554048,37.6443890629866));
#1270=CARTESIAN_POINT('Ctrl Pts',(16.1654274751684,-21.3429791554048,38.6830712245404));
#1271=CARTESIAN_POINT('Ctrl Pts',(15.9550571984127,-21.3429791554048,39.7898454840707));
#1272=CARTESIAN_POINT('Ctrl Pts',(15.9550571984127,-21.3429791554048,40.7999980286229));
#1273=CARTESIAN_POINT('Ctrl Pts',(15.9550571984127,-21.3429791554048,40.7999980286229));
#1274=CARTESIAN_POINT('Ctrl Pts',(15.9550571984127,-31.3429792497788,40.7999980286229));
#1275=CARTESIAN_POINT('Ctrl Pts',(15.9550571984128,-41.3429793441528,40.7999980286229));
#1276=CARTESIAN_POINT('Ctrl Pts',(15.9550571984128,-51.3429794385269,40.7999980286229));
#1277=CARTESIAN_POINT('Origin',(71.9550600340572,-36.3429794385269,41.9595189333224));
#1278=CARTESIAN_POINT('',(70.0397245914564,-36.3429794385269,41.9595189333223));
#1279=CARTESIAN_POINT('',(70.0397245914564,-36.3429794385269,70.299998028623));
#1280=CARTESIAN_POINT('',(71.9550600340572,-36.3429794385269,41.9595189333224));
#1281=CARTESIAN_POINT('',(71.9550600340572,-36.3429794385269,41.9595189333224));
#1282=CARTESIAN_POINT('',(71.9550600340572,-36.3429794385269,37.6297584809726));
#1283=CARTESIAN_POINT('Origin',(71.9550600340572,-36.3429794385269,41.9595189333224));
#1284=CARTESIAN_POINT('',(66.1703937481233,-36.3429794385269,41.9595189333223));
#1285=CARTESIAN_POINT('',(66.1703937481233,-36.3429794385269,70.299998028623));
#1286=CARTESIAN_POINT('',(71.9550600340572,-36.3429794385269,41.9595189333224));
#1287=CARTESIAN_POINT('Origin',(71.9550600340572,-46.3429794385269,41.9595189333224));
#1288=CARTESIAN_POINT('',(71.9550600340572,-39.3429792969658,41.9595189333223));
#1289=CARTESIAN_POINT('',(70.1050591697898,-36.8499998584388,41.9595189333224));
#1290=CARTESIAN_POINT('Origin',(68.1050591697898,-36.8499998584388,41.9595189333224));
#1291=CARTESIAN_POINT('Origin',(68.1050591697898,-36.8499998584388,41.9595189333224));
#1292=CARTESIAN_POINT('Origin',(39.6193538302585,-25.3429791554048,67.3492424049175));
#1293=CARTESIAN_POINT('',(64.6198487668701,-30.3429791554048,67.3492424049176));
#1294=CARTESIAN_POINT('',(64.6198487668701,-21.3429791554048,67.3492424049176));
#1295=CARTESIAN_POINT('',(64.6198487668701,-25.3429791554048,67.3492424049176));
#1296=CARTESIAN_POINT('',(15.9553538302585,-21.3429791554048,67.3492424049175));
#1297=CARTESIAN_POINT('',(38.6193538302585,-21.3429791554048,67.3492424049175));
#1298=CARTESIAN_POINT('',(15.9553538302585,-30.3429791554048,67.3492424049175));
#1299=CARTESIAN_POINT('',(15.9553538302585,-25.3429791554048,67.3492424049175));
#1300=CARTESIAN_POINT('',(41.0942275644114,-30.3429791554048,67.3492424049175));
#1301=CARTESIAN_POINT('Origin',(64.6198487668701,-25.3429791554047,59.3492424049176));
#1302=CARTESIAN_POINT('',(64.6198487668701,-30.3429791554048,67.2999980286229));
#1303=CARTESIAN_POINT('',(64.6198487668701,-30.3429791554047,59.1243686707647));
#1304=CARTESIAN_POINT('',(64.6198487668701,-21.3429791554048,67.299998028623));
#1305=CARTESIAN_POINT('',(64.6198487668701,-28.8429791554048,67.2999980286229));
#1306=CARTESIAN_POINT('',(64.6198487668701,-21.3429791554048,60.3492424049176));
#1307=CARTESIAN_POINT('Origin',(37.6193538302585,-21.3429791554048,61.3492424049176));
#1308=CARTESIAN_POINT('',(15.9550571984127,-21.3429791554048,67.2999980286229));
#1309=CARTESIAN_POINT('',(15.9550571984127,-21.3429791554048,70.2999980286229));
#1310=CARTESIAN_POINT('',(15.9553538302585,-21.3429791554048,67.2999980286229));
#1311=CARTESIAN_POINT('',(21.5800572822318,-21.3429791554048,67.2999980286229));
#1312=CARTESIAN_POINT('',(15.9553538302585,-21.3429791554048,63.3492424049176));
#1313=CARTESIAN_POINT('',(71.9550600340571,-21.3429791554048,67.299998028623));
#1314=CARTESIAN_POINT('',(70.0800600061174,-21.3429791554048,67.299998028623));
#1315=CARTESIAN_POINT('',(71.9550600340571,-21.3429791554048,70.299998028623));
#1316=CARTESIAN_POINT('',(37.6193538302585,-21.3429791554048,52.9497474683059));
#1317=CARTESIAN_POINT('Origin',(37.6193538302585,-21.3429791554048,51.4497474683059));
#1318=CARTESIAN_POINT('',(37.6193538302585,-21.3429791554048,62.8492424049175));
#1319=CARTESIAN_POINT('Origin',(37.6193538302585,-21.3429791554048,61.3492424049176));
#1320=CARTESIAN_POINT('',(47.5188487668701,-21.3429791554047,52.9497474683059));
#1321=CARTESIAN_POINT('Origin',(47.5188487668701,-21.3429791554047,51.4497474683059));
#1322=CARTESIAN_POINT('',(45.5188487668701,-21.3429791554048,59.3492424049175));
#1323=CARTESIAN_POINT('',(45.5188487668701,-21.3429791554047,53.4497474683059));
#1324=CARTESIAN_POINT('',(45.5188487668701,-21.3429791554048,59.3492424049175));
#1325=CARTESIAN_POINT('',(39.6193538302585,-21.3429791554048,59.3492424049176));
#1326=CARTESIAN_POINT('',(45.5188487668701,-21.3429791554048,59.3492424049175));
#1327=CARTESIAN_POINT('',(39.6193538302585,-21.3429791554048,53.4497474683059));
#1328=CARTESIAN_POINT('',(39.6193538302585,-21.3429791554048,51.4497474683059));
#1329=CARTESIAN_POINT('',(45.5188487668701,-21.3429791554047,53.4497474683059));
#1330=CARTESIAN_POINT('',(47.5188487668701,-21.3429791554048,62.8492424049175));
#1331=CARTESIAN_POINT('Origin',(47.5188487668701,-21.3429791554047,61.3492424049176));
#1332=CARTESIAN_POINT('Origin',(15.9553538302585,-25.3429791554048,63.3492424049176));
#1333=CARTESIAN_POINT('',(15.9553538302585,-30.3429791554048,67.2999980286229));
#1334=CARTESIAN_POINT('',(15.9553538302585,-28.8429791554048,67.2999980286229));
#1335=CARTESIAN_POINT('',(15.9553538302585,-30.3429791554048,39.4497474683059));
#1336=CARTESIAN_POINT('Origin',(23.4550573101714,-32.3429791554048,67.2999980286229));
#1337=CARTESIAN_POINT('',(15.9550571984127,-32.3429791554048,67.2999980286229));
#1338=CARTESIAN_POINT('',(23.4550573101714,-30.3429791554048,67.2999980286229));
#1339=CARTESIAN_POINT('',(23.4550573101714,-32.3429791554048,67.2999980286229));
#1340=CARTESIAN_POINT('',(22.0372055702149,-30.3429791554048,67.2999980286229));
#1341=CARTESIAN_POINT('',(21.8050580626801,-46.8359587354929,67.2999980286229));
#1342=CARTESIAN_POINT('Origin',(19.8050580626801,-46.8359587354928,67.2999980286229));
#1343=CARTESIAN_POINT('',(21.4050580626801,-38.0499998584389,67.2999980286229));
#1344=CARTESIAN_POINT('Origin',(19.8050580626801,-36.8499998584388,67.2999980286229));
#1345=CARTESIAN_POINT('Origin',(71.9550600340571,-32.3429791554048,67.2999980286229));
#1346=CARTESIAN_POINT('',(57.2620806663107,-30.3429791554048,67.2999980286229));
#1347=CARTESIAN_POINT('',(71.9550600340571,-32.3429791554048,67.2999980286229));
#1348=CARTESIAN_POINT('',(70.1050591697899,-36.8499998584388,67.299998028623));
#1349=CARTESIAN_POINT('Origin',(68.1050591697899,-36.8499998584388,67.299998028623));
#1350=CARTESIAN_POINT('Origin',(68.1050591697899,-36.8499998584388,39.2999980286229));
#1351=CARTESIAN_POINT('',(70.1050591697899,-36.8499998584388,39.2999980286229));
#1352=CARTESIAN_POINT('Origin',(68.1050591697899,-36.8499998584388,39.2999980286229));
#1353=CARTESIAN_POINT('Origin',(68.1050591697899,-46.8359587354928,39.2999980286229));
#1354=CARTESIAN_POINT('Origin',(68.1050591697899,-36.8499998584388,70.299998028623));
#1355=CARTESIAN_POINT('',(70.1050591697899,-36.8499998584388,70.299998028623));
#1356=CARTESIAN_POINT('',(70.1050591697899,-36.8499998584388,70.299998028623));
#1357=CARTESIAN_POINT('Origin',(19.8050580626801,-46.8359587354928,39.2999980286229));
#1358=CARTESIAN_POINT('',(21.8050580626801,-46.8359587354928,39.2999980286229));
#1359=CARTESIAN_POINT('Origin',(19.8050580626801,-46.8359587354928,39.2999980286229));
#1360=CARTESIAN_POINT('Origin',(19.8050580626801,-36.8499998584389,39.2999980286229));
#1361=CARTESIAN_POINT('',(21.4050580626801,-38.0499998584389,39.2999980286229));
#1362=CARTESIAN_POINT('Origin',(19.8050580626801,-36.8499998584389,39.2999980286229));
#1363=CARTESIAN_POINT('Origin',(19.8050580626801,-46.8359587354929,70.2999980286229));
#1364=CARTESIAN_POINT('',(21.8050580626801,-46.8359587354929,70.2999980286229));
#1365=CARTESIAN_POINT('Origin',(19.8050580626801,-36.8499998584389,70.2999980286229));
#1366=CARTESIAN_POINT('',(21.4050580626801,-38.0499998584389,70.2999980286229));
#1367=CARTESIAN_POINT('Origin',(64.4550599222984,-32.3429791554048,38.9120779536009));
#1368=CARTESIAN_POINT('',(23.4550573101715,-30.3429791554048,38.9120779536009));
#1369=CARTESIAN_POINT('',(53.5120806104314,-30.3429791554047,38.9120779536009));
#1370=CARTESIAN_POINT('',(23.4550573101715,-36.5929792187347,38.9120779536009));
#1371=CARTESIAN_POINT('Origin',(71.9550600340572,-32.3429791554048,33.2999980286229));
#1372=CARTESIAN_POINT('Origin',(15.9550571984127,-32.3429791554048,67.2999980286229));
#1373=CARTESIAN_POINT('Origin',(23.4550573101715,-32.3429791554048,38.9120779536009));
#1374=CARTESIAN_POINT('',(23.4550573101715,-30.3429791554048,48.9057864451063));
#1375=CARTESIAN_POINT('Origin',(42.5691012985643,-30.3429791554048,58.8994949366117));
#1376=CARTESIAN_POINT('',(42.5691012985643,-30.3429791554048,66.3994949366117));
#1377=CARTESIAN_POINT('Origin',(42.5691012985643,-30.3429791554048,56.3994949366117));
#1378=CARTESIAN_POINT('Origin',(42.5691012985643,-25.3429791554048,56.3994949366117));
#1379=CARTESIAN_POINT('',(42.5691012985643,-25.3429791554048,66.3994949366117));
#1380=CARTESIAN_POINT('',(42.5691012985643,-25.3429791554048,66.3994949366117));
#1381=CARTESIAN_POINT('Origin',(42.5691012985643,-25.3429791554048,56.3994949366117));
#1382=CARTESIAN_POINT('Origin',(45.5188487668701,-21.3429791554048,59.3492424049175));
#1383=CARTESIAN_POINT('',(45.5188487668701,-23.3429791554048,53.4497474683059));
#1384=CARTESIAN_POINT('',(45.5188487668701,-23.3429791554048,53.4497474683059));
#1385=CARTESIAN_POINT('',(45.5188487668701,-23.3429791554047,59.3492424049176));
#1386=CARTESIAN_POINT('',(45.5188487668701,-23.3429791554048,57.8743686707647));
#1387=CARTESIAN_POINT('',(45.5188487668701,-23.3429791554047,59.3492424049176));
#1388=CARTESIAN_POINT('Origin',(42.5691012985643,-23.3429791554048,56.3994949366117));
#1389=CARTESIAN_POINT('',(39.6193538302585,-23.3429791554048,53.4497474683059));
#1390=CARTESIAN_POINT('',(44.0439750327172,-23.3429791554048,53.4497474683059));
#1391=CARTESIAN_POINT('',(39.6193538302585,-23.3429791554048,59.3492424049175));
#1392=CARTESIAN_POINT('',(39.6193538302585,-23.3429791554048,57.8743686707646));
#1393=CARTESIAN_POINT('',(44.0439750327172,-23.3429791554047,59.3492424049175));
#1394=CARTESIAN_POINT('',(42.5691012985643,-23.3429791554048,57.8994949366117));
#1395=CARTESIAN_POINT('Origin',(42.5691012985643,-23.3429791554048,56.3994949366117));
#1396=CARTESIAN_POINT('Origin',(39.6193538302585,-25.3429791554048,59.3492424049176));
#1397=CARTESIAN_POINT('',(39.6193538302585,-24.3429791554048,59.3492424049175));
#1398=CARTESIAN_POINT('',(39.6193538302585,-23.3429791554048,53.4497474683059));
#1399=CARTESIAN_POINT('Origin',(45.5188487668701,-25.3429791554047,59.3492424049176));
#1400=CARTESIAN_POINT('Origin',(49.5188487668701,-25.3429791554047,53.4497474683059));
#1401=CARTESIAN_POINT('Origin',(37.6193538302585,-18.3429791554048,51.4497474683059));
#1402=CARTESIAN_POINT('',(37.6193538302585,-25.3429791554048,52.9497474683059));
#1403=CARTESIAN_POINT('Origin',(37.6193538302585,-25.3429791554048,51.4497474683059));
#1404=CARTESIAN_POINT('',(37.6193538302585,-18.3429791554048,52.9497474683059));
#1405=CARTESIAN_POINT('Origin',(37.6193538302585,-18.3429791554048,61.3492424049176));
#1406=CARTESIAN_POINT('',(37.6193538302585,-25.3429791554048,62.8492424049175));
#1407=CARTESIAN_POINT('Origin',(37.6193538302585,-25.3429791554048,61.3492424049176));
#1408=CARTESIAN_POINT('',(37.6193538302585,-18.3429791554048,62.8492424049176));
#1409=CARTESIAN_POINT('Origin',(42.5691012985643,-18.3429791554048,56.3994949366117));
#1410=CARTESIAN_POINT('',(42.5691012985643,-25.3429791554048,57.8994949366117));
#1411=CARTESIAN_POINT('Origin',(42.5691012985643,-25.3429791554048,56.3994949366117));
#1412=CARTESIAN_POINT('',(42.5691012985643,-18.3429791554048,57.8994949366117));
#1413=CARTESIAN_POINT('Origin',(47.5188487668701,-18.3429791554047,51.4497474683059));
#1414=CARTESIAN_POINT('',(47.5188487668701,-25.3429791554047,52.9497474683059));
#1415=CARTESIAN_POINT('Origin',(47.5188487668701,-25.3429791554047,51.4497474683059));
#1416=CARTESIAN_POINT('',(47.5188487668701,-18.3429791554047,52.9497474683059));
#1417=CARTESIAN_POINT('Origin',(47.5188487668701,-18.3429791554047,61.3492424049176));
#1418=CARTESIAN_POINT('',(47.5188487668701,-25.3429791554047,62.8492424049175));
#1419=CARTESIAN_POINT('Origin',(47.5188487668701,-25.3429791554047,61.3492424049176));
#1420=CARTESIAN_POINT('',(47.5188487668701,-18.3429791554047,62.8492424049176));
#1421=CARTESIAN_POINT('Origin',(42.5691012985643,-25.3429791554048,56.3994949366117));
#1422=UNCERTAINTY_MEASURE_WITH_UNIT(LENGTH_MEASURE(0.01),#1426,
'DISTANCE_ACCURACY_VALUE',
'Maximum model space distance between geometric entities at asserted c
onnectivities');
#1423=UNCERTAINTY_MEASURE_WITH_UNIT(LENGTH_MEASURE(0.01),#1426,
'DISTANCE_ACCURACY_VALUE',
'Maximum model space distance between geometric entities at asserted c
onnectivities');
#1424=(
GEOMETRIC_REPRESENTATION_CONTEXT(3)
GLOBAL_UNCERTAINTY_ASSIGNED_CONTEXT((#1422))
GLOBAL_UNIT_ASSIGNED_CONTEXT((#1426,#1428,#1429))
REPRESENTATION_CONTEXT('','3D')
);
#1425=(
GEOMETRIC_REPRESENTATION_CONTEXT(3)
GLOBAL_UNCERTAINTY_ASSIGNED_CONTEXT((#1423))
GLOBAL_UNIT_ASSIGNED_CONTEXT((#1426,#1428,#1429))
REPRESENTATION_CONTEXT('','3D')
);
#1426=(
LENGTH_UNIT()
NAMED_UNIT(*)
SI_UNIT(.MILLI.,.METRE.)
);
#1427=(
LENGTH_UNIT()
NAMED_UNIT(*)
SI_UNIT($,.METRE.)
);
#1428=(
NAMED_UNIT(*)
PLANE_ANGLE_UNIT()
SI_UNIT($,.RADIAN.)
);
#1429=(
NAMED_UNIT(*)
SI_UNIT($,.STERADIAN.)
SOLID_ANGLE_UNIT()
);
#1430=SHAPE_DEFINITION_REPRESENTATION(#1431,#1432);
#1431=PRODUCT_DEFINITION_SHAPE('',$,#1434);
#1432=SHAPE_REPRESENTATION('',(#810),#1424);
#1433=PRODUCT_DEFINITION_CONTEXT('part definition',#1438,'design');
#1434=PRODUCT_DEFINITION('2026-08-03-14-40-19-866','robot',#1435,#1433);
#1435=PRODUCT_DEFINITION_FORMATION('',$,#1440);
#1436=PRODUCT_RELATED_PRODUCT_CATEGORY('robot','robot',(#1440));
#1437=APPLICATION_PROTOCOL_DEFINITION('international standard',
'automotive_design',2009,#1438);
#1438=APPLICATION_CONTEXT(
'Core Data for Automotive Mechanical Design Process');
#1439=PRODUCT_CONTEXT('part definition',#1438,'mechanical');
#1440=PRODUCT('2026-08-03-14-40-19-866','robot',
'Spur Gear; Module: 1.0; Num Teeth: 16; Pressure Angle: 20.0; Backlash
: 0.00 mm',(#1439));
#1441=PRESENTATION_STYLE_ASSIGNMENT((#1467));
#1442=PRESENTATION_STYLE_ASSIGNMENT((#1468));
#1443=PRESENTATION_STYLE_ASSIGNMENT((#1469));
#1444=PRESENTATION_STYLE_ASSIGNMENT((#1470));
#1445=PRESENTATION_STYLE_ASSIGNMENT((#1471));
#1446=PRESENTATION_STYLE_ASSIGNMENT((#1472));
#1447=PRESENTATION_STYLE_ASSIGNMENT((#1473));
#1448=PRESENTATION_STYLE_ASSIGNMENT((#1474));
#1449=PRESENTATION_STYLE_ASSIGNMENT((#1475));
#1450=PRESENTATION_STYLE_ASSIGNMENT((#1476));
#1451=PRESENTATION_STYLE_ASSIGNMENT((#1477));
#1452=PRESENTATION_STYLE_ASSIGNMENT((#1478));
#1453=PRESENTATION_STYLE_ASSIGNMENT((#1479));
#1454=PRESENTATION_STYLE_ASSIGNMENT((#1480));
#1455=PRESENTATION_STYLE_ASSIGNMENT((#1481));
#1456=PRESENTATION_STYLE_ASSIGNMENT((#1482));
#1457=PRESENTATION_STYLE_ASSIGNMENT((#1483));
#1458=PRESENTATION_STYLE_ASSIGNMENT((#1484));
#1459=PRESENTATION_STYLE_ASSIGNMENT((#1485));
#1460=PRESENTATION_STYLE_ASSIGNMENT((#1486));
#1461=PRESENTATION_STYLE_ASSIGNMENT((#1487));
#1462=PRESENTATION_STYLE_ASSIGNMENT((#1488));
#1463=PRESENTATION_STYLE_ASSIGNMENT((#1489));
#1464=PRESENTATION_STYLE_ASSIGNMENT((#1490));
#1465=PRESENTATION_STYLE_ASSIGNMENT((#1491));
#1466=PRESENTATION_STYLE_ASSIGNMENT((#1492));
#1467=SURFACE_STYLE_USAGE(.BOTH.,#1493);
#1468=SURFACE_STYLE_USAGE(.BOTH.,#1494);
#1469=SURFACE_STYLE_USAGE(.BOTH.,#1495);
#1470=SURFACE_STYLE_USAGE(.BOTH.,#1496);
#1471=SURFACE_STYLE_USAGE(.BOTH.,#1497);
#1472=SURFACE_STYLE_USAGE(.BOTH.,#1498);
#1473=SURFACE_STYLE_USAGE(.BOTH.,#1499);
#1474=SURFACE_STYLE_USAGE(.BOTH.,#1500);
#1475=SURFACE_STYLE_USAGE(.BOTH.,#1501);
#1476=SURFACE_STYLE_USAGE(.BOTH.,#1502);
#1477=SURFACE_STYLE_USAGE(.BOTH.,#1503);
#1478=SURFACE_STYLE_USAGE(.BOTH.,#1504);
#1479=SURFACE_STYLE_USAGE(.BOTH.,#1505);
#1480=SURFACE_STYLE_USAGE(.BOTH.,#1506);
#1481=SURFACE_STYLE_USAGE(.BOTH.,#1507);
#1482=SURFACE_STYLE_USAGE(.BOTH.,#1508);
#1483=SURFACE_STYLE_USAGE(.BOTH.,#1509);
#1484=SURFACE_STYLE_USAGE(.BOTH.,#1510);
#1485=SURFACE_STYLE_USAGE(.BOTH.,#1511);
#1486=SURFACE_STYLE_USAGE(.BOTH.,#1512);
#1487=SURFACE_STYLE_USAGE(.BOTH.,#1513);
#1488=SURFACE_STYLE_USAGE(.BOTH.,#1514);
#1489=SURFACE_STYLE_USAGE(.BOTH.,#1515);
#1490=SURFACE_STYLE_USAGE(.BOTH.,#1516);
#1491=SURFACE_STYLE_USAGE(.BOTH.,#1517);
#1492=SURFACE_STYLE_USAGE(.BOTH.,#1518);
#1493=SURFACE_SIDE_STYLE('',(#1519));
#1494=SURFACE_SIDE_STYLE('',(#1520));
#1495=SURFACE_SIDE_STYLE('',(#1521));
#1496=SURFACE_SIDE_STYLE('',(#1522));
#1497=SURFACE_SIDE_STYLE('',(#1523));
#1498=SURFACE_SIDE_STYLE('',(#1524));
#1499=SURFACE_SIDE_STYLE('',(#1525));
#1500=SURFACE_SIDE_STYLE('',(#1526));
#1501=SURFACE_SIDE_STYLE('',(#1527));
#1502=SURFACE_SIDE_STYLE('',(#1528));
#1503=SURFACE_SIDE_STYLE('',(#1529));
#1504=SURFACE_SIDE_STYLE('',(#1530));
#1505=SURFACE_SIDE_STYLE('',(#1531));
#1506=SURFACE_SIDE_STYLE('',(#1532));
#1507=SURFACE_SIDE_STYLE('',(#1533));
#1508=SURFACE_SIDE_STYLE('',(#1534));
#1509=SURFACE_SIDE_STYLE('',(#1535));
#1510=SURFACE_SIDE_STYLE('',(#1536));
#1511=SURFACE_SIDE_STYLE('',(#1537));
#1512=SURFACE_SIDE_STYLE('',(#1538));
#1513=SURFACE_SIDE_STYLE('',(#1539));
#1514=SURFACE_SIDE_STYLE('',(#1540));
#1515=SURFACE_SIDE_STYLE('',(#1541));
#1516=SURFACE_SIDE_STYLE('',(#1542));
#1517=SURFACE_SIDE_STYLE('',(#1543));
#1518=SURFACE_SIDE_STYLE('',(#1544));
#1519=SURFACE_STYLE_FILL_AREA(#1545);
#1520=SURFACE_STYLE_FILL_AREA(#1546);
#1521=SURFACE_STYLE_FILL_AREA(#1547);
#1522=SURFACE_STYLE_FILL_AREA(#1548);
#1523=SURFACE_STYLE_FILL_AREA(#1549);
#1524=SURFACE_STYLE_FILL_AREA(#1550);
#1525=SURFACE_STYLE_FILL_AREA(#1551);
#1526=SURFACE_STYLE_FILL_AREA(#1552);
#1527=SURFACE_STYLE_FILL_AREA(#1553);
#1528=SURFACE_STYLE_FILL_AREA(#1554);
#1529=SURFACE_STYLE_FILL_AREA(#1555);
#1530=SURFACE_STYLE_FILL_AREA(#1556);
#1531=SURFACE_STYLE_FILL_AREA(#1557);
#1532=SURFACE_STYLE_FILL_AREA(#1558);
#1533=SURFACE_STYLE_FILL_AREA(#1559);
#1534=SURFACE_STYLE_FILL_AREA(#1560);
#1535=SURFACE_STYLE_FILL_AREA(#1561);
#1536=SURFACE_STYLE_FILL_AREA(#1562);
#1537=SURFACE_STYLE_FILL_AREA(#1563);
#1538=SURFACE_STYLE_FILL_AREA(#1564);
#1539=SURFACE_STYLE_FILL_AREA(#1565);
#1540=SURFACE_STYLE_FILL_AREA(#1566);
#1541=SURFACE_STYLE_FILL_AREA(#1567);
#1542=SURFACE_STYLE_FILL_AREA(#1568);
#1543=SURFACE_STYLE_FILL_AREA(#1569);
#1544=SURFACE_STYLE_FILL_AREA(#1570);
#1545=FILL_AREA_STYLE('Steel - Satin',(#1571));
#1546=FILL_AREA_STYLE('Opaque(76,76,76)',(#1572));
#1547=FILL_AREA_STYLE('Opaque(51,51,51)',(#1573));
#1548=FILL_AREA_STYLE('Opaque(223,223,223)',(#1574));
#1549=FILL_AREA_STYLE('Opaque(255,255,255)',(#1575));
#1550=FILL_AREA_STYLE('Opaque(255,202,0)',(#1576));
#1551=FILL_AREA_STYLE('Opaque(152,170,175)',(#1577));
#1552=FILL_AREA_STYLE('Opaque(153,153,153)',(#1578));
#1553=FILL_AREA_STYLE('Opaque(195,225,190)',(#1579));
#1554=FILL_AREA_STYLE('Opaque(255,153,0)',(#1580));
#1555=FILL_AREA_STYLE('Opaque(204,255,51)',(#1581));
#1556=FILL_AREA_STYLE('Opaque(0,153,0)',(#1582));
#1557=FILL_AREA_STYLE('Opaque(153,102,51)',(#1583));
#1558=FILL_AREA_STYLE('Opaque(0,153,255)',(#1584));
#1559=FILL_AREA_STYLE('Opaque(230,235,235)',(#1585));
#1560=FILL_AREA_STYLE('Opaque(255,245,227)',(#1586));
#1561=FILL_AREA_STYLE('Opaque(204,0,0)',(#1587));
#1562=FILL_AREA_STYLE('Opaque(0,0,172)',(#1588));
#1563=FILL_AREA_STYLE('Opaque(255,248,56)',(#1589));
#1564=FILL_AREA_STYLE('Opaque(112,112,112)',(#1590));
#1565=FILL_AREA_STYLE('Opaque(112,121,128)',(#1591));
#1566=FILL_AREA_STYLE('Opaque(234,234,234)',(#1592));
#1567=FILL_AREA_STYLE('Opaque(95,167,61)',(#1593));
#1568=FILL_AREA_STYLE('Opaque(131,188,104)',(#1594));
#1569=FILL_AREA_STYLE('Opaque(30,23,23)',(#1595));
#1570=FILL_AREA_STYLE('Opaque(202,209,238)',(#1596));
#1571=FILL_AREA_STYLE_COLOUR('Steel - Satin',#1597);
#1572=FILL_AREA_STYLE_COLOUR('Opaque(76,76,76)',#1598);
#1573=FILL_AREA_STYLE_COLOUR('Opaque(51,51,51)',#1599);
#1574=FILL_AREA_STYLE_COLOUR('Opaque(223,223,223)',#1600);
#1575=FILL_AREA_STYLE_COLOUR('Opaque(255,255,255)',#1601);
#1576=FILL_AREA_STYLE_COLOUR('Opaque(255,202,0)',#1602);
#1577=FILL_AREA_STYLE_COLOUR('Opaque(152,170,175)',#1603);
#1578=FILL_AREA_STYLE_COLOUR('Opaque(153,153,153)',#1604);
#1579=FILL_AREA_STYLE_COLOUR('Opaque(195,225,190)',#1605);
#1580=FILL_AREA_STYLE_COLOUR('Opaque(255,153,0)',#1606);
#1581=FILL_AREA_STYLE_COLOUR('Opaque(204,255,51)',#1607);
#1582=FILL_AREA_STYLE_COLOUR('Opaque(0,153,0)',#1608);
#1583=FILL_AREA_STYLE_COLOUR('Opaque(153,102,51)',#1609);
#1584=FILL_AREA_STYLE_COLOUR('Opaque(0,153,255)',#1610);
#1585=FILL_AREA_STYLE_COLOUR('Opaque(230,235,235)',#1611);
#1586=FILL_AREA_STYLE_COLOUR('Opaque(255,245,227)',#1612);
#1587=FILL_AREA_STYLE_COLOUR('Opaque(204,0,0)',#1613);
#1588=FILL_AREA_STYLE_COLOUR('Opaque(0,0,172)',#1614);
#1589=FILL_AREA_STYLE_COLOUR('Opaque(255,248,56)',#1615);
#1590=FILL_AREA_STYLE_COLOUR('Opaque(112,112,112)',#1616);
#1591=FILL_AREA_STYLE_COLOUR('Opaque(112,121,128)',#1617);
#1592=FILL_AREA_STYLE_COLOUR('Opaque(234,234,234)',#1618);
#1593=FILL_AREA_STYLE_COLOUR('Opaque(95,167,61)',#1619);
#1594=FILL_AREA_STYLE_COLOUR('Opaque(131,188,104)',#1620);
#1595=FILL_AREA_STYLE_COLOUR('Opaque(30,23,23)',#1621);
#1596=FILL_AREA_STYLE_COLOUR('Opaque(202,209,238)',#1622);
#1597=COLOUR_RGB('Steel - Satin',0.627450980392157,0.627450980392157,0.627450980392157);
#1598=COLOUR_RGB('Opaque(76,76,76)',0.298039215686275,0.298039215686275,
0.298039215686275);
#1599=COLOUR_RGB('Opaque(51,51,51)',0.2,0.2,0.2);
#1600=COLOUR_RGB('Opaque(223,223,223)',0.874509803921569,0.874509803921569,
0.874509803921569);
#1601=COLOUR_RGB('Opaque(255,255,255)',1.,1.,1.);
#1602=COLOUR_RGB('Opaque(255,202,0)',1.,0.792156862745098,0.);
#1603=COLOUR_RGB('Opaque(152,170,175)',0.596078431372549,0.666666666666667,
0.686274509803922);
#1604=COLOUR_RGB('Opaque(153,153,153)',0.6,0.6,0.6);
#1605=COLOUR_RGB('Opaque(195,225,190)',0.764705882352941,0.882352941176471,
0.745098039215686);
#1606=COLOUR_RGB('Opaque(255,153,0)',1.,0.6,0.);
#1607=COLOUR_RGB('Opaque(204,255,51)',0.8,1.,0.2);
#1608=COLOUR_RGB('Opaque(0,153,0)',0.,0.6,0.);
#1609=COLOUR_RGB('Opaque(153,102,51)',0.6,0.4,0.2);
#1610=COLOUR_RGB('Opaque(0,153,255)',0.,0.6,1.);
#1611=COLOUR_RGB('Opaque(230,235,235)',0.901960784313726,0.92156862745098,
0.92156862745098);
#1612=COLOUR_RGB('Opaque(255,245,227)',1.,0.96078431372549,0.890196078431372);
#1613=COLOUR_RGB('Opaque(204,0,0)',0.8,0.,0.);
#1614=COLOUR_RGB('Opaque(0,0,172)',0.,0.,0.674509803921569);
#1615=COLOUR_RGB('Opaque(255,248,56)',1.,0.972549019607843,0.219607843137255);
#1616=COLOUR_RGB('Opaque(112,112,112)',0.43921568627451,0.43921568627451,
0.43921568627451);
#1617=COLOUR_RGB('Opaque(112,121,128)',0.43921568627451,0.474509803921569,
0.501960784313725);
#1618=COLOUR_RGB('Opaque(234,234,234)',0.917647058823529,0.917647058823529,
0.917647058823529);
#1619=COLOUR_RGB('Opaque(95,167,61)',0.372549019607843,0.654901960784314,
0.23921568627451);
#1620=COLOUR_RGB('Opaque(131,188,104)',0.513725490196078,0.737254901960784,
0.407843137254902);
#1621=COLOUR_RGB('Opaque(30,23,23)',0.117647058823529,0.0901960784313725,
0.0901960784313725);
#1622=COLOUR_RGB('Opaque(202,209,238)',0.792156862745098,0.819607843137255,
0.933333333333333);
ENDSEC;
END-ISO-10303-21;
