ISO-10303-21;
HEADER;
/* Generated by software containing ST-Developer
 * from STEP Tools, Inc. (www.steptools.com) 
 */

FILE_DESCRIPTION(
/* description */ (
'Spur Gear; Module: 1.0; Num Teeth: 16; Pressure Angle: 20.0; Backlash
: 0.00 mm'),
/* implementation_level */ '2;1');

FILE_NAME(
/* name */ 'leftleg3.step',
/* time_stamp */ '2026-08-23T13:45:31-04:00',
/* author */ (''),
/* organization */ (''),
/* preprocessor_version */ 'ST-DEVELOPER v20.1',
/* originating_system */ 'Autodesk Translation Framework v15.8.0.0',
/* authorisation */ '');

FILE_SCHEMA (('AUTOMOTIVE_DESIGN { 1 0 10303 214 3 1 1 }'));
ENDSEC;

DATA;
#10=MECHANICAL_DESIGN_GEOMETRIC_PRESENTATION_REPRESENTATION('',(#13),#1548);
#11=SHAPE_REPRESENTATION_RELATIONSHIP('SRR','None',#1555,#12);
#12=ADVANCED_BREP_SHAPE_REPRESENTATION('',(#14),#1547);
#13=STYLED_ITEM('',(#1564),#14);
#14=MANIFOLD_SOLID_BREP('Body316',#932);
#15=FACE_BOUND('',#130,.T.);
#16=FACE_BOUND('',#140,.T.);
#17=FACE_BOUND('',#141,.T.);
#18=FACE_BOUND('',#142,.T.);
#19=FACE_BOUND('',#143,.T.);
#20=FACE_BOUND('',#168,.T.);
#21=FACE_BOUND('',#169,.T.);
#22=FACE_BOUND('',#170,.T.);
#23=FACE_BOUND('',#171,.T.);
#24=FACE_BOUND('',#172,.T.);
#25=FACE_BOUND('',#182,.T.);
#26=FACE_BOUND('',#186,.T.);
#27=FACE_BOUND('',#187,.T.);
#28=FACE_BOUND('',#188,.T.);
#29=FACE_BOUND('',#189,.T.);
#30=FACE_BOUND('',#190,.T.);
#31=FACE_BOUND('',#192,.T.);
#32=FACE_BOUND('',#194,.T.);
#33=PLANE('',#949);
#34=PLANE('',#953);
#35=PLANE('',#954);
#36=PLANE('',#955);
#37=PLANE('',#956);
#38=PLANE('',#957);
#39=PLANE('',#958);
#40=PLANE('',#959);
#41=PLANE('',#960);
#42=PLANE('',#961);
#43=PLANE('',#977);
#44=PLANE('',#978);
#45=PLANE('',#979);
#46=PLANE('',#980);
#47=PLANE('',#981);
#48=PLANE('',#982);
#49=PLANE('',#983);
#50=PLANE('',#984);
#51=PLANE('',#985);
#52=PLANE('',#986);
#53=PLANE('',#987);
#54=PLANE('',#988);
#55=PLANE('',#989);
#56=PLANE('',#990);
#57=PLANE('',#991);
#58=PLANE('',#992);
#59=PLANE('',#993);
#60=PLANE('',#994);
#61=PLANE('',#995);
#62=PLANE('',#996);
#63=PLANE('',#997);
#64=PLANE('',#998);
#65=PLANE('',#999);
#66=PLANE('',#1000);
#67=PLANE('',#1017);
#68=PLANE('',#1018);
#69=PLANE('',#1019);
#70=PLANE('',#1020);
#71=PLANE('',#1021);
#72=PLANE('',#1024);
#73=PLANE('',#1025);
#74=PLANE('',#1026);
#75=FACE_OUTER_BOUND('',#126,.T.);
#76=FACE_OUTER_BOUND('',#127,.T.);
#77=FACE_OUTER_BOUND('',#128,.T.);
#78=FACE_OUTER_BOUND('',#129,.T.);
#79=FACE_OUTER_BOUND('',#131,.T.);
#80=FACE_OUTER_BOUND('',#132,.T.);
#81=FACE_OUTER_BOUND('',#133,.T.);
#82=FACE_OUTER_BOUND('',#134,.T.);
#83=FACE_OUTER_BOUND('',#135,.T.);
#84=FACE_OUTER_BOUND('',#136,.T.);
#85=FACE_OUTER_BOUND('',#137,.T.);
#86=FACE_OUTER_BOUND('',#138,.T.);
#87=FACE_OUTER_BOUND('',#139,.T.);
#88=FACE_OUTER_BOUND('',#144,.T.);
#89=FACE_OUTER_BOUND('',#145,.T.);
#90=FACE_OUTER_BOUND('',#146,.T.);
#91=FACE_OUTER_BOUND('',#147,.T.);
#92=FACE_OUTER_BOUND('',#148,.T.);
#93=FACE_OUTER_BOUND('',#149,.T.);
#94=FACE_OUTER_BOUND('',#150,.T.);
#95=FACE_OUTER_BOUND('',#151,.T.);
#96=FACE_OUTER_BOUND('',#152,.T.);
#97=FACE_OUTER_BOUND('',#153,.T.);
#98=FACE_OUTER_BOUND('',#154,.T.);
#99=FACE_OUTER_BOUND('',#155,.T.);
#100=FACE_OUTER_BOUND('',#156,.T.);
#101=FACE_OUTER_BOUND('',#157,.T.);
#102=FACE_OUTER_BOUND('',#158,.T.);
#103=FACE_OUTER_BOUND('',#159,.T.);
#104=FACE_OUTER_BOUND('',#160,.T.);
#105=FACE_OUTER_BOUND('',#161,.T.);
#106=FACE_OUTER_BOUND('',#162,.T.);
#107=FACE_OUTER_BOUND('',#163,.T.);
#108=FACE_OUTER_BOUND('',#164,.T.);
#109=FACE_OUTER_BOUND('',#165,.T.);
#110=FACE_OUTER_BOUND('',#166,.T.);
#111=FACE_OUTER_BOUND('',#167,.T.);
#112=FACE_OUTER_BOUND('',#173,.T.);
#113=FACE_OUTER_BOUND('',#174,.T.);
#114=FACE_OUTER_BOUND('',#175,.T.);
#115=FACE_OUTER_BOUND('',#176,.T.);
#116=FACE_OUTER_BOUND('',#177,.T.);
#117=FACE_OUTER_BOUND('',#178,.T.);
#118=FACE_OUTER_BOUND('',#179,.T.);
#119=FACE_OUTER_BOUND('',#180,.T.);
#120=FACE_OUTER_BOUND('',#181,.T.);
#121=FACE_OUTER_BOUND('',#183,.T.);
#122=FACE_OUTER_BOUND('',#184,.T.);
#123=FACE_OUTER_BOUND('',#185,.T.);
#124=FACE_OUTER_BOUND('',#191,.T.);
#125=FACE_OUTER_BOUND('',#193,.T.);
#126=EDGE_LOOP('',(#622,#623,#624,#625));
#127=EDGE_LOOP('',(#626));
#128=EDGE_LOOP('',(#627,#628,#629,#630));
#129=EDGE_LOOP('',(#631,#632,#633,#634,#635,#636,#637,#638));
#130=EDGE_LOOP('',(#639));
#131=EDGE_LOOP('',(#640,#641,#642,#643));
#132=EDGE_LOOP('',(#644,#645,#646,#647,#648,#649,#650,#651,#652,#653,#654,
#655,#656,#657,#658,#659));
#133=EDGE_LOOP('',(#660,#661,#662,#663));
#134=EDGE_LOOP('',(#664,#665,#666,#667,#668,#669,#670,#671,#672,#673,#674,
#675,#676,#677,#678,#679));
#135=EDGE_LOOP('',(#680,#681,#682,#683));
#136=EDGE_LOOP('',(#684,#685,#686,#687));
#137=EDGE_LOOP('',(#688,#689,#690,#691));
#138=EDGE_LOOP('',(#692,#693,#694,#695));
#139=EDGE_LOOP('',(#696,#697,#698,#699));
#140=EDGE_LOOP('',(#700,#701,#702,#703,#704,#705,#706,#707));
#141=EDGE_LOOP('',(#708,#709,#710,#711));
#142=EDGE_LOOP('',(#712,#713,#714,#715));
#143=EDGE_LOOP('',(#716,#717,#718,#719));
#144=EDGE_LOOP('',(#720,#721,#722,#723));
#145=EDGE_LOOP('',(#724,#725,#726,#727,#728,#729));
#146=EDGE_LOOP('',(#730,#731,#732,#733));
#147=EDGE_LOOP('',(#734,#735,#736,#737));
#148=EDGE_LOOP('',(#738,#739,#740,#741));
#149=EDGE_LOOP('',(#742,#743,#744,#745));
#150=EDGE_LOOP('',(#746,#747,#748,#749));
#151=EDGE_LOOP('',(#750,#751,#752,#753,#754,#755));
#152=EDGE_LOOP('',(#756,#757,#758,#759));
#153=EDGE_LOOP('',(#760,#761,#762));
#154=EDGE_LOOP('',(#763,#764,#765,#766));
#155=EDGE_LOOP('',(#767,#768,#769));
#156=EDGE_LOOP('',(#770,#771,#772));
#157=EDGE_LOOP('',(#773,#774,#775,#776));
#158=EDGE_LOOP('',(#777,#778,#779));
#159=EDGE_LOOP('',(#780,#781,#782,#783));
#160=EDGE_LOOP('',(#784,#785,#786));
#161=EDGE_LOOP('',(#787,#788,#789,#790));
#162=EDGE_LOOP('',(#791,#792,#793));
#163=EDGE_LOOP('',(#794,#795,#796));
#164=EDGE_LOOP('',(#797,#798,#799,#800));
#165=EDGE_LOOP('',(#801,#802,#803));
#166=EDGE_LOOP('',(#804,#805,#806,#807));
#167=EDGE_LOOP('',(#808));
#168=EDGE_LOOP('',(#809));
#169=EDGE_LOOP('',(#810));
#170=EDGE_LOOP('',(#811));
#171=EDGE_LOOP('',(#812));
#172=EDGE_LOOP('',(#813));
#173=EDGE_LOOP('',(#814,#815,#816,#817));
#174=EDGE_LOOP('',(#818,#819,#820,#821));
#175=EDGE_LOOP('',(#822,#823,#824,#825));
#176=EDGE_LOOP('',(#826,#827,#828,#829));
#177=EDGE_LOOP('',(#830,#831,#832,#833));
#178=EDGE_LOOP('',(#834,#835,#836,#837));
#179=EDGE_LOOP('',(#838,#839,#840,#841));
#180=EDGE_LOOP('',(#842,#843,#844,#845));
#181=EDGE_LOOP('',(#846,#847,#848,#849));
#182=EDGE_LOOP('',(#850));
#183=EDGE_LOOP('',(#851,#852,#853,#854));
#184=EDGE_LOOP('',(#855,#856,#857,#858));
#185=EDGE_LOOP('',(#859));
#186=EDGE_LOOP('',(#860));
#187=EDGE_LOOP('',(#861));
#188=EDGE_LOOP('',(#862));
#189=EDGE_LOOP('',(#863,#864,#865,#866));
#190=EDGE_LOOP('',(#867));
#191=EDGE_LOOP('',(#868));
#192=EDGE_LOOP('',(#869));
#193=EDGE_LOOP('',(#870));
#194=EDGE_LOOP('',(#871));
#195=LINE('',#1291,#290);
#196=LINE('',#1298,#291);
#197=LINE('',#1303,#292);
#198=LINE('',#1305,#293);
#199=LINE('',#1307,#294);
#200=LINE('',#1309,#295);
#201=LINE('',#1311,#296);
#202=LINE('',#1313,#297);
#203=LINE('',#1315,#298);
#204=LINE('',#1316,#299);
#205=LINE('',#1319,#300);
#206=LINE('',#1321,#301);
#207=LINE('',#1322,#302);
#208=LINE('',#1325,#303);
#209=LINE('',#1327,#304);
#210=LINE('',#1329,#305);
#211=LINE('',#1331,#306);
#212=LINE('',#1333,#307);
#213=LINE('',#1335,#308);
#214=LINE('',#1337,#309);
#215=LINE('',#1339,#310);
#216=LINE('',#1341,#311);
#217=LINE('',#1343,#312);
#218=LINE('',#1345,#313);
#219=LINE('',#1347,#314);
#220=LINE('',#1349,#315);
#221=LINE('',#1350,#316);
#222=LINE('',#1353,#317);
#223=LINE('',#1355,#318);
#224=LINE('',#1356,#319);
#225=LINE('',#1359,#320);
#226=LINE('',#1361,#321);
#227=LINE('',#1363,#322);
#228=LINE('',#1365,#323);
#229=LINE('',#1367,#324);
#230=LINE('',#1369,#325);
#231=LINE('',#1371,#326);
#232=LINE('',#1373,#327);
#233=LINE('',#1375,#328);
#234=LINE('',#1377,#329);
#235=LINE('',#1379,#330);
#236=LINE('',#1381,#331);
#237=LINE('',#1383,#332);
#238=LINE('',#1384,#333);
#239=LINE('',#1387,#334);
#240=LINE('',#1388,#335);
#241=LINE('',#1391,#336);
#242=LINE('',#1392,#337);
#243=LINE('',#1394,#338);
#244=LINE('',#1398,#339);
#245=LINE('',#1400,#340);
#246=LINE('',#1402,#341);
#247=LINE('',#1403,#342);
#248=LINE('',#1408,#343);
#249=LINE('',#1416,#344);
#250=LINE('',#1421,#345);
#251=LINE('',#1425,#346);
#252=LINE('',#1431,#347);
#253=LINE('',#1435,#348);
#254=LINE('',#1439,#349);
#255=LINE('',#1441,#350);
#256=LINE('',#1442,#351);
#257=LINE('',#1444,#352);
#258=LINE('',#1445,#353);
#259=LINE('',#1448,#354);
#260=LINE('',#1449,#355);
#261=LINE('',#1452,#356);
#262=LINE('',#1453,#357);
#263=LINE('',#1456,#358);
#264=LINE('',#1459,#359);
#265=LINE('',#1461,#360);
#266=LINE('',#1464,#361);
#267=LINE('',#1466,#362);
#268=LINE('',#1470,#363);
#269=LINE('',#1472,#364);
#270=LINE('',#1475,#365);
#271=LINE('',#1477,#366);
#272=LINE('',#1495,#367);
#273=LINE('',#1499,#368);
#274=LINE('',#1503,#369);
#275=LINE('',#1507,#370);
#276=LINE('',#1511,#371);
#277=LINE('',#1516,#372);
#278=LINE('',#1518,#373);
#279=LINE('',#1520,#374);
#280=LINE('',#1521,#375);
#281=LINE('',#1525,#376);
#282=LINE('',#1527,#377);
#283=LINE('',#1529,#378);
#284=LINE('',#1530,#379);
#285=LINE('',#1532,#380);
#286=LINE('',#1533,#381);
#287=LINE('',#1535,#382);
#288=LINE('',#1537,#383);
#289=LINE('',#1541,#384);
#290=VECTOR('',#1033,3.75);
#291=VECTOR('',#1042,12.5);
#292=VECTOR('',#1047,10.);
#293=VECTOR('',#1048,10.);
#294=VECTOR('',#1049,10.);
#295=VECTOR('',#1050,10.);
#296=VECTOR('',#1051,10.);
#297=VECTOR('',#1052,10.);
#298=VECTOR('',#1053,10.);
#299=VECTOR('',#1054,10.);
#300=VECTOR('',#1057,10.);
#301=VECTOR('',#1058,10.);
#302=VECTOR('',#1059,10.);
#303=VECTOR('',#1062,10.);
#304=VECTOR('',#1063,10.);
#305=VECTOR('',#1064,10.);
#306=VECTOR('',#1065,10.);
#307=VECTOR('',#1066,10.);
#308=VECTOR('',#1067,10.);
#309=VECTOR('',#1068,10.);
#310=VECTOR('',#1069,10.);
#311=VECTOR('',#1070,10.);
#312=VECTOR('',#1071,10.);
#313=VECTOR('',#1072,10.);
#314=VECTOR('',#1073,10.);
#315=VECTOR('',#1074,10.);
#316=VECTOR('',#1075,10.);
#317=VECTOR('',#1078,10.);
#318=VECTOR('',#1079,10.);
#319=VECTOR('',#1080,10.);
#320=VECTOR('',#1083,10.);
#321=VECTOR('',#1084,10.);
#322=VECTOR('',#1085,10.);
#323=VECTOR('',#1086,10.);
#324=VECTOR('',#1087,10.);
#325=VECTOR('',#1088,10.);
#326=VECTOR('',#1089,10.);
#327=VECTOR('',#1090,10.);
#328=VECTOR('',#1091,10.);
#329=VECTOR('',#1092,10.);
#330=VECTOR('',#1093,10.);
#331=VECTOR('',#1094,10.);
#332=VECTOR('',#1095,10.);
#333=VECTOR('',#1096,10.);
#334=VECTOR('',#1099,10.);
#335=VECTOR('',#1100,10.);
#336=VECTOR('',#1103,10.);
#337=VECTOR('',#1104,10.);
#338=VECTOR('',#1107,10.);
#339=VECTOR('',#1110,10.);
#340=VECTOR('',#1111,10.);
#341=VECTOR('',#1112,10.);
#342=VECTOR('',#1113,10.);
#343=VECTOR('',#1118,17.5);
#344=VECTOR('',#1127,10.);
#345=VECTOR('',#1134,10.);
#346=VECTOR('',#1137,10.);
#347=VECTOR('',#1144,10.);
#348=VECTOR('',#1147,10.);
#349=VECTOR('',#1152,10.);
#350=VECTOR('',#1153,10.);
#351=VECTOR('',#1154,10.);
#352=VECTOR('',#1157,10.);
#353=VECTOR('',#1158,10.);
#354=VECTOR('',#1163,10.);
#355=VECTOR('',#1164,10.);
#356=VECTOR('',#1169,10.);
#357=VECTOR('',#1170,10.);
#358=VECTOR('',#1175,10.);
#359=VECTOR('',#1180,10.);
#360=VECTOR('',#1183,10.);
#361=VECTOR('',#1188,10.);
#362=VECTOR('',#1191,10.);
#363=VECTOR('',#1198,10.);
#364=VECTOR('',#1201,10.);
#365=VECTOR('',#1206,10.);
#366=VECTOR('',#1209,10.);
#367=VECTOR('',#1230,1.5);
#368=VECTOR('',#1235,1.49999999999999);
#369=VECTOR('',#1240,1.5);
#370=VECTOR('',#1245,1.5);
#371=VECTOR('',#1250,1.5);
#372=VECTOR('',#1255,10.);
#373=VECTOR('',#1256,10.);
#374=VECTOR('',#1257,10.);
#375=VECTOR('',#1258,10.);
#376=VECTOR('',#1261,10.);
#377=VECTOR('',#1262,10.);
#378=VECTOR('',#1263,10.);
#379=VECTOR('',#1264,10.);
#380=VECTOR('',#1267,10.);
#381=VECTOR('',#1268,10.);
#382=VECTOR('',#1271,10.);
#383=VECTOR('',#1274,10.);
#384=VECTOR('',#1279,10.);
#385=CIRCLE('',#947,3.75);
#386=CIRCLE('',#948,3.75);
#387=CIRCLE('',#951,12.5);
#388=CIRCLE('',#952,12.5);
#389=CIRCLE('',#963,17.5);
#390=CIRCLE('',#964,17.5);
#391=CIRCLE('',#965,17.5);
#392=CIRCLE('',#966,17.5);
#393=CIRCLE('',#967,17.5);
#394=CIRCLE('',#968,17.5);
#395=CIRCLE('',#969,17.5);
#396=CIRCLE('',#970,17.5);
#397=CIRCLE('',#971,17.5);
#398=CIRCLE('',#972,17.5);
#399=CIRCLE('',#973,17.5);
#400=CIRCLE('',#974,17.5);
#401=CIRCLE('',#975,17.5);
#402=CIRCLE('',#976,17.5);
#403=CIRCLE('',#1001,10.);
#404=CIRCLE('',#1002,1.5);
#405=CIRCLE('',#1003,1.5);
#406=CIRCLE('',#1004,1.49999999999999);
#407=CIRCLE('',#1005,1.5);
#408=CIRCLE('',#1006,1.5);
#409=CIRCLE('',#1008,1.5);
#410=CIRCLE('',#1010,1.49999999999999);
#411=CIRCLE('',#1012,1.5);
#412=CIRCLE('',#1014,1.5);
#413=CIRCLE('',#1016,1.5);
#414=CIRCLE('',#1023,10.);
#415=VERTEX_POINT('',#1288);
#416=VERTEX_POINT('',#1290);
#417=VERTEX_POINT('',#1295);
#418=VERTEX_POINT('',#1297);
#419=VERTEX_POINT('',#1301);
#420=VERTEX_POINT('',#1302);
#421=VERTEX_POINT('',#1304);
#422=VERTEX_POINT('',#1306);
#423=VERTEX_POINT('',#1308);
#424=VERTEX_POINT('',#1310);
#425=VERTEX_POINT('',#1312);
#426=VERTEX_POINT('',#1314);
#427=VERTEX_POINT('',#1318);
#428=VERTEX_POINT('',#1320);
#429=VERTEX_POINT('',#1324);
#430=VERTEX_POINT('',#1326);
#431=VERTEX_POINT('',#1328);
#432=VERTEX_POINT('',#1330);
#433=VERTEX_POINT('',#1332);
#434=VERTEX_POINT('',#1334);
#435=VERTEX_POINT('',#1336);
#436=VERTEX_POINT('',#1338);
#437=VERTEX_POINT('',#1340);
#438=VERTEX_POINT('',#1342);
#439=VERTEX_POINT('',#1344);
#440=VERTEX_POINT('',#1346);
#441=VERTEX_POINT('',#1348);
#442=VERTEX_POINT('',#1352);
#443=VERTEX_POINT('',#1354);
#444=VERTEX_POINT('',#1358);
#445=VERTEX_POINT('',#1360);
#446=VERTEX_POINT('',#1362);
#447=VERTEX_POINT('',#1364);
#448=VERTEX_POINT('',#1366);
#449=VERTEX_POINT('',#1368);
#450=VERTEX_POINT('',#1370);
#451=VERTEX_POINT('',#1372);
#452=VERTEX_POINT('',#1374);
#453=VERTEX_POINT('',#1376);
#454=VERTEX_POINT('',#1378);
#455=VERTEX_POINT('',#1380);
#456=VERTEX_POINT('',#1382);
#457=VERTEX_POINT('',#1386);
#458=VERTEX_POINT('',#1390);
#459=VERTEX_POINT('',#1396);
#460=VERTEX_POINT('',#1397);
#461=VERTEX_POINT('',#1399);
#462=VERTEX_POINT('',#1401);
#463=VERTEX_POINT('',#1405);
#464=VERTEX_POINT('',#1407);
#465=VERTEX_POINT('',#1410);
#466=VERTEX_POINT('',#1413);
#467=VERTEX_POINT('',#1415);
#468=VERTEX_POINT('',#1419);
#469=VERTEX_POINT('',#1422);
#470=VERTEX_POINT('',#1424);
#471=VERTEX_POINT('',#1429);
#472=VERTEX_POINT('',#1430);
#473=VERTEX_POINT('',#1432);
#474=VERTEX_POINT('',#1434);
#475=VERTEX_POINT('',#1438);
#476=VERTEX_POINT('',#1440);
#477=VERTEX_POINT('',#1481);
#478=VERTEX_POINT('',#1483);
#479=VERTEX_POINT('',#1485);
#480=VERTEX_POINT('',#1487);
#481=VERTEX_POINT('',#1489);
#482=VERTEX_POINT('',#1491);
#483=VERTEX_POINT('',#1494);
#484=VERTEX_POINT('',#1498);
#485=VERTEX_POINT('',#1502);
#486=VERTEX_POINT('',#1506);
#487=VERTEX_POINT('',#1510);
#488=VERTEX_POINT('',#1514);
#489=VERTEX_POINT('',#1515);
#490=VERTEX_POINT('',#1517);
#491=VERTEX_POINT('',#1519);
#492=VERTEX_POINT('',#1523);
#493=VERTEX_POINT('',#1524);
#494=VERTEX_POINT('',#1526);
#495=VERTEX_POINT('',#1528);
#496=VERTEX_POINT('',#1539);
#497=EDGE_CURVE('',#415,#415,#385,.T.);
#498=EDGE_CURVE('',#415,#416,#195,.T.);
#499=EDGE_CURVE('',#416,#416,#386,.T.);
#500=EDGE_CURVE('',#417,#417,#387,.T.);
#501=EDGE_CURVE('',#417,#418,#196,.T.);
#502=EDGE_CURVE('',#418,#418,#388,.T.);
#503=EDGE_CURVE('',#419,#420,#197,.T.);
#504=EDGE_CURVE('',#421,#419,#198,.T.);
#505=EDGE_CURVE('',#422,#421,#199,.T.);
#506=EDGE_CURVE('',#423,#422,#200,.T.);
#507=EDGE_CURVE('',#424,#423,#201,.T.);
#508=EDGE_CURVE('',#425,#424,#202,.T.);
#509=EDGE_CURVE('',#426,#425,#203,.T.);
#510=EDGE_CURVE('',#420,#426,#204,.T.);
#511=EDGE_CURVE('',#419,#427,#205,.T.);
#512=EDGE_CURVE('',#428,#420,#206,.T.);
#513=EDGE_CURVE('',#427,#428,#207,.F.);
#514=EDGE_CURVE('',#427,#429,#208,.T.);
#515=EDGE_CURVE('',#429,#430,#209,.T.);
#516=EDGE_CURVE('',#430,#431,#210,.T.);
#517=EDGE_CURVE('',#431,#432,#211,.T.);
#518=EDGE_CURVE('',#432,#433,#212,.T.);
#519=EDGE_CURVE('',#433,#434,#213,.T.);
#520=EDGE_CURVE('',#434,#435,#214,.T.);
#521=EDGE_CURVE('',#435,#436,#215,.T.);
#522=EDGE_CURVE('',#436,#437,#216,.T.);
#523=EDGE_CURVE('',#437,#438,#217,.T.);
#524=EDGE_CURVE('',#438,#439,#218,.T.);
#525=EDGE_CURVE('',#439,#440,#219,.T.);
#526=EDGE_CURVE('',#440,#441,#220,.T.);
#527=EDGE_CURVE('',#441,#421,#221,.T.);
#528=EDGE_CURVE('',#426,#442,#222,.T.);
#529=EDGE_CURVE('',#443,#425,#223,.T.);
#530=EDGE_CURVE('',#442,#443,#224,.F.);
#531=EDGE_CURVE('',#424,#444,#225,.T.);
#532=EDGE_CURVE('',#444,#445,#226,.T.);
#533=EDGE_CURVE('',#445,#446,#227,.T.);
#534=EDGE_CURVE('',#447,#446,#228,.T.);
#535=EDGE_CURVE('',#447,#448,#229,.T.);
#536=EDGE_CURVE('',#448,#449,#230,.T.);
#537=EDGE_CURVE('',#449,#450,#231,.T.);
#538=EDGE_CURVE('',#450,#451,#232,.T.);
#539=EDGE_CURVE('',#451,#452,#233,.T.);
#540=EDGE_CURVE('',#452,#453,#234,.T.);
#541=EDGE_CURVE('',#453,#454,#235,.T.);
#542=EDGE_CURVE('',#454,#455,#236,.T.);
#543=EDGE_CURVE('',#455,#456,#237,.T.);
#544=EDGE_CURVE('',#456,#443,#238,.T.);
#545=EDGE_CURVE('',#422,#457,#239,.T.);
#546=EDGE_CURVE('',#457,#441,#240,.F.);
#547=EDGE_CURVE('',#458,#423,#241,.T.);
#548=EDGE_CURVE('',#444,#458,#242,.F.);
#549=EDGE_CURVE('',#457,#458,#243,.T.);
#550=EDGE_CURVE('',#459,#460,#244,.T.);
#551=EDGE_CURVE('',#460,#461,#245,.T.);
#552=EDGE_CURVE('',#461,#462,#246,.T.);
#553=EDGE_CURVE('',#462,#459,#247,.T.);
#554=EDGE_CURVE('',#463,#463,#389,.T.);
#555=EDGE_CURVE('',#463,#464,#248,.T.);
#556=EDGE_CURVE('',#464,#464,#390,.T.);
#557=EDGE_CURVE('',#452,#465,#391,.T.);
#558=EDGE_CURVE('',#433,#452,#392,.T.);
#559=EDGE_CURVE('',#466,#433,#393,.T.);
#560=EDGE_CURVE('',#467,#466,#249,.T.);
#561=EDGE_CURVE('',#430,#467,#394,.T.);
#562=EDGE_CURVE('',#455,#430,#395,.T.);
#563=EDGE_CURVE('',#468,#455,#396,.T.);
#564=EDGE_CURVE('',#465,#468,#250,.T.);
#565=EDGE_CURVE('',#469,#459,#397,.T.);
#566=EDGE_CURVE('',#470,#469,#251,.T.);
#567=EDGE_CURVE('',#460,#470,#398,.T.);
#568=EDGE_CURVE('',#447,#438,#399,.T.);
#569=EDGE_CURVE('',#439,#446,#400,.T.);
#570=EDGE_CURVE('',#471,#472,#252,.T.);
#571=EDGE_CURVE('',#473,#472,#401,.T.);
#572=EDGE_CURVE('',#474,#473,#253,.T.);
#573=EDGE_CURVE('',#471,#474,#402,.T.);
#574=EDGE_CURVE('',#471,#475,#254,.T.);
#575=EDGE_CURVE('',#475,#476,#255,.T.);
#576=EDGE_CURVE('',#476,#472,#256,.T.);
#577=EDGE_CURVE('',#429,#456,#257,.T.);
#578=EDGE_CURVE('',#442,#428,#258,.T.);
#579=EDGE_CURVE('',#435,#450,#259,.T.);
#580=EDGE_CURVE('',#451,#434,#260,.T.);
#581=EDGE_CURVE('',#449,#436,#261,.T.);
#582=EDGE_CURVE('',#437,#448,#262,.T.);
#583=EDGE_CURVE('',#445,#440,#263,.T.);
#584=EDGE_CURVE('',#467,#431,#264,.T.);
#585=EDGE_CURVE('',#466,#432,#265,.T.);
#586=EDGE_CURVE('',#474,#475,#266,.T.);
#587=EDGE_CURVE('',#473,#476,#267,.T.);
#588=EDGE_CURVE('',#470,#461,#268,.T.);
#589=EDGE_CURVE('',#469,#462,#269,.T.);
#590=EDGE_CURVE('',#465,#453,#270,.T.);
#591=EDGE_CURVE('',#468,#454,#271,.T.);
#592=EDGE_CURVE('',#477,#477,#403,.T.);
#593=EDGE_CURVE('',#478,#478,#404,.T.);
#594=EDGE_CURVE('',#479,#479,#405,.T.);
#595=EDGE_CURVE('',#480,#480,#406,.T.);
#596=EDGE_CURVE('',#481,#481,#407,.T.);
#597=EDGE_CURVE('',#482,#482,#408,.T.);
#598=EDGE_CURVE('',#478,#483,#272,.T.);
#599=EDGE_CURVE('',#483,#483,#409,.T.);
#600=EDGE_CURVE('',#480,#484,#273,.T.);
#601=EDGE_CURVE('',#484,#484,#410,.T.);
#602=EDGE_CURVE('',#482,#485,#274,.T.);
#603=EDGE_CURVE('',#485,#485,#411,.T.);
#604=EDGE_CURVE('',#479,#486,#275,.T.);
#605=EDGE_CURVE('',#486,#486,#412,.T.);
#606=EDGE_CURVE('',#481,#487,#276,.T.);
#607=EDGE_CURVE('',#487,#487,#413,.T.);
#608=EDGE_CURVE('',#488,#489,#277,.T.);
#609=EDGE_CURVE('',#488,#490,#278,.T.);
#610=EDGE_CURVE('',#490,#491,#279,.T.);
#611=EDGE_CURVE('',#491,#489,#280,.T.);
#612=EDGE_CURVE('',#492,#493,#281,.T.);
#613=EDGE_CURVE('',#492,#494,#282,.T.);
#614=EDGE_CURVE('',#494,#495,#283,.T.);
#615=EDGE_CURVE('',#493,#495,#284,.T.);
#616=EDGE_CURVE('',#494,#491,#285,.T.);
#617=EDGE_CURVE('',#490,#495,#286,.T.);
#618=EDGE_CURVE('',#489,#492,#287,.T.);
#619=EDGE_CURVE('',#493,#488,#288,.T.);
#620=EDGE_CURVE('',#496,#496,#414,.T.);
#621=EDGE_CURVE('',#496,#477,#289,.T.);
#622=ORIENTED_EDGE('',*,*,#497,.T.);
#623=ORIENTED_EDGE('',*,*,#498,.T.);
#624=ORIENTED_EDGE('',*,*,#499,.F.);
#625=ORIENTED_EDGE('',*,*,#498,.F.);
#626=ORIENTED_EDGE('',*,*,#499,.T.);
#627=ORIENTED_EDGE('',*,*,#500,.F.);
#628=ORIENTED_EDGE('',*,*,#501,.T.);
#629=ORIENTED_EDGE('',*,*,#502,.T.);
#630=ORIENTED_EDGE('',*,*,#501,.F.);
#631=ORIENTED_EDGE('',*,*,#503,.F.);
#632=ORIENTED_EDGE('',*,*,#504,.F.);
#633=ORIENTED_EDGE('',*,*,#505,.F.);
#634=ORIENTED_EDGE('',*,*,#506,.F.);
#635=ORIENTED_EDGE('',*,*,#507,.F.);
#636=ORIENTED_EDGE('',*,*,#508,.F.);
#637=ORIENTED_EDGE('',*,*,#509,.F.);
#638=ORIENTED_EDGE('',*,*,#510,.F.);
#639=ORIENTED_EDGE('',*,*,#497,.F.);
#640=ORIENTED_EDGE('',*,*,#511,.F.);
#641=ORIENTED_EDGE('',*,*,#503,.T.);
#642=ORIENTED_EDGE('',*,*,#512,.F.);
#643=ORIENTED_EDGE('',*,*,#513,.F.);
#644=ORIENTED_EDGE('',*,*,#514,.T.);
#645=ORIENTED_EDGE('',*,*,#515,.T.);
#646=ORIENTED_EDGE('',*,*,#516,.T.);
#647=ORIENTED_EDGE('',*,*,#517,.T.);
#648=ORIENTED_EDGE('',*,*,#518,.T.);
#649=ORIENTED_EDGE('',*,*,#519,.T.);
#650=ORIENTED_EDGE('',*,*,#520,.T.);
#651=ORIENTED_EDGE('',*,*,#521,.T.);
#652=ORIENTED_EDGE('',*,*,#522,.T.);
#653=ORIENTED_EDGE('',*,*,#523,.T.);
#654=ORIENTED_EDGE('',*,*,#524,.T.);
#655=ORIENTED_EDGE('',*,*,#525,.T.);
#656=ORIENTED_EDGE('',*,*,#526,.T.);
#657=ORIENTED_EDGE('',*,*,#527,.T.);
#658=ORIENTED_EDGE('',*,*,#504,.T.);
#659=ORIENTED_EDGE('',*,*,#511,.T.);
#660=ORIENTED_EDGE('',*,*,#528,.F.);
#661=ORIENTED_EDGE('',*,*,#509,.T.);
#662=ORIENTED_EDGE('',*,*,#529,.F.);
#663=ORIENTED_EDGE('',*,*,#530,.F.);
#664=ORIENTED_EDGE('',*,*,#529,.T.);
#665=ORIENTED_EDGE('',*,*,#508,.T.);
#666=ORIENTED_EDGE('',*,*,#531,.T.);
#667=ORIENTED_EDGE('',*,*,#532,.T.);
#668=ORIENTED_EDGE('',*,*,#533,.T.);
#669=ORIENTED_EDGE('',*,*,#534,.F.);
#670=ORIENTED_EDGE('',*,*,#535,.T.);
#671=ORIENTED_EDGE('',*,*,#536,.T.);
#672=ORIENTED_EDGE('',*,*,#537,.T.);
#673=ORIENTED_EDGE('',*,*,#538,.T.);
#674=ORIENTED_EDGE('',*,*,#539,.T.);
#675=ORIENTED_EDGE('',*,*,#540,.T.);
#676=ORIENTED_EDGE('',*,*,#541,.T.);
#677=ORIENTED_EDGE('',*,*,#542,.T.);
#678=ORIENTED_EDGE('',*,*,#543,.T.);
#679=ORIENTED_EDGE('',*,*,#544,.T.);
#680=ORIENTED_EDGE('',*,*,#545,.F.);
#681=ORIENTED_EDGE('',*,*,#505,.T.);
#682=ORIENTED_EDGE('',*,*,#527,.F.);
#683=ORIENTED_EDGE('',*,*,#546,.F.);
#684=ORIENTED_EDGE('',*,*,#531,.F.);
#685=ORIENTED_EDGE('',*,*,#507,.T.);
#686=ORIENTED_EDGE('',*,*,#547,.F.);
#687=ORIENTED_EDGE('',*,*,#548,.F.);
#688=ORIENTED_EDGE('',*,*,#545,.T.);
#689=ORIENTED_EDGE('',*,*,#549,.T.);
#690=ORIENTED_EDGE('',*,*,#547,.T.);
#691=ORIENTED_EDGE('',*,*,#506,.T.);
#692=ORIENTED_EDGE('',*,*,#550,.T.);
#693=ORIENTED_EDGE('',*,*,#551,.T.);
#694=ORIENTED_EDGE('',*,*,#552,.T.);
#695=ORIENTED_EDGE('',*,*,#553,.T.);
#696=ORIENTED_EDGE('',*,*,#554,.F.);
#697=ORIENTED_EDGE('',*,*,#555,.T.);
#698=ORIENTED_EDGE('',*,*,#556,.F.);
#699=ORIENTED_EDGE('',*,*,#555,.F.);
#700=ORIENTED_EDGE('',*,*,#557,.F.);
#701=ORIENTED_EDGE('',*,*,#558,.F.);
#702=ORIENTED_EDGE('',*,*,#559,.F.);
#703=ORIENTED_EDGE('',*,*,#560,.F.);
#704=ORIENTED_EDGE('',*,*,#561,.F.);
#705=ORIENTED_EDGE('',*,*,#562,.F.);
#706=ORIENTED_EDGE('',*,*,#563,.F.);
#707=ORIENTED_EDGE('',*,*,#564,.F.);
#708=ORIENTED_EDGE('',*,*,#550,.F.);
#709=ORIENTED_EDGE('',*,*,#565,.F.);
#710=ORIENTED_EDGE('',*,*,#566,.F.);
#711=ORIENTED_EDGE('',*,*,#567,.F.);
#712=ORIENTED_EDGE('',*,*,#568,.F.);
#713=ORIENTED_EDGE('',*,*,#534,.T.);
#714=ORIENTED_EDGE('',*,*,#569,.F.);
#715=ORIENTED_EDGE('',*,*,#524,.F.);
#716=ORIENTED_EDGE('',*,*,#570,.T.);
#717=ORIENTED_EDGE('',*,*,#571,.F.);
#718=ORIENTED_EDGE('',*,*,#572,.F.);
#719=ORIENTED_EDGE('',*,*,#573,.F.);
#720=ORIENTED_EDGE('',*,*,#570,.F.);
#721=ORIENTED_EDGE('',*,*,#574,.T.);
#722=ORIENTED_EDGE('',*,*,#575,.T.);
#723=ORIENTED_EDGE('',*,*,#576,.T.);
#724=ORIENTED_EDGE('',*,*,#544,.F.);
#725=ORIENTED_EDGE('',*,*,#577,.F.);
#726=ORIENTED_EDGE('',*,*,#514,.F.);
#727=ORIENTED_EDGE('',*,*,#513,.T.);
#728=ORIENTED_EDGE('',*,*,#578,.F.);
#729=ORIENTED_EDGE('',*,*,#530,.T.);
#730=ORIENTED_EDGE('',*,*,#512,.T.);
#731=ORIENTED_EDGE('',*,*,#510,.T.);
#732=ORIENTED_EDGE('',*,*,#528,.T.);
#733=ORIENTED_EDGE('',*,*,#578,.T.);
#734=ORIENTED_EDGE('',*,*,#538,.F.);
#735=ORIENTED_EDGE('',*,*,#579,.F.);
#736=ORIENTED_EDGE('',*,*,#520,.F.);
#737=ORIENTED_EDGE('',*,*,#580,.F.);
#738=ORIENTED_EDGE('',*,*,#580,.T.);
#739=ORIENTED_EDGE('',*,*,#519,.F.);
#740=ORIENTED_EDGE('',*,*,#558,.T.);
#741=ORIENTED_EDGE('',*,*,#539,.F.);
#742=ORIENTED_EDGE('',*,*,#522,.F.);
#743=ORIENTED_EDGE('',*,*,#581,.F.);
#744=ORIENTED_EDGE('',*,*,#536,.F.);
#745=ORIENTED_EDGE('',*,*,#582,.F.);
#746=ORIENTED_EDGE('',*,*,#568,.T.);
#747=ORIENTED_EDGE('',*,*,#523,.F.);
#748=ORIENTED_EDGE('',*,*,#582,.T.);
#749=ORIENTED_EDGE('',*,*,#535,.F.);
#750=ORIENTED_EDGE('',*,*,#526,.F.);
#751=ORIENTED_EDGE('',*,*,#583,.F.);
#752=ORIENTED_EDGE('',*,*,#532,.F.);
#753=ORIENTED_EDGE('',*,*,#548,.T.);
#754=ORIENTED_EDGE('',*,*,#549,.F.);
#755=ORIENTED_EDGE('',*,*,#546,.T.);
#756=ORIENTED_EDGE('',*,*,#579,.T.);
#757=ORIENTED_EDGE('',*,*,#537,.F.);
#758=ORIENTED_EDGE('',*,*,#581,.T.);
#759=ORIENTED_EDGE('',*,*,#521,.F.);
#760=ORIENTED_EDGE('',*,*,#561,.T.);
#761=ORIENTED_EDGE('',*,*,#584,.T.);
#762=ORIENTED_EDGE('',*,*,#516,.F.);
#763=ORIENTED_EDGE('',*,*,#560,.T.);
#764=ORIENTED_EDGE('',*,*,#585,.T.);
#765=ORIENTED_EDGE('',*,*,#517,.F.);
#766=ORIENTED_EDGE('',*,*,#584,.F.);
#767=ORIENTED_EDGE('',*,*,#559,.T.);
#768=ORIENTED_EDGE('',*,*,#518,.F.);
#769=ORIENTED_EDGE('',*,*,#585,.F.);
#770=ORIENTED_EDGE('',*,*,#574,.F.);
#771=ORIENTED_EDGE('',*,*,#573,.T.);
#772=ORIENTED_EDGE('',*,*,#586,.T.);
#773=ORIENTED_EDGE('',*,*,#572,.T.);
#774=ORIENTED_EDGE('',*,*,#587,.T.);
#775=ORIENTED_EDGE('',*,*,#575,.F.);
#776=ORIENTED_EDGE('',*,*,#586,.F.);
#777=ORIENTED_EDGE('',*,*,#571,.T.);
#778=ORIENTED_EDGE('',*,*,#576,.F.);
#779=ORIENTED_EDGE('',*,*,#587,.F.);
#780=ORIENTED_EDGE('',*,*,#515,.F.);
#781=ORIENTED_EDGE('',*,*,#577,.T.);
#782=ORIENTED_EDGE('',*,*,#543,.F.);
#783=ORIENTED_EDGE('',*,*,#562,.T.);
#784=ORIENTED_EDGE('',*,*,#551,.F.);
#785=ORIENTED_EDGE('',*,*,#567,.T.);
#786=ORIENTED_EDGE('',*,*,#588,.T.);
#787=ORIENTED_EDGE('',*,*,#566,.T.);
#788=ORIENTED_EDGE('',*,*,#589,.T.);
#789=ORIENTED_EDGE('',*,*,#552,.F.);
#790=ORIENTED_EDGE('',*,*,#588,.F.);
#791=ORIENTED_EDGE('',*,*,#565,.T.);
#792=ORIENTED_EDGE('',*,*,#553,.F.);
#793=ORIENTED_EDGE('',*,*,#589,.F.);
#794=ORIENTED_EDGE('',*,*,#557,.T.);
#795=ORIENTED_EDGE('',*,*,#590,.T.);
#796=ORIENTED_EDGE('',*,*,#540,.F.);
#797=ORIENTED_EDGE('',*,*,#564,.T.);
#798=ORIENTED_EDGE('',*,*,#591,.T.);
#799=ORIENTED_EDGE('',*,*,#541,.F.);
#800=ORIENTED_EDGE('',*,*,#590,.F.);
#801=ORIENTED_EDGE('',*,*,#563,.T.);
#802=ORIENTED_EDGE('',*,*,#542,.F.);
#803=ORIENTED_EDGE('',*,*,#591,.F.);
#804=ORIENTED_EDGE('',*,*,#569,.T.);
#805=ORIENTED_EDGE('',*,*,#533,.F.);
#806=ORIENTED_EDGE('',*,*,#583,.T.);
#807=ORIENTED_EDGE('',*,*,#525,.F.);
#808=ORIENTED_EDGE('',*,*,#592,.F.);
#809=ORIENTED_EDGE('',*,*,#593,.F.);
#810=ORIENTED_EDGE('',*,*,#594,.F.);
#811=ORIENTED_EDGE('',*,*,#595,.F.);
#812=ORIENTED_EDGE('',*,*,#596,.F.);
#813=ORIENTED_EDGE('',*,*,#597,.F.);
#814=ORIENTED_EDGE('',*,*,#593,.T.);
#815=ORIENTED_EDGE('',*,*,#598,.T.);
#816=ORIENTED_EDGE('',*,*,#599,.T.);
#817=ORIENTED_EDGE('',*,*,#598,.F.);
#818=ORIENTED_EDGE('',*,*,#595,.T.);
#819=ORIENTED_EDGE('',*,*,#600,.T.);
#820=ORIENTED_EDGE('',*,*,#601,.T.);
#821=ORIENTED_EDGE('',*,*,#600,.F.);
#822=ORIENTED_EDGE('',*,*,#597,.T.);
#823=ORIENTED_EDGE('',*,*,#602,.T.);
#824=ORIENTED_EDGE('',*,*,#603,.F.);
#825=ORIENTED_EDGE('',*,*,#602,.F.);
#826=ORIENTED_EDGE('',*,*,#594,.T.);
#827=ORIENTED_EDGE('',*,*,#604,.T.);
#828=ORIENTED_EDGE('',*,*,#605,.T.);
#829=ORIENTED_EDGE('',*,*,#604,.F.);
#830=ORIENTED_EDGE('',*,*,#596,.T.);
#831=ORIENTED_EDGE('',*,*,#606,.T.);
#832=ORIENTED_EDGE('',*,*,#607,.T.);
#833=ORIENTED_EDGE('',*,*,#606,.F.);
#834=ORIENTED_EDGE('',*,*,#608,.F.);
#835=ORIENTED_EDGE('',*,*,#609,.T.);
#836=ORIENTED_EDGE('',*,*,#610,.T.);
#837=ORIENTED_EDGE('',*,*,#611,.T.);
#838=ORIENTED_EDGE('',*,*,#612,.F.);
#839=ORIENTED_EDGE('',*,*,#613,.T.);
#840=ORIENTED_EDGE('',*,*,#614,.T.);
#841=ORIENTED_EDGE('',*,*,#615,.F.);
#842=ORIENTED_EDGE('',*,*,#614,.F.);
#843=ORIENTED_EDGE('',*,*,#616,.T.);
#844=ORIENTED_EDGE('',*,*,#610,.F.);
#845=ORIENTED_EDGE('',*,*,#617,.T.);
#846=ORIENTED_EDGE('',*,*,#618,.F.);
#847=ORIENTED_EDGE('',*,*,#611,.F.);
#848=ORIENTED_EDGE('',*,*,#616,.F.);
#849=ORIENTED_EDGE('',*,*,#613,.F.);
#850=ORIENTED_EDGE('',*,*,#603,.T.);
#851=ORIENTED_EDGE('',*,*,#608,.T.);
#852=ORIENTED_EDGE('',*,*,#618,.T.);
#853=ORIENTED_EDGE('',*,*,#612,.T.);
#854=ORIENTED_EDGE('',*,*,#619,.T.);
#855=ORIENTED_EDGE('',*,*,#620,.F.);
#856=ORIENTED_EDGE('',*,*,#621,.T.);
#857=ORIENTED_EDGE('',*,*,#592,.T.);
#858=ORIENTED_EDGE('',*,*,#621,.F.);
#859=ORIENTED_EDGE('',*,*,#500,.T.);
#860=ORIENTED_EDGE('',*,*,#607,.F.);
#861=ORIENTED_EDGE('',*,*,#605,.F.);
#862=ORIENTED_EDGE('',*,*,#601,.F.);
#863=ORIENTED_EDGE('',*,*,#619,.F.);
#864=ORIENTED_EDGE('',*,*,#615,.T.);
#865=ORIENTED_EDGE('',*,*,#617,.F.);
#866=ORIENTED_EDGE('',*,*,#609,.F.);
#867=ORIENTED_EDGE('',*,*,#599,.F.);
#868=ORIENTED_EDGE('',*,*,#554,.T.);
#869=ORIENTED_EDGE('',*,*,#502,.F.);
#870=ORIENTED_EDGE('',*,*,#556,.T.);
#871=ORIENTED_EDGE('',*,*,#620,.T.);
#872=CYLINDRICAL_SURFACE('',#946,3.75);
#873=CYLINDRICAL_SURFACE('',#950,12.5);
#874=CYLINDRICAL_SURFACE('',#962,17.5);
#875=CYLINDRICAL_SURFACE('',#1007,1.5);
#876=CYLINDRICAL_SURFACE('',#1009,1.49999999999999);
#877=CYLINDRICAL_SURFACE('',#1011,1.5);
#878=CYLINDRICAL_SURFACE('',#1013,1.5);
#879=CYLINDRICAL_SURFACE('',#1015,1.5);
#880=CYLINDRICAL_SURFACE('',#1022,10.);
#881=ADVANCED_FACE('',(#75),#872,.T.);
#882=ADVANCED_FACE('',(#76),#33,.T.);
#883=ADVANCED_FACE('',(#77),#873,.F.);
#884=ADVANCED_FACE('',(#78,#15),#34,.F.);
#885=ADVANCED_FACE('',(#79),#35,.F.);
#886=ADVANCED_FACE('',(#80),#36,.T.);
#887=ADVANCED_FACE('',(#81),#37,.F.);
#888=ADVANCED_FACE('',(#82),#38,.T.);
#889=ADVANCED_FACE('',(#83),#39,.F.);
#890=ADVANCED_FACE('',(#84),#40,.F.);
#891=ADVANCED_FACE('',(#85),#41,.F.);
#892=ADVANCED_FACE('',(#86),#42,.T.);
#893=ADVANCED_FACE('',(#87,#16,#17,#18,#19),#874,.T.);
#894=ADVANCED_FACE('',(#88),#43,.T.);
#895=ADVANCED_FACE('',(#89),#44,.F.);
#896=ADVANCED_FACE('',(#90),#45,.F.);
#897=ADVANCED_FACE('',(#91),#46,.F.);
#898=ADVANCED_FACE('',(#92),#47,.F.);
#899=ADVANCED_FACE('',(#93),#48,.F.);
#900=ADVANCED_FACE('',(#94),#49,.F.);
#901=ADVANCED_FACE('',(#95),#50,.F.);
#902=ADVANCED_FACE('',(#96),#51,.T.);
#903=ADVANCED_FACE('',(#97),#52,.T.);
#904=ADVANCED_FACE('',(#98),#53,.T.);
#905=ADVANCED_FACE('',(#99),#54,.T.);
#906=ADVANCED_FACE('',(#100),#55,.T.);
#907=ADVANCED_FACE('',(#101),#56,.T.);
#908=ADVANCED_FACE('',(#102),#57,.T.);
#909=ADVANCED_FACE('',(#103),#58,.F.);
#910=ADVANCED_FACE('',(#104),#59,.T.);
#911=ADVANCED_FACE('',(#105),#60,.T.);
#912=ADVANCED_FACE('',(#106),#61,.T.);
#913=ADVANCED_FACE('',(#107),#62,.T.);
#914=ADVANCED_FACE('',(#108),#63,.T.);
#915=ADVANCED_FACE('',(#109),#64,.T.);
#916=ADVANCED_FACE('',(#110),#65,.F.);
#917=ADVANCED_FACE('',(#111,#20,#21,#22,#23,#24),#66,.F.);
#918=ADVANCED_FACE('',(#112),#875,.F.);
#919=ADVANCED_FACE('',(#113),#876,.F.);
#920=ADVANCED_FACE('',(#114),#877,.F.);
#921=ADVANCED_FACE('',(#115),#878,.F.);
#922=ADVANCED_FACE('',(#116),#879,.F.);
#923=ADVANCED_FACE('',(#117),#67,.F.);
#924=ADVANCED_FACE('',(#118),#68,.F.);
#925=ADVANCED_FACE('',(#119),#69,.F.);
#926=ADVANCED_FACE('',(#120,#25),#70,.T.);
#927=ADVANCED_FACE('',(#121),#71,.F.);
#928=ADVANCED_FACE('',(#122),#880,.F.);
#929=ADVANCED_FACE('',(#123,#26,#27,#28,#29,#30),#72,.T.);
#930=ADVANCED_FACE('',(#124,#31),#73,.F.);
#931=ADVANCED_FACE('',(#125,#32),#74,.F.);
#932=CLOSED_SHELL('',(#881,#882,#883,#884,#885,#886,#887,#888,#889,#890,
#891,#892,#893,#894,#895,#896,#897,#898,#899,#900,#901,#902,#903,#904,#905,
#906,#907,#908,#909,#910,#911,#912,#913,#914,#915,#916,#917,#918,#919,#920,
#921,#922,#923,#924,#925,#926,#927,#928,#929,#930,#931));
#933=DERIVED_UNIT_ELEMENT(#935,1.);
#934=DERIVED_UNIT_ELEMENT(#1550,-3.);
#935=(
MASS_UNIT()
NAMED_UNIT(*)
SI_UNIT(.KILO.,.GRAM.)
);
#936=DERIVED_UNIT((#933,#934));
#937=MEASURE_REPRESENTATION_ITEM('density measure',
POSITIVE_RATIO_MEASURE(7850.),#936);
#938=PROPERTY_DEFINITION_REPRESENTATION(#943,#940);
#939=PROPERTY_DEFINITION_REPRESENTATION(#944,#941);
#940=REPRESENTATION('material name',(#942),#1547);
#941=REPRESENTATION('density',(#937),#1547);
#942=DESCRIPTIVE_REPRESENTATION_ITEM('Steel','Steel');
#943=PROPERTY_DEFINITION('material property','material name',#1557);
#944=PROPERTY_DEFINITION('material property','density of part',#1557);
#945=AXIS2_PLACEMENT_3D('',#1286,#1027,#1028);
#946=AXIS2_PLACEMENT_3D('',#1287,#1029,#1030);
#947=AXIS2_PLACEMENT_3D('',#1289,#1031,#1032);
#948=AXIS2_PLACEMENT_3D('',#1292,#1034,#1035);
#949=AXIS2_PLACEMENT_3D('',#1293,#1036,#1037);
#950=AXIS2_PLACEMENT_3D('',#1294,#1038,#1039);
#951=AXIS2_PLACEMENT_3D('',#1296,#1040,#1041);
#952=AXIS2_PLACEMENT_3D('',#1299,#1043,#1044);
#953=AXIS2_PLACEMENT_3D('',#1300,#1045,#1046);
#954=AXIS2_PLACEMENT_3D('',#1317,#1055,#1056);
#955=AXIS2_PLACEMENT_3D('',#1323,#1060,#1061);
#956=AXIS2_PLACEMENT_3D('',#1351,#1076,#1077);
#957=AXIS2_PLACEMENT_3D('',#1357,#1081,#1082);
#958=AXIS2_PLACEMENT_3D('',#1385,#1097,#1098);
#959=AXIS2_PLACEMENT_3D('',#1389,#1101,#1102);
#960=AXIS2_PLACEMENT_3D('',#1393,#1105,#1106);
#961=AXIS2_PLACEMENT_3D('',#1395,#1108,#1109);
#962=AXIS2_PLACEMENT_3D('',#1404,#1114,#1115);
#963=AXIS2_PLACEMENT_3D('',#1406,#1116,#1117);
#964=AXIS2_PLACEMENT_3D('',#1409,#1119,#1120);
#965=AXIS2_PLACEMENT_3D('',#1411,#1121,#1122);
#966=AXIS2_PLACEMENT_3D('',#1412,#1123,#1124);
#967=AXIS2_PLACEMENT_3D('',#1414,#1125,#1126);
#968=AXIS2_PLACEMENT_3D('',#1417,#1128,#1129);
#969=AXIS2_PLACEMENT_3D('',#1418,#1130,#1131);
#970=AXIS2_PLACEMENT_3D('',#1420,#1132,#1133);
#971=AXIS2_PLACEMENT_3D('',#1423,#1135,#1136);
#972=AXIS2_PLACEMENT_3D('',#1426,#1138,#1139);
#973=AXIS2_PLACEMENT_3D('',#1427,#1140,#1141);
#974=AXIS2_PLACEMENT_3D('',#1428,#1142,#1143);
#975=AXIS2_PLACEMENT_3D('',#1433,#1145,#1146);
#976=AXIS2_PLACEMENT_3D('',#1436,#1148,#1149);
#977=AXIS2_PLACEMENT_3D('',#1437,#1150,#1151);
#978=AXIS2_PLACEMENT_3D('',#1443,#1155,#1156);
#979=AXIS2_PLACEMENT_3D('',#1446,#1159,#1160);
#980=AXIS2_PLACEMENT_3D('',#1447,#1161,#1162);
#981=AXIS2_PLACEMENT_3D('',#1450,#1165,#1166);
#982=AXIS2_PLACEMENT_3D('',#1451,#1167,#1168);
#983=AXIS2_PLACEMENT_3D('',#1454,#1171,#1172);
#984=AXIS2_PLACEMENT_3D('',#1455,#1173,#1174);
#985=AXIS2_PLACEMENT_3D('',#1457,#1176,#1177);
#986=AXIS2_PLACEMENT_3D('',#1458,#1178,#1179);
#987=AXIS2_PLACEMENT_3D('',#1460,#1181,#1182);
#988=AXIS2_PLACEMENT_3D('',#1462,#1184,#1185);
#989=AXIS2_PLACEMENT_3D('',#1463,#1186,#1187);
#990=AXIS2_PLACEMENT_3D('',#1465,#1189,#1190);
#991=AXIS2_PLACEMENT_3D('',#1467,#1192,#1193);
#992=AXIS2_PLACEMENT_3D('',#1468,#1194,#1195);
#993=AXIS2_PLACEMENT_3D('',#1469,#1196,#1197);
#994=AXIS2_PLACEMENT_3D('',#1471,#1199,#1200);
#995=AXIS2_PLACEMENT_3D('',#1473,#1202,#1203);
#996=AXIS2_PLACEMENT_3D('',#1474,#1204,#1205);
#997=AXIS2_PLACEMENT_3D('',#1476,#1207,#1208);
#998=AXIS2_PLACEMENT_3D('',#1478,#1210,#1211);
#999=AXIS2_PLACEMENT_3D('',#1479,#1212,#1213);
#1000=AXIS2_PLACEMENT_3D('',#1480,#1214,#1215);
#1001=AXIS2_PLACEMENT_3D('',#1482,#1216,#1217);
#1002=AXIS2_PLACEMENT_3D('',#1484,#1218,#1219);
#1003=AXIS2_PLACEMENT_3D('',#1486,#1220,#1221);
#1004=AXIS2_PLACEMENT_3D('',#1488,#1222,#1223);
#1005=AXIS2_PLACEMENT_3D('',#1490,#1224,#1225);
#1006=AXIS2_PLACEMENT_3D('',#1492,#1226,#1227);
#1007=AXIS2_PLACEMENT_3D('',#1493,#1228,#1229);
#1008=AXIS2_PLACEMENT_3D('',#1496,#1231,#1232);
#1009=AXIS2_PLACEMENT_3D('',#1497,#1233,#1234);
#1010=AXIS2_PLACEMENT_3D('',#1500,#1236,#1237);
#1011=AXIS2_PLACEMENT_3D('',#1501,#1238,#1239);
#1012=AXIS2_PLACEMENT_3D('',#1504,#1241,#1242);
#1013=AXIS2_PLACEMENT_3D('',#1505,#1243,#1244);
#1014=AXIS2_PLACEMENT_3D('',#1508,#1246,#1247);
#1015=AXIS2_PLACEMENT_3D('',#1509,#1248,#1249);
#1016=AXIS2_PLACEMENT_3D('',#1512,#1251,#1252);
#1017=AXIS2_PLACEMENT_3D('',#1513,#1253,#1254);
#1018=AXIS2_PLACEMENT_3D('',#1522,#1259,#1260);
#1019=AXIS2_PLACEMENT_3D('',#1531,#1265,#1266);
#1020=AXIS2_PLACEMENT_3D('',#1534,#1269,#1270);
#1021=AXIS2_PLACEMENT_3D('',#1536,#1272,#1273);
#1022=AXIS2_PLACEMENT_3D('',#1538,#1275,#1276);
#1023=AXIS2_PLACEMENT_3D('',#1540,#1277,#1278);
#1024=AXIS2_PLACEMENT_3D('',#1542,#1280,#1281);
#1025=AXIS2_PLACEMENT_3D('',#1543,#1282,#1283);
#1026=AXIS2_PLACEMENT_3D('',#1544,#1284,#1285);
#1027=DIRECTION('axis',(0.,0.,1.));
#1028=DIRECTION('refdir',(1.,0.,0.));
#1029=DIRECTION('center_axis',(0.,-1.,0.));
#1030=DIRECTION('ref_axis',(-1.,0.,0.));
#1031=DIRECTION('center_axis',(-6.66133814775094E-16,-1.,4.47760873654674E-17));
#1032=DIRECTION('ref_axis',(-1.,0.,0.));
#1033=DIRECTION('',(0.,-1.,0.));
#1034=DIRECTION('center_axis',(0.,-1.,0.));
#1035=DIRECTION('ref_axis',(-1.,0.,0.));
#1036=DIRECTION('center_axis',(0.,-1.,0.));
#1037=DIRECTION('ref_axis',(-1.,0.,0.));
#1038=DIRECTION('center_axis',(-2.38613461026422E-16,4.47760873654677E-17,
1.));
#1039=DIRECTION('ref_axis',(-1.,7.54951656745106E-16,-2.38613461026422E-16));
#1040=DIRECTION('center_axis',(2.38613461026422E-16,-4.47760873654677E-17,
-1.));
#1041=DIRECTION('ref_axis',(-1.,7.54951656745106E-16,-2.38613461026422E-16));
#1042=DIRECTION('',(2.38613461026422E-16,-4.47760873654677E-17,-1.));
#1043=DIRECTION('center_axis',(-4.8617217413593E-18,-2.17646706108317E-15,
-1.));
#1044=DIRECTION('ref_axis',(-1.,7.54951656745106E-16,-2.38613461026422E-16));
#1045=DIRECTION('center_axis',(6.66133814775094E-16,1.,-4.47760873654674E-17));
#1046=DIRECTION('ref_axis',(-2.38613461026422E-16,4.47760873654677E-17,
1.));
#1047=DIRECTION('',(-0.707106784347561,5.60885189909031E-16,-0.707106778025534));
#1048=DIRECTION('',(2.38613461026422E-16,-4.47760873654677E-17,-1.));
#1049=DIRECTION('',(0.707106784347561,-5.49337834716125E-16,-0.707106778025534));
#1050=DIRECTION('',(1.,-6.66133814775094E-16,2.38613461026422E-16));
#1051=DIRECTION('',(0.707106784347561,-5.60885189909031E-16,0.707106778025534));
#1052=DIRECTION('',(-2.38613461026422E-16,4.47760873654677E-17,1.));
#1053=DIRECTION('',(-0.707106784347561,5.21582259100496E-16,0.707106778025534));
#1054=DIRECTION('',(-1.,6.66133814775094E-16,-2.38613461026422E-16));
#1055=DIRECTION('center_axis',(-0.707106778025534,4.66071108810235E-16,
0.707106784347561));
#1056=DIRECTION('ref_axis',(0.707106784347561,-5.60885189909031E-16,0.707106778025534));
#1057=DIRECTION('',(6.66133814775094E-16,1.,-4.47760873654674E-17));
#1058=DIRECTION('',(-6.66133814775094E-16,-1.,4.47760873654674E-17));
#1059=DIRECTION('',(0.577350272630901,-0.577350267468988,0.577350267468988));
#1060=DIRECTION('center_axis',(1.,-6.66133814775094E-16,2.38613461026422E-16));
#1061=DIRECTION('ref_axis',(2.38613461026422E-16,-4.47760873654677E-17,
-1.));
#1062=DIRECTION('',(6.75689910480415E-16,0.707106781186547,-0.707106781186547));
#1063=DIRECTION('',(6.66133814775094E-16,1.,-4.47760873654674E-17));
#1064=DIRECTION('',(6.66133814775094E-16,1.,-4.47760873654674E-17));
#1065=DIRECTION('',(-2.38613461026422E-16,4.47760873654677E-17,1.));
#1066=DIRECTION('',(-6.66133814775094E-16,-1.,4.47760873654674E-17));
#1067=DIRECTION('',(-6.66133814775094E-16,-1.,4.47760873654674E-17));
#1068=DIRECTION('',(-6.75689910480415E-16,-0.707106781186547,0.707106781186547));
#1069=DIRECTION('',(-2.38613461026422E-16,4.47760873654677E-17,1.));
#1070=DIRECTION('',(2.67999660450968E-16,0.707106781186547,0.707106781186548));
#1071=DIRECTION('',(6.66133814775094E-16,1.,-4.47760873654674E-17));
#1072=DIRECTION('',(4.8617217413593E-18,2.17646706108317E-15,1.));
#1073=DIRECTION('',(-6.66133814775094E-16,-1.,4.47760873654674E-17));
#1074=DIRECTION('',(-2.67999660450968E-16,-0.707106781186547,-0.707106781186548));
#1075=DIRECTION('',(-6.66133814775094E-16,-1.,4.47760873654674E-17));
#1076=DIRECTION('center_axis',(0.707106778025534,-4.77618462121148E-16,
0.707106784347561));
#1077=DIRECTION('ref_axis',(0.707106784347561,-5.21582259100496E-16,-0.707106778025534));
#1078=DIRECTION('',(6.66133814775094E-16,1.,-4.47760873654674E-17));
#1079=DIRECTION('',(-6.66133814775094E-16,-1.,4.47760873654674E-17));
#1080=DIRECTION('',(0.577350272630902,0.577350267468987,-0.577350267468988));
#1081=DIRECTION('center_axis',(-1.,6.66133814775094E-16,-2.38613461026422E-16));
#1082=DIRECTION('ref_axis',(-2.38613461026422E-16,4.47760873654677E-17,
1.));
#1083=DIRECTION('',(6.66133814775094E-16,1.,-4.47760873654674E-17));
#1084=DIRECTION('',(2.67999660450968E-16,0.707106781186547,0.707106781186548));
#1085=DIRECTION('',(6.66133814775094E-16,1.,-4.47760873654674E-17));
#1086=DIRECTION('',(4.8617217413593E-18,2.17646706108317E-15,1.));
#1087=DIRECTION('',(-6.66133814775094E-16,-1.,4.47760873654674E-17));
#1088=DIRECTION('',(-2.67999660450968E-16,-0.707106781186547,-0.707106781186548));
#1089=DIRECTION('',(2.38613461026422E-16,-4.47760873654677E-17,-1.));
#1090=DIRECTION('',(6.75689910480415E-16,0.707106781186547,-0.707106781186547));
#1091=DIRECTION('',(6.66133814775094E-16,1.,-4.47760873654674E-17));
#1092=DIRECTION('',(6.66133814775094E-16,1.,-4.47760873654674E-17));
#1093=DIRECTION('',(2.38613461026422E-16,-4.47760873654677E-17,-1.));
#1094=DIRECTION('',(-6.66133814775094E-16,-1.,4.47760873654674E-17));
#1095=DIRECTION('',(-6.66133814775094E-16,-1.,4.47760873654674E-17));
#1096=DIRECTION('',(-6.75689910480415E-16,-0.707106781186547,0.707106781186547));
#1097=DIRECTION('center_axis',(-0.707106778025534,5.33129613352406E-16,
-0.707106784347561));
#1098=DIRECTION('ref_axis',(-0.707106784347561,5.49337834716125E-16,0.707106778025534));
#1099=DIRECTION('',(6.66133814775094E-16,1.,-4.47760873654674E-17));
#1100=DIRECTION('',(-0.577350272630901,0.577350267468988,0.577350267468988));
#1101=DIRECTION('center_axis',(0.707106778025534,-4.38315533194606E-16,
-0.707106784347561));
#1102=DIRECTION('ref_axis',(-0.707106784347561,5.60885189909031E-16,-0.707106778025534));
#1103=DIRECTION('',(-6.66133814775094E-16,-1.,4.47760873654674E-17));
#1104=DIRECTION('',(-0.577350272630902,-0.577350267468987,-0.577350267468988));
#1105=DIRECTION('center_axis',(2.38613461026422E-16,-4.47760873654677E-17,
-1.));
#1106=DIRECTION('ref_axis',(1.,-6.66133814775094E-16,2.38613461026422E-16));
#1107=DIRECTION('',(-1.,6.66133814775094E-16,-2.38613461026422E-16));
#1108=DIRECTION('center_axis',(-1.,6.66133814775094E-16,-2.38613461026422E-16));
#1109=DIRECTION('ref_axis',(-2.38613461026422E-16,4.47760873654677E-17,
1.));
#1110=DIRECTION('',(4.8617217413593E-18,2.17646706108317E-15,1.));
#1111=DIRECTION('',(6.66133814775094E-16,1.,-4.47760873654674E-17));
#1112=DIRECTION('',(2.38613461026422E-16,-4.47760873654677E-17,-1.));
#1113=DIRECTION('',(-6.66133814775094E-16,-1.,4.47760873654674E-17));
#1114=DIRECTION('center_axis',(-4.8617217413593E-18,-2.17646706108317E-15,
-1.));
#1115=DIRECTION('ref_axis',(-0.342020143325669,-0.939692620785908,2.04687284345024E-15));
#1116=DIRECTION('center_axis',(-4.8617217413593E-18,-2.17646706108317E-15,
-1.));
#1117=DIRECTION('ref_axis',(-0.342020143325669,-0.939692620785908,2.04687284345024E-15));
#1118=DIRECTION('',(4.8617217413593E-18,2.17646706108317E-15,1.));
#1119=DIRECTION('center_axis',(-3.69969660758954E-17,1.82092717934242E-15,
1.));
#1120=DIRECTION('ref_axis',(-0.342020143325669,-0.939692620785908,2.04687284345024E-15));
#1121=DIRECTION('center_axis',(2.38613461026422E-16,-4.47760873654677E-17,
-1.));
#1122=DIRECTION('ref_axis',(-0.342020143325669,-0.939692620785908,2.04687284345024E-15));
#1123=DIRECTION('center_axis',(2.38613461026422E-16,-4.47760873654677E-17,
-1.));
#1124=DIRECTION('ref_axis',(-0.342020143325669,-0.939692620785908,2.04687284345024E-15));
#1125=DIRECTION('center_axis',(2.38613461026422E-16,-4.47760873654677E-17,
-1.));
#1126=DIRECTION('ref_axis',(-0.342020143325669,-0.939692620785908,2.04687284345024E-15));
#1127=DIRECTION('',(4.8617217413593E-18,2.17646706108317E-15,1.));
#1128=DIRECTION('center_axis',(-2.38613461026422E-16,4.47760873654677E-17,
1.));
#1129=DIRECTION('ref_axis',(-0.342020143325669,-0.939692620785908,2.04687284345024E-15));
#1130=DIRECTION('center_axis',(-2.38613461026422E-16,4.47760873654677E-17,
1.));
#1131=DIRECTION('ref_axis',(-0.342020143325669,-0.939692620785908,2.04687284345024E-15));
#1132=DIRECTION('center_axis',(-2.38613461026422E-16,4.47760873654677E-17,
1.));
#1133=DIRECTION('ref_axis',(-0.342020143325669,-0.939692620785908,2.04687284345024E-15));
#1134=DIRECTION('',(-4.8617217413593E-18,-2.17646706108317E-15,-1.));
#1135=DIRECTION('center_axis',(-2.38613461026422E-16,4.47760873654677E-17,
1.));
#1136=DIRECTION('ref_axis',(-0.342020143325669,-0.939692620785908,2.04687284345024E-15));
#1137=DIRECTION('',(-4.8617217413593E-18,-2.17646706108317E-15,-1.));
#1138=DIRECTION('center_axis',(2.38613461026422E-16,-4.47760873654677E-17,
-1.));
#1139=DIRECTION('ref_axis',(-0.342020143325669,-0.939692620785908,2.04687284345024E-15));
#1140=DIRECTION('center_axis',(-2.38613461026422E-16,4.47760873654677E-17,
1.));
#1141=DIRECTION('ref_axis',(-0.342020143325669,-0.939692620785908,2.04687284345024E-15));
#1142=DIRECTION('center_axis',(2.38613461026422E-16,-4.47760873654677E-17,
-1.));
#1143=DIRECTION('ref_axis',(-0.342020143325669,-0.939692620785908,2.04687284345024E-15));
#1144=DIRECTION('',(4.8617217413593E-18,2.17646706108317E-15,1.));
#1145=DIRECTION('center_axis',(2.38613461026422E-16,-4.47760873654677E-17,
-1.));
#1146=DIRECTION('ref_axis',(-0.342020143325669,-0.939692620785908,2.04687284345024E-15));
#1147=DIRECTION('',(4.8617217413593E-18,2.17646706108317E-15,1.));
#1148=DIRECTION('center_axis',(-2.38613461026422E-16,4.47760873654677E-17,
1.));
#1149=DIRECTION('ref_axis',(-0.342020143325669,-0.939692620785908,2.04687284345024E-15));
#1150=DIRECTION('center_axis',(1.,-6.66133814775094E-16,2.38613461026422E-16));
#1151=DIRECTION('ref_axis',(2.38613461026422E-16,-4.47760873654677E-17,
-1.));
#1152=DIRECTION('',(6.66133814775094E-16,1.,-4.47760873654674E-17));
#1153=DIRECTION('',(-2.38613461026422E-16,4.47760873654677E-17,1.));
#1154=DIRECTION('',(-6.66133814775094E-16,-1.,4.47760873654674E-17));
#1155=DIRECTION('center_axis',(2.67999660450968E-16,0.707106781186547,0.707106781186548));
#1156=DIRECTION('ref_axis',(1.,-6.66133814775094E-16,2.38613461026422E-16));
#1157=DIRECTION('',(-1.,6.66133814775094E-16,-2.38613461026422E-16));
#1158=DIRECTION('',(1.,-6.66133814775094E-16,2.38613461026422E-16));
#1159=DIRECTION('center_axis',(-2.38613461026422E-16,4.47760873654677E-17,
1.));
#1160=DIRECTION('ref_axis',(-1.,6.66133814775094E-16,-2.38613461026422E-16));
#1161=DIRECTION('center_axis',(-2.67999660450968E-16,-0.707106781186547,
-0.707106781186548));
#1162=DIRECTION('ref_axis',(-1.,6.66133814775094E-16,-2.38613461026422E-16));
#1163=DIRECTION('',(-1.,6.66133814775094E-16,-2.38613461026422E-16));
#1164=DIRECTION('',(1.,-6.66133814775094E-16,2.38613461026422E-16));
#1165=DIRECTION('center_axis',(2.38613461026422E-16,-4.47760873654677E-17,
-1.));
#1166=DIRECTION('ref_axis',(1.,-6.66133814775094E-16,2.38613461026422E-16));
#1167=DIRECTION('center_axis',(-6.75689910480415E-16,-0.707106781186548,
0.707106781186548));
#1168=DIRECTION('ref_axis',(1.,-6.66133814775094E-16,2.38613461026422E-16));
#1169=DIRECTION('',(1.,-6.66133814775094E-16,2.38613461026422E-16));
#1170=DIRECTION('',(-1.,6.66133814775094E-16,-2.38613461026422E-16));
#1171=DIRECTION('center_axis',(-2.38613461026422E-16,4.47760873654677E-17,
1.));
#1172=DIRECTION('ref_axis',(-1.,6.66133814775094E-16,-2.38613461026422E-16));
#1173=DIRECTION('center_axis',(6.75689910480415E-16,0.707106781186548,-0.707106781186548));
#1174=DIRECTION('ref_axis',(-1.,6.66133814775094E-16,-2.38613461026422E-16));
#1175=DIRECTION('',(1.,-6.66133814775094E-16,2.38613461026422E-16));
#1176=DIRECTION('center_axis',(6.66133814775094E-16,1.,-4.47760873654674E-17));
#1177=DIRECTION('ref_axis',(1.,-6.66133814775094E-16,2.38613461026422E-16));
#1178=DIRECTION('center_axis',(-2.38613461026422E-16,4.47760873654677E-17,
1.));
#1179=DIRECTION('ref_axis',(6.66133814775094E-16,1.,-4.47760873654674E-17));
#1180=DIRECTION('',(-1.,6.66133814775094E-16,-2.38613461026422E-16));
#1181=DIRECTION('center_axis',(-6.66133814775094E-16,-1.,4.47760873654674E-17));
#1182=DIRECTION('ref_axis',(-2.38613461026422E-16,4.47760873654677E-17,
1.));
#1183=DIRECTION('',(-1.,6.66133814775094E-16,-2.38613461026422E-16));
#1184=DIRECTION('center_axis',(2.38613461026422E-16,-4.47760873654677E-17,
-1.));
#1185=DIRECTION('ref_axis',(-6.66133814775094E-16,-1.,4.47760873654674E-17));
#1186=DIRECTION('center_axis',(-2.38613461026422E-16,4.47760873654677E-17,
1.));
#1187=DIRECTION('ref_axis',(-6.66133814775094E-16,-1.,4.47760873654674E-17));
#1188=DIRECTION('',(-1.,6.66133814775094E-16,-2.38613461026422E-16));
#1189=DIRECTION('center_axis',(-6.66133814775094E-16,-1.,4.47760873654674E-17));
#1190=DIRECTION('ref_axis',(-2.38613461026422E-16,4.47760873654677E-17,
1.));
#1191=DIRECTION('',(-1.,6.66133814775094E-16,-2.38613461026422E-16));
#1192=DIRECTION('center_axis',(2.38613461026422E-16,-4.47760873654677E-17,
-1.));
#1193=DIRECTION('ref_axis',(-6.66133814775094E-16,-1.,4.47760873654674E-17));
#1194=DIRECTION('center_axis',(-2.38613461026422E-16,4.47760873654677E-17,
1.));
#1195=DIRECTION('ref_axis',(-1.,6.66133814775094E-16,-2.38613461026422E-16));
#1196=DIRECTION('center_axis',(2.38613461026422E-16,-4.47760873654677E-17,
-1.));
#1197=DIRECTION('ref_axis',(-6.66133814775094E-16,-1.,4.47760873654674E-17));
#1198=DIRECTION('',(1.,-6.66133814775094E-16,2.38613461026422E-16));
#1199=DIRECTION('center_axis',(-6.66133814775094E-16,-1.,4.47760873654674E-17));
#1200=DIRECTION('ref_axis',(2.38613461026422E-16,-4.47760873654677E-17,
-1.));
#1201=DIRECTION('',(1.,-6.66133814775094E-16,2.38613461026422E-16));
#1202=DIRECTION('center_axis',(-2.38613461026422E-16,4.47760873654677E-17,
1.));
#1203=DIRECTION('ref_axis',(-6.66133814775094E-16,-1.,4.47760873654674E-17));
#1204=DIRECTION('center_axis',(2.38613461026422E-16,-4.47760873654677E-17,
-1.));
#1205=DIRECTION('ref_axis',(6.66133814775094E-16,1.,-4.47760873654674E-17));
#1206=DIRECTION('',(1.,-6.66133814775094E-16,2.38613461026422E-16));
#1207=DIRECTION('center_axis',(-6.66133814775094E-16,-1.,4.47760873654674E-17));
#1208=DIRECTION('ref_axis',(2.38613461026422E-16,-4.47760873654677E-17,
-1.));
#1209=DIRECTION('',(1.,-6.66133814775094E-16,2.38613461026422E-16));
#1210=DIRECTION('center_axis',(-2.38613461026422E-16,4.47760873654677E-17,
1.));
#1211=DIRECTION('ref_axis',(-6.66133814775094E-16,-1.,4.47760873654674E-17));
#1212=DIRECTION('center_axis',(2.38613461026422E-16,-4.47760873654677E-17,
-1.));
#1213=DIRECTION('ref_axis',(1.,-6.66133814775094E-16,2.38613461026422E-16));
#1214=DIRECTION('center_axis',(3.69969660758954E-17,-1.82092717934242E-15,
-1.));
#1215=DIRECTION('ref_axis',(-0.17364817766693,0.984807753012208,-1.79968765962535E-15));
#1216=DIRECTION('center_axis',(3.69969660758954E-17,-1.82092717934242E-15,
-1.));
#1217=DIRECTION('ref_axis',(-0.17364817766693,0.984807753012208,-2.02173226455038E-15));
#1218=DIRECTION('center_axis',(-3.69969660758954E-17,1.82092717934242E-15,
1.));
#1219=DIRECTION('ref_axis',(-0.17364817766693,0.984807753012208,-1.79968765962535E-15));
#1220=DIRECTION('center_axis',(-3.69969660758954E-17,1.82092717934242E-15,
1.));
#1221=DIRECTION('ref_axis',(-0.17364817766693,0.984807753012208,-1.79968765962535E-15));
#1222=DIRECTION('center_axis',(-3.69969660758954E-17,1.82092717934242E-15,
1.));
#1223=DIRECTION('ref_axis',(-0.17364817766693,0.984807753012208,-1.79968765962535E-15));
#1224=DIRECTION('center_axis',(-3.69969660758954E-17,1.82092717934242E-15,
1.));
#1225=DIRECTION('ref_axis',(-0.17364817766693,0.984807753012208,-1.79968765962535E-15));
#1226=DIRECTION('center_axis',(-3.69969660758954E-17,1.82092717934242E-15,
1.));
#1227=DIRECTION('ref_axis',(-0.17364817766693,0.984807753012208,-1.79968765962535E-15));
#1228=DIRECTION('center_axis',(3.69969660758954E-17,-1.82092717934242E-15,
-1.));
#1229=DIRECTION('ref_axis',(-0.17364817766693,0.984807753012208,-1.79968765962535E-15));
#1230=DIRECTION('',(3.69969660758954E-17,-1.82092717934242E-15,-1.));
#1231=DIRECTION('center_axis',(3.69969660758954E-17,-1.82092717934242E-15,
-1.));
#1232=DIRECTION('ref_axis',(-0.17364817766693,0.984807753012208,-1.79968765962535E-15));
#1233=DIRECTION('center_axis',(3.69969660758954E-17,-1.82092717934242E-15,
-1.));
#1234=DIRECTION('ref_axis',(-0.17364817766693,0.984807753012208,-1.79968765962535E-15));
#1235=DIRECTION('',(3.69969660758954E-17,-1.82092717934242E-15,-1.));
#1236=DIRECTION('center_axis',(3.69969660758954E-17,-1.82092717934242E-15,
-1.));
#1237=DIRECTION('ref_axis',(-0.17364817766693,0.984807753012208,-1.79968765962535E-15));
#1238=DIRECTION('center_axis',(3.69969660758954E-17,-1.82092717934242E-15,
-1.));
#1239=DIRECTION('ref_axis',(-0.17364817766693,0.984807753012208,-1.79968765962535E-15));
#1240=DIRECTION('',(3.69969660758954E-17,-1.82092717934242E-15,-1.));
#1241=DIRECTION('center_axis',(-3.69969660758954E-17,1.82092717934242E-15,
1.));
#1242=DIRECTION('ref_axis',(-0.17364817766693,0.984807753012208,-1.79968765962535E-15));
#1243=DIRECTION('center_axis',(3.69969660758954E-17,-1.82092717934242E-15,
-1.));
#1244=DIRECTION('ref_axis',(-0.17364817766693,0.984807753012208,-1.79968765962535E-15));
#1245=DIRECTION('',(3.69969660758954E-17,-1.82092717934242E-15,-1.));
#1246=DIRECTION('center_axis',(3.69969660758954E-17,-1.82092717934242E-15,
-1.));
#1247=DIRECTION('ref_axis',(-0.17364817766693,0.984807753012208,-1.79968765962535E-15));
#1248=DIRECTION('center_axis',(3.69969660758954E-17,-1.82092717934242E-15,
-1.));
#1249=DIRECTION('ref_axis',(-0.17364817766693,0.984807753012208,-1.79968765962535E-15));
#1250=DIRECTION('',(3.69969660758954E-17,-1.82092717934242E-15,-1.));
#1251=DIRECTION('center_axis',(3.69969660758954E-17,-1.82092717934242E-15,
-1.));
#1252=DIRECTION('ref_axis',(-0.17364817766693,0.984807753012208,-1.79968765962535E-15));
#1253=DIRECTION('center_axis',(-0.17364817766693,0.984807753012208,-1.79968765962535E-15));
#1254=DIRECTION('ref_axis',(0.984807753012208,0.17364817766693,-2.79765787327522E-16));
#1255=DIRECTION('',(-3.69969660758954E-17,1.82092717934242E-15,1.));
#1256=DIRECTION('',(0.984807753012208,0.17364817766693,-2.79765787327522E-16));
#1257=DIRECTION('',(-3.69969660758954E-17,1.82092717934242E-15,1.));
#1258=DIRECTION('',(-0.984807753012208,-0.17364817766693,2.79765787327522E-16));
#1259=DIRECTION('center_axis',(0.17364817766693,-0.984807753012208,1.79968765962535E-15));
#1260=DIRECTION('ref_axis',(-0.984807753012208,-0.17364817766693,2.79765787327522E-16));
#1261=DIRECTION('',(3.69969660758954E-17,-1.82092717934242E-15,-1.));
#1262=DIRECTION('',(0.984807753012208,0.17364817766693,-2.79765787327522E-16));
#1263=DIRECTION('',(3.69969660758954E-17,-1.82092717934242E-15,-1.));
#1264=DIRECTION('',(0.984807753012208,0.17364817766693,-2.79765787327522E-16));
#1265=DIRECTION('center_axis',(0.984807753012208,0.17364817766693,-2.79765787327522E-16));
#1266=DIRECTION('ref_axis',(0.17364817766693,-0.984807753012208,1.79968765962535E-15));
#1267=DIRECTION('',(-0.17364817766693,0.984807753012208,-1.79968765962535E-15));
#1268=DIRECTION('',(0.17364817766693,-0.984807753012208,1.79968765962535E-15));
#1269=DIRECTION('center_axis',(3.69969660758954E-17,-1.82092717934242E-15,
-1.));
#1270=DIRECTION('ref_axis',(-0.17364817766693,0.984807753012208,-1.79968765962535E-15));
#1271=DIRECTION('',(0.17364817766693,-0.984807753012208,1.79968765962535E-15));
#1272=DIRECTION('center_axis',(-0.984807753012208,-0.17364817766693,2.79765787327522E-16));
#1273=DIRECTION('ref_axis',(-3.69969660758954E-17,1.82092717934242E-15,
1.));
#1274=DIRECTION('',(-0.17364817766693,0.984807753012208,-1.79968765962535E-15));
#1275=DIRECTION('center_axis',(7.55546070819005E-17,-2.03959842778712E-15,
-1.));
#1276=DIRECTION('ref_axis',(-0.17364817766693,0.984807753012208,-2.02173226455038E-15));
#1277=DIRECTION('center_axis',(7.55546070819005E-17,-2.03959842778712E-15,
-1.));
#1278=DIRECTION('ref_axis',(-0.17364817766693,0.984807753012208,-2.02173226455038E-15));
#1279=DIRECTION('',(7.55546070819005E-17,-2.03959842778712E-15,-1.));
#1280=DIRECTION('center_axis',(3.69969660758954E-17,-1.82092717934242E-15,
-1.));
#1281=DIRECTION('ref_axis',(-0.17364817766693,0.984807753012208,-1.79968765962535E-15));
#1282=DIRECTION('center_axis',(4.8617217413593E-18,2.17646706108317E-15,
1.));
#1283=DIRECTION('ref_axis',(-0.34202014332567,-0.939692620785908,2.04687284345024E-15));
#1284=DIRECTION('center_axis',(7.55546070819005E-17,-2.03959842778712E-15,
-1.));
#1285=DIRECTION('ref_axis',(-0.17364817766693,0.984807753012208,-2.02173226455038E-15));
#1286=CARTESIAN_POINT('',(0.,0.,0.));
#1287=CARTESIAN_POINT('Origin',(3.68968698355121,-225.03296836893,130.500003173947));
#1288=CARTESIAN_POINT('',(7.43968698355121,-210.03296836893,130.500003173947));
#1289=CARTESIAN_POINT('Origin',(3.68968698355121,-210.03296836893,130.500003173947));
#1290=CARTESIAN_POINT('',(7.43968698355121,-215.03296836893,130.500003173947));
#1291=CARTESIAN_POINT('',(7.43968698355121,-225.03296836893,130.500003173947));
#1292=CARTESIAN_POINT('Origin',(3.68968698355121,-215.03296836893,130.500003173947));
#1293=CARTESIAN_POINT('Origin',(3.68968698355121,-215.03296836893,130.500003173947));
#1294=CARTESIAN_POINT('Origin',(3.84579412453541,-114.537395122275,142.938326892078));
#1295=CARTESIAN_POINT('',(16.3457941245354,-114.537395122275,123.938326892078));
#1296=CARTESIAN_POINT('Origin',(3.84579412453542,-114.537395122275,123.938326892078));
#1297=CARTESIAN_POINT('',(16.3457941245354,-114.537395122275,117.938326892078));
#1298=CARTESIAN_POINT('',(16.3457941245354,-114.537395122275,142.938326892078));
#1299=CARTESIAN_POINT('Origin',(3.84579412453542,-114.537395122275,117.938326892078));
#1300=CARTESIAN_POINT('Origin',(3.68968700590282,-210.03296836893,128.000003173947));
#1301=CARTESIAN_POINT('',(16.6896871772662,-210.03296836893,127.00000308454));
#1302=CARTESIAN_POINT('',(11.6896871772662,-210.03296836893,122.00000308454));
#1303=CARTESIAN_POINT('',(12.4396871500715,-210.03296836893,122.75000305064));
#1304=CARTESIAN_POINT('',(16.6896871772662,-210.03296836893,134.000003263354));
#1305=CARTESIAN_POINT('',(16.6896871772662,-210.03296836893,121.000003069639));
#1306=CARTESIAN_POINT('',(11.6896871772662,-210.03296836893,139.000003263354));
#1307=CARTESIAN_POINT('',(13.6896871500715,-210.03296836893,137.00000330843));
#1308=CARTESIAN_POINT('',(-4.31031321016403,-210.03296836893,139.000003263354));
#1309=CARTESIAN_POINT('',(16.6896872219696,-210.03296836893,139.000003263354));
#1310=CARTESIAN_POINT('',(-9.31031321016403,-210.03296836893,134.000003263354));
#1311=CARTESIAN_POINT('',(-6.31031317179354,-210.03296836893,137.000003319606));
#1312=CARTESIAN_POINT('',(-9.31031321016401,-210.03296836893,127.00000308454));
#1313=CARTESIAN_POINT('',(-9.31031321016403,-210.03296836893,135.000003278256));
#1314=CARTESIAN_POINT('',(-4.31031321016405,-210.03296836893,122.00000308454));
#1315=CARTESIAN_POINT('',(-5.06031317179354,-210.03296836893,122.750003039464));
#1316=CARTESIAN_POINT('',(-9.31031321016404,-210.03296836893,122.00000308454));
#1317=CARTESIAN_POINT('Origin',(14.189687199618,-64.0329683689301,124.50000308454));
#1318=CARTESIAN_POINT('',(16.6896872219697,-147.03296836893,127.00000308454));
#1319=CARTESIAN_POINT('',(16.6896872219697,-64.0329683689301,127.00000308454));
#1320=CARTESIAN_POINT('',(11.6896871772662,-142.03296836893,122.00000308454));
#1321=CARTESIAN_POINT('',(11.6896871772663,-64.0329683689301,122.00000308454));
#1322=CARTESIAN_POINT('',(-1.06031287165926,-129.282968433998,109.250003149609));
#1323=CARTESIAN_POINT('Origin',(16.6896872219698,11.96703163107,136.000003293157));
#1324=CARTESIAN_POINT('',(16.6896872219697,-140.03296836893,120.000003054738));
#1325=CARTESIAN_POINT('',(16.6896872219697,-106.532968421084,86.5000031366945));
#1326=CARTESIAN_POINT('',(16.6896872219697,-126.423707001982,120.000003054738));
#1327=CARTESIAN_POINT('',(16.6896872219698,11.9670316310699,120.000003054738));
#1328=CARTESIAN_POINT('',(16.6896872219697,-126.03296836893,120.000003054738));
#1329=CARTESIAN_POINT('',(16.6896872219698,11.9670316310699,120.000003054738));
#1330=CARTESIAN_POINT('',(16.6896872219697,-126.03296836893,124.000003114343));
#1331=CARTESIAN_POINT('',(16.6896872219697,-126.03296836893,123.000003099442));
#1332=CARTESIAN_POINT('',(16.6896872219697,-126.423707001982,124.000003114343));
#1333=CARTESIAN_POINT('',(16.6896872219698,11.9670316310699,124.000003114343));
#1334=CARTESIAN_POINT('',(16.6896872219697,-138.03296836893,124.000003114343));
#1335=CARTESIAN_POINT('',(16.6896872219698,11.9670316310699,124.000003114343));
#1336=CARTESIAN_POINT('',(16.6896871772662,-140.03296836893,126.000003114343));
#1337=CARTESIAN_POINT('',(16.6896872219697,-104.032968413634,90.0000031590462));
#1338=CARTESIAN_POINT('',(16.6896871772662,-140.03296836893,135.000003233552));
#1339=CARTESIAN_POINT('',(16.6896871772662,-140.03296836893,121.000003069639));
#1340=CARTESIAN_POINT('',(16.6896872219697,-138.03296836893,137.000003233552));
#1341=CARTESIAN_POINT('',(16.6896872219697,-100.032968354029,175.000003248453));
#1342=CARTESIAN_POINT('',(16.6896872219697,-126.423707001982,137.000003233552));
#1343=CARTESIAN_POINT('',(16.6896872219698,11.96703163107,137.000003233552));
#1344=CARTESIAN_POINT('',(16.6896872219697,-126.423707001982,141.000003293157));
#1345=CARTESIAN_POINT('',(16.6896872219697,-126.423707001982,135.938326892078));
#1346=CARTESIAN_POINT('',(16.6896872219697,-140.03296836893,141.000003293157));
#1347=CARTESIAN_POINT('',(16.6896872219698,11.9670316310699,141.000003293157));
#1348=CARTESIAN_POINT('',(16.6896872219696,-147.03296836893,134.000003263354));
#1349=CARTESIAN_POINT('',(16.6896872219697,-102.53296836148,178.500003270805));
#1350=CARTESIAN_POINT('',(16.6896872219697,-64.0329683689301,134.000003263354));
#1351=CARTESIAN_POINT('Origin',(-6.81031323251568,-64.0329683689301,124.50000308454));
#1352=CARTESIAN_POINT('',(-4.310313210164,-142.03296836893,122.00000308454));
#1353=CARTESIAN_POINT('',(-4.31031321016393,-64.03296836893,122.00000308454));
#1354=CARTESIAN_POINT('',(-9.31031325486747,-147.03296836893,127.00000308454));
#1355=CARTESIAN_POINT('',(-9.31031325486741,-64.03296836893,127.00000308454));
#1356=CARTESIAN_POINT('',(10.6063535635427,-127.116301728589,107.083336444199));
#1357=CARTESIAN_POINT('Origin',(-9.31031325486736,11.96703163107,132.000003233552));
#1358=CARTESIAN_POINT('',(-9.31031325486749,-147.03296836893,134.000003263354));
#1359=CARTESIAN_POINT('',(-9.31031325486741,-64.03296836893,134.000003263354));
#1360=CARTESIAN_POINT('',(-9.31031325486748,-140.03296836893,141.000003293157));
#1361=CARTESIAN_POINT('',(-9.31031325486745,-103.532968376381,177.500003255904));
#1362=CARTESIAN_POINT('',(-9.31031325486746,-126.07718882154,141.000003293157));
#1363=CARTESIAN_POINT('',(-9.31031325486736,11.96703163107,141.000003293157));
#1364=CARTESIAN_POINT('',(-9.31031325486746,-126.07718882154,137.000003233552));
#1365=CARTESIAN_POINT('',(-9.31031325486746,-126.07718882154,135.938326892078));
#1366=CARTESIAN_POINT('',(-9.31031325486747,-138.03296836893,137.000003233552));
#1367=CARTESIAN_POINT('',(-9.31031325486737,11.96703163107,137.000003233552));
#1368=CARTESIAN_POINT('',(-9.31031321016399,-140.03296836893,135.000003233552));
#1369=CARTESIAN_POINT('',(-9.31031325486745,-101.03296836893,174.000003233552));
#1370=CARTESIAN_POINT('',(-9.31031321016396,-140.03296836893,126.000003114343));
#1371=CARTESIAN_POINT('',(-9.31031321016399,-140.03296836893,135.000003278256));
#1372=CARTESIAN_POINT('',(-9.31031325486748,-138.03296836893,124.000003114343));
#1373=CARTESIAN_POINT('',(-9.31031325486744,-103.032968398732,89.0000031441451));
#1374=CARTESIAN_POINT('',(-9.31031325486748,-126.07718882154,124.000003114343));
#1375=CARTESIAN_POINT('',(-9.31031325486736,11.96703163107,124.000003114343));
#1376=CARTESIAN_POINT('',(-9.31031325486748,-126.03296836893,124.000003114343));
#1377=CARTESIAN_POINT('',(-9.31031325486736,11.96703163107,124.000003114343));
#1378=CARTESIAN_POINT('',(-9.31031325486746,-126.03296836893,120.000003054738));
#1379=CARTESIAN_POINT('',(-9.31031325486748,-126.03296836893,121.000003069639));
#1380=CARTESIAN_POINT('',(-9.31031325486745,-126.07718882154,120.000003054738));
#1381=CARTESIAN_POINT('',(-9.31031325486735,11.96703163107,120.000003054738));
#1382=CARTESIAN_POINT('',(-9.31031325486747,-140.03296836893,120.000003054738));
#1383=CARTESIAN_POINT('',(-9.31031325486735,11.96703163107,120.000003054738));
#1384=CARTESIAN_POINT('',(-9.31031325486744,-105.532968406183,85.5000031217933));
#1385=CARTESIAN_POINT('Origin',(14.189687199618,-64.0329683689301,136.500003263354));
#1386=CARTESIAN_POINT('',(11.6896871772662,-142.03296836893,139.000003263354));
#1387=CARTESIAN_POINT('',(11.6896871772663,-64.0329683689301,139.000003263354));
#1388=CARTESIAN_POINT('',(-3.22697959644048,-127.116301728589,153.916669903696));
#1389=CARTESIAN_POINT('Origin',(-6.81031323251568,-64.0329683689301,136.500003263354));
#1390=CARTESIAN_POINT('',(-4.31031321016399,-142.03296836893,139.000003263354));
#1391=CARTESIAN_POINT('',(-4.31031321016394,-64.0329683689301,139.000003263354));
#1392=CARTESIAN_POINT('',(8.4396868387615,-129.282968433998,151.750003198286));
#1393=CARTESIAN_POINT('Origin',(-9.31031321016398,-140.03296836893,139.000003263354));
#1394=CARTESIAN_POINT('',(-2.81031311330644,-142.03296836893,139.000003263354));
#1395=CARTESIAN_POINT('Origin',(-9.31031325486736,11.96703163107,132.000003233552));
#1396=CARTESIAN_POINT('',(-9.31031325486744,-126.07718882154,132.000003233552));
#1397=CARTESIAN_POINT('',(-9.31031325486746,-126.07718882154,136.000003293157));
#1398=CARTESIAN_POINT('',(-9.31031325486746,-126.07718882154,135.938326892078));
#1399=CARTESIAN_POINT('',(-9.31031325486748,-126.03296836893,136.000003293157));
#1400=CARTESIAN_POINT('',(-9.31031325486736,11.96703163107,136.000003293157));
#1401=CARTESIAN_POINT('',(-9.31031325486745,-126.03296836893,132.000003233552));
#1402=CARTESIAN_POINT('',(-9.31031325486748,-126.03296836893,133.000003248453));
#1403=CARTESIAN_POINT('',(-9.31031325486736,11.96703163107,132.000003233552));
#1404=CARTESIAN_POINT('Origin',(3.84579412453544,-114.537395122274,135.938326892078));
#1405=CARTESIAN_POINT('',(9.83114663273462,-98.092774258521,117.938326892078));
#1406=CARTESIAN_POINT('Origin',(3.84579412453544,-114.537395122274,117.938326892078));
#1407=CARTESIAN_POINT('',(9.83114663273465,-98.0927742585209,142.938326892078));
#1408=CARTESIAN_POINT('',(9.83114663273465,-98.0927742585209,135.938326892078));
#1409=CARTESIAN_POINT('Origin',(3.84579412453544,-114.537395122274,142.938326892078));
#1410=CARTESIAN_POINT('',(-9.34896982677397,-126.03296836893,124.000003114343));
#1411=CARTESIAN_POINT('Origin',(3.84579412453545,-114.537395122274,124.000003114343));
#1412=CARTESIAN_POINT('Origin',(3.84579412453545,-114.537395122274,124.000003114343));
#1413=CARTESIAN_POINT('',(17.0405580758448,-126.03296836893,124.000003114343));
#1414=CARTESIAN_POINT('Origin',(3.84579412453545,-114.537395122274,124.000003114343));
#1415=CARTESIAN_POINT('',(17.0405580758448,-126.03296836893,120.000003054738));
#1416=CARTESIAN_POINT('',(17.0405580758448,-126.03296836893,135.938326892078));
#1417=CARTESIAN_POINT('Origin',(3.84579412453546,-114.537395122274,120.000003054738));
#1418=CARTESIAN_POINT('Origin',(3.84579412453546,-114.537395122274,120.000003054738));
#1419=CARTESIAN_POINT('',(-9.34896982677397,-126.03296836893,120.000003054738));
#1420=CARTESIAN_POINT('Origin',(3.84579412453546,-114.537395122274,120.000003054738));
#1421=CARTESIAN_POINT('',(-9.34896982677394,-126.03296836893,135.938326892078));
#1422=CARTESIAN_POINT('',(-9.34896982677392,-126.03296836893,132.000003233552));
#1423=CARTESIAN_POINT('Origin',(3.84579412453546,-114.537395122274,132.000003233552));
#1424=CARTESIAN_POINT('',(-9.34896982677394,-126.03296836893,136.000003293157));
#1425=CARTESIAN_POINT('',(-9.34896982677394,-126.03296836893,135.938326892078));
#1426=CARTESIAN_POINT('Origin',(3.84579412453544,-114.537395122274,136.000003293157));
#1427=CARTESIAN_POINT('Origin',(3.84579412453546,-114.537395122274,137.000003233552));
#1428=CARTESIAN_POINT('Origin',(3.84579412453545,-114.537395122274,141.000003293157));
#1429=CARTESIAN_POINT('',(16.6896872219697,-126.423707001982,132.000003233552));
#1430=CARTESIAN_POINT('',(16.6896872219697,-126.423707001982,136.000003293157));
#1431=CARTESIAN_POINT('',(16.6896872219697,-126.423707001982,135.938326892078));
#1432=CARTESIAN_POINT('',(17.0405580758448,-126.03296836893,136.000003293157));
#1433=CARTESIAN_POINT('Origin',(3.84579412453544,-114.537395122274,136.000003293157));
#1434=CARTESIAN_POINT('',(17.0405580758448,-126.03296836893,132.000003233552));
#1435=CARTESIAN_POINT('',(17.0405580758448,-126.03296836893,135.938326892078));
#1436=CARTESIAN_POINT('Origin',(3.84579412453546,-114.537395122274,132.000003233552));
#1437=CARTESIAN_POINT('Origin',(16.6896872219698,11.96703163107,136.000003293157));
#1438=CARTESIAN_POINT('',(16.6896872219697,-126.03296836893,132.000003233552));
#1439=CARTESIAN_POINT('',(16.6896872219698,11.96703163107,132.000003233552));
#1440=CARTESIAN_POINT('',(16.6896872219697,-126.03296836893,136.000003293157));
#1441=CARTESIAN_POINT('',(16.6896872219697,-126.03296836893,135.000003278256));
#1442=CARTESIAN_POINT('',(16.6896872219698,11.96703163107,136.000003293157));
#1443=CARTESIAN_POINT('Origin',(10.1896870804087,-141.03296836893,121.00000308454));
#1444=CARTESIAN_POINT('',(19.6896872219697,-140.03296836893,120.000003054738));
#1445=CARTESIAN_POINT('',(10.1896870804087,-142.03296836893,122.00000308454));
#1446=CARTESIAN_POINT('Origin',(16.6896871772662,-140.03296836893,122.00000308454));
#1447=CARTESIAN_POINT('Origin',(-4.3103131244823,-139.03296836893,125.000003114343));
#1448=CARTESIAN_POINT('',(-4.31031312448231,-140.03296836893,126.000003114343));
#1449=CARTESIAN_POINT('',(-4.31031312448232,-138.03296836893,124.000003114343));
#1450=CARTESIAN_POINT('Origin',(-12.3103132548674,11.96703163107,124.000003114343));
#1451=CARTESIAN_POINT('Origin',(11.6896871139363,-139.03296836893,136.000003233552));
#1452=CARTESIAN_POINT('',(11.6896871139363,-140.03296836893,135.000003233552));
#1453=CARTESIAN_POINT('',(11.6896871139363,-138.03296836893,137.000003233552));
#1454=CARTESIAN_POINT('Origin',(19.6896872219698,11.96703163107,137.000003233552));
#1455=CARTESIAN_POINT('Origin',(-2.81031311330644,-141.03296836893,140.000003263354));
#1456=CARTESIAN_POINT('',(19.6896872219697,-140.03296836893,141.000003293157));
#1457=CARTESIAN_POINT('Origin',(3.68968700590287,-140.03296836893,128.000003173947));
#1458=CARTESIAN_POINT('Origin',(19.6896872219697,-135.03296836893,120.000003054738));
#1459=CARTESIAN_POINT('',(19.6896872219697,-126.03296836893,120.000003054738));
#1460=CARTESIAN_POINT('Origin',(19.6896872219697,-126.03296836893,120.000003054738));
#1461=CARTESIAN_POINT('',(19.6896872219697,-126.03296836893,124.000003114343));
#1462=CARTESIAN_POINT('Origin',(19.6896872219697,-126.03296836893,124.000003114343));
#1463=CARTESIAN_POINT('Origin',(-12.3103132548674,-126.03296836893,132.000003233552));
#1464=CARTESIAN_POINT('',(19.6896872219697,-126.03296836893,132.000003233552));
#1465=CARTESIAN_POINT('Origin',(19.6896872219697,-126.03296836893,132.000003233552));
#1466=CARTESIAN_POINT('',(19.6896872219697,-126.03296836893,136.000003293157));
#1467=CARTESIAN_POINT('Origin',(19.6896872219697,-126.03296836893,136.000003293157));
#1468=CARTESIAN_POINT('Origin',(19.6896872219698,11.9670316310699,120.000003054738));
#1469=CARTESIAN_POINT('Origin',(19.6896872219697,-126.03296836893,136.000003293157));
#1470=CARTESIAN_POINT('',(-12.3103132548675,-126.03296836893,136.000003293157));
#1471=CARTESIAN_POINT('Origin',(-12.3103132548675,-126.03296836893,136.000003293157));
#1472=CARTESIAN_POINT('',(-12.3103132548674,-126.03296836893,132.000003233552));
#1473=CARTESIAN_POINT('Origin',(-12.3103132548674,-126.03296836893,132.000003233552));
#1474=CARTESIAN_POINT('Origin',(-12.3103132548675,-135.03296836893,124.000003114343));
#1475=CARTESIAN_POINT('',(-12.3103132548675,-126.03296836893,124.000003114343));
#1476=CARTESIAN_POINT('Origin',(-12.3103132548675,-126.03296836893,124.000003114343));
#1477=CARTESIAN_POINT('',(-12.3103132548674,-126.03296836893,120.000003054738));
#1478=CARTESIAN_POINT('Origin',(-12.3103132548674,-126.03296836893,120.000003054738));
#1479=CARTESIAN_POINT('Origin',(-12.3103132548674,11.96703163107,141.000003293157));
#1480=CARTESIAN_POINT('Origin',(3.84579412453545,-114.537395122274,127.938326892078));
#1481=CARTESIAN_POINT('',(5.58227590120469,-124.385472652396,127.938326892078));
#1482=CARTESIAN_POINT('Origin',(3.84579412453545,-114.537395122274,127.938326892078));
#1483=CARTESIAN_POINT('',(0.0912313365785389,-121.748671061816,127.938326892078));
#1484=CARTESIAN_POINT('Origin',(-0.169240929921881,-120.271459432297,127.938326892078));
#1485=CARTESIAN_POINT('',(9.84033070105881,-120.02964180625,127.938326892078));
#1486=CARTESIAN_POINT('Origin',(9.57985843455837,-118.552430176732,127.938326892078));
#1487=CARTESIAN_POINT('',(-1.62779791898713,-111.999571697335,127.938326892078));
#1488=CARTESIAN_POINT('Origin',(-1.8882701854875,-110.522360067817,127.938326892078));
#1489=CARTESIAN_POINT('',(8.12130144549314,-110.28054244177,127.938326892078));
#1490=CARTESIAN_POINT('Origin',(7.86082917899276,-108.803330812251,127.938326892078));
#1491=CARTESIAN_POINT('',(4.10626639103581,-116.014606751793,127.938326892078));
#1492=CARTESIAN_POINT('Origin',(3.84579412453545,-114.537395122274,127.938326892078));
#1493=CARTESIAN_POINT('Origin',(-0.16924092992189,-120.271459432297,120.938326892078));
#1494=CARTESIAN_POINT('',(0.0912313365785034,-121.748671061816,123.938326892078));
#1495=CARTESIAN_POINT('',(0.0912313365785052,-121.748671061816,120.938326892078));
#1496=CARTESIAN_POINT('Origin',(-0.16924092992189,-120.271459432297,123.938326892078));
#1497=CARTESIAN_POINT('Origin',(-1.88827018548752,-110.522360067817,120.938326892078));
#1498=CARTESIAN_POINT('',(-1.62779791898715,-111.999571697335,123.938326892078));
#1499=CARTESIAN_POINT('',(-1.62779791898712,-111.999571697335,120.938326892078));
#1500=CARTESIAN_POINT('Origin',(-1.88827018548752,-110.522360067817,123.938326892078));
#1501=CARTESIAN_POINT('Origin',(3.84579412453543,-114.537395122274,120.938326892078));
#1502=CARTESIAN_POINT('',(4.10626639103581,-116.014606751793,125.938326892078));
#1503=CARTESIAN_POINT('',(4.10626639103582,-116.014606751793,120.938326892078));
#1504=CARTESIAN_POINT('Origin',(3.84579412453545,-114.537395122274,125.938326892078));
#1505=CARTESIAN_POINT('Origin',(9.57985843455834,-118.552430176732,120.938326892078));
#1506=CARTESIAN_POINT('',(9.84033070105879,-120.02964180625,123.938326892078));
#1507=CARTESIAN_POINT('',(9.84033070105873,-120.02964180625,120.938326892078));
#1508=CARTESIAN_POINT('Origin',(9.57985843455836,-118.552430176732,123.938326892078));
#1509=CARTESIAN_POINT('Origin',(7.86082917899276,-108.803330812251,120.938326892078));
#1510=CARTESIAN_POINT('',(8.12130144549314,-110.28054244177,123.938326892078));
#1511=CARTESIAN_POINT('',(8.12130144549316,-110.28054244177,120.938326892078));
#1512=CARTESIAN_POINT('Origin',(7.86082917899274,-108.803330812251,123.938326892078));
#1513=CARTESIAN_POINT('Origin',(-3.51058933617809,-112.839271929175,127.938326892078));
#1514=CARTESIAN_POINT('',(0.428641675870733,-112.144679218508,123.938326892078));
#1515=CARTESIAN_POINT('',(0.428641675870738,-112.144679218508,125.938326892078));
#1516=CARTESIAN_POINT('',(0.428641675870738,-112.144679218508,125.938326892078));
#1517=CARTESIAN_POINT('',(6.23851002830221,-111.12024267361,123.938326892078));
#1518=CARTESIAN_POINT('',(0.428641675870733,-112.144679218508,123.938326892078));
#1519=CARTESIAN_POINT('',(6.23851002830221,-111.12024267361,125.938326892078));
#1520=CARTESIAN_POINT('',(6.23851002830221,-111.12024267361,125.938326892078));
#1521=CARTESIAN_POINT('',(1.88110876397858,-111.888570082283,125.938326892078));
#1522=CARTESIAN_POINT('Origin',(1.45307822076867,-117.954547570939,127.938326892078));
#1523=CARTESIAN_POINT('',(1.45307822076867,-117.954547570939,125.938326892078));
#1524=CARTESIAN_POINT('',(1.45307822076867,-117.954547570939,123.938326892078));
#1525=CARTESIAN_POINT('',(1.45307822076867,-117.954547570939,125.938326892078));
#1526=CARTESIAN_POINT('',(7.26294657320013,-116.930111026041,125.938326892078));
#1527=CARTESIAN_POINT('',(2.9055453088765,-117.698438434714,125.938326892078));
#1528=CARTESIAN_POINT('',(7.26294657320013,-116.930111026041,123.938326892078));
#1529=CARTESIAN_POINT('',(7.26294657320013,-116.930111026041,126.938326892078));
#1530=CARTESIAN_POINT('',(1.45307822076867,-117.954547570939,123.938326892078));
#1531=CARTESIAN_POINT('Origin',(7.26294657320013,-116.930111026041,127.938326892078));
#1532=CARTESIAN_POINT('',(7.0068374369756,-115.477643937933,125.938326892078));
#1533=CARTESIAN_POINT('',(5.89121367296833,-109.150627167585,123.938326892078));
#1534=CARTESIAN_POINT('Origin',(3.84579412453545,-114.537395122274,125.938326892078));
#1535=CARTESIAN_POINT('',(1.19696908454419,-116.502080482831,125.938326892078));
#1536=CARTESIAN_POINT('Origin',(1.45307822076867,-117.954547570939,123.938326892078));
#1537=CARTESIAN_POINT('',(1.45307822076867,-117.954547570939,123.938326892078));
#1538=CARTESIAN_POINT('Origin',(3.84579412453545,-114.537395122274,127.938326892078));
#1539=CARTESIAN_POINT('',(5.58227590120467,-124.385472652396,142.938326892078));
#1540=CARTESIAN_POINT('Origin',(3.84579412453544,-114.537395122274,142.938326892078));
#1541=CARTESIAN_POINT('',(5.58227590120475,-124.385472652396,127.938326892078));
#1542=CARTESIAN_POINT('Origin',(9.57985843455836,-118.552430176732,123.938326892078));
#1543=CARTESIAN_POINT('Origin',(3.84579412453544,-114.537395122274,117.938326892078));
#1544=CARTESIAN_POINT('Origin',(4.27991456870273,-116.999414504805,142.938326892078));
#1545=UNCERTAINTY_MEASURE_WITH_UNIT(LENGTH_MEASURE(0.01),#1549,
'DISTANCE_ACCURACY_VALUE',
'Maximum model space distance between geometric entities at asserted c
onnectivities');
#1546=UNCERTAINTY_MEASURE_WITH_UNIT(LENGTH_MEASURE(0.01),#1549,
'DISTANCE_ACCURACY_VALUE',
'Maximum model space distance between geometric entities at asserted c
onnectivities');
#1547=(
GEOMETRIC_REPRESENTATION_CONTEXT(3)
GLOBAL_UNCERTAINTY_ASSIGNED_CONTEXT((#1545))
GLOBAL_UNIT_ASSIGNED_CONTEXT((#1549,#1551,#1552))
REPRESENTATION_CONTEXT('','3D')
);
#1548=(
GEOMETRIC_REPRESENTATION_CONTEXT(3)
GLOBAL_UNCERTAINTY_ASSIGNED_CONTEXT((#1546))
GLOBAL_UNIT_ASSIGNED_CONTEXT((#1549,#1551,#1552))
REPRESENTATION_CONTEXT('','3D')
);
#1549=(
LENGTH_UNIT()
NAMED_UNIT(*)
SI_UNIT(.MILLI.,.METRE.)
);
#1550=(
LENGTH_UNIT()
NAMED_UNIT(*)
SI_UNIT($,.METRE.)
);
#1551=(
NAMED_UNIT(*)
PLANE_ANGLE_UNIT()
SI_UNIT($,.RADIAN.)
);
#1552=(
NAMED_UNIT(*)
SI_UNIT($,.STERADIAN.)
SOLID_ANGLE_UNIT()
);
#1553=SHAPE_DEFINITION_REPRESENTATION(#1554,#1555);
#1554=PRODUCT_DEFINITION_SHAPE('',$,#1557);
#1555=SHAPE_REPRESENTATION('',(#945),#1547);
#1556=PRODUCT_DEFINITION_CONTEXT('part definition',#1561,'design');
#1557=PRODUCT_DEFINITION('2026-08-03-14-40-19-866','robot',#1558,#1556);
#1558=PRODUCT_DEFINITION_FORMATION('',$,#1563);
#1559=PRODUCT_RELATED_PRODUCT_CATEGORY('robot','robot',(#1563));
#1560=APPLICATION_PROTOCOL_DEFINITION('international standard',
'automotive_design',2009,#1561);
#1561=APPLICATION_CONTEXT(
'Core Data for Automotive Mechanical Design Process');
#1562=PRODUCT_CONTEXT('part definition',#1561,'mechanical');
#1563=PRODUCT('2026-08-03-14-40-19-866','robot',
'Spur Gear; Module: 1.0; Num Teeth: 16; Pressure Angle: 20.0; Backlash
: 0.00 mm',(#1562));
#1564=PRESENTATION_STYLE_ASSIGNMENT((#1590));
#1565=PRESENTATION_STYLE_ASSIGNMENT((#1591));
#1566=PRESENTATION_STYLE_ASSIGNMENT((#1592));
#1567=PRESENTATION_STYLE_ASSIGNMENT((#1593));
#1568=PRESENTATION_STYLE_ASSIGNMENT((#1594));
#1569=PRESENTATION_STYLE_ASSIGNMENT((#1595));
#1570=PRESENTATION_STYLE_ASSIGNMENT((#1596));
#1571=PRESENTATION_STYLE_ASSIGNMENT((#1597));
#1572=PRESENTATION_STYLE_ASSIGNMENT((#1598));
#1573=PRESENTATION_STYLE_ASSIGNMENT((#1599));
#1574=PRESENTATION_STYLE_ASSIGNMENT((#1600));
#1575=PRESENTATION_STYLE_ASSIGNMENT((#1601));
#1576=PRESENTATION_STYLE_ASSIGNMENT((#1602));
#1577=PRESENTATION_STYLE_ASSIGNMENT((#1603));
#1578=PRESENTATION_STYLE_ASSIGNMENT((#1604));
#1579=PRESENTATION_STYLE_ASSIGNMENT((#1605));
#1580=PRESENTATION_STYLE_ASSIGNMENT((#1606));
#1581=PRESENTATION_STYLE_ASSIGNMENT((#1607));
#1582=PRESENTATION_STYLE_ASSIGNMENT((#1608));
#1583=PRESENTATION_STYLE_ASSIGNMENT((#1609));
#1584=PRESENTATION_STYLE_ASSIGNMENT((#1610));
#1585=PRESENTATION_STYLE_ASSIGNMENT((#1611));
#1586=PRESENTATION_STYLE_ASSIGNMENT((#1612));
#1587=PRESENTATION_STYLE_ASSIGNMENT((#1613));
#1588=PRESENTATION_STYLE_ASSIGNMENT((#1614));
#1589=PRESENTATION_STYLE_ASSIGNMENT((#1615));
#1590=SURFACE_STYLE_USAGE(.BOTH.,#1616);
#1591=SURFACE_STYLE_USAGE(.BOTH.,#1617);
#1592=SURFACE_STYLE_USAGE(.BOTH.,#1618);
#1593=SURFACE_STYLE_USAGE(.BOTH.,#1619);
#1594=SURFACE_STYLE_USAGE(.BOTH.,#1620);
#1595=SURFACE_STYLE_USAGE(.BOTH.,#1621);
#1596=SURFACE_STYLE_USAGE(.BOTH.,#1622);
#1597=SURFACE_STYLE_USAGE(.BOTH.,#1623);
#1598=SURFACE_STYLE_USAGE(.BOTH.,#1624);
#1599=SURFACE_STYLE_USAGE(.BOTH.,#1625);
#1600=SURFACE_STYLE_USAGE(.BOTH.,#1626);
#1601=SURFACE_STYLE_USAGE(.BOTH.,#1627);
#1602=SURFACE_STYLE_USAGE(.BOTH.,#1628);
#1603=SURFACE_STYLE_USAGE(.BOTH.,#1629);
#1604=SURFACE_STYLE_USAGE(.BOTH.,#1630);
#1605=SURFACE_STYLE_USAGE(.BOTH.,#1631);
#1606=SURFACE_STYLE_USAGE(.BOTH.,#1632);
#1607=SURFACE_STYLE_USAGE(.BOTH.,#1633);
#1608=SURFACE_STYLE_USAGE(.BOTH.,#1634);
#1609=SURFACE_STYLE_USAGE(.BOTH.,#1635);
#1610=SURFACE_STYLE_USAGE(.BOTH.,#1636);
#1611=SURFACE_STYLE_USAGE(.BOTH.,#1637);
#1612=SURFACE_STYLE_USAGE(.BOTH.,#1638);
#1613=SURFACE_STYLE_USAGE(.BOTH.,#1639);
#1614=SURFACE_STYLE_USAGE(.BOTH.,#1640);
#1615=SURFACE_STYLE_USAGE(.BOTH.,#1641);
#1616=SURFACE_SIDE_STYLE('',(#1642));
#1617=SURFACE_SIDE_STYLE('',(#1643));
#1618=SURFACE_SIDE_STYLE('',(#1644));
#1619=SURFACE_SIDE_STYLE('',(#1645));
#1620=SURFACE_SIDE_STYLE('',(#1646));
#1621=SURFACE_SIDE_STYLE('',(#1647));
#1622=SURFACE_SIDE_STYLE('',(#1648));
#1623=SURFACE_SIDE_STYLE('',(#1649));
#1624=SURFACE_SIDE_STYLE('',(#1650));
#1625=SURFACE_SIDE_STYLE('',(#1651));
#1626=SURFACE_SIDE_STYLE('',(#1652));
#1627=SURFACE_SIDE_STYLE('',(#1653));
#1628=SURFACE_SIDE_STYLE('',(#1654));
#1629=SURFACE_SIDE_STYLE('',(#1655));
#1630=SURFACE_SIDE_STYLE('',(#1656));
#1631=SURFACE_SIDE_STYLE('',(#1657));
#1632=SURFACE_SIDE_STYLE('',(#1658));
#1633=SURFACE_SIDE_STYLE('',(#1659));
#1634=SURFACE_SIDE_STYLE('',(#1660));
#1635=SURFACE_SIDE_STYLE('',(#1661));
#1636=SURFACE_SIDE_STYLE('',(#1662));
#1637=SURFACE_SIDE_STYLE('',(#1663));
#1638=SURFACE_SIDE_STYLE('',(#1664));
#1639=SURFACE_SIDE_STYLE('',(#1665));
#1640=SURFACE_SIDE_STYLE('',(#1666));
#1641=SURFACE_SIDE_STYLE('',(#1667));
#1642=SURFACE_STYLE_FILL_AREA(#1668);
#1643=SURFACE_STYLE_FILL_AREA(#1669);
#1644=SURFACE_STYLE_FILL_AREA(#1670);
#1645=SURFACE_STYLE_FILL_AREA(#1671);
#1646=SURFACE_STYLE_FILL_AREA(#1672);
#1647=SURFACE_STYLE_FILL_AREA(#1673);
#1648=SURFACE_STYLE_FILL_AREA(#1674);
#1649=SURFACE_STYLE_FILL_AREA(#1675);
#1650=SURFACE_STYLE_FILL_AREA(#1676);
#1651=SURFACE_STYLE_FILL_AREA(#1677);
#1652=SURFACE_STYLE_FILL_AREA(#1678);
#1653=SURFACE_STYLE_FILL_AREA(#1679);
#1654=SURFACE_STYLE_FILL_AREA(#1680);
#1655=SURFACE_STYLE_FILL_AREA(#1681);
#1656=SURFACE_STYLE_FILL_AREA(#1682);
#1657=SURFACE_STYLE_FILL_AREA(#1683);
#1658=SURFACE_STYLE_FILL_AREA(#1684);
#1659=SURFACE_STYLE_FILL_AREA(#1685);
#1660=SURFACE_STYLE_FILL_AREA(#1686);
#1661=SURFACE_STYLE_FILL_AREA(#1687);
#1662=SURFACE_STYLE_FILL_AREA(#1688);
#1663=SURFACE_STYLE_FILL_AREA(#1689);
#1664=SURFACE_STYLE_FILL_AREA(#1690);
#1665=SURFACE_STYLE_FILL_AREA(#1691);
#1666=SURFACE_STYLE_FILL_AREA(#1692);
#1667=SURFACE_STYLE_FILL_AREA(#1693);
#1668=FILL_AREA_STYLE('Steel - Satin',(#1694));
#1669=FILL_AREA_STYLE('Opaque(76,76,76)',(#1695));
#1670=FILL_AREA_STYLE('Opaque(51,51,51)',(#1696));
#1671=FILL_AREA_STYLE('Opaque(223,223,223)',(#1697));
#1672=FILL_AREA_STYLE('Opaque(255,255,255)',(#1698));
#1673=FILL_AREA_STYLE('Opaque(255,202,0)',(#1699));
#1674=FILL_AREA_STYLE('Opaque(152,170,175)',(#1700));
#1675=FILL_AREA_STYLE('Opaque(153,153,153)',(#1701));
#1676=FILL_AREA_STYLE('Opaque(195,225,190)',(#1702));
#1677=FILL_AREA_STYLE('Opaque(255,153,0)',(#1703));
#1678=FILL_AREA_STYLE('Opaque(204,255,51)',(#1704));
#1679=FILL_AREA_STYLE('Opaque(0,153,0)',(#1705));
#1680=FILL_AREA_STYLE('Opaque(153,102,51)',(#1706));
#1681=FILL_AREA_STYLE('Opaque(0,153,255)',(#1707));
#1682=FILL_AREA_STYLE('Opaque(230,235,235)',(#1708));
#1683=FILL_AREA_STYLE('Opaque(255,245,227)',(#1709));
#1684=FILL_AREA_STYLE('Opaque(204,0,0)',(#1710));
#1685=FILL_AREA_STYLE('Opaque(0,0,172)',(#1711));
#1686=FILL_AREA_STYLE('Opaque(255,248,56)',(#1712));
#1687=FILL_AREA_STYLE('Opaque(112,112,112)',(#1713));
#1688=FILL_AREA_STYLE('Opaque(112,121,128)',(#1714));
#1689=FILL_AREA_STYLE('Opaque(234,234,234)',(#1715));
#1690=FILL_AREA_STYLE('Opaque(95,167,61)',(#1716));
#1691=FILL_AREA_STYLE('Opaque(131,188,104)',(#1717));
#1692=FILL_AREA_STYLE('Opaque(30,23,23)',(#1718));
#1693=FILL_AREA_STYLE('Opaque(202,209,238)',(#1719));
#1694=FILL_AREA_STYLE_COLOUR('Steel - Satin',#1720);
#1695=FILL_AREA_STYLE_COLOUR('Opaque(76,76,76)',#1721);
#1696=FILL_AREA_STYLE_COLOUR('Opaque(51,51,51)',#1722);
#1697=FILL_AREA_STYLE_COLOUR('Opaque(223,223,223)',#1723);
#1698=FILL_AREA_STYLE_COLOUR('Opaque(255,255,255)',#1724);
#1699=FILL_AREA_STYLE_COLOUR('Opaque(255,202,0)',#1725);
#1700=FILL_AREA_STYLE_COLOUR('Opaque(152,170,175)',#1726);
#1701=FILL_AREA_STYLE_COLOUR('Opaque(153,153,153)',#1727);
#1702=FILL_AREA_STYLE_COLOUR('Opaque(195,225,190)',#1728);
#1703=FILL_AREA_STYLE_COLOUR('Opaque(255,153,0)',#1729);
#1704=FILL_AREA_STYLE_COLOUR('Opaque(204,255,51)',#1730);
#1705=FILL_AREA_STYLE_COLOUR('Opaque(0,153,0)',#1731);
#1706=FILL_AREA_STYLE_COLOUR('Opaque(153,102,51)',#1732);
#1707=FILL_AREA_STYLE_COLOUR('Opaque(0,153,255)',#1733);
#1708=FILL_AREA_STYLE_COLOUR('Opaque(230,235,235)',#1734);
#1709=FILL_AREA_STYLE_COLOUR('Opaque(255,245,227)',#1735);
#1710=FILL_AREA_STYLE_COLOUR('Opaque(204,0,0)',#1736);
#1711=FILL_AREA_STYLE_COLOUR('Opaque(0,0,172)',#1737);
#1712=FILL_AREA_STYLE_COLOUR('Opaque(255,248,56)',#1738);
#1713=FILL_AREA_STYLE_COLOUR('Opaque(112,112,112)',#1739);
#1714=FILL_AREA_STYLE_COLOUR('Opaque(112,121,128)',#1740);
#1715=FILL_AREA_STYLE_COLOUR('Opaque(234,234,234)',#1741);
#1716=FILL_AREA_STYLE_COLOUR('Opaque(95,167,61)',#1742);
#1717=FILL_AREA_STYLE_COLOUR('Opaque(131,188,104)',#1743);
#1718=FILL_AREA_STYLE_COLOUR('Opaque(30,23,23)',#1744);
#1719=FILL_AREA_STYLE_COLOUR('Opaque(202,209,238)',#1745);
#1720=COLOUR_RGB('Steel - Satin',0.627450980392157,0.627450980392157,0.627450980392157);
#1721=COLOUR_RGB('Opaque(76,76,76)',0.298039215686275,0.298039215686275,
0.298039215686275);
#1722=COLOUR_RGB('Opaque(51,51,51)',0.2,0.2,0.2);
#1723=COLOUR_RGB('Opaque(223,223,223)',0.874509803921569,0.874509803921569,
0.874509803921569);
#1724=COLOUR_RGB('Opaque(255,255,255)',1.,1.,1.);
#1725=COLOUR_RGB('Opaque(255,202,0)',1.,0.792156862745098,0.);
#1726=COLOUR_RGB('Opaque(152,170,175)',0.596078431372549,0.666666666666667,
0.686274509803922);
#1727=COLOUR_RGB('Opaque(153,153,153)',0.6,0.6,0.6);
#1728=COLOUR_RGB('Opaque(195,225,190)',0.764705882352941,0.882352941176471,
0.745098039215686);
#1729=COLOUR_RGB('Opaque(255,153,0)',1.,0.6,0.);
#1730=COLOUR_RGB('Opaque(204,255,51)',0.8,1.,0.2);
#1731=COLOUR_RGB('Opaque(0,153,0)',0.,0.6,0.);
#1732=COLOUR_RGB('Opaque(153,102,51)',0.6,0.4,0.2);
#1733=COLOUR_RGB('Opaque(0,153,255)',0.,0.6,1.);
#1734=COLOUR_RGB('Opaque(230,235,235)',0.901960784313726,0.92156862745098,
0.92156862745098);
#1735=COLOUR_RGB('Opaque(255,245,227)',1.,0.96078431372549,0.890196078431372);
#1736=COLOUR_RGB('Opaque(204,0,0)',0.8,0.,0.);
#1737=COLOUR_RGB('Opaque(0,0,172)',0.,0.,0.674509803921569);
#1738=COLOUR_RGB('Opaque(255,248,56)',1.,0.972549019607843,0.219607843137255);
#1739=COLOUR_RGB('Opaque(112,112,112)',0.43921568627451,0.43921568627451,
0.43921568627451);
#1740=COLOUR_RGB('Opaque(112,121,128)',0.43921568627451,0.474509803921569,
0.501960784313725);
#1741=COLOUR_RGB('Opaque(234,234,234)',0.917647058823529,0.917647058823529,
0.917647058823529);
#1742=COLOUR_RGB('Opaque(95,167,61)',0.372549019607843,0.654901960784314,
0.23921568627451);
#1743=COLOUR_RGB('Opaque(131,188,104)',0.513725490196078,0.737254901960784,
0.407843137254902);
#1744=COLOUR_RGB('Opaque(30,23,23)',0.117647058823529,0.0901960784313725,
0.0901960784313725);
#1745=COLOUR_RGB('Opaque(202,209,238)',0.792156862745098,0.819607843137255,
0.933333333333333);
ENDSEC;
END-ISO-10303-21;
