ISO-10303-21;
HEADER;
/* Generated by software containing ST-Developer
 * from STEP Tools, Inc. (www.steptools.com) 
 */

FILE_DESCRIPTION(
/* description */ (
'Spur Gear; Module: 1.0; Num Teeth: 16; Pressure Angle: 20.0; Backlash
: 0.00 mm'),
/* implementation_level */ '2;1');

FILE_NAME(
/* name */ 'robot_toe.step',
/* time_stamp */ '2026-08-23T13:48:50-04:00',
/* author */ (''),
/* organization */ (''),
/* preprocessor_version */ 'ST-DEVELOPER v20.1',
/* originating_system */ 'Autodesk Translation Framework v15.8.0.0',
/* authorisation */ '');

FILE_SCHEMA (('AUTOMOTIVE_DESIGN { 1 0 10303 214 3 1 1 }'));
ENDSEC;

DATA;
#10=MECHANICAL_DESIGN_GEOMETRIC_PRESENTATION_REPRESENTATION('',(#13),#597);
#11=SHAPE_REPRESENTATION_RELATIONSHIP('SRR','None',#604,#12);
#12=ADVANCED_BREP_SHAPE_REPRESENTATION('',(#14),#596);
#13=STYLED_ITEM('',(#613),#14);
#14=MANIFOLD_SOLID_BREP('Body280',#361);
#15=FACE_BOUND('',#62,.T.);
#16=FACE_BOUND('',#82,.T.);
#17=PLANE('',#381);
#18=PLANE('',#382);
#19=PLANE('',#383);
#20=PLANE('',#384);
#21=PLANE('',#385);
#22=PLANE('',#386);
#23=PLANE('',#387);
#24=PLANE('',#388);
#25=PLANE('',#389);
#26=PLANE('',#390);
#27=PLANE('',#391);
#28=PLANE('',#392);
#29=PLANE('',#393);
#30=PLANE('',#394);
#31=PLANE('',#395);
#32=PLANE('',#396);
#33=PLANE('',#397);
#34=PLANE('',#398);
#35=PLANE('',#399);
#36=PLANE('',#400);
#37=FACE_OUTER_BOUND('',#59,.T.);
#38=FACE_OUTER_BOUND('',#60,.T.);
#39=FACE_OUTER_BOUND('',#61,.T.);
#40=FACE_OUTER_BOUND('',#63,.T.);
#41=FACE_OUTER_BOUND('',#64,.T.);
#42=FACE_OUTER_BOUND('',#65,.T.);
#43=FACE_OUTER_BOUND('',#66,.T.);
#44=FACE_OUTER_BOUND('',#67,.T.);
#45=FACE_OUTER_BOUND('',#68,.T.);
#46=FACE_OUTER_BOUND('',#69,.T.);
#47=FACE_OUTER_BOUND('',#70,.T.);
#48=FACE_OUTER_BOUND('',#71,.T.);
#49=FACE_OUTER_BOUND('',#72,.T.);
#50=FACE_OUTER_BOUND('',#73,.T.);
#51=FACE_OUTER_BOUND('',#74,.T.);
#52=FACE_OUTER_BOUND('',#75,.T.);
#53=FACE_OUTER_BOUND('',#76,.T.);
#54=FACE_OUTER_BOUND('',#77,.T.);
#55=FACE_OUTER_BOUND('',#78,.T.);
#56=FACE_OUTER_BOUND('',#79,.T.);
#57=FACE_OUTER_BOUND('',#80,.T.);
#58=FACE_OUTER_BOUND('',#81,.T.);
#59=EDGE_LOOP('',(#245,#246,#247,#248));
#60=EDGE_LOOP('',(#249,#250,#251,#252));
#61=EDGE_LOOP('',(#253));
#62=EDGE_LOOP('',(#254));
#63=EDGE_LOOP('',(#255));
#64=EDGE_LOOP('',(#256,#257,#258,#259));
#65=EDGE_LOOP('',(#260,#261,#262,#263));
#66=EDGE_LOOP('',(#264,#265,#266,#267));
#67=EDGE_LOOP('',(#268,#269,#270,#271));
#68=EDGE_LOOP('',(#272,#273,#274,#275));
#69=EDGE_LOOP('',(#276,#277,#278,#279));
#70=EDGE_LOOP('',(#280,#281,#282,#283));
#71=EDGE_LOOP('',(#284,#285,#286,#287));
#72=EDGE_LOOP('',(#288,#289,#290,#291));
#73=EDGE_LOOP('',(#292,#293,#294,#295));
#74=EDGE_LOOP('',(#296,#297,#298,#299));
#75=EDGE_LOOP('',(#300,#301,#302,#303));
#76=EDGE_LOOP('',(#304,#305,#306,#307,#308,#309,#310,#311));
#77=EDGE_LOOP('',(#312,#313,#314,#315));
#78=EDGE_LOOP('',(#316,#317,#318,#319));
#79=EDGE_LOOP('',(#320,#321,#322,#323));
#80=EDGE_LOOP('',(#324,#325,#326,#327));
#81=EDGE_LOOP('',(#328,#329,#330,#331,#332,#333,#334,#335));
#82=EDGE_LOOP('',(#336));
#83=LINE('',#502,#125);
#84=LINE('',#508,#126);
#85=LINE('',#515,#127);
#86=LINE('',#517,#128);
#87=LINE('',#519,#129);
#88=LINE('',#520,#130);
#89=LINE('',#523,#131);
#90=LINE('',#525,#132);
#91=LINE('',#526,#133);
#92=LINE('',#529,#134);
#93=LINE('',#531,#135);
#94=LINE('',#532,#136);
#95=LINE('',#535,#137);
#96=LINE('',#537,#138);
#97=LINE('',#538,#139);
#98=LINE('',#541,#140);
#99=LINE('',#543,#141);
#100=LINE('',#544,#142);
#101=LINE('',#547,#143);
#102=LINE('',#549,#144);
#103=LINE('',#550,#145);
#104=LINE('',#553,#146);
#105=LINE('',#555,#147);
#106=LINE('',#556,#148);
#107=LINE('',#558,#149);
#108=LINE('',#559,#150);
#109=LINE('',#562,#151);
#110=LINE('',#564,#152);
#111=LINE('',#565,#153);
#112=LINE('',#568,#154);
#113=LINE('',#569,#155);
#114=LINE('',#572,#156);
#115=LINE('',#573,#157);
#116=LINE('',#576,#158);
#117=LINE('',#577,#159);
#118=LINE('',#581,#160);
#119=LINE('',#583,#161);
#120=LINE('',#584,#162);
#121=LINE('',#586,#163);
#122=LINE('',#589,#164);
#123=LINE('',#590,#165);
#124=LINE('',#592,#166);
#125=VECTOR('',#407,3.75);
#126=VECTOR('',#414,3.87499999999999);
#127=VECTOR('',#423,10.);
#128=VECTOR('',#424,10.);
#129=VECTOR('',#425,10.);
#130=VECTOR('',#426,10.);
#131=VECTOR('',#429,10.);
#132=VECTOR('',#430,10.);
#133=VECTOR('',#431,10.);
#134=VECTOR('',#434,10.);
#135=VECTOR('',#435,10.);
#136=VECTOR('',#436,10.);
#137=VECTOR('',#439,10.);
#138=VECTOR('',#440,10.);
#139=VECTOR('',#441,10.);
#140=VECTOR('',#444,10.);
#141=VECTOR('',#445,10.);
#142=VECTOR('',#446,10.);
#143=VECTOR('',#449,10.);
#144=VECTOR('',#450,10.);
#145=VECTOR('',#451,10.);
#146=VECTOR('',#454,10.);
#147=VECTOR('',#455,10.);
#148=VECTOR('',#456,10.);
#149=VECTOR('',#459,10.);
#150=VECTOR('',#460,10.);
#151=VECTOR('',#463,10.);
#152=VECTOR('',#464,10.);
#153=VECTOR('',#465,10.);
#154=VECTOR('',#468,10.);
#155=VECTOR('',#469,10.);
#156=VECTOR('',#472,10.);
#157=VECTOR('',#473,10.);
#158=VECTOR('',#476,10.);
#159=VECTOR('',#477,10.);
#160=VECTOR('',#482,10.);
#161=VECTOR('',#483,10.);
#162=VECTOR('',#484,10.);
#163=VECTOR('',#487,10.);
#164=VECTOR('',#490,10.);
#165=VECTOR('',#491,10.);
#166=VECTOR('',#494,10.);
#167=CIRCLE('',#376,3.75);
#168=CIRCLE('',#377,3.75);
#169=CIRCLE('',#379,3.875);
#170=CIRCLE('',#380,3.875);
#171=VERTEX_POINT('',#499);
#172=VERTEX_POINT('',#501);
#173=VERTEX_POINT('',#505);
#174=VERTEX_POINT('',#507);
#175=VERTEX_POINT('',#513);
#176=VERTEX_POINT('',#514);
#177=VERTEX_POINT('',#516);
#178=VERTEX_POINT('',#518);
#179=VERTEX_POINT('',#522);
#180=VERTEX_POINT('',#524);
#181=VERTEX_POINT('',#528);
#182=VERTEX_POINT('',#530);
#183=VERTEX_POINT('',#534);
#184=VERTEX_POINT('',#536);
#185=VERTEX_POINT('',#540);
#186=VERTEX_POINT('',#542);
#187=VERTEX_POINT('',#546);
#188=VERTEX_POINT('',#548);
#189=VERTEX_POINT('',#552);
#190=VERTEX_POINT('',#554);
#191=VERTEX_POINT('',#561);
#192=VERTEX_POINT('',#563);
#193=VERTEX_POINT('',#567);
#194=VERTEX_POINT('',#571);
#195=VERTEX_POINT('',#575);
#196=VERTEX_POINT('',#580);
#197=VERTEX_POINT('',#582);
#198=VERTEX_POINT('',#588);
#199=EDGE_CURVE('',#171,#171,#167,.T.);
#200=EDGE_CURVE('',#171,#172,#83,.T.);
#201=EDGE_CURVE('',#172,#172,#168,.T.);
#202=EDGE_CURVE('',#173,#173,#169,.T.);
#203=EDGE_CURVE('',#173,#174,#84,.T.);
#204=EDGE_CURVE('',#174,#174,#170,.T.);
#205=EDGE_CURVE('',#175,#176,#85,.T.);
#206=EDGE_CURVE('',#176,#177,#86,.T.);
#207=EDGE_CURVE('',#177,#178,#87,.T.);
#208=EDGE_CURVE('',#175,#178,#88,.T.);
#209=EDGE_CURVE('',#176,#179,#89,.T.);
#210=EDGE_CURVE('',#179,#180,#90,.T.);
#211=EDGE_CURVE('',#180,#177,#91,.T.);
#212=EDGE_CURVE('',#179,#181,#92,.T.);
#213=EDGE_CURVE('',#181,#182,#93,.T.);
#214=EDGE_CURVE('',#182,#180,#94,.T.);
#215=EDGE_CURVE('',#181,#183,#95,.T.);
#216=EDGE_CURVE('',#183,#184,#96,.T.);
#217=EDGE_CURVE('',#184,#182,#97,.T.);
#218=EDGE_CURVE('',#183,#185,#98,.T.);
#219=EDGE_CURVE('',#185,#186,#99,.T.);
#220=EDGE_CURVE('',#186,#184,#100,.T.);
#221=EDGE_CURVE('',#187,#186,#101,.T.);
#222=EDGE_CURVE('',#185,#188,#102,.T.);
#223=EDGE_CURVE('',#188,#187,#103,.T.);
#224=EDGE_CURVE('',#189,#187,#104,.T.);
#225=EDGE_CURVE('',#188,#190,#105,.T.);
#226=EDGE_CURVE('',#190,#189,#106,.T.);
#227=EDGE_CURVE('',#178,#189,#107,.T.);
#228=EDGE_CURVE('',#190,#175,#108,.T.);
#229=EDGE_CURVE('',#191,#187,#109,.T.);
#230=EDGE_CURVE('',#191,#192,#110,.T.);
#231=EDGE_CURVE('',#192,#186,#111,.T.);
#232=EDGE_CURVE('',#193,#189,#112,.T.);
#233=EDGE_CURVE('',#191,#193,#113,.T.);
#234=EDGE_CURVE('',#194,#178,#114,.T.);
#235=EDGE_CURVE('',#194,#193,#115,.T.);
#236=EDGE_CURVE('',#195,#177,#116,.T.);
#237=EDGE_CURVE('',#194,#195,#117,.T.);
#238=EDGE_CURVE('',#196,#184,#118,.T.);
#239=EDGE_CURVE('',#196,#197,#119,.T.);
#240=EDGE_CURVE('',#197,#182,#120,.T.);
#241=EDGE_CURVE('',#196,#192,#121,.T.);
#242=EDGE_CURVE('',#198,#180,#122,.T.);
#243=EDGE_CURVE('',#198,#195,#123,.T.);
#244=EDGE_CURVE('',#198,#197,#124,.T.);
#245=ORIENTED_EDGE('',*,*,#199,.T.);
#246=ORIENTED_EDGE('',*,*,#200,.T.);
#247=ORIENTED_EDGE('',*,*,#201,.T.);
#248=ORIENTED_EDGE('',*,*,#200,.F.);
#249=ORIENTED_EDGE('',*,*,#202,.F.);
#250=ORIENTED_EDGE('',*,*,#203,.T.);
#251=ORIENTED_EDGE('',*,*,#204,.T.);
#252=ORIENTED_EDGE('',*,*,#203,.F.);
#253=ORIENTED_EDGE('',*,*,#204,.F.);
#254=ORIENTED_EDGE('',*,*,#201,.F.);
#255=ORIENTED_EDGE('',*,*,#199,.F.);
#256=ORIENTED_EDGE('',*,*,#205,.T.);
#257=ORIENTED_EDGE('',*,*,#206,.T.);
#258=ORIENTED_EDGE('',*,*,#207,.T.);
#259=ORIENTED_EDGE('',*,*,#208,.F.);
#260=ORIENTED_EDGE('',*,*,#209,.T.);
#261=ORIENTED_EDGE('',*,*,#210,.T.);
#262=ORIENTED_EDGE('',*,*,#211,.T.);
#263=ORIENTED_EDGE('',*,*,#206,.F.);
#264=ORIENTED_EDGE('',*,*,#212,.T.);
#265=ORIENTED_EDGE('',*,*,#213,.T.);
#266=ORIENTED_EDGE('',*,*,#214,.T.);
#267=ORIENTED_EDGE('',*,*,#210,.F.);
#268=ORIENTED_EDGE('',*,*,#215,.T.);
#269=ORIENTED_EDGE('',*,*,#216,.T.);
#270=ORIENTED_EDGE('',*,*,#217,.T.);
#271=ORIENTED_EDGE('',*,*,#213,.F.);
#272=ORIENTED_EDGE('',*,*,#218,.T.);
#273=ORIENTED_EDGE('',*,*,#219,.T.);
#274=ORIENTED_EDGE('',*,*,#220,.T.);
#275=ORIENTED_EDGE('',*,*,#216,.F.);
#276=ORIENTED_EDGE('',*,*,#221,.T.);
#277=ORIENTED_EDGE('',*,*,#219,.F.);
#278=ORIENTED_EDGE('',*,*,#222,.T.);
#279=ORIENTED_EDGE('',*,*,#223,.T.);
#280=ORIENTED_EDGE('',*,*,#224,.T.);
#281=ORIENTED_EDGE('',*,*,#223,.F.);
#282=ORIENTED_EDGE('',*,*,#225,.T.);
#283=ORIENTED_EDGE('',*,*,#226,.T.);
#284=ORIENTED_EDGE('',*,*,#227,.T.);
#285=ORIENTED_EDGE('',*,*,#226,.F.);
#286=ORIENTED_EDGE('',*,*,#228,.T.);
#287=ORIENTED_EDGE('',*,*,#208,.T.);
#288=ORIENTED_EDGE('',*,*,#221,.F.);
#289=ORIENTED_EDGE('',*,*,#229,.F.);
#290=ORIENTED_EDGE('',*,*,#230,.T.);
#291=ORIENTED_EDGE('',*,*,#231,.T.);
#292=ORIENTED_EDGE('',*,*,#224,.F.);
#293=ORIENTED_EDGE('',*,*,#232,.F.);
#294=ORIENTED_EDGE('',*,*,#233,.F.);
#295=ORIENTED_EDGE('',*,*,#229,.T.);
#296=ORIENTED_EDGE('',*,*,#227,.F.);
#297=ORIENTED_EDGE('',*,*,#234,.F.);
#298=ORIENTED_EDGE('',*,*,#235,.T.);
#299=ORIENTED_EDGE('',*,*,#232,.T.);
#300=ORIENTED_EDGE('',*,*,#207,.F.);
#301=ORIENTED_EDGE('',*,*,#236,.F.);
#302=ORIENTED_EDGE('',*,*,#237,.F.);
#303=ORIENTED_EDGE('',*,*,#234,.T.);
#304=ORIENTED_EDGE('',*,*,#205,.F.);
#305=ORIENTED_EDGE('',*,*,#228,.F.);
#306=ORIENTED_EDGE('',*,*,#225,.F.);
#307=ORIENTED_EDGE('',*,*,#222,.F.);
#308=ORIENTED_EDGE('',*,*,#218,.F.);
#309=ORIENTED_EDGE('',*,*,#215,.F.);
#310=ORIENTED_EDGE('',*,*,#212,.F.);
#311=ORIENTED_EDGE('',*,*,#209,.F.);
#312=ORIENTED_EDGE('',*,*,#217,.F.);
#313=ORIENTED_EDGE('',*,*,#238,.F.);
#314=ORIENTED_EDGE('',*,*,#239,.T.);
#315=ORIENTED_EDGE('',*,*,#240,.T.);
#316=ORIENTED_EDGE('',*,*,#220,.F.);
#317=ORIENTED_EDGE('',*,*,#231,.F.);
#318=ORIENTED_EDGE('',*,*,#241,.F.);
#319=ORIENTED_EDGE('',*,*,#238,.T.);
#320=ORIENTED_EDGE('',*,*,#211,.F.);
#321=ORIENTED_EDGE('',*,*,#242,.F.);
#322=ORIENTED_EDGE('',*,*,#243,.T.);
#323=ORIENTED_EDGE('',*,*,#236,.T.);
#324=ORIENTED_EDGE('',*,*,#214,.F.);
#325=ORIENTED_EDGE('',*,*,#240,.F.);
#326=ORIENTED_EDGE('',*,*,#244,.F.);
#327=ORIENTED_EDGE('',*,*,#242,.T.);
#328=ORIENTED_EDGE('',*,*,#244,.T.);
#329=ORIENTED_EDGE('',*,*,#239,.F.);
#330=ORIENTED_EDGE('',*,*,#241,.T.);
#331=ORIENTED_EDGE('',*,*,#230,.F.);
#332=ORIENTED_EDGE('',*,*,#233,.T.);
#333=ORIENTED_EDGE('',*,*,#235,.F.);
#334=ORIENTED_EDGE('',*,*,#237,.T.);
#335=ORIENTED_EDGE('',*,*,#243,.F.);
#336=ORIENTED_EDGE('',*,*,#202,.T.);
#337=CYLINDRICAL_SURFACE('',#375,3.75);
#338=CYLINDRICAL_SURFACE('',#378,3.875);
#339=ADVANCED_FACE('',(#37),#337,.T.);
#340=ADVANCED_FACE('',(#38),#338,.F.);
#341=ADVANCED_FACE('',(#39,#15),#17,.T.);
#342=ADVANCED_FACE('',(#40),#18,.T.);
#343=ADVANCED_FACE('',(#41),#19,.T.);
#344=ADVANCED_FACE('',(#42),#20,.T.);
#345=ADVANCED_FACE('',(#43),#21,.T.);
#346=ADVANCED_FACE('',(#44),#22,.T.);
#347=ADVANCED_FACE('',(#45),#23,.T.);
#348=ADVANCED_FACE('',(#46),#24,.T.);
#349=ADVANCED_FACE('',(#47),#25,.T.);
#350=ADVANCED_FACE('',(#48),#26,.T.);
#351=ADVANCED_FACE('',(#49),#27,.T.);
#352=ADVANCED_FACE('',(#50),#28,.T.);
#353=ADVANCED_FACE('',(#51),#29,.T.);
#354=ADVANCED_FACE('',(#52),#30,.T.);
#355=ADVANCED_FACE('',(#53),#31,.T.);
#356=ADVANCED_FACE('',(#54),#32,.T.);
#357=ADVANCED_FACE('',(#55),#33,.T.);
#358=ADVANCED_FACE('',(#56),#34,.T.);
#359=ADVANCED_FACE('',(#57),#35,.T.);
#360=ADVANCED_FACE('',(#58,#16),#36,.F.);
#361=CLOSED_SHELL('',(#339,#340,#341,#342,#343,#344,#345,#346,#347,#348,
#349,#350,#351,#352,#353,#354,#355,#356,#357,#358,#359,#360));
#362=DERIVED_UNIT_ELEMENT(#364,1.);
#363=DERIVED_UNIT_ELEMENT(#599,-3.);
#364=(
MASS_UNIT()
NAMED_UNIT(*)
SI_UNIT(.KILO.,.GRAM.)
);
#365=DERIVED_UNIT((#362,#363));
#366=MEASURE_REPRESENTATION_ITEM('density measure',
POSITIVE_RATIO_MEASURE(7850.),#365);
#367=PROPERTY_DEFINITION_REPRESENTATION(#372,#369);
#368=PROPERTY_DEFINITION_REPRESENTATION(#373,#370);
#369=REPRESENTATION('material name',(#371),#596);
#370=REPRESENTATION('density',(#366),#596);
#371=DESCRIPTIVE_REPRESENTATION_ITEM('Steel','Steel');
#372=PROPERTY_DEFINITION('material property','material name',#606);
#373=PROPERTY_DEFINITION('material property','density of part',#606);
#374=AXIS2_PLACEMENT_3D('',#497,#401,#402);
#375=AXIS2_PLACEMENT_3D('',#498,#403,#404);
#376=AXIS2_PLACEMENT_3D('',#500,#405,#406);
#377=AXIS2_PLACEMENT_3D('',#503,#408,#409);
#378=AXIS2_PLACEMENT_3D('',#504,#410,#411);
#379=AXIS2_PLACEMENT_3D('',#506,#412,#413);
#380=AXIS2_PLACEMENT_3D('',#509,#415,#416);
#381=AXIS2_PLACEMENT_3D('',#510,#417,#418);
#382=AXIS2_PLACEMENT_3D('',#511,#419,#420);
#383=AXIS2_PLACEMENT_3D('',#512,#421,#422);
#384=AXIS2_PLACEMENT_3D('',#521,#427,#428);
#385=AXIS2_PLACEMENT_3D('',#527,#432,#433);
#386=AXIS2_PLACEMENT_3D('',#533,#437,#438);
#387=AXIS2_PLACEMENT_3D('',#539,#442,#443);
#388=AXIS2_PLACEMENT_3D('',#545,#447,#448);
#389=AXIS2_PLACEMENT_3D('',#551,#452,#453);
#390=AXIS2_PLACEMENT_3D('',#557,#457,#458);
#391=AXIS2_PLACEMENT_3D('',#560,#461,#462);
#392=AXIS2_PLACEMENT_3D('',#566,#466,#467);
#393=AXIS2_PLACEMENT_3D('',#570,#470,#471);
#394=AXIS2_PLACEMENT_3D('',#574,#474,#475);
#395=AXIS2_PLACEMENT_3D('',#578,#478,#479);
#396=AXIS2_PLACEMENT_3D('',#579,#480,#481);
#397=AXIS2_PLACEMENT_3D('',#585,#485,#486);
#398=AXIS2_PLACEMENT_3D('',#587,#488,#489);
#399=AXIS2_PLACEMENT_3D('',#591,#492,#493);
#400=AXIS2_PLACEMENT_3D('',#593,#495,#496);
#401=DIRECTION('axis',(0.,0.,1.));
#402=DIRECTION('refdir',(1.,0.,0.));
#403=DIRECTION('center_axis',(0.,-1.,0.));
#404=DIRECTION('ref_axis',(-1.,0.,0.));
#405=DIRECTION('center_axis',(0.,-1.,0.));
#406=DIRECTION('ref_axis',(-1.,0.,0.));
#407=DIRECTION('',(0.,-1.,0.));
#408=DIRECTION('center_axis',(1.33553035281507E-48,1.,-3.98346847220496E-80));
#409=DIRECTION('ref_axis',(-1.,1.33553035281507E-48,0.));
#410=DIRECTION('center_axis',(0.,-1.,0.));
#411=DIRECTION('ref_axis',(-1.,0.,0.));
#412=DIRECTION('center_axis',(-6.66133814775094E-16,-1.,-4.47760873654674E-17));
#413=DIRECTION('ref_axis',(-1.,0.,0.));
#414=DIRECTION('',(0.,-1.,0.));
#415=DIRECTION('center_axis',(0.,-1.,0.));
#416=DIRECTION('ref_axis',(-1.,0.,0.));
#417=DIRECTION('center_axis',(0.,1.,0.));
#418=DIRECTION('ref_axis',(-1.,0.,0.));
#419=DIRECTION('center_axis',(0.,1.,0.));
#420=DIRECTION('ref_axis',(-1.,0.,0.));
#421=DIRECTION('center_axis',(-0.649933680714252,-0.393919298579166,0.649933686525112));
#422=DIRECTION('ref_axis',(0.707106784347561,-5.21582259100496E-16,0.707106778025534));
#423=DIRECTION('',(0.707106784347561,-5.21582259100496E-16,0.707106778025534));
#424=DIRECTION('',(-0.161037120097312,0.907148670965386,0.388778001842308));
#425=DIRECTION('',(-0.707106784347561,5.21582259100496E-16,-0.707106778025534));
#426=DIRECTION('',(-0.388778002077528,0.907148671514238,0.161037116437664));
#427=DIRECTION('center_axis',(-5.41254611368414E-17,-0.393919298579167,
0.919145030018058));
#428=DIRECTION('ref_axis',(1.,-6.66133814775094E-16,-2.38613461026422E-16));
#429=DIRECTION('',(1.,-6.66133814775094E-16,-2.38613461026422E-16));
#430=DIRECTION('',(0.161037120097312,0.907148670965386,0.388778001842308));
#431=DIRECTION('',(-1.,6.66133814775094E-16,2.38613461026422E-16));
#432=DIRECTION('center_axis',(0.649933680714252,-0.393919298579166,0.649933686525112));
#433=DIRECTION('ref_axis',(0.707106784347561,-5.60885189909031E-16,-0.707106778025534));
#434=DIRECTION('',(0.707106784347561,-5.60885189909031E-16,-0.707106778025534));
#435=DIRECTION('',(0.38877800207753,0.907148671514238,0.161037116437664));
#436=DIRECTION('',(-0.707106784347561,5.60885189909031E-16,0.707106778025534));
#437=DIRECTION('center_axis',(0.919145030018058,-0.393919298579167,-2.36958541725968E-16));
#438=DIRECTION('ref_axis',(-2.38613461026422E-16,4.47760873654677E-17,-1.));
#439=DIRECTION('',(-2.38613461026422E-16,4.47760873654677E-17,-1.));
#440=DIRECTION('',(0.38877800207753,0.907148671514238,-0.161037116437664));
#441=DIRECTION('',(2.38613461026422E-16,-4.47760873654677E-17,1.));
#442=DIRECTION('center_axis',(0.649933680714252,-0.393919298579167,-0.649933686525112));
#443=DIRECTION('ref_axis',(-0.707106784347561,5.49337834716125E-16,-0.707106778025534));
#444=DIRECTION('',(-0.707106784347561,5.49337834716125E-16,-0.707106778025534));
#445=DIRECTION('',(0.161037120097314,0.907148670965386,-0.388778001842308));
#446=DIRECTION('',(0.707106784347561,-5.49337834716125E-16,0.707106778025534));
#447=DIRECTION('center_axis',(-5.56497202406995E-16,-0.393919298579167,
-0.919145030018058));
#448=DIRECTION('ref_axis',(-1.,6.66133814775094E-16,2.38613461026422E-16));
#449=DIRECTION('',(1.,-6.66133814775094E-16,-2.38613461026422E-16));
#450=DIRECTION('',(-1.,6.66133814775094E-16,2.38613461026422E-16));
#451=DIRECTION('',(-0.161037120097313,0.907148670965386,-0.388778001842308));
#452=DIRECTION('center_axis',(-0.649933680714252,-0.393919298579167,-0.649933686525112));
#453=DIRECTION('ref_axis',(-0.707106784347561,5.33129614293402E-16,0.707106778025534));
#454=DIRECTION('',(0.707106784347561,-5.60885189909031E-16,-0.707106778025534));
#455=DIRECTION('',(-0.707106784347561,5.60885189909031E-16,0.707106778025534));
#456=DIRECTION('',(-0.388778002077528,0.907148671514238,-0.161037116437664));
#457=DIRECTION('center_axis',(-0.919145030018059,-0.393919298579166,2.01682211869719E-16));
#458=DIRECTION('ref_axis',(2.38613461026422E-16,-4.47760873654677E-17,1.));
#459=DIRECTION('',(-2.38613461026422E-16,4.47760873654677E-17,-1.));
#460=DIRECTION('',(2.38613461026422E-16,-4.47760873654677E-17,1.));
#461=DIRECTION('center_axis',(-2.38613461026422E-16,4.47760873654677E-17,
-1.));
#462=DIRECTION('ref_axis',(1.,-6.66133814775094E-16,-2.38613461026422E-16));
#463=DIRECTION('',(-6.66133814775094E-16,-1.,-4.47760873654674E-17));
#464=DIRECTION('',(1.,-6.66133814775094E-16,-2.38613461026422E-16));
#465=DIRECTION('',(-6.66133814775094E-16,-1.,-4.47760873654674E-17));
#466=DIRECTION('center_axis',(-0.707106778025534,4.38315533194606E-16,-0.707106784347561));
#467=DIRECTION('ref_axis',(0.707106784347561,-5.60885189909031E-16,-0.707106778025534));
#468=DIRECTION('',(-6.66133814775094E-16,-1.,-4.47760873654674E-17));
#469=DIRECTION('',(-0.707106784347561,5.60885189909031E-16,0.707106778025534));
#470=DIRECTION('center_axis',(-1.,6.66133814775094E-16,2.38613461026422E-16));
#471=DIRECTION('ref_axis',(-2.38613461026422E-16,4.47760873654677E-17,-1.));
#472=DIRECTION('',(-6.66133814775094E-16,-1.,-4.47760873654674E-17));
#473=DIRECTION('',(-2.38613461026422E-16,4.47760873654677E-17,-1.));
#474=DIRECTION('center_axis',(-0.707106778025534,4.77618462121148E-16,0.707106784347561));
#475=DIRECTION('ref_axis',(-0.707106784347561,5.21582259100496E-16,-0.707106778025534));
#476=DIRECTION('',(-6.66133814775094E-16,-1.,-4.47760873654674E-17));
#477=DIRECTION('',(0.707106784347561,-5.21582259100496E-16,0.707106778025534));
#478=DIRECTION('center_axis',(-6.66133814775094E-16,-1.,-4.47760873654674E-17));
#479=DIRECTION('ref_axis',(-2.38613461026422E-16,4.47760873654677E-17,-1.));
#480=DIRECTION('center_axis',(1.,-6.66133814775094E-16,-2.38613461026422E-16));
#481=DIRECTION('ref_axis',(2.38613461026422E-16,-4.47760873654677E-17,1.));
#482=DIRECTION('',(-6.66133814775094E-16,-1.,-4.47760873654674E-17));
#483=DIRECTION('',(2.38613461026422E-16,-4.47760873654677E-17,1.));
#484=DIRECTION('',(-6.66133814775094E-16,-1.,-4.47760873654674E-17));
#485=DIRECTION('center_axis',(0.707106778025534,-5.33129613352406E-16,-0.707106784347561));
#486=DIRECTION('ref_axis',(0.707106784347561,-5.49337834716125E-16,0.707106778025534));
#487=DIRECTION('',(-0.707106784347561,5.49337834716125E-16,-0.707106778025534));
#488=DIRECTION('center_axis',(2.38613461026422E-16,-4.47760873654677E-17,
1.));
#489=DIRECTION('ref_axis',(-1.,6.66133814775094E-16,2.38613461026422E-16));
#490=DIRECTION('',(-6.66133814775094E-16,-1.,-4.47760873654674E-17));
#491=DIRECTION('',(-1.,6.66133814775094E-16,2.38613461026422E-16));
#492=DIRECTION('center_axis',(0.707106778025534,-4.66071108810235E-16,0.707106784347561));
#493=DIRECTION('ref_axis',(-0.707106784347561,5.60885189909031E-16,0.707106778025534));
#494=DIRECTION('',(0.707106784347561,-5.60885189909031E-16,-0.707106778025534));
#495=DIRECTION('center_axis',(-6.66133814775094E-16,-1.,-4.47760873654674E-17));
#496=DIRECTION('ref_axis',(-2.38613461026422E-16,4.47760873654677E-17,-1.));
#497=CARTESIAN_POINT('',(0.,0.,0.));
#498=CARTESIAN_POINT('Origin',(3.68968698355136,-210.03296836893,-130.500003173947));
#499=CARTESIAN_POINT('',(7.43968698355122,-215.03296836893,-130.500003173947));
#500=CARTESIAN_POINT('Origin',(3.68968698355122,-215.03296836893,-130.500003173947));
#501=CARTESIAN_POINT('',(7.43968698355136,-216.03296836893,-130.500003173947));
#502=CARTESIAN_POINT('',(7.43968698355136,-210.03296836893,-130.500003173947));
#503=CARTESIAN_POINT('Origin',(3.68968698355136,-216.03296836893,-130.500003173947));
#504=CARTESIAN_POINT('Origin',(3.68968698355136,-210.03296836893,-130.500003173947));
#505=CARTESIAN_POINT('',(7.56468698355136,-210.03296836893,-130.500003173947));
#506=CARTESIAN_POINT('Origin',(3.68968698355136,-210.03296836893,-130.500003173947));
#507=CARTESIAN_POINT('',(7.56468698355136,-216.03296836893,-130.500003173947));
#508=CARTESIAN_POINT('',(7.56468698355136,-210.03296836893,-130.500003173947));
#509=CARTESIAN_POINT('Origin',(3.68968698355136,-216.03296836893,-130.500003173947));
#510=CARTESIAN_POINT('Origin',(3.68968698355136,-216.03296836893,-130.500003173947));
#511=CARTESIAN_POINT('Origin',(3.68968698355122,-215.03296836893,-130.500003173947));
#512=CARTESIAN_POINT('Origin',(-2.74965299357936,-216.53296836893,-122.560663215986));
#513=CARTESIAN_POINT('',(-6.31031321016401,-220.03296836893,-128.242643734812));
#514=CARTESIAN_POINT('',(-3.06767253090073,-220.03296836893,-125.00000308454));
#515=CARTESIAN_POINT('',(-1.68899282654107,-220.03296836893,-123.621323392507));
#516=CARTESIAN_POINT('',(-4.31031321016401,-213.03296836893,-122.00000308454));
#517=CARTESIAN_POINT('',(-3.06767253090073,-220.03296836893,-125.00000308454));
#518=CARTESIAN_POINT('',(-9.31031321016401,-213.03296836893,-127.00000308454));
#519=CARTESIAN_POINT('',(-3.81031316061764,-213.03296836893,-121.500003039464));
#520=CARTESIAN_POINT('',(-6.31031321016401,-220.03296836893,-128.242643734812));
#521=CARTESIAN_POINT('Origin',(7.6896870915845,-216.53296836893,-123.50000308454));
#522=CARTESIAN_POINT('',(10.4470464980029,-220.03296836893,-125.00000308454));
#523=CARTESIAN_POINT('',(7.6896870915845,-220.03296836893,-125.00000308454));
#524=CARTESIAN_POINT('',(11.6896871772662,-213.03296836893,-122.00000308454));
#525=CARTESIAN_POINT('',(10.4470464980029,-220.03296836893,-125.00000308454));
#526=CARTESIAN_POINT('',(7.68968709158448,-213.03296836893,-122.00000308454));
#527=CARTESIAN_POINT('Origin',(12.6290269830333,-216.53296836893,-125.060663215986));
#528=CARTESIAN_POINT('',(13.6896871772662,-220.03296836893,-128.242643734812));
#529=CARTESIAN_POINT('',(11.568366815995,-220.03296836893,-126.121323392507));
#530=CARTESIAN_POINT('',(16.6896871772662,-213.03296836893,-127.00000308454));
#531=CARTESIAN_POINT('',(13.6896871772662,-220.03296836893,-128.242643734812));
#532=CARTESIAN_POINT('',(13.6896871500716,-213.03296836893,-124.000003039464));
#533=CARTESIAN_POINT('Origin',(15.1896871772662,-216.53296836893,-131.000003218651));
#534=CARTESIAN_POINT('',(13.6896871772661,-220.03296836893,-132.757362613083));
#535=CARTESIAN_POINT('',(13.6896871772662,-220.03296836893,-131.000003218651));
#536=CARTESIAN_POINT('',(16.6896871772661,-213.03296836893,-134.000003263354));
#537=CARTESIAN_POINT('',(13.6896871772661,-220.03296836893,-132.757362613083));
#538=CARTESIAN_POINT('',(16.6896871772661,-213.03296836893,-131.000003218651));
#539=CARTESIAN_POINT('Origin',(11.3790269718574,-216.53296836893,-137.189343131909));
#540=CARTESIAN_POINT('',(10.4470464980029,-220.03296836893,-136.000003263354));
#541=CARTESIAN_POINT('',(10.318366804819,-220.03296836893,-136.128682955388));
#542=CARTESIAN_POINT('',(11.6896871772662,-213.03296836893,-139.000003263354));
#543=CARTESIAN_POINT('',(10.4470464980029,-220.03296836893,-136.000003263354));
#544=CARTESIAN_POINT('',(12.4396871388957,-213.03296836893,-138.25000330843));
#545=CARTESIAN_POINT('Origin',(-0.31031310213061,-216.53296836893,-137.500003263354));
#546=CARTESIAN_POINT('',(-4.31031321016404,-213.03296836893,-139.000003263354));
#547=CARTESIAN_POINT('',(-0.310313102130633,-213.03296836893,-139.000003263354));
#548=CARTESIAN_POINT('',(-3.06767253090077,-220.03296836893,-136.000003263354));
#549=CARTESIAN_POINT('',(-0.310313102130642,-220.03296836893,-136.000003263354));
#550=CARTESIAN_POINT('',(-3.06767253090077,-220.03296836893,-136.000003263354));
#551=CARTESIAN_POINT('Origin',(-6.49965300475523,-216.53296836893,-134.689343154261));
#552=CARTESIAN_POINT('',(-9.31031321016403,-213.03296836893,-134.000003263354));
#553=CARTESIAN_POINT('',(-7.56031317179357,-213.03296836893,-135.750003330782));
#554=CARTESIAN_POINT('',(-6.31031321016398,-220.03296836893,-132.757362613083));
#555=CARTESIAN_POINT('',(-5.43899283771693,-220.03296836893,-133.628682977739));
#556=CARTESIAN_POINT('',(-6.31031321016398,-220.03296836893,-132.757362613083));
#557=CARTESIAN_POINT('Origin',(-7.81031321016402,-216.53296836893,-127.500003129244));
#558=CARTESIAN_POINT('',(-9.31031321016401,-213.03296836893,-127.500003129244));
#559=CARTESIAN_POINT('',(-6.31031321016401,-220.03296836893,-127.500003129244));
#560=CARTESIAN_POINT('Origin',(-4.31031321016403,-210.03296836893,-139.000003263354));
#561=CARTESIAN_POINT('',(-4.31031321016403,-210.03296836893,-139.000003263354));
#562=CARTESIAN_POINT('',(-4.31031321016403,-210.03296836893,-139.000003263354));
#563=CARTESIAN_POINT('',(11.6896871772662,-210.03296836893,-139.000003263354));
#564=CARTESIAN_POINT('',(16.6896872219696,-210.03296836893,-139.000003263354));
#565=CARTESIAN_POINT('',(11.6896871772662,-210.03296836893,-139.000003263354));
#566=CARTESIAN_POINT('Origin',(-9.31031323251576,-210.03296836893,-134.000003285706));
#567=CARTESIAN_POINT('',(-9.31031321016403,-210.03296836893,-134.000003263354));
#568=CARTESIAN_POINT('',(-9.31031321016403,-210.03296836893,-134.000003263354));
#569=CARTESIAN_POINT('',(-6.31031317179354,-210.03296836893,-137.000003319606));
#570=CARTESIAN_POINT('Origin',(-9.31031321016401,-210.03296836893,-127.00000308454));
#571=CARTESIAN_POINT('',(-9.31031321016401,-210.03296836893,-127.00000308454));
#572=CARTESIAN_POINT('',(-9.31031321016401,-210.03296836893,-127.00000308454));
#573=CARTESIAN_POINT('',(-9.31031321016403,-210.03296836893,-135.000003278256));
#574=CARTESIAN_POINT('Origin',(-4.31031321016405,-210.03296836893,-122.00000308454));
#575=CARTESIAN_POINT('',(-4.31031321016405,-210.03296836893,-122.00000308454));
#576=CARTESIAN_POINT('',(-4.31031321016405,-210.03296836893,-122.00000308454));
#577=CARTESIAN_POINT('',(-5.06031317179354,-210.03296836893,-122.750003039464));
#578=CARTESIAN_POINT('Origin',(3.68968700590282,-220.03296836893,-128.000003173947));
#579=CARTESIAN_POINT('Origin',(16.6896871772662,-210.03296836893,-134.000003263354));
#580=CARTESIAN_POINT('',(16.6896871772662,-210.03296836893,-134.000003263354));
#581=CARTESIAN_POINT('',(16.6896871772662,-210.03296836893,-134.000003263354));
#582=CARTESIAN_POINT('',(16.6896871772662,-210.03296836893,-127.00000308454));
#583=CARTESIAN_POINT('',(16.6896871772662,-210.03296836893,-121.000003069639));
#584=CARTESIAN_POINT('',(16.6896871772662,-210.03296836893,-127.00000308454));
#585=CARTESIAN_POINT('Origin',(11.6896871772662,-210.03296836893,-139.000003263354));
#586=CARTESIAN_POINT('',(13.6896871500715,-210.03296836893,-137.00000330843));
#587=CARTESIAN_POINT('Origin',(11.6896871772662,-210.03296836893,-122.00000308454));
#588=CARTESIAN_POINT('',(11.6896871772662,-210.03296836893,-122.00000308454));
#589=CARTESIAN_POINT('',(11.6896871772662,-210.03296836893,-122.00000308454));
#590=CARTESIAN_POINT('',(-9.31031321016404,-210.03296836893,-122.00000308454));
#591=CARTESIAN_POINT('Origin',(16.6896871996179,-210.03296836893,-127.000003062189));
#592=CARTESIAN_POINT('',(12.4396871500715,-210.03296836893,-122.75000305064));
#593=CARTESIAN_POINT('Origin',(3.68968700590282,-210.03296836893,-128.000003173947));
#594=UNCERTAINTY_MEASURE_WITH_UNIT(LENGTH_MEASURE(0.01),#598,
'DISTANCE_ACCURACY_VALUE',
'Maximum model space distance between geometric entities at asserted c
onnectivities');
#595=UNCERTAINTY_MEASURE_WITH_UNIT(LENGTH_MEASURE(0.01),#598,
'DISTANCE_ACCURACY_VALUE',
'Maximum model space distance between geometric entities at asserted c
onnectivities');
#596=(
GEOMETRIC_REPRESENTATION_CONTEXT(3)
GLOBAL_UNCERTAINTY_ASSIGNED_CONTEXT((#594))
GLOBAL_UNIT_ASSIGNED_CONTEXT((#598,#600,#601))
REPRESENTATION_CONTEXT('','3D')
);
#597=(
GEOMETRIC_REPRESENTATION_CONTEXT(3)
GLOBAL_UNCERTAINTY_ASSIGNED_CONTEXT((#595))
GLOBAL_UNIT_ASSIGNED_CONTEXT((#598,#600,#601))
REPRESENTATION_CONTEXT('','3D')
);
#598=(
LENGTH_UNIT()
NAMED_UNIT(*)
SI_UNIT(.MILLI.,.METRE.)
);
#599=(
LENGTH_UNIT()
NAMED_UNIT(*)
SI_UNIT($,.METRE.)
);
#600=(
NAMED_UNIT(*)
PLANE_ANGLE_UNIT()
SI_UNIT($,.RADIAN.)
);
#601=(
NAMED_UNIT(*)
SI_UNIT($,.STERADIAN.)
SOLID_ANGLE_UNIT()
);
#602=SHAPE_DEFINITION_REPRESENTATION(#603,#604);
#603=PRODUCT_DEFINITION_SHAPE('',$,#606);
#604=SHAPE_REPRESENTATION('',(#374),#596);
#605=PRODUCT_DEFINITION_CONTEXT('part definition',#610,'design');
#606=PRODUCT_DEFINITION('2026-08-03-14-40-19-866','robot',#607,#605);
#607=PRODUCT_DEFINITION_FORMATION('',$,#612);
#608=PRODUCT_RELATED_PRODUCT_CATEGORY('robot','robot',(#612));
#609=APPLICATION_PROTOCOL_DEFINITION('international standard',
'automotive_design',2009,#610);
#610=APPLICATION_CONTEXT(
'Core Data for Automotive Mechanical Design Process');
#611=PRODUCT_CONTEXT('part definition',#610,'mechanical');
#612=PRODUCT('2026-08-03-14-40-19-866','robot',
'Spur Gear; Module: 1.0; Num Teeth: 16; Pressure Angle: 20.0; Backlash
: 0.00 mm',(#611));
#613=PRESENTATION_STYLE_ASSIGNMENT((#639));
#614=PRESENTATION_STYLE_ASSIGNMENT((#640));
#615=PRESENTATION_STYLE_ASSIGNMENT((#641));
#616=PRESENTATION_STYLE_ASSIGNMENT((#642));
#617=PRESENTATION_STYLE_ASSIGNMENT((#643));
#618=PRESENTATION_STYLE_ASSIGNMENT((#644));
#619=PRESENTATION_STYLE_ASSIGNMENT((#645));
#620=PRESENTATION_STYLE_ASSIGNMENT((#646));
#621=PRESENTATION_STYLE_ASSIGNMENT((#647));
#622=PRESENTATION_STYLE_ASSIGNMENT((#648));
#623=PRESENTATION_STYLE_ASSIGNMENT((#649));
#624=PRESENTATION_STYLE_ASSIGNMENT((#650));
#625=PRESENTATION_STYLE_ASSIGNMENT((#651));
#626=PRESENTATION_STYLE_ASSIGNMENT((#652));
#627=PRESENTATION_STYLE_ASSIGNMENT((#653));
#628=PRESENTATION_STYLE_ASSIGNMENT((#654));
#629=PRESENTATION_STYLE_ASSIGNMENT((#655));
#630=PRESENTATION_STYLE_ASSIGNMENT((#656));
#631=PRESENTATION_STYLE_ASSIGNMENT((#657));
#632=PRESENTATION_STYLE_ASSIGNMENT((#658));
#633=PRESENTATION_STYLE_ASSIGNMENT((#659));
#634=PRESENTATION_STYLE_ASSIGNMENT((#660));
#635=PRESENTATION_STYLE_ASSIGNMENT((#661));
#636=PRESENTATION_STYLE_ASSIGNMENT((#662));
#637=PRESENTATION_STYLE_ASSIGNMENT((#663));
#638=PRESENTATION_STYLE_ASSIGNMENT((#664));
#639=SURFACE_STYLE_USAGE(.BOTH.,#665);
#640=SURFACE_STYLE_USAGE(.BOTH.,#666);
#641=SURFACE_STYLE_USAGE(.BOTH.,#667);
#642=SURFACE_STYLE_USAGE(.BOTH.,#668);
#643=SURFACE_STYLE_USAGE(.BOTH.,#669);
#644=SURFACE_STYLE_USAGE(.BOTH.,#670);
#645=SURFACE_STYLE_USAGE(.BOTH.,#671);
#646=SURFACE_STYLE_USAGE(.BOTH.,#672);
#647=SURFACE_STYLE_USAGE(.BOTH.,#673);
#648=SURFACE_STYLE_USAGE(.BOTH.,#674);
#649=SURFACE_STYLE_USAGE(.BOTH.,#675);
#650=SURFACE_STYLE_USAGE(.BOTH.,#676);
#651=SURFACE_STYLE_USAGE(.BOTH.,#677);
#652=SURFACE_STYLE_USAGE(.BOTH.,#678);
#653=SURFACE_STYLE_USAGE(.BOTH.,#679);
#654=SURFACE_STYLE_USAGE(.BOTH.,#680);
#655=SURFACE_STYLE_USAGE(.BOTH.,#681);
#656=SURFACE_STYLE_USAGE(.BOTH.,#682);
#657=SURFACE_STYLE_USAGE(.BOTH.,#683);
#658=SURFACE_STYLE_USAGE(.BOTH.,#684);
#659=SURFACE_STYLE_USAGE(.BOTH.,#685);
#660=SURFACE_STYLE_USAGE(.BOTH.,#686);
#661=SURFACE_STYLE_USAGE(.BOTH.,#687);
#662=SURFACE_STYLE_USAGE(.BOTH.,#688);
#663=SURFACE_STYLE_USAGE(.BOTH.,#689);
#664=SURFACE_STYLE_USAGE(.BOTH.,#690);
#665=SURFACE_SIDE_STYLE('',(#691));
#666=SURFACE_SIDE_STYLE('',(#692));
#667=SURFACE_SIDE_STYLE('',(#693));
#668=SURFACE_SIDE_STYLE('',(#694));
#669=SURFACE_SIDE_STYLE('',(#695));
#670=SURFACE_SIDE_STYLE('',(#696));
#671=SURFACE_SIDE_STYLE('',(#697));
#672=SURFACE_SIDE_STYLE('',(#698));
#673=SURFACE_SIDE_STYLE('',(#699));
#674=SURFACE_SIDE_STYLE('',(#700));
#675=SURFACE_SIDE_STYLE('',(#701));
#676=SURFACE_SIDE_STYLE('',(#702));
#677=SURFACE_SIDE_STYLE('',(#703));
#678=SURFACE_SIDE_STYLE('',(#704));
#679=SURFACE_SIDE_STYLE('',(#705));
#680=SURFACE_SIDE_STYLE('',(#706));
#681=SURFACE_SIDE_STYLE('',(#707));
#682=SURFACE_SIDE_STYLE('',(#708));
#683=SURFACE_SIDE_STYLE('',(#709));
#684=SURFACE_SIDE_STYLE('',(#710));
#685=SURFACE_SIDE_STYLE('',(#711));
#686=SURFACE_SIDE_STYLE('',(#712));
#687=SURFACE_SIDE_STYLE('',(#713));
#688=SURFACE_SIDE_STYLE('',(#714));
#689=SURFACE_SIDE_STYLE('',(#715));
#690=SURFACE_SIDE_STYLE('',(#716));
#691=SURFACE_STYLE_FILL_AREA(#717);
#692=SURFACE_STYLE_FILL_AREA(#718);
#693=SURFACE_STYLE_FILL_AREA(#719);
#694=SURFACE_STYLE_FILL_AREA(#720);
#695=SURFACE_STYLE_FILL_AREA(#721);
#696=SURFACE_STYLE_FILL_AREA(#722);
#697=SURFACE_STYLE_FILL_AREA(#723);
#698=SURFACE_STYLE_FILL_AREA(#724);
#699=SURFACE_STYLE_FILL_AREA(#725);
#700=SURFACE_STYLE_FILL_AREA(#726);
#701=SURFACE_STYLE_FILL_AREA(#727);
#702=SURFACE_STYLE_FILL_AREA(#728);
#703=SURFACE_STYLE_FILL_AREA(#729);
#704=SURFACE_STYLE_FILL_AREA(#730);
#705=SURFACE_STYLE_FILL_AREA(#731);
#706=SURFACE_STYLE_FILL_AREA(#732);
#707=SURFACE_STYLE_FILL_AREA(#733);
#708=SURFACE_STYLE_FILL_AREA(#734);
#709=SURFACE_STYLE_FILL_AREA(#735);
#710=SURFACE_STYLE_FILL_AREA(#736);
#711=SURFACE_STYLE_FILL_AREA(#737);
#712=SURFACE_STYLE_FILL_AREA(#738);
#713=SURFACE_STYLE_FILL_AREA(#739);
#714=SURFACE_STYLE_FILL_AREA(#740);
#715=SURFACE_STYLE_FILL_AREA(#741);
#716=SURFACE_STYLE_FILL_AREA(#742);
#717=FILL_AREA_STYLE('Steel - Satin',(#743));
#718=FILL_AREA_STYLE('Opaque(76,76,76)',(#744));
#719=FILL_AREA_STYLE('Opaque(51,51,51)',(#745));
#720=FILL_AREA_STYLE('Opaque(223,223,223)',(#746));
#721=FILL_AREA_STYLE('Opaque(255,255,255)',(#747));
#722=FILL_AREA_STYLE('Opaque(255,202,0)',(#748));
#723=FILL_AREA_STYLE('Opaque(152,170,175)',(#749));
#724=FILL_AREA_STYLE('Opaque(153,153,153)',(#750));
#725=FILL_AREA_STYLE('Opaque(195,225,190)',(#751));
#726=FILL_AREA_STYLE('Opaque(255,153,0)',(#752));
#727=FILL_AREA_STYLE('Opaque(204,255,51)',(#753));
#728=FILL_AREA_STYLE('Opaque(0,153,0)',(#754));
#729=FILL_AREA_STYLE('Opaque(153,102,51)',(#755));
#730=FILL_AREA_STYLE('Opaque(0,153,255)',(#756));
#731=FILL_AREA_STYLE('Opaque(230,235,235)',(#757));
#732=FILL_AREA_STYLE('Opaque(255,245,227)',(#758));
#733=FILL_AREA_STYLE('Opaque(204,0,0)',(#759));
#734=FILL_AREA_STYLE('Opaque(0,0,172)',(#760));
#735=FILL_AREA_STYLE('Opaque(255,248,56)',(#761));
#736=FILL_AREA_STYLE('Opaque(112,112,112)',(#762));
#737=FILL_AREA_STYLE('Opaque(112,121,128)',(#763));
#738=FILL_AREA_STYLE('Opaque(234,234,234)',(#764));
#739=FILL_AREA_STYLE('Opaque(95,167,61)',(#765));
#740=FILL_AREA_STYLE('Opaque(131,188,104)',(#766));
#741=FILL_AREA_STYLE('Opaque(30,23,23)',(#767));
#742=FILL_AREA_STYLE('Opaque(202,209,238)',(#768));
#743=FILL_AREA_STYLE_COLOUR('Steel - Satin',#769);
#744=FILL_AREA_STYLE_COLOUR('Opaque(76,76,76)',#770);
#745=FILL_AREA_STYLE_COLOUR('Opaque(51,51,51)',#771);
#746=FILL_AREA_STYLE_COLOUR('Opaque(223,223,223)',#772);
#747=FILL_AREA_STYLE_COLOUR('Opaque(255,255,255)',#773);
#748=FILL_AREA_STYLE_COLOUR('Opaque(255,202,0)',#774);
#749=FILL_AREA_STYLE_COLOUR('Opaque(152,170,175)',#775);
#750=FILL_AREA_STYLE_COLOUR('Opaque(153,153,153)',#776);
#751=FILL_AREA_STYLE_COLOUR('Opaque(195,225,190)',#777);
#752=FILL_AREA_STYLE_COLOUR('Opaque(255,153,0)',#778);
#753=FILL_AREA_STYLE_COLOUR('Opaque(204,255,51)',#779);
#754=FILL_AREA_STYLE_COLOUR('Opaque(0,153,0)',#780);
#755=FILL_AREA_STYLE_COLOUR('Opaque(153,102,51)',#781);
#756=FILL_AREA_STYLE_COLOUR('Opaque(0,153,255)',#782);
#757=FILL_AREA_STYLE_COLOUR('Opaque(230,235,235)',#783);
#758=FILL_AREA_STYLE_COLOUR('Opaque(255,245,227)',#784);
#759=FILL_AREA_STYLE_COLOUR('Opaque(204,0,0)',#785);
#760=FILL_AREA_STYLE_COLOUR('Opaque(0,0,172)',#786);
#761=FILL_AREA_STYLE_COLOUR('Opaque(255,248,56)',#787);
#762=FILL_AREA_STYLE_COLOUR('Opaque(112,112,112)',#788);
#763=FILL_AREA_STYLE_COLOUR('Opaque(112,121,128)',#789);
#764=FILL_AREA_STYLE_COLOUR('Opaque(234,234,234)',#790);
#765=FILL_AREA_STYLE_COLOUR('Opaque(95,167,61)',#791);
#766=FILL_AREA_STYLE_COLOUR('Opaque(131,188,104)',#792);
#767=FILL_AREA_STYLE_COLOUR('Opaque(30,23,23)',#793);
#768=FILL_AREA_STYLE_COLOUR('Opaque(202,209,238)',#794);
#769=COLOUR_RGB('Steel - Satin',0.627450980392157,0.627450980392157,0.627450980392157);
#770=COLOUR_RGB('Opaque(76,76,76)',0.298039215686275,0.298039215686275,
0.298039215686275);
#771=COLOUR_RGB('Opaque(51,51,51)',0.2,0.2,0.2);
#772=COLOUR_RGB('Opaque(223,223,223)',0.874509803921569,0.874509803921569,
0.874509803921569);
#773=COLOUR_RGB('Opaque(255,255,255)',1.,1.,1.);
#774=COLOUR_RGB('Opaque(255,202,0)',1.,0.792156862745098,0.);
#775=COLOUR_RGB('Opaque(152,170,175)',0.596078431372549,0.666666666666667,
0.686274509803922);
#776=COLOUR_RGB('Opaque(153,153,153)',0.6,0.6,0.6);
#777=COLOUR_RGB('Opaque(195,225,190)',0.764705882352941,0.882352941176471,
0.745098039215686);
#778=COLOUR_RGB('Opaque(255,153,0)',1.,0.6,0.);
#779=COLOUR_RGB('Opaque(204,255,51)',0.8,1.,0.2);
#780=COLOUR_RGB('Opaque(0,153,0)',0.,0.6,0.);
#781=COLOUR_RGB('Opaque(153,102,51)',0.6,0.4,0.2);
#782=COLOUR_RGB('Opaque(0,153,255)',0.,0.6,1.);
#783=COLOUR_RGB('Opaque(230,235,235)',0.901960784313726,0.92156862745098,
0.92156862745098);
#784=COLOUR_RGB('Opaque(255,245,227)',1.,0.96078431372549,0.890196078431372);
#785=COLOUR_RGB('Opaque(204,0,0)',0.8,0.,0.);
#786=COLOUR_RGB('Opaque(0,0,172)',0.,0.,0.674509803921569);
#787=COLOUR_RGB('Opaque(255,248,56)',1.,0.972549019607843,0.219607843137255);
#788=COLOUR_RGB('Opaque(112,112,112)',0.43921568627451,0.43921568627451,
0.43921568627451);
#789=COLOUR_RGB('Opaque(112,121,128)',0.43921568627451,0.474509803921569,
0.501960784313725);
#790=COLOUR_RGB('Opaque(234,234,234)',0.917647058823529,0.917647058823529,
0.917647058823529);
#791=COLOUR_RGB('Opaque(95,167,61)',0.372549019607843,0.654901960784314,
0.23921568627451);
#792=COLOUR_RGB('Opaque(131,188,104)',0.513725490196078,0.737254901960784,
0.407843137254902);
#793=COLOUR_RGB('Opaque(30,23,23)',0.117647058823529,0.0901960784313725,
0.0901960784313725);
#794=COLOUR_RGB('Opaque(202,209,238)',0.792156862745098,0.819607843137255,
0.933333333333333);
ENDSEC;
END-ISO-10303-21;
