ISO-10303-21;
HEADER;
/* Generated by software containing ST-Developer
 * from STEP Tools, Inc. (www.steptools.com) 
 */

FILE_DESCRIPTION(
/* description */ (
'Spur Gear; Module: 1.0; Num Teeth: 16; Pressure Angle: 20.0; Backlash
: 0.00 mm'),
/* implementation_level */ '2;1');

FILE_NAME(
/* name */ 'roof 1.step',
/* time_stamp */ '2026-08-17T14:51:25-04:00',
/* author */ (''),
/* organization */ (''),
/* preprocessor_version */ 'ST-DEVELOPER v20.1',
/* originating_system */ 'Autodesk Translation Framework v15.8.0.0',
/* authorisation */ '');

FILE_SCHEMA (('AUTOMOTIVE_DESIGN { 1 0 10303 214 3 1 1 }'));
ENDSEC;

DATA;
#10=MECHANICAL_DESIGN_GEOMETRIC_PRESENTATION_REPRESENTATION('',(#13),#505);
#11=SHAPE_REPRESENTATION_RELATIONSHIP('SRR','None',#512,#12);
#12=ADVANCED_BREP_SHAPE_REPRESENTATION('',(#14),#504);
#13=STYLED_ITEM('',(#521),#14);
#14=MANIFOLD_SOLID_BREP('Body251',#213);
#15=CYLINDRICAL_SURFACE('',#232,1.4);
#16=CYLINDRICAL_SURFACE('',#234,1.40000000000001);
#17=CYLINDRICAL_SURFACE('',#236,1.40000000000001);
#18=CYLINDRICAL_SURFACE('',#238,1.4);
#19=FACE_BOUND('',#52,.T.);
#20=FACE_BOUND('',#53,.T.);
#21=FACE_BOUND('',#54,.T.);
#22=FACE_BOUND('',#55,.T.);
#23=FACE_BOUND('',#61,.T.);
#24=FACE_BOUND('',#62,.T.);
#25=FACE_BOUND('',#63,.T.);
#26=FACE_BOUND('',#64,.T.);
#27=CIRCLE('',#228,1.4);
#28=CIRCLE('',#229,1.4);
#29=CIRCLE('',#230,1.40000000000001);
#30=CIRCLE('',#231,1.40000000000001);
#31=CIRCLE('',#233,1.4);
#32=CIRCLE('',#235,1.40000000000001);
#33=CIRCLE('',#237,1.40000000000001);
#34=CIRCLE('',#239,1.4);
#35=PLANE('',#227);
#36=PLANE('',#240);
#37=FACE_OUTER_BOUND('',#47,.T.);
#38=FACE_OUTER_BOUND('',#48,.T.);
#39=FACE_OUTER_BOUND('',#49,.T.);
#40=FACE_OUTER_BOUND('',#50,.T.);
#41=FACE_OUTER_BOUND('',#51,.T.);
#42=FACE_OUTER_BOUND('',#56,.T.);
#43=FACE_OUTER_BOUND('',#57,.T.);
#44=FACE_OUTER_BOUND('',#58,.T.);
#45=FACE_OUTER_BOUND('',#59,.T.);
#46=FACE_OUTER_BOUND('',#60,.T.);
#47=EDGE_LOOP('',(#143,#144,#145,#146,#147,#148));
#48=EDGE_LOOP('',(#149,#150,#151,#152,#153,#154));
#49=EDGE_LOOP('',(#155,#156,#157,#158));
#50=EDGE_LOOP('',(#159,#160,#161,#162));
#51=EDGE_LOOP('',(#163,#164,#165,#166));
#52=EDGE_LOOP('',(#167));
#53=EDGE_LOOP('',(#168));
#54=EDGE_LOOP('',(#169));
#55=EDGE_LOOP('',(#170));
#56=EDGE_LOOP('',(#171,#172,#173,#174));
#57=EDGE_LOOP('',(#175,#176,#177,#178));
#58=EDGE_LOOP('',(#179,#180,#181,#182));
#59=EDGE_LOOP('',(#183,#184,#185,#186));
#60=EDGE_LOOP('',(#187,#188,#189,#190,#191,#192,#193,#194));
#61=EDGE_LOOP('',(#195));
#62=EDGE_LOOP('',(#196));
#63=EDGE_LOOP('',(#197));
#64=EDGE_LOOP('',(#198));
#65=B_SPLINE_CURVE_WITH_KNOTS('',3,(#310,#311,#312,#313),.UNSPECIFIED.,
 .F.,.F.,(4,4),(-2.7000000745058,-2.2000000745058),.UNSPECIFIED.);
#66=B_SPLINE_CURVE_WITH_KNOTS('',3,(#317,#318,#319,#320,#321,#322,#323,
#324,#325,#326,#327,#328,#329,#330),.UNSPECIFIED.,.F.,.F.,(4,2,2,2,2,2,
4),(-0.000282925158474417,0.,0.0129912204124261,0.0275297392955754,0.0644840247474516,
0.186727771762277,0.572511828585373),.UNSPECIFIED.);
#67=B_SPLINE_CURVE_WITH_KNOTS('',3,(#332,#333,#334,#335),.UNSPECIFIED.,
 .F.,.F.,(4,4),(-10.7000000745058,-0.100000074505806),.UNSPECIFIED.);
#68=B_SPLINE_CURVE_WITH_KNOTS('',3,(#336,#337,#338,#339,#340,#341,#342,
#343,#344,#345,#346,#347,#348,#349),.UNSPECIFIED.,.F.,.F.,(4,2,2,2,2,2,
4),(-0.000282946238773248,0.,0.0129910258320712,0.0275293558728959,0.0644831291138059,
0.186722665593254,0.572499786473502),.UNSPECIFIED.);
#69=B_SPLINE_CURVE_WITH_KNOTS('',3,(#376,#377,#378,#379),.UNSPECIFIED.,
 .F.,.F.,(4,4),(-10.7,-0.0999999999999994),.UNSPECIFIED.);
#70=B_SPLINE_CURVE_WITH_KNOTS('',3,(#381,#382,#383,#384,#385,#386,#387,
#388,#389,#390,#391,#392,#393,#394),.UNSPECIFIED.,.F.,.F.,(4,2,2,2,2,2,
4),(-0.000282946237821892,0.,0.0129910258309841,0.0275293558698299,0.0644831291052975,
0.186722665562029,0.572504972006798),.UNSPECIFIED.);
#71=B_SPLINE_CURVE_WITH_KNOTS('',3,(#398,#399,#400,#401),.UNSPECIFIED.,
 .F.,.F.,(4,4),(-8.6,-8.1),.UNSPECIFIED.);
#72=B_SPLINE_CURVE_WITH_KNOTS('',3,(#404,#405,#406,#407,#408,#409,#410,
#411,#412,#413,#414,#415,#416,#417),.UNSPECIFIED.,.F.,.F.,(4,2,2,2,2,2,
4),(-0.000282925158483302,0.,0.0129912204214237,0.0275297393162718,0.0644840248041254,
0.186727771965251,0.572497308016207),.UNSPECIFIED.);
#73=B_SPLINE_CURVE_WITH_KNOTS('',3,(#442,#443,#444,#445),.UNSPECIFIED.,
 .F.,.F.,(4,4),(0.1,5.9),.UNSPECIFIED.);
#74=B_SPLINE_CURVE_WITH_KNOTS('',3,(#472,#473,#474,#475),.UNSPECIFIED.,
 .F.,.F.,(4,4),(-5.9,-0.100000000000001),.UNSPECIFIED.);
#75=LINE('',#308,#85);
#76=LINE('',#315,#86);
#77=LINE('',#396,#87);
#78=LINE('',#403,#88);
#79=LINE('',#446,#89);
#80=LINE('',#471,#90);
#81=LINE('',#487,#91);
#82=LINE('',#491,#92);
#83=LINE('',#495,#93);
#84=LINE('',#499,#94);
#85=VECTOR('',#243,10.);
#86=VECTOR('',#244,10.);
#87=VECTOR('',#245,10.);
#88=VECTOR('',#246,10.);
#89=VECTOR('',#247,10.);
#90=VECTOR('',#248,10.);
#91=VECTOR('',#261,1.4);
#92=VECTOR('',#266,1.40000000000001);
#93=VECTOR('',#271,1.40000000000001);
#94=VECTOR('',#276,1.4);
#95=VERTEX_POINT('',#306);
#96=VERTEX_POINT('',#307);
#97=VERTEX_POINT('',#309);
#98=VERTEX_POINT('',#314);
#99=VERTEX_POINT('',#316);
#100=VERTEX_POINT('',#331);
#101=VERTEX_POINT('',#374);
#102=VERTEX_POINT('',#375);
#103=VERTEX_POINT('',#380);
#104=VERTEX_POINT('',#395);
#105=VERTEX_POINT('',#397);
#106=VERTEX_POINT('',#402);
#107=VERTEX_POINT('',#477);
#108=VERTEX_POINT('',#479);
#109=VERTEX_POINT('',#481);
#110=VERTEX_POINT('',#483);
#111=VERTEX_POINT('',#486);
#112=VERTEX_POINT('',#490);
#113=VERTEX_POINT('',#494);
#114=VERTEX_POINT('',#498);
#115=EDGE_CURVE('',#95,#96,#75,.T.);
#116=EDGE_CURVE('',#97,#95,#65,.T.);
#117=EDGE_CURVE('',#98,#97,#76,.T.);
#118=EDGE_CURVE('',#99,#98,#66,.T.);
#119=EDGE_CURVE('',#99,#100,#67,.T.);
#120=EDGE_CURVE('',#100,#96,#68,.T.);
#121=EDGE_CURVE('',#101,#102,#69,.T.);
#122=EDGE_CURVE('',#102,#103,#70,.T.);
#123=EDGE_CURVE('',#103,#104,#77,.T.);
#124=EDGE_CURVE('',#105,#104,#71,.T.);
#125=EDGE_CURVE('',#105,#106,#78,.T.);
#126=EDGE_CURVE('',#101,#106,#72,.T.);
#127=EDGE_CURVE('',#100,#101,#73,.T.);
#128=EDGE_CURVE('',#106,#96,#79,.T.);
#129=EDGE_CURVE('',#103,#98,#80,.T.);
#130=EDGE_CURVE('',#102,#99,#74,.T.);
#131=EDGE_CURVE('',#107,#107,#27,.T.);
#132=EDGE_CURVE('',#108,#108,#28,.T.);
#133=EDGE_CURVE('',#109,#109,#29,.T.);
#134=EDGE_CURVE('',#110,#110,#30,.T.);
#135=EDGE_CURVE('',#107,#111,#81,.T.);
#136=EDGE_CURVE('',#111,#111,#31,.T.);
#137=EDGE_CURVE('',#109,#112,#82,.T.);
#138=EDGE_CURVE('',#112,#112,#32,.T.);
#139=EDGE_CURVE('',#110,#113,#83,.T.);
#140=EDGE_CURVE('',#113,#113,#33,.T.);
#141=EDGE_CURVE('',#108,#114,#84,.T.);
#142=EDGE_CURVE('',#114,#114,#34,.T.);
#143=ORIENTED_EDGE('',*,*,#115,.F.);
#144=ORIENTED_EDGE('',*,*,#116,.F.);
#145=ORIENTED_EDGE('',*,*,#117,.F.);
#146=ORIENTED_EDGE('',*,*,#118,.F.);
#147=ORIENTED_EDGE('',*,*,#119,.T.);
#148=ORIENTED_EDGE('',*,*,#120,.T.);
#149=ORIENTED_EDGE('',*,*,#121,.T.);
#150=ORIENTED_EDGE('',*,*,#122,.T.);
#151=ORIENTED_EDGE('',*,*,#123,.T.);
#152=ORIENTED_EDGE('',*,*,#124,.F.);
#153=ORIENTED_EDGE('',*,*,#125,.T.);
#154=ORIENTED_EDGE('',*,*,#126,.F.);
#155=ORIENTED_EDGE('',*,*,#127,.T.);
#156=ORIENTED_EDGE('',*,*,#126,.T.);
#157=ORIENTED_EDGE('',*,*,#128,.T.);
#158=ORIENTED_EDGE('',*,*,#120,.F.);
#159=ORIENTED_EDGE('',*,*,#129,.F.);
#160=ORIENTED_EDGE('',*,*,#122,.F.);
#161=ORIENTED_EDGE('',*,*,#130,.T.);
#162=ORIENTED_EDGE('',*,*,#118,.T.);
#163=ORIENTED_EDGE('',*,*,#127,.F.);
#164=ORIENTED_EDGE('',*,*,#119,.F.);
#165=ORIENTED_EDGE('',*,*,#130,.F.);
#166=ORIENTED_EDGE('',*,*,#121,.F.);
#167=ORIENTED_EDGE('',*,*,#131,.T.);
#168=ORIENTED_EDGE('',*,*,#132,.T.);
#169=ORIENTED_EDGE('',*,*,#133,.T.);
#170=ORIENTED_EDGE('',*,*,#134,.T.);
#171=ORIENTED_EDGE('',*,*,#131,.F.);
#172=ORIENTED_EDGE('',*,*,#135,.T.);
#173=ORIENTED_EDGE('',*,*,#136,.F.);
#174=ORIENTED_EDGE('',*,*,#135,.F.);
#175=ORIENTED_EDGE('',*,*,#133,.F.);
#176=ORIENTED_EDGE('',*,*,#137,.T.);
#177=ORIENTED_EDGE('',*,*,#138,.F.);
#178=ORIENTED_EDGE('',*,*,#137,.F.);
#179=ORIENTED_EDGE('',*,*,#134,.F.);
#180=ORIENTED_EDGE('',*,*,#139,.T.);
#181=ORIENTED_EDGE('',*,*,#140,.F.);
#182=ORIENTED_EDGE('',*,*,#139,.F.);
#183=ORIENTED_EDGE('',*,*,#132,.F.);
#184=ORIENTED_EDGE('',*,*,#141,.T.);
#185=ORIENTED_EDGE('',*,*,#142,.F.);
#186=ORIENTED_EDGE('',*,*,#141,.F.);
#187=ORIENTED_EDGE('',*,*,#128,.F.);
#188=ORIENTED_EDGE('',*,*,#125,.F.);
#189=ORIENTED_EDGE('',*,*,#124,.T.);
#190=ORIENTED_EDGE('',*,*,#123,.F.);
#191=ORIENTED_EDGE('',*,*,#129,.T.);
#192=ORIENTED_EDGE('',*,*,#117,.T.);
#193=ORIENTED_EDGE('',*,*,#116,.T.);
#194=ORIENTED_EDGE('',*,*,#115,.T.);
#195=ORIENTED_EDGE('',*,*,#140,.T.);
#196=ORIENTED_EDGE('',*,*,#142,.T.);
#197=ORIENTED_EDGE('',*,*,#136,.T.);
#198=ORIENTED_EDGE('',*,*,#138,.T.);
#199=B_SPLINE_SURFACE_WITH_KNOTS('',3,3,((#282,#283,#284,#285),(#286,#287,
#288,#289),(#290,#291,#292,#293),(#294,#295,#296,#297),(#298,#299,#300,
#301),(#302,#303,#304,#305)),.UNSPECIFIED.,.F.,.F.,.F.,(4,1,1,4),(4,4),
(0.,0.285714285714286,0.571428571428571,1.),(-4.99538043184255E-16,10.8000000745058),
 .UNSPECIFIED.);
#200=B_SPLINE_SURFACE_WITH_KNOTS('',3,3,((#350,#351,#352,#353),(#354,#355,
#356,#357),(#358,#359,#360,#361),(#362,#363,#364,#365),(#366,#367,#368,
#369),(#370,#371,#372,#373)),.UNSPECIFIED.,.F.,.F.,.F.,(4,1,1,4),(4,4),
(0.,0.285714285714286,0.571428571428571,1.),(0.,10.8),.UNSPECIFIED.);
#201=B_SPLINE_SURFACE_WITH_KNOTS('',3,3,((#418,#419,#420,#421),(#422,#423,
#424,#425),(#426,#427,#428,#429),(#430,#431,#432,#433),(#434,#435,#436,
#437),(#438,#439,#440,#441)),.UNSPECIFIED.,.F.,.F.,.F.,(4,1,1,4),(4,4),
(0.,0.285714285714286,0.571428571428571,1.),(-6.00000020861626,2.22044604925031E-16),
 .UNSPECIFIED.);
#202=B_SPLINE_SURFACE_WITH_KNOTS('',3,3,((#447,#448,#449,#450),(#451,#452,
#453,#454),(#455,#456,#457,#458),(#459,#460,#461,#462),(#463,#464,#465,
#466),(#467,#468,#469,#470)),.UNSPECIFIED.,.F.,.F.,.F.,(4,1,1,4),(4,4),
(0.,0.285714285714286,0.571428571428571,1.),(0.,6.),.UNSPECIFIED.);
#203=ADVANCED_FACE('',(#37),#199,.T.);
#204=ADVANCED_FACE('',(#38),#200,.T.);
#205=ADVANCED_FACE('',(#39),#201,.T.);
#206=ADVANCED_FACE('',(#40),#202,.T.);
#207=ADVANCED_FACE('',(#41,#19,#20,#21,#22),#35,.T.);
#208=ADVANCED_FACE('',(#42),#15,.F.);
#209=ADVANCED_FACE('',(#43),#16,.F.);
#210=ADVANCED_FACE('',(#44),#17,.F.);
#211=ADVANCED_FACE('',(#45),#18,.F.);
#212=ADVANCED_FACE('',(#46,#23,#24,#25,#26),#36,.T.);
#213=CLOSED_SHELL('',(#203,#204,#205,#206,#207,#208,#209,#210,#211,#212));
#214=DERIVED_UNIT_ELEMENT(#216,1.);
#215=DERIVED_UNIT_ELEMENT(#507,-3.);
#216=(
MASS_UNIT()
NAMED_UNIT(*)
SI_UNIT(.KILO.,.GRAM.)
);
#217=DERIVED_UNIT((#214,#215));
#218=MEASURE_REPRESENTATION_ITEM('density measure',
POSITIVE_RATIO_MEASURE(7850.),#217);
#219=PROPERTY_DEFINITION_REPRESENTATION(#224,#221);
#220=PROPERTY_DEFINITION_REPRESENTATION(#225,#222);
#221=REPRESENTATION('material name',(#223),#504);
#222=REPRESENTATION('density',(#218),#504);
#223=DESCRIPTIVE_REPRESENTATION_ITEM('Steel','Steel');
#224=PROPERTY_DEFINITION('material property','material name',#514);
#225=PROPERTY_DEFINITION('material property','density of part',#514);
#226=AXIS2_PLACEMENT_3D('',#281,#241,#242);
#227=AXIS2_PLACEMENT_3D('',#476,#249,#250);
#228=AXIS2_PLACEMENT_3D('',#478,#251,#252);
#229=AXIS2_PLACEMENT_3D('',#480,#253,#254);
#230=AXIS2_PLACEMENT_3D('',#482,#255,#256);
#231=AXIS2_PLACEMENT_3D('',#484,#257,#258);
#232=AXIS2_PLACEMENT_3D('',#485,#259,#260);
#233=AXIS2_PLACEMENT_3D('',#488,#262,#263);
#234=AXIS2_PLACEMENT_3D('',#489,#264,#265);
#235=AXIS2_PLACEMENT_3D('',#492,#267,#268);
#236=AXIS2_PLACEMENT_3D('',#493,#269,#270);
#237=AXIS2_PLACEMENT_3D('',#496,#272,#273);
#238=AXIS2_PLACEMENT_3D('',#497,#274,#275);
#239=AXIS2_PLACEMENT_3D('',#500,#277,#278);
#240=AXIS2_PLACEMENT_3D('',#501,#279,#280);
#241=DIRECTION('axis',(0.,0.,1.));
#242=DIRECTION('refdir',(1.,0.,0.));
#243=DIRECTION('',(1.,0.,0.));
#244=DIRECTION('',(1.,0.,0.));
#245=DIRECTION('',(1.,0.,0.));
#246=DIRECTION('',(1.,0.,0.));
#247=DIRECTION('',(0.,0.,-1.));
#248=DIRECTION('',(0.,0.,-1.));
#249=DIRECTION('center_axis',(0.,1.,0.));
#250=DIRECTION('ref_axis',(0.,0.,1.));
#251=DIRECTION('center_axis',(0.,-1.,0.));
#252=DIRECTION('ref_axis',(-1.,0.,0.));
#253=DIRECTION('center_axis',(0.,-1.,0.));
#254=DIRECTION('ref_axis',(-1.,0.,0.));
#255=DIRECTION('center_axis',(0.,-1.,0.));
#256=DIRECTION('ref_axis',(-1.,0.,0.));
#257=DIRECTION('center_axis',(0.,-1.,0.));
#258=DIRECTION('ref_axis',(-1.,0.,0.));
#259=DIRECTION('center_axis',(0.,-1.,0.));
#260=DIRECTION('ref_axis',(-1.,0.,0.));
#261=DIRECTION('',(0.,-1.,0.));
#262=DIRECTION('center_axis',(0.,1.,0.));
#263=DIRECTION('ref_axis',(-1.,0.,0.));
#264=DIRECTION('center_axis',(0.,-1.,0.));
#265=DIRECTION('ref_axis',(-1.,0.,0.));
#266=DIRECTION('',(0.,-1.,0.));
#267=DIRECTION('center_axis',(0.,1.,0.));
#268=DIRECTION('ref_axis',(-1.,0.,0.));
#269=DIRECTION('center_axis',(0.,-1.,0.));
#270=DIRECTION('ref_axis',(-1.,0.,0.));
#271=DIRECTION('',(0.,-1.,0.));
#272=DIRECTION('center_axis',(0.,1.,0.));
#273=DIRECTION('ref_axis',(-1.,0.,0.));
#274=DIRECTION('center_axis',(0.,-1.,0.));
#275=DIRECTION('ref_axis',(-1.,0.,0.));
#276=DIRECTION('',(0.,-1.,0.));
#277=DIRECTION('center_axis',(0.,1.,0.));
#278=DIRECTION('ref_axis',(-1.,0.,0.));
#279=DIRECTION('center_axis',(0.,-1.,0.));
#280=DIRECTION('ref_axis',(0.,0.,-1.));
#281=CARTESIAN_POINT('',(0.,0.,0.));
#282=CARTESIAN_POINT('Ctrl Pts',(90.000000745058,110.,-29.));
#283=CARTESIAN_POINT('Ctrl Pts',(54.0000004967053,110.,-29.));
#284=CARTESIAN_POINT('Ctrl Pts',(18.0000002483527,110.,-29.));
#285=CARTESIAN_POINT('Ctrl Pts',(-18.,110.,-29.));
#286=CARTESIAN_POINT('Ctrl Pts',(90.000000745058,110.,-29.1346870059403));
#287=CARTESIAN_POINT('Ctrl Pts',(54.0000004967054,110.,-29.1346870059403));
#288=CARTESIAN_POINT('Ctrl Pts',(18.0000002483527,110.,-29.1346870059403));
#289=CARTESIAN_POINT('Ctrl Pts',(-18.,110.,-29.1346870059403));
#290=CARTESIAN_POINT('Ctrl Pts',(90.000000745058,109.7242116815,-29.4279214951197));
#291=CARTESIAN_POINT('Ctrl Pts',(54.0000004967053,109.7242116815,-29.4279214951197));
#292=CARTESIAN_POINT('Ctrl Pts',(18.0000002483527,109.7242116815,-29.4279214951197));
#293=CARTESIAN_POINT('Ctrl Pts',(-18.,109.7242116815,-29.4279214951197));
#294=CARTESIAN_POINT('Ctrl Pts',(90.0000007450581,107.951415469001,-29.8839637598678));
#295=CARTESIAN_POINT('Ctrl Pts',(54.0000004967054,107.951415469001,-29.8839637598678));
#296=CARTESIAN_POINT('Ctrl Pts',(18.0000002483526,107.951415469001,-29.8839637598678));
#297=CARTESIAN_POINT('Ctrl Pts',(-18.,107.951415469001,-29.8839637598678));
#298=CARTESIAN_POINT('Ctrl Pts',(90.000000745058,106.010152544552,-30.));
#299=CARTESIAN_POINT('Ctrl Pts',(54.0000004967053,106.010152544552,-30.));
#300=CARTESIAN_POINT('Ctrl Pts',(18.0000002483527,106.010152544552,-30.));
#301=CARTESIAN_POINT('Ctrl Pts',(-18.,106.010152544552,-30.));
#302=CARTESIAN_POINT('Ctrl Pts',(90.000000745058,105.,-30.));
#303=CARTESIAN_POINT('Ctrl Pts',(54.0000004967053,105.,-30.));
#304=CARTESIAN_POINT('Ctrl Pts',(18.0000002483527,105.,-30.));
#305=CARTESIAN_POINT('Ctrl Pts',(-18.,105.,-30.));
#306=CARTESIAN_POINT('',(68.,105.,-30.));
#307=CARTESIAN_POINT('',(90.000000745058,105.,-30.));
#308=CARTESIAN_POINT('',(35.9719801882562,105.,-30.));
#309=CARTESIAN_POINT('',(63.,105.,-30.));
#310=CARTESIAN_POINT('Ctrl Pts',(63.,105.,-30.));
#311=CARTESIAN_POINT('Ctrl Pts',(64.6666666666667,105.,-30.));
#312=CARTESIAN_POINT('Ctrl Pts',(66.3333333333333,105.,-30.));
#313=CARTESIAN_POINT('Ctrl Pts',(68.,105.,-30.));
#314=CARTESIAN_POINT('',(-18.,105.,-30.));
#315=CARTESIAN_POINT('',(35.9719801882562,105.,-30.));
#316=CARTESIAN_POINT('',(-17.,110.,-29.));
#317=CARTESIAN_POINT('Ctrl Pts',(-17.,110.,-29.));
#318=CARTESIAN_POINT('Ctrl Pts',(-17.0006668609938,110.,-29.0006668609937));
#319=CARTESIAN_POINT('Ctrl Pts',(-17.0013337141468,109.999996664723,-29.0013337141475));
#320=CARTESIAN_POINT('Ctrl Pts',(-17.032620392713,109.999683709949,-29.0326203927045));
#321=CARTESIAN_POINT('Ctrl Pts',(-17.0625416583161,109.992353426095,-29.0625416581953));
#322=CARTESIAN_POINT('Ctrl Pts',(-17.1242502708306,109.963952247066,-29.1242502707633));
#323=CARTESIAN_POINT('Ctrl Pts',(-17.1549383854733,109.941762954139,-29.1549383854733));
#324=CARTESIAN_POINT('Ctrl Pts',(-17.2562506255197,109.847180412869,-29.2562506255197));
#325=CARTESIAN_POINT('Ctrl Pts',(-17.3185831216316,109.747274809787,-29.3185831216316));
#326=CARTESIAN_POINT('Ctrl Pts',(-17.5364057369859,109.314679748396,-29.5364057369859));
#327=CARTESIAN_POINT('Ctrl Pts',(-17.647728975515,108.832437763446,-29.6477289755149));
#328=CARTESIAN_POINT('Ctrl Pts',(-17.8945681535737,107.59818023611,-29.8945681535737));
#329=CARTESIAN_POINT('Ctrl Pts',(-18.,106.32561765801,-30.));
#330=CARTESIAN_POINT('Ctrl Pts',(-18.,105.,-30.));
#331=CARTESIAN_POINT('',(89.,110.,-29.));
#332=CARTESIAN_POINT('Ctrl Pts',(-17.,110.,-29.));
#333=CARTESIAN_POINT('Ctrl Pts',(18.3333333333333,110.,-29.));
#334=CARTESIAN_POINT('Ctrl Pts',(53.6666666666666,110.,-29.));
#335=CARTESIAN_POINT('Ctrl Pts',(89.,110.,-29.));
#336=CARTESIAN_POINT('Ctrl Pts',(89.,110.,-29.));
#337=CARTESIAN_POINT('Ctrl Pts',(89.0006669106805,110.,-29.0006669106805));
#338=CARTESIAN_POINT('Ctrl Pts',(89.0013338135176,109.999996664226,-29.0013338135092));
#339=CARTESIAN_POINT('Ctrl Pts',(89.03262008298,109.999683690228,-29.0326200830703));
#340=CARTESIAN_POINT('Ctrl Pts',(89.0625409162116,109.992353599019,-29.0625409163326));
#341=CARTESIAN_POINT('Ctrl Pts',(89.1242487433664,109.963953138688,-29.1242487434338));
#342=CARTESIAN_POINT('Ctrl Pts',(89.1549365286609,109.941764367712,-29.1549365286608));
#343=CARTESIAN_POINT('Ctrl Pts',(89.2562477569521,109.847183903977,-29.2562477569521));
#344=CARTESIAN_POINT('Ctrl Pts',(89.3185797160247,109.747280402757,-29.3185797160247));
#345=CARTESIAN_POINT('Ctrl Pts',(89.5363975488014,109.314699882007,-29.5363975488014));
#346=CARTESIAN_POINT('Ctrl Pts',(89.6477190451881,108.832479177761,-29.6477190451882));
#347=CARTESIAN_POINT('Ctrl Pts',(89.8945618172683,107.598237920463,-29.8945618172684));
#348=CARTESIAN_POINT('Ctrl Pts',(90.,106.325659837264,-30.));
#349=CARTESIAN_POINT('Ctrl Pts',(90.,105.,-30.));
#350=CARTESIAN_POINT('Ctrl Pts',(-18.,110.,29.));
#351=CARTESIAN_POINT('Ctrl Pts',(18.,110.,29.));
#352=CARTESIAN_POINT('Ctrl Pts',(54.,110.,29.));
#353=CARTESIAN_POINT('Ctrl Pts',(90.,110.,29.));
#354=CARTESIAN_POINT('Ctrl Pts',(-18.,110.,29.1346870059403));
#355=CARTESIAN_POINT('Ctrl Pts',(18.,110.,29.1346870059403));
#356=CARTESIAN_POINT('Ctrl Pts',(54.,110.,29.1346870059403));
#357=CARTESIAN_POINT('Ctrl Pts',(90.,110.,29.1346870059403));
#358=CARTESIAN_POINT('Ctrl Pts',(-18.,109.7242116815,29.4279214951198));
#359=CARTESIAN_POINT('Ctrl Pts',(18.,109.7242116815,29.4279214951198));
#360=CARTESIAN_POINT('Ctrl Pts',(54.,109.7242116815,29.4279214951198));
#361=CARTESIAN_POINT('Ctrl Pts',(90.,109.7242116815,29.4279214951198));
#362=CARTESIAN_POINT('Ctrl Pts',(-18.,107.951415469,29.8839637598681));
#363=CARTESIAN_POINT('Ctrl Pts',(18.,107.951415469,29.8839637598681));
#364=CARTESIAN_POINT('Ctrl Pts',(54.,107.951415469,29.8839637598681));
#365=CARTESIAN_POINT('Ctrl Pts',(90.,107.951415469,29.8839637598681));
#366=CARTESIAN_POINT('Ctrl Pts',(-18.,106.010152544552,30.));
#367=CARTESIAN_POINT('Ctrl Pts',(18.,106.010152544552,30.));
#368=CARTESIAN_POINT('Ctrl Pts',(54.,106.010152544552,30.));
#369=CARTESIAN_POINT('Ctrl Pts',(90.,106.010152544552,30.));
#370=CARTESIAN_POINT('Ctrl Pts',(-18.,105.,30.));
#371=CARTESIAN_POINT('Ctrl Pts',(18.,105.,30.));
#372=CARTESIAN_POINT('Ctrl Pts',(54.,105.,30.));
#373=CARTESIAN_POINT('Ctrl Pts',(90.,105.,30.));
#374=CARTESIAN_POINT('',(89.,110.,29.));
#375=CARTESIAN_POINT('',(-17.,110.,29.));
#376=CARTESIAN_POINT('Ctrl Pts',(89.,110.,29.));
#377=CARTESIAN_POINT('Ctrl Pts',(53.6666666666667,110.,29.));
#378=CARTESIAN_POINT('Ctrl Pts',(18.3333333333333,110.,29.));
#379=CARTESIAN_POINT('Ctrl Pts',(-17.,110.,29.));
#380=CARTESIAN_POINT('',(-18.,105.,30.));
#381=CARTESIAN_POINT('Ctrl Pts',(-17.,110.,29.));
#382=CARTESIAN_POINT('Ctrl Pts',(-17.0006669106783,110.,29.0006669106782));
#383=CARTESIAN_POINT('Ctrl Pts',(-17.0013338135136,109.999996664226,29.0013338135124));
#384=CARTESIAN_POINT('Ctrl Pts',(-17.0326200830132,109.999683690228,29.0326200830266));
#385=CARTESIAN_POINT('Ctrl Pts',(-17.0625409162041,109.992353599021,29.0625409163249));
#386=CARTESIAN_POINT('Ctrl Pts',(-17.1242487433534,109.963953138696,29.1242487434207));
#387=CARTESIAN_POINT('Ctrl Pts',(-17.1549365286448,109.941764367724,29.1549365286448));
#388=CARTESIAN_POINT('Ctrl Pts',(-17.256247756924,109.84718390401,29.256247756924));
#389=CARTESIAN_POINT('Ctrl Pts',(-17.3185797159901,109.747280402813,29.3185797159901));
#390=CARTESIAN_POINT('Ctrl Pts',(-17.5363975487448,109.314699882159,29.5363975487448));
#391=CARTESIAN_POINT('Ctrl Pts',(-17.647719045126,108.832479178021,29.6477190451259));
#392=CARTESIAN_POINT('Ctrl Pts',(-17.894564336888,107.598225322246,29.894564336888));
#393=CARTESIAN_POINT('Ctrl Pts',(-18.,106.325641654903,30.));
#394=CARTESIAN_POINT('Ctrl Pts',(-18.,105.,30.));
#395=CARTESIAN_POINT('',(63.,105.,30.));
#396=CARTESIAN_POINT('',(-18.75,105.,30.));
#397=CARTESIAN_POINT('',(68.,105.,30.));
#398=CARTESIAN_POINT('Ctrl Pts',(68.,105.,30.));
#399=CARTESIAN_POINT('Ctrl Pts',(66.3333333333333,105.,30.));
#400=CARTESIAN_POINT('Ctrl Pts',(64.6666666666666,105.,30.));
#401=CARTESIAN_POINT('Ctrl Pts',(63.,105.,30.));
#402=CARTESIAN_POINT('',(90.,105.,30.0000020861626));
#403=CARTESIAN_POINT('',(-18.75,105.,30.));
#404=CARTESIAN_POINT('Ctrl Pts',(89.,110.,29.));
#405=CARTESIAN_POINT('Ctrl Pts',(89.0006668609938,110.,29.0006668609938));
#406=CARTESIAN_POINT('Ctrl Pts',(89.0013337141467,109.999996664723,29.0013337141475));
#407=CARTESIAN_POINT('Ctrl Pts',(89.0326203927344,109.999683709949,29.0326203927256));
#408=CARTESIAN_POINT('Ctrl Pts',(89.0625416583572,109.992353426085,29.0625416582363));
#409=CARTESIAN_POINT('Ctrl Pts',(89.1242502709139,109.963952247018,29.1242502708466));
#410=CARTESIAN_POINT('Ctrl Pts',(89.1549383855772,109.941762954061,29.1549383855772));
#411=CARTESIAN_POINT('Ctrl Pts',(89.256250625696,109.847180412658,29.256250625696));
#412=CARTESIAN_POINT('Ctrl Pts',(89.3185831218482,109.747274809433,29.3185831218483));
#413=CARTESIAN_POINT('Ctrl Pts',(89.5364057373419,109.314679747439,29.5364057373419));
#414=CARTESIAN_POINT('Ctrl Pts',(89.6477289759065,108.832437761808,29.6477289759064));
#415=CARTESIAN_POINT('Ctrl Pts',(89.8945610983833,107.598215512814,29.8945610983833));
#416=CARTESIAN_POINT('Ctrl Pts',(90.,106.325668570514,30.));
#417=CARTESIAN_POINT('Ctrl Pts',(90.,105.,30.));
#418=CARTESIAN_POINT('Ctrl Pts',(89.,110.,30.0000020861626));
#419=CARTESIAN_POINT('Ctrl Pts',(89.,110.,10.000001390775));
#420=CARTESIAN_POINT('Ctrl Pts',(89.,110.,-9.99999930461248));
#421=CARTESIAN_POINT('Ctrl Pts',(89.,110.,-30.));
#422=CARTESIAN_POINT('Ctrl Pts',(89.1346870059403,110.,30.0000020861626));
#423=CARTESIAN_POINT('Ctrl Pts',(89.1346870059403,110.,10.0000013907751));
#424=CARTESIAN_POINT('Ctrl Pts',(89.1346870059403,110.,-9.99999930461249));
#425=CARTESIAN_POINT('Ctrl Pts',(89.1346870059403,110.,-30.));
#426=CARTESIAN_POINT('Ctrl Pts',(89.4279214951194,109.724211681501,30.0000020861626));
#427=CARTESIAN_POINT('Ctrl Pts',(89.4279214951194,109.724211681501,10.000001390775));
#428=CARTESIAN_POINT('Ctrl Pts',(89.4279214951194,109.724211681501,-9.99999930461247));
#429=CARTESIAN_POINT('Ctrl Pts',(89.4279214951194,109.724211681501,-30.));
#430=CARTESIAN_POINT('Ctrl Pts',(89.8839637598673,107.951415469003,30.0000020861626));
#431=CARTESIAN_POINT('Ctrl Pts',(89.8839637598673,107.951415469003,10.0000013907751));
#432=CARTESIAN_POINT('Ctrl Pts',(89.8839637598673,107.951415469003,-9.99999930461252));
#433=CARTESIAN_POINT('Ctrl Pts',(89.8839637598673,107.951415469003,-30.));
#434=CARTESIAN_POINT('Ctrl Pts',(90.,106.010152544552,30.0000020861626));
#435=CARTESIAN_POINT('Ctrl Pts',(90.,106.010152544552,10.000001390775));
#436=CARTESIAN_POINT('Ctrl Pts',(90.,106.010152544552,-9.99999930461247));
#437=CARTESIAN_POINT('Ctrl Pts',(90.,106.010152544552,-30.));
#438=CARTESIAN_POINT('Ctrl Pts',(90.,105.,30.0000020861626));
#439=CARTESIAN_POINT('Ctrl Pts',(90.,105.,10.000001390775));
#440=CARTESIAN_POINT('Ctrl Pts',(90.,105.,-9.99999930461248));
#441=CARTESIAN_POINT('Ctrl Pts',(90.,105.,-30.));
#442=CARTESIAN_POINT('Ctrl Pts',(89.,110.,-29.));
#443=CARTESIAN_POINT('Ctrl Pts',(89.,110.,-9.66666666666667));
#444=CARTESIAN_POINT('Ctrl Pts',(89.,110.,9.66666666666667));
#445=CARTESIAN_POINT('Ctrl Pts',(89.,110.,29.));
#446=CARTESIAN_POINT('',(90.,105.,15.0000010430813));
#447=CARTESIAN_POINT('Ctrl Pts',(-17.,110.,-30.));
#448=CARTESIAN_POINT('Ctrl Pts',(-17.,110.,-10.));
#449=CARTESIAN_POINT('Ctrl Pts',(-17.,110.,10.));
#450=CARTESIAN_POINT('Ctrl Pts',(-17.,110.,30.));
#451=CARTESIAN_POINT('Ctrl Pts',(-17.1346870059403,110.,-30.));
#452=CARTESIAN_POINT('Ctrl Pts',(-17.1346870059403,110.,-10.));
#453=CARTESIAN_POINT('Ctrl Pts',(-17.1346870059403,110.,10.));
#454=CARTESIAN_POINT('Ctrl Pts',(-17.1346870059403,110.,30.));
#455=CARTESIAN_POINT('Ctrl Pts',(-17.4279422424223,109.724136283477,-30.));
#456=CARTESIAN_POINT('Ctrl Pts',(-17.4279422424223,109.724136283477,-9.99999999999999));
#457=CARTESIAN_POINT('Ctrl Pts',(-17.4279422424223,109.724136283477,9.99999999999999));
#458=CARTESIAN_POINT('Ctrl Pts',(-17.4279422424223,109.724136283477,30.));
#459=CARTESIAN_POINT('Ctrl Pts',(-17.8840049780772,107.95126314141,-30.));
#460=CARTESIAN_POINT('Ctrl Pts',(-17.8840049780772,107.95126314141,-10.));
#461=CARTESIAN_POINT('Ctrl Pts',(-17.8840049780772,107.95126314141,10.));
#462=CARTESIAN_POINT('Ctrl Pts',(-17.8840049780772,107.95126314141,30.));
#463=CARTESIAN_POINT('Ctrl Pts',(-18.,106.010152544552,-30.));
#464=CARTESIAN_POINT('Ctrl Pts',(-18.,106.010152544552,-9.99999999999998));
#465=CARTESIAN_POINT('Ctrl Pts',(-18.,106.010152544552,9.99999999999999));
#466=CARTESIAN_POINT('Ctrl Pts',(-18.,106.010152544552,30.));
#467=CARTESIAN_POINT('Ctrl Pts',(-18.,105.,-30.));
#468=CARTESIAN_POINT('Ctrl Pts',(-18.,105.,-10.));
#469=CARTESIAN_POINT('Ctrl Pts',(-18.,105.,10.));
#470=CARTESIAN_POINT('Ctrl Pts',(-18.,105.,30.));
#471=CARTESIAN_POINT('',(-18.,105.,-15.));
#472=CARTESIAN_POINT('Ctrl Pts',(-17.,110.,29.));
#473=CARTESIAN_POINT('Ctrl Pts',(-17.,110.,9.66666666666668));
#474=CARTESIAN_POINT('Ctrl Pts',(-17.,110.,-9.66666666666666));
#475=CARTESIAN_POINT('Ctrl Pts',(-17.,110.,-29.));
#476=CARTESIAN_POINT('Origin',(36.000000372529,110.,1.04308128356934E-6));
#477=CARTESIAN_POINT('',(-13.6000002235174,110.,27.0000004023314));
#478=CARTESIAN_POINT('Origin',(-15.0000002235174,110.,27.0000004023314));
#479=CARTESIAN_POINT('',(-13.6000002235174,110.,-27.0000004023314));
#480=CARTESIAN_POINT('Origin',(-15.0000002235174,110.,-27.0000004023314));
#481=CARTESIAN_POINT('',(88.400001296401,110.,27.0000004023314));
#482=CARTESIAN_POINT('Origin',(87.000001296401,110.,27.0000004023314));
#483=CARTESIAN_POINT('',(88.400001296401,110.,-27.0000004023314));
#484=CARTESIAN_POINT('Origin',(87.000001296401,110.,-27.0000004023314));
#485=CARTESIAN_POINT('Origin',(-15.0000002235174,115.,27.0000004023314));
#486=CARTESIAN_POINT('',(-13.6000002235174,105.,27.0000004023314));
#487=CARTESIAN_POINT('',(-13.6000002235174,115.,27.0000004023314));
#488=CARTESIAN_POINT('Origin',(-15.0000002235174,105.,27.0000004023314));
#489=CARTESIAN_POINT('Origin',(87.000001296401,115.,27.0000004023314));
#490=CARTESIAN_POINT('',(88.400001296401,105.,27.0000004023314));
#491=CARTESIAN_POINT('',(88.400001296401,115.,27.0000004023314));
#492=CARTESIAN_POINT('Origin',(87.000001296401,105.,27.0000004023314));
#493=CARTESIAN_POINT('Origin',(87.000001296401,115.,-27.0000004023314));
#494=CARTESIAN_POINT('',(88.400001296401,105.,-27.0000004023314));
#495=CARTESIAN_POINT('',(88.400001296401,115.,-27.0000004023314));
#496=CARTESIAN_POINT('Origin',(87.000001296401,105.,-27.0000004023314));
#497=CARTESIAN_POINT('Origin',(-15.0000002235174,115.,-27.0000004023314));
#498=CARTESIAN_POINT('',(-13.6000002235174,105.,-27.0000004023314));
#499=CARTESIAN_POINT('',(-13.6000002235174,115.,-27.0000004023314));
#500=CARTESIAN_POINT('Origin',(-15.0000002235174,105.,-27.0000004023314));
#501=CARTESIAN_POINT('Origin',(137.49916048746,105.,0.));
#502=UNCERTAINTY_MEASURE_WITH_UNIT(LENGTH_MEASURE(0.01),#506,
'DISTANCE_ACCURACY_VALUE',
'Maximum model space distance between geometric entities at asserted c
onnectivities');
#503=UNCERTAINTY_MEASURE_WITH_UNIT(LENGTH_MEASURE(0.01),#506,
'DISTANCE_ACCURACY_VALUE',
'Maximum model space distance between geometric entities at asserted c
onnectivities');
#504=(
GEOMETRIC_REPRESENTATION_CONTEXT(3)
GLOBAL_UNCERTAINTY_ASSIGNED_CONTEXT((#502))
GLOBAL_UNIT_ASSIGNED_CONTEXT((#506,#508,#509))
REPRESENTATION_CONTEXT('','3D')
);
#505=(
GEOMETRIC_REPRESENTATION_CONTEXT(3)
GLOBAL_UNCERTAINTY_ASSIGNED_CONTEXT((#503))
GLOBAL_UNIT_ASSIGNED_CONTEXT((#506,#508,#509))
REPRESENTATION_CONTEXT('','3D')
);
#506=(
LENGTH_UNIT()
NAMED_UNIT(*)
SI_UNIT(.MILLI.,.METRE.)
);
#507=(
LENGTH_UNIT()
NAMED_UNIT(*)
SI_UNIT($,.METRE.)
);
#508=(
NAMED_UNIT(*)
PLANE_ANGLE_UNIT()
SI_UNIT($,.RADIAN.)
);
#509=(
NAMED_UNIT(*)
SI_UNIT($,.STERADIAN.)
SOLID_ANGLE_UNIT()
);
#510=SHAPE_DEFINITION_REPRESENTATION(#511,#512);
#511=PRODUCT_DEFINITION_SHAPE('',$,#514);
#512=SHAPE_REPRESENTATION('',(#226),#504);
#513=PRODUCT_DEFINITION_CONTEXT('part definition',#518,'design');
#514=PRODUCT_DEFINITION('2026-08-03-14-40-19-866','robot',#515,#513);
#515=PRODUCT_DEFINITION_FORMATION('',$,#520);
#516=PRODUCT_RELATED_PRODUCT_CATEGORY('robot','robot',(#520));
#517=APPLICATION_PROTOCOL_DEFINITION('international standard',
'automotive_design',2009,#518);
#518=APPLICATION_CONTEXT(
'Core Data for Automotive Mechanical Design Process');
#519=PRODUCT_CONTEXT('part definition',#518,'mechanical');
#520=PRODUCT('2026-08-03-14-40-19-866','robot',
'Spur Gear; Module: 1.0; Num Teeth: 16; Pressure Angle: 20.0; Backlash
: 0.00 mm',(#519));
#521=PRESENTATION_STYLE_ASSIGNMENT((#547));
#522=PRESENTATION_STYLE_ASSIGNMENT((#548));
#523=PRESENTATION_STYLE_ASSIGNMENT((#549));
#524=PRESENTATION_STYLE_ASSIGNMENT((#550));
#525=PRESENTATION_STYLE_ASSIGNMENT((#551));
#526=PRESENTATION_STYLE_ASSIGNMENT((#552));
#527=PRESENTATION_STYLE_ASSIGNMENT((#553));
#528=PRESENTATION_STYLE_ASSIGNMENT((#554));
#529=PRESENTATION_STYLE_ASSIGNMENT((#555));
#530=PRESENTATION_STYLE_ASSIGNMENT((#556));
#531=PRESENTATION_STYLE_ASSIGNMENT((#557));
#532=PRESENTATION_STYLE_ASSIGNMENT((#558));
#533=PRESENTATION_STYLE_ASSIGNMENT((#559));
#534=PRESENTATION_STYLE_ASSIGNMENT((#560));
#535=PRESENTATION_STYLE_ASSIGNMENT((#561));
#536=PRESENTATION_STYLE_ASSIGNMENT((#562));
#537=PRESENTATION_STYLE_ASSIGNMENT((#563));
#538=PRESENTATION_STYLE_ASSIGNMENT((#564));
#539=PRESENTATION_STYLE_ASSIGNMENT((#565));
#540=PRESENTATION_STYLE_ASSIGNMENT((#566));
#541=PRESENTATION_STYLE_ASSIGNMENT((#567));
#542=PRESENTATION_STYLE_ASSIGNMENT((#568));
#543=PRESENTATION_STYLE_ASSIGNMENT((#569));
#544=PRESENTATION_STYLE_ASSIGNMENT((#570));
#545=PRESENTATION_STYLE_ASSIGNMENT((#571));
#546=PRESENTATION_STYLE_ASSIGNMENT((#572));
#547=SURFACE_STYLE_USAGE(.BOTH.,#573);
#548=SURFACE_STYLE_USAGE(.BOTH.,#574);
#549=SURFACE_STYLE_USAGE(.BOTH.,#575);
#550=SURFACE_STYLE_USAGE(.BOTH.,#576);
#551=SURFACE_STYLE_USAGE(.BOTH.,#577);
#552=SURFACE_STYLE_USAGE(.BOTH.,#578);
#553=SURFACE_STYLE_USAGE(.BOTH.,#579);
#554=SURFACE_STYLE_USAGE(.BOTH.,#580);
#555=SURFACE_STYLE_USAGE(.BOTH.,#581);
#556=SURFACE_STYLE_USAGE(.BOTH.,#582);
#557=SURFACE_STYLE_USAGE(.BOTH.,#583);
#558=SURFACE_STYLE_USAGE(.BOTH.,#584);
#559=SURFACE_STYLE_USAGE(.BOTH.,#585);
#560=SURFACE_STYLE_USAGE(.BOTH.,#586);
#561=SURFACE_STYLE_USAGE(.BOTH.,#587);
#562=SURFACE_STYLE_USAGE(.BOTH.,#588);
#563=SURFACE_STYLE_USAGE(.BOTH.,#589);
#564=SURFACE_STYLE_USAGE(.BOTH.,#590);
#565=SURFACE_STYLE_USAGE(.BOTH.,#591);
#566=SURFACE_STYLE_USAGE(.BOTH.,#592);
#567=SURFACE_STYLE_USAGE(.BOTH.,#593);
#568=SURFACE_STYLE_USAGE(.BOTH.,#594);
#569=SURFACE_STYLE_USAGE(.BOTH.,#595);
#570=SURFACE_STYLE_USAGE(.BOTH.,#596);
#571=SURFACE_STYLE_USAGE(.BOTH.,#597);
#572=SURFACE_STYLE_USAGE(.BOTH.,#598);
#573=SURFACE_SIDE_STYLE('',(#599));
#574=SURFACE_SIDE_STYLE('',(#600));
#575=SURFACE_SIDE_STYLE('',(#601));
#576=SURFACE_SIDE_STYLE('',(#602));
#577=SURFACE_SIDE_STYLE('',(#603));
#578=SURFACE_SIDE_STYLE('',(#604));
#579=SURFACE_SIDE_STYLE('',(#605));
#580=SURFACE_SIDE_STYLE('',(#606));
#581=SURFACE_SIDE_STYLE('',(#607));
#582=SURFACE_SIDE_STYLE('',(#608));
#583=SURFACE_SIDE_STYLE('',(#609));
#584=SURFACE_SIDE_STYLE('',(#610));
#585=SURFACE_SIDE_STYLE('',(#611));
#586=SURFACE_SIDE_STYLE('',(#612));
#587=SURFACE_SIDE_STYLE('',(#613));
#588=SURFACE_SIDE_STYLE('',(#614));
#589=SURFACE_SIDE_STYLE('',(#615));
#590=SURFACE_SIDE_STYLE('',(#616));
#591=SURFACE_SIDE_STYLE('',(#617));
#592=SURFACE_SIDE_STYLE('',(#618));
#593=SURFACE_SIDE_STYLE('',(#619));
#594=SURFACE_SIDE_STYLE('',(#620));
#595=SURFACE_SIDE_STYLE('',(#621));
#596=SURFACE_SIDE_STYLE('',(#622));
#597=SURFACE_SIDE_STYLE('',(#623));
#598=SURFACE_SIDE_STYLE('',(#624));
#599=SURFACE_STYLE_FILL_AREA(#625);
#600=SURFACE_STYLE_FILL_AREA(#626);
#601=SURFACE_STYLE_FILL_AREA(#627);
#602=SURFACE_STYLE_FILL_AREA(#628);
#603=SURFACE_STYLE_FILL_AREA(#629);
#604=SURFACE_STYLE_FILL_AREA(#630);
#605=SURFACE_STYLE_FILL_AREA(#631);
#606=SURFACE_STYLE_FILL_AREA(#632);
#607=SURFACE_STYLE_FILL_AREA(#633);
#608=SURFACE_STYLE_FILL_AREA(#634);
#609=SURFACE_STYLE_FILL_AREA(#635);
#610=SURFACE_STYLE_FILL_AREA(#636);
#611=SURFACE_STYLE_FILL_AREA(#637);
#612=SURFACE_STYLE_FILL_AREA(#638);
#613=SURFACE_STYLE_FILL_AREA(#639);
#614=SURFACE_STYLE_FILL_AREA(#640);
#615=SURFACE_STYLE_FILL_AREA(#641);
#616=SURFACE_STYLE_FILL_AREA(#642);
#617=SURFACE_STYLE_FILL_AREA(#643);
#618=SURFACE_STYLE_FILL_AREA(#644);
#619=SURFACE_STYLE_FILL_AREA(#645);
#620=SURFACE_STYLE_FILL_AREA(#646);
#621=SURFACE_STYLE_FILL_AREA(#647);
#622=SURFACE_STYLE_FILL_AREA(#648);
#623=SURFACE_STYLE_FILL_AREA(#649);
#624=SURFACE_STYLE_FILL_AREA(#650);
#625=FILL_AREA_STYLE('Steel - Satin',(#651));
#626=FILL_AREA_STYLE('Opaque(76,76,76)',(#652));
#627=FILL_AREA_STYLE('Opaque(51,51,51)',(#653));
#628=FILL_AREA_STYLE('Opaque(223,223,223)',(#654));
#629=FILL_AREA_STYLE('Opaque(255,255,255)',(#655));
#630=FILL_AREA_STYLE('Opaque(255,202,0)',(#656));
#631=FILL_AREA_STYLE('Opaque(152,170,175)',(#657));
#632=FILL_AREA_STYLE('Opaque(153,153,153)',(#658));
#633=FILL_AREA_STYLE('Opaque(195,225,190)',(#659));
#634=FILL_AREA_STYLE('Opaque(255,153,0)',(#660));
#635=FILL_AREA_STYLE('Opaque(204,255,51)',(#661));
#636=FILL_AREA_STYLE('Opaque(0,153,0)',(#662));
#637=FILL_AREA_STYLE('Opaque(153,102,51)',(#663));
#638=FILL_AREA_STYLE('Opaque(0,153,255)',(#664));
#639=FILL_AREA_STYLE('Opaque(230,235,235)',(#665));
#640=FILL_AREA_STYLE('Opaque(255,245,227)',(#666));
#641=FILL_AREA_STYLE('Opaque(204,0,0)',(#667));
#642=FILL_AREA_STYLE('Opaque(0,0,172)',(#668));
#643=FILL_AREA_STYLE('Opaque(255,248,56)',(#669));
#644=FILL_AREA_STYLE('Opaque(112,112,112)',(#670));
#645=FILL_AREA_STYLE('Opaque(112,121,128)',(#671));
#646=FILL_AREA_STYLE('Opaque(234,234,234)',(#672));
#647=FILL_AREA_STYLE('Opaque(95,167,61)',(#673));
#648=FILL_AREA_STYLE('Opaque(131,188,104)',(#674));
#649=FILL_AREA_STYLE('Opaque(30,23,23)',(#675));
#650=FILL_AREA_STYLE('Opaque(202,209,238)',(#676));
#651=FILL_AREA_STYLE_COLOUR('Steel - Satin',#677);
#652=FILL_AREA_STYLE_COLOUR('Opaque(76,76,76)',#678);
#653=FILL_AREA_STYLE_COLOUR('Opaque(51,51,51)',#679);
#654=FILL_AREA_STYLE_COLOUR('Opaque(223,223,223)',#680);
#655=FILL_AREA_STYLE_COLOUR('Opaque(255,255,255)',#681);
#656=FILL_AREA_STYLE_COLOUR('Opaque(255,202,0)',#682);
#657=FILL_AREA_STYLE_COLOUR('Opaque(152,170,175)',#683);
#658=FILL_AREA_STYLE_COLOUR('Opaque(153,153,153)',#684);
#659=FILL_AREA_STYLE_COLOUR('Opaque(195,225,190)',#685);
#660=FILL_AREA_STYLE_COLOUR('Opaque(255,153,0)',#686);
#661=FILL_AREA_STYLE_COLOUR('Opaque(204,255,51)',#687);
#662=FILL_AREA_STYLE_COLOUR('Opaque(0,153,0)',#688);
#663=FILL_AREA_STYLE_COLOUR('Opaque(153,102,51)',#689);
#664=FILL_AREA_STYLE_COLOUR('Opaque(0,153,255)',#690);
#665=FILL_AREA_STYLE_COLOUR('Opaque(230,235,235)',#691);
#666=FILL_AREA_STYLE_COLOUR('Opaque(255,245,227)',#692);
#667=FILL_AREA_STYLE_COLOUR('Opaque(204,0,0)',#693);
#668=FILL_AREA_STYLE_COLOUR('Opaque(0,0,172)',#694);
#669=FILL_AREA_STYLE_COLOUR('Opaque(255,248,56)',#695);
#670=FILL_AREA_STYLE_COLOUR('Opaque(112,112,112)',#696);
#671=FILL_AREA_STYLE_COLOUR('Opaque(112,121,128)',#697);
#672=FILL_AREA_STYLE_COLOUR('Opaque(234,234,234)',#698);
#673=FILL_AREA_STYLE_COLOUR('Opaque(95,167,61)',#699);
#674=FILL_AREA_STYLE_COLOUR('Opaque(131,188,104)',#700);
#675=FILL_AREA_STYLE_COLOUR('Opaque(30,23,23)',#701);
#676=FILL_AREA_STYLE_COLOUR('Opaque(202,209,238)',#702);
#677=COLOUR_RGB('Steel - Satin',0.627450980392157,0.627450980392157,0.627450980392157);
#678=COLOUR_RGB('Opaque(76,76,76)',0.298039215686275,0.298039215686275,
0.298039215686275);
#679=COLOUR_RGB('Opaque(51,51,51)',0.2,0.2,0.2);
#680=COLOUR_RGB('Opaque(223,223,223)',0.874509803921569,0.874509803921569,
0.874509803921569);
#681=COLOUR_RGB('Opaque(255,255,255)',1.,1.,1.);
#682=COLOUR_RGB('Opaque(255,202,0)',1.,0.792156862745098,0.);
#683=COLOUR_RGB('Opaque(152,170,175)',0.596078431372549,0.666666666666667,
0.686274509803922);
#684=COLOUR_RGB('Opaque(153,153,153)',0.6,0.6,0.6);
#685=COLOUR_RGB('Opaque(195,225,190)',0.764705882352941,0.882352941176471,
0.745098039215686);
#686=COLOUR_RGB('Opaque(255,153,0)',1.,0.6,0.);
#687=COLOUR_RGB('Opaque(204,255,51)',0.8,1.,0.2);
#688=COLOUR_RGB('Opaque(0,153,0)',0.,0.6,0.);
#689=COLOUR_RGB('Opaque(153,102,51)',0.6,0.4,0.2);
#690=COLOUR_RGB('Opaque(0,153,255)',0.,0.6,1.);
#691=COLOUR_RGB('Opaque(230,235,235)',0.901960784313726,0.92156862745098,
0.92156862745098);
#692=COLOUR_RGB('Opaque(255,245,227)',1.,0.96078431372549,0.890196078431372);
#693=COLOUR_RGB('Opaque(204,0,0)',0.8,0.,0.);
#694=COLOUR_RGB('Opaque(0,0,172)',0.,0.,0.674509803921569);
#695=COLOUR_RGB('Opaque(255,248,56)',1.,0.972549019607843,0.219607843137255);
#696=COLOUR_RGB('Opaque(112,112,112)',0.43921568627451,0.43921568627451,
0.43921568627451);
#697=COLOUR_RGB('Opaque(112,121,128)',0.43921568627451,0.474509803921569,
0.501960784313725);
#698=COLOUR_RGB('Opaque(234,234,234)',0.917647058823529,0.917647058823529,
0.917647058823529);
#699=COLOUR_RGB('Opaque(95,167,61)',0.372549019607843,0.654901960784314,
0.23921568627451);
#700=COLOUR_RGB('Opaque(131,188,104)',0.513725490196078,0.737254901960784,
0.407843137254902);
#701=COLOUR_RGB('Opaque(30,23,23)',0.117647058823529,0.0901960784313725,
0.0901960784313725);
#702=COLOUR_RGB('Opaque(202,209,238)',0.792156862745098,0.819607843137255,
0.933333333333333);
ENDSEC;
END-ISO-10303-21;
