ISO-10303-21;
HEADER;
/* Generated by software containing ST-Developer
 * from STEP Tools, Inc. (www.steptools.com) 
 */

FILE_DESCRIPTION(
/* description */ (
'Spur Gear; Module: 1.0; Num Teeth: 16; Pressure Angle: 20.0; Backlash
: 0.00 mm'),
/* implementation_level */ '2;1');

FILE_NAME(
/* name */ 'roof 2.step',
/* time_stamp */ '2026-08-17T14:51:47-04:00',
/* author */ (''),
/* organization */ (''),
/* preprocessor_version */ 'ST-DEVELOPER v20.1',
/* originating_system */ 'Autodesk Translation Framework v15.8.0.0',
/* authorisation */ '');

FILE_SCHEMA (('AUTOMOTIVE_DESIGN { 1 0 10303 214 3 1 1 }'));
ENDSEC;

DATA;
#10=MECHANICAL_DESIGN_GEOMETRIC_PRESENTATION_REPRESENTATION('',(#13),#957);
#11=SHAPE_REPRESENTATION_RELATIONSHIP('SRR','None',#964,#12);
#12=ADVANCED_BREP_SHAPE_REPRESENTATION('',(#14),#956);
#13=STYLED_ITEM('',(#973),#14);
#14=MANIFOLD_SOLID_BREP('Body199',#585);
#15=FACE_BOUND('',#88,.T.);
#16=FACE_BOUND('',#94,.T.);
#17=FACE_BOUND('',#100,.T.);
#18=FACE_BOUND('',#101,.T.);
#19=FACE_BOUND('',#102,.T.);
#20=FACE_BOUND('',#103,.T.);
#21=FACE_BOUND('',#109,.T.);
#22=FACE_BOUND('',#110,.T.);
#23=FACE_BOUND('',#111,.T.);
#24=FACE_BOUND('',#112,.T.);
#25=CIRCLE('',#612,2.5);
#26=CIRCLE('',#613,2.5);
#27=CIRCLE('',#616,7.5);
#28=CIRCLE('',#618,7.5);
#29=CIRCLE('',#624,1.40000000000001);
#30=CIRCLE('',#625,1.40000000000001);
#31=CIRCLE('',#627,1.40000000000001);
#32=CIRCLE('',#628,1.40000000000001);
#33=CIRCLE('',#630,1.40000000000001);
#34=CIRCLE('',#631,1.40000000000001);
#35=CIRCLE('',#633,1.40000000000001);
#36=CIRCLE('',#634,1.40000000000001);
#37=CYLINDRICAL_SURFACE('',#611,2.5);
#38=CYLINDRICAL_SURFACE('',#617,7.5);
#39=CYLINDRICAL_SURFACE('',#623,1.40000000000001);
#40=CYLINDRICAL_SURFACE('',#626,1.40000000000001);
#41=CYLINDRICAL_SURFACE('',#629,1.40000000000001);
#42=CYLINDRICAL_SURFACE('',#632,1.40000000000001);
#43=FACE_OUTER_BOUND('',#73,.T.);
#44=FACE_OUTER_BOUND('',#74,.T.);
#45=FACE_OUTER_BOUND('',#75,.T.);
#46=FACE_OUTER_BOUND('',#76,.T.);
#47=FACE_OUTER_BOUND('',#77,.T.);
#48=FACE_OUTER_BOUND('',#78,.T.);
#49=FACE_OUTER_BOUND('',#79,.T.);
#50=FACE_OUTER_BOUND('',#80,.T.);
#51=FACE_OUTER_BOUND('',#81,.T.);
#52=FACE_OUTER_BOUND('',#82,.T.);
#53=FACE_OUTER_BOUND('',#83,.T.);
#54=FACE_OUTER_BOUND('',#84,.T.);
#55=FACE_OUTER_BOUND('',#85,.T.);
#56=FACE_OUTER_BOUND('',#86,.T.);
#57=FACE_OUTER_BOUND('',#87,.T.);
#58=FACE_OUTER_BOUND('',#89,.T.);
#59=FACE_OUTER_BOUND('',#90,.T.);
#60=FACE_OUTER_BOUND('',#91,.T.);
#61=FACE_OUTER_BOUND('',#92,.T.);
#62=FACE_OUTER_BOUND('',#93,.T.);
#63=FACE_OUTER_BOUND('',#95,.T.);
#64=FACE_OUTER_BOUND('',#96,.T.);
#65=FACE_OUTER_BOUND('',#97,.T.);
#66=FACE_OUTER_BOUND('',#98,.T.);
#67=FACE_OUTER_BOUND('',#99,.T.);
#68=FACE_OUTER_BOUND('',#104,.T.);
#69=FACE_OUTER_BOUND('',#105,.T.);
#70=FACE_OUTER_BOUND('',#106,.T.);
#71=FACE_OUTER_BOUND('',#107,.T.);
#72=FACE_OUTER_BOUND('',#108,.T.);
#73=EDGE_LOOP('',(#375,#376,#377,#378));
#74=EDGE_LOOP('',(#379,#380,#381,#382));
#75=EDGE_LOOP('',(#383,#384,#385,#386));
#76=EDGE_LOOP('',(#387,#388,#389,#390));
#77=EDGE_LOOP('',(#391,#392,#393,#394));
#78=EDGE_LOOP('',(#395,#396,#397,#398));
#79=EDGE_LOOP('',(#399,#400,#401,#402));
#80=EDGE_LOOP('',(#403,#404,#405,#406));
#81=EDGE_LOOP('',(#407,#408,#409,#410));
#82=EDGE_LOOP('',(#411,#412,#413,#414,#415));
#83=EDGE_LOOP('',(#416,#417,#418,#419));
#84=EDGE_LOOP('',(#420,#421,#422,#423,#424));
#85=EDGE_LOOP('',(#425,#426,#427,#428));
#86=EDGE_LOOP('',(#429,#430,#431,#432));
#87=EDGE_LOOP('',(#433,#434,#435,#436,#437,#438,#439,#440));
#88=EDGE_LOOP('',(#441,#442,#443,#444,#445));
#89=EDGE_LOOP('',(#446,#447,#448,#449));
#90=EDGE_LOOP('',(#450,#451,#452,#453));
#91=EDGE_LOOP('',(#454,#455,#456,#457));
#92=EDGE_LOOP('',(#458,#459,#460,#461));
#93=EDGE_LOOP('',(#462,#463,#464,#465,#466,#467,#468,#469));
#94=EDGE_LOOP('',(#470,#471,#472,#473,#474));
#95=EDGE_LOOP('',(#475,#476,#477,#478));
#96=EDGE_LOOP('',(#479,#480,#481,#482));
#97=EDGE_LOOP('',(#483,#484,#485,#486));
#98=EDGE_LOOP('',(#487,#488,#489,#490));
#99=EDGE_LOOP('',(#491,#492,#493,#494));
#100=EDGE_LOOP('',(#495));
#101=EDGE_LOOP('',(#496));
#102=EDGE_LOOP('',(#497));
#103=EDGE_LOOP('',(#498));
#104=EDGE_LOOP('',(#499,#500,#501,#502));
#105=EDGE_LOOP('',(#503,#504,#505,#506));
#106=EDGE_LOOP('',(#507,#508,#509,#510));
#107=EDGE_LOOP('',(#511,#512,#513,#514,#515,#516,#517,#518));
#108=EDGE_LOOP('',(#519,#520,#521,#522,#523,#524,#525,#526));
#109=EDGE_LOOP('',(#527));
#110=EDGE_LOOP('',(#528));
#111=EDGE_LOOP('',(#529));
#112=EDGE_LOOP('',(#530));
#113=LINE('',#797,#179);
#114=LINE('',#799,#180);
#115=LINE('',#801,#181);
#116=LINE('',#802,#182);
#117=LINE('',#805,#183);
#118=LINE('',#807,#184);
#119=LINE('',#808,#185);
#120=LINE('',#812,#186);
#121=LINE('',#814,#187);
#122=LINE('',#816,#188);
#123=LINE('',#817,#189);
#124=LINE('',#820,#190);
#125=LINE('',#822,#191);
#126=LINE('',#823,#192);
#127=LINE('',#827,#193);
#128=LINE('',#829,#194);
#129=LINE('',#831,#195);
#130=LINE('',#832,#196);
#131=LINE('',#834,#197);
#132=LINE('',#835,#198);
#133=LINE('',#837,#199);
#134=LINE('',#838,#200);
#135=LINE('',#842,#201);
#136=LINE('',#844,#202);
#137=LINE('',#846,#203);
#138=LINE('',#847,#204);
#139=LINE('',#849,#205);
#140=LINE('',#850,#206);
#141=LINE('',#852,#207);
#142=LINE('',#854,#208);
#143=LINE('',#861,#209);
#144=LINE('',#864,#210);
#145=LINE('',#867,#211);
#146=LINE('',#869,#212);
#147=LINE('',#870,#213);
#148=LINE('',#873,#214);
#149=LINE('',#875,#215);
#150=LINE('',#877,#216);
#151=LINE('',#879,#217);
#152=LINE('',#881,#218);
#153=LINE('',#886,#219);
#154=LINE('',#889,#220);
#155=LINE('',#890,#221);
#156=LINE('',#893,#222);
#157=LINE('',#894,#223);
#158=LINE('',#897,#224);
#159=LINE('',#898,#225);
#160=LINE('',#901,#226);
#161=LINE('',#902,#227);
#162=LINE('',#907,#228);
#163=LINE('',#913,#229);
#164=LINE('',#919,#230);
#165=LINE('',#925,#231);
#166=LINE('',#930,#232);
#167=LINE('',#932,#233);
#168=LINE('',#934,#234);
#169=LINE('',#935,#235);
#170=LINE('',#938,#236);
#171=LINE('',#940,#237);
#172=LINE('',#941,#238);
#173=LINE('',#944,#239);
#174=LINE('',#945,#240);
#175=LINE('',#948,#241);
#176=LINE('',#949,#242);
#177=LINE('',#951,#243);
#178=LINE('',#952,#244);
#179=VECTOR('',#645,10.);
#180=VECTOR('',#646,10.);
#181=VECTOR('',#647,10.);
#182=VECTOR('',#648,10.);
#183=VECTOR('',#651,10.);
#184=VECTOR('',#652,10.);
#185=VECTOR('',#653,10.);
#186=VECTOR('',#656,10.);
#187=VECTOR('',#657,10.);
#188=VECTOR('',#658,10.);
#189=VECTOR('',#659,10.);
#190=VECTOR('',#662,10.);
#191=VECTOR('',#663,10.);
#192=VECTOR('',#664,10.);
#193=VECTOR('',#667,10.);
#194=VECTOR('',#668,10.);
#195=VECTOR('',#669,10.);
#196=VECTOR('',#670,10.);
#197=VECTOR('',#673,10.);
#198=VECTOR('',#674,10.);
#199=VECTOR('',#677,10.);
#200=VECTOR('',#678,10.);
#201=VECTOR('',#681,10.);
#202=VECTOR('',#682,10.);
#203=VECTOR('',#683,10.);
#204=VECTOR('',#684,10.);
#205=VECTOR('',#687,10.);
#206=VECTOR('',#688,10.);
#207=VECTOR('',#691,10.);
#208=VECTOR('',#694,10.);
#209=VECTOR('',#701,10.);
#210=VECTOR('',#704,10.);
#211=VECTOR('',#707,10.);
#212=VECTOR('',#708,7.5);
#213=VECTOR('',#709,10.);
#214=VECTOR('',#712,10.);
#215=VECTOR('',#713,10.);
#216=VECTOR('',#714,10.);
#217=VECTOR('',#715,10.);
#218=VECTOR('',#716,10.);
#219=VECTOR('',#723,10.);
#220=VECTOR('',#726,10.);
#221=VECTOR('',#727,10.);
#222=VECTOR('',#730,10.);
#223=VECTOR('',#731,10.);
#224=VECTOR('',#734,10.);
#225=VECTOR('',#735,10.);
#226=VECTOR('',#738,10.);
#227=VECTOR('',#739,10.);
#228=VECTOR('',#744,1.40000000000001);
#229=VECTOR('',#751,1.40000000000001);
#230=VECTOR('',#758,1.40000000000001);
#231=VECTOR('',#765,1.40000000000001);
#232=VECTOR('',#770,10.);
#233=VECTOR('',#771,10.);
#234=VECTOR('',#772,10.);
#235=VECTOR('',#773,10.);
#236=VECTOR('',#776,10.);
#237=VECTOR('',#777,10.);
#238=VECTOR('',#778,10.);
#239=VECTOR('',#781,10.);
#240=VECTOR('',#782,10.);
#241=VECTOR('',#785,10.);
#242=VECTOR('',#786,10.);
#243=VECTOR('',#789,10.);
#244=VECTOR('',#790,10.);
#245=VERTEX_POINT('',#795);
#246=VERTEX_POINT('',#796);
#247=VERTEX_POINT('',#798);
#248=VERTEX_POINT('',#800);
#249=VERTEX_POINT('',#804);
#250=VERTEX_POINT('',#806);
#251=VERTEX_POINT('',#810);
#252=VERTEX_POINT('',#811);
#253=VERTEX_POINT('',#813);
#254=VERTEX_POINT('',#815);
#255=VERTEX_POINT('',#819);
#256=VERTEX_POINT('',#821);
#257=VERTEX_POINT('',#825);
#258=VERTEX_POINT('',#826);
#259=VERTEX_POINT('',#828);
#260=VERTEX_POINT('',#830);
#261=VERTEX_POINT('',#840);
#262=VERTEX_POINT('',#841);
#263=VERTEX_POINT('',#843);
#264=VERTEX_POINT('',#845);
#265=VERTEX_POINT('',#857);
#266=VERTEX_POINT('',#858);
#267=VERTEX_POINT('',#860);
#268=VERTEX_POINT('',#862);
#269=VERTEX_POINT('',#866);
#270=VERTEX_POINT('',#868);
#271=VERTEX_POINT('',#872);
#272=VERTEX_POINT('',#874);
#273=VERTEX_POINT('',#876);
#274=VERTEX_POINT('',#878);
#275=VERTEX_POINT('',#880);
#276=VERTEX_POINT('',#884);
#277=VERTEX_POINT('',#888);
#278=VERTEX_POINT('',#892);
#279=VERTEX_POINT('',#896);
#280=VERTEX_POINT('',#900);
#281=VERTEX_POINT('',#904);
#282=VERTEX_POINT('',#906);
#283=VERTEX_POINT('',#910);
#284=VERTEX_POINT('',#912);
#285=VERTEX_POINT('',#916);
#286=VERTEX_POINT('',#918);
#287=VERTEX_POINT('',#922);
#288=VERTEX_POINT('',#924);
#289=VERTEX_POINT('',#928);
#290=VERTEX_POINT('',#929);
#291=VERTEX_POINT('',#931);
#292=VERTEX_POINT('',#933);
#293=VERTEX_POINT('',#937);
#294=VERTEX_POINT('',#939);
#295=VERTEX_POINT('',#943);
#296=VERTEX_POINT('',#947);
#297=EDGE_CURVE('',#245,#246,#113,.T.);
#298=EDGE_CURVE('',#246,#247,#114,.T.);
#299=EDGE_CURVE('',#247,#248,#115,.F.);
#300=EDGE_CURVE('',#248,#245,#116,.T.);
#301=EDGE_CURVE('',#249,#248,#117,.T.);
#302=EDGE_CURVE('',#250,#249,#118,.T.);
#303=EDGE_CURVE('',#245,#250,#119,.T.);
#304=EDGE_CURVE('',#251,#252,#120,.T.);
#305=EDGE_CURVE('',#252,#253,#121,.T.);
#306=EDGE_CURVE('',#253,#254,#122,.F.);
#307=EDGE_CURVE('',#254,#251,#123,.T.);
#308=EDGE_CURVE('',#255,#254,#124,.T.);
#309=EDGE_CURVE('',#256,#255,#125,.T.);
#310=EDGE_CURVE('',#251,#256,#126,.T.);
#311=EDGE_CURVE('',#257,#258,#127,.T.);
#312=EDGE_CURVE('',#257,#259,#128,.T.);
#313=EDGE_CURVE('',#260,#259,#129,.T.);
#314=EDGE_CURVE('',#258,#260,#130,.T.);
#315=EDGE_CURVE('',#259,#252,#131,.T.);
#316=EDGE_CURVE('',#253,#257,#132,.T.);
#317=EDGE_CURVE('',#258,#255,#133,.T.);
#318=EDGE_CURVE('',#256,#260,#134,.T.);
#319=EDGE_CURVE('',#261,#262,#135,.T.);
#320=EDGE_CURVE('',#261,#263,#136,.T.);
#321=EDGE_CURVE('',#264,#263,#137,.T.);
#322=EDGE_CURVE('',#264,#262,#138,.T.);
#323=EDGE_CURVE('',#263,#246,#139,.T.);
#324=EDGE_CURVE('',#247,#261,#140,.T.);
#325=EDGE_CURVE('',#250,#264,#141,.T.);
#326=EDGE_CURVE('',#262,#249,#142,.T.);
#327=EDGE_CURVE('',#265,#266,#25,.T.);
#328=EDGE_CURVE('',#266,#267,#143,.T.);
#329=EDGE_CURVE('',#267,#268,#26,.T.);
#330=EDGE_CURVE('',#268,#265,#144,.T.);
#331=EDGE_CURVE('',#266,#269,#145,.T.);
#332=EDGE_CURVE('',#270,#269,#146,.T.);
#333=EDGE_CURVE('',#270,#267,#147,.T.);
#334=EDGE_CURVE('',#271,#265,#148,.T.);
#335=EDGE_CURVE('',#272,#271,#149,.T.);
#336=EDGE_CURVE('',#273,#272,#150,.T.);
#337=EDGE_CURVE('',#274,#273,#151,.T.);
#338=EDGE_CURVE('',#275,#274,#152,.T.);
#339=EDGE_CURVE('',#269,#275,#27,.T.);
#340=EDGE_CURVE('',#276,#270,#28,.T.);
#341=EDGE_CURVE('',#276,#275,#153,.T.);
#342=EDGE_CURVE('',#277,#268,#154,.T.);
#343=EDGE_CURVE('',#271,#277,#155,.T.);
#344=EDGE_CURVE('',#278,#276,#156,.T.);
#345=EDGE_CURVE('',#278,#274,#157,.T.);
#346=EDGE_CURVE('',#277,#279,#158,.T.);
#347=EDGE_CURVE('',#279,#272,#159,.T.);
#348=EDGE_CURVE('',#280,#278,#160,.T.);
#349=EDGE_CURVE('',#280,#279,#161,.T.);
#350=EDGE_CURVE('',#281,#281,#29,.T.);
#351=EDGE_CURVE('',#281,#282,#162,.T.);
#352=EDGE_CURVE('',#282,#282,#30,.T.);
#353=EDGE_CURVE('',#283,#283,#31,.T.);
#354=EDGE_CURVE('',#283,#284,#163,.T.);
#355=EDGE_CURVE('',#284,#284,#32,.T.);
#356=EDGE_CURVE('',#285,#285,#33,.T.);
#357=EDGE_CURVE('',#285,#286,#164,.T.);
#358=EDGE_CURVE('',#286,#286,#34,.T.);
#359=EDGE_CURVE('',#287,#287,#35,.T.);
#360=EDGE_CURVE('',#287,#288,#165,.T.);
#361=EDGE_CURVE('',#288,#288,#36,.T.);
#362=EDGE_CURVE('',#289,#290,#166,.T.);
#363=EDGE_CURVE('',#291,#289,#167,.T.);
#364=EDGE_CURVE('',#292,#291,#168,.T.);
#365=EDGE_CURVE('',#290,#292,#169,.T.);
#366=EDGE_CURVE('',#292,#293,#170,.T.);
#367=EDGE_CURVE('',#294,#293,#171,.T.);
#368=EDGE_CURVE('',#290,#294,#172,.T.);
#369=EDGE_CURVE('',#291,#295,#173,.T.);
#370=EDGE_CURVE('',#293,#295,#174,.T.);
#371=EDGE_CURVE('',#289,#296,#175,.T.);
#372=EDGE_CURVE('',#295,#296,#176,.T.);
#373=EDGE_CURVE('',#273,#294,#177,.T.);
#374=EDGE_CURVE('',#296,#280,#178,.T.);
#375=ORIENTED_EDGE('',*,*,#297,.T.);
#376=ORIENTED_EDGE('',*,*,#298,.T.);
#377=ORIENTED_EDGE('',*,*,#299,.T.);
#378=ORIENTED_EDGE('',*,*,#300,.T.);
#379=ORIENTED_EDGE('',*,*,#300,.F.);
#380=ORIENTED_EDGE('',*,*,#301,.F.);
#381=ORIENTED_EDGE('',*,*,#302,.F.);
#382=ORIENTED_EDGE('',*,*,#303,.F.);
#383=ORIENTED_EDGE('',*,*,#304,.T.);
#384=ORIENTED_EDGE('',*,*,#305,.T.);
#385=ORIENTED_EDGE('',*,*,#306,.T.);
#386=ORIENTED_EDGE('',*,*,#307,.T.);
#387=ORIENTED_EDGE('',*,*,#307,.F.);
#388=ORIENTED_EDGE('',*,*,#308,.F.);
#389=ORIENTED_EDGE('',*,*,#309,.F.);
#390=ORIENTED_EDGE('',*,*,#310,.F.);
#391=ORIENTED_EDGE('',*,*,#311,.F.);
#392=ORIENTED_EDGE('',*,*,#312,.T.);
#393=ORIENTED_EDGE('',*,*,#313,.F.);
#394=ORIENTED_EDGE('',*,*,#314,.F.);
#395=ORIENTED_EDGE('',*,*,#305,.F.);
#396=ORIENTED_EDGE('',*,*,#315,.F.);
#397=ORIENTED_EDGE('',*,*,#312,.F.);
#398=ORIENTED_EDGE('',*,*,#316,.F.);
#399=ORIENTED_EDGE('',*,*,#317,.F.);
#400=ORIENTED_EDGE('',*,*,#314,.T.);
#401=ORIENTED_EDGE('',*,*,#318,.F.);
#402=ORIENTED_EDGE('',*,*,#309,.T.);
#403=ORIENTED_EDGE('',*,*,#319,.F.);
#404=ORIENTED_EDGE('',*,*,#320,.T.);
#405=ORIENTED_EDGE('',*,*,#321,.F.);
#406=ORIENTED_EDGE('',*,*,#322,.T.);
#407=ORIENTED_EDGE('',*,*,#298,.F.);
#408=ORIENTED_EDGE('',*,*,#323,.F.);
#409=ORIENTED_EDGE('',*,*,#320,.F.);
#410=ORIENTED_EDGE('',*,*,#324,.F.);
#411=ORIENTED_EDGE('',*,*,#297,.F.);
#412=ORIENTED_EDGE('',*,*,#303,.T.);
#413=ORIENTED_EDGE('',*,*,#325,.T.);
#414=ORIENTED_EDGE('',*,*,#321,.T.);
#415=ORIENTED_EDGE('',*,*,#323,.T.);
#416=ORIENTED_EDGE('',*,*,#326,.F.);
#417=ORIENTED_EDGE('',*,*,#322,.F.);
#418=ORIENTED_EDGE('',*,*,#325,.F.);
#419=ORIENTED_EDGE('',*,*,#302,.T.);
#420=ORIENTED_EDGE('',*,*,#304,.F.);
#421=ORIENTED_EDGE('',*,*,#310,.T.);
#422=ORIENTED_EDGE('',*,*,#318,.T.);
#423=ORIENTED_EDGE('',*,*,#313,.T.);
#424=ORIENTED_EDGE('',*,*,#315,.T.);
#425=ORIENTED_EDGE('',*,*,#327,.T.);
#426=ORIENTED_EDGE('',*,*,#328,.T.);
#427=ORIENTED_EDGE('',*,*,#329,.T.);
#428=ORIENTED_EDGE('',*,*,#330,.T.);
#429=ORIENTED_EDGE('',*,*,#328,.F.);
#430=ORIENTED_EDGE('',*,*,#331,.T.);
#431=ORIENTED_EDGE('',*,*,#332,.F.);
#432=ORIENTED_EDGE('',*,*,#333,.T.);
#433=ORIENTED_EDGE('',*,*,#327,.F.);
#434=ORIENTED_EDGE('',*,*,#334,.F.);
#435=ORIENTED_EDGE('',*,*,#335,.F.);
#436=ORIENTED_EDGE('',*,*,#336,.F.);
#437=ORIENTED_EDGE('',*,*,#337,.F.);
#438=ORIENTED_EDGE('',*,*,#338,.F.);
#439=ORIENTED_EDGE('',*,*,#339,.F.);
#440=ORIENTED_EDGE('',*,*,#331,.F.);
#441=ORIENTED_EDGE('',*,*,#324,.T.);
#442=ORIENTED_EDGE('',*,*,#319,.T.);
#443=ORIENTED_EDGE('',*,*,#326,.T.);
#444=ORIENTED_EDGE('',*,*,#301,.T.);
#445=ORIENTED_EDGE('',*,*,#299,.F.);
#446=ORIENTED_EDGE('',*,*,#340,.T.);
#447=ORIENTED_EDGE('',*,*,#332,.T.);
#448=ORIENTED_EDGE('',*,*,#339,.T.);
#449=ORIENTED_EDGE('',*,*,#341,.F.);
#450=ORIENTED_EDGE('',*,*,#330,.F.);
#451=ORIENTED_EDGE('',*,*,#342,.F.);
#452=ORIENTED_EDGE('',*,*,#343,.F.);
#453=ORIENTED_EDGE('',*,*,#334,.T.);
#454=ORIENTED_EDGE('',*,*,#344,.T.);
#455=ORIENTED_EDGE('',*,*,#341,.T.);
#456=ORIENTED_EDGE('',*,*,#338,.T.);
#457=ORIENTED_EDGE('',*,*,#345,.F.);
#458=ORIENTED_EDGE('',*,*,#343,.T.);
#459=ORIENTED_EDGE('',*,*,#346,.T.);
#460=ORIENTED_EDGE('',*,*,#347,.T.);
#461=ORIENTED_EDGE('',*,*,#335,.T.);
#462=ORIENTED_EDGE('',*,*,#329,.F.);
#463=ORIENTED_EDGE('',*,*,#333,.F.);
#464=ORIENTED_EDGE('',*,*,#340,.F.);
#465=ORIENTED_EDGE('',*,*,#344,.F.);
#466=ORIENTED_EDGE('',*,*,#348,.F.);
#467=ORIENTED_EDGE('',*,*,#349,.T.);
#468=ORIENTED_EDGE('',*,*,#346,.F.);
#469=ORIENTED_EDGE('',*,*,#342,.T.);
#470=ORIENTED_EDGE('',*,*,#308,.T.);
#471=ORIENTED_EDGE('',*,*,#306,.F.);
#472=ORIENTED_EDGE('',*,*,#316,.T.);
#473=ORIENTED_EDGE('',*,*,#311,.T.);
#474=ORIENTED_EDGE('',*,*,#317,.T.);
#475=ORIENTED_EDGE('',*,*,#350,.F.);
#476=ORIENTED_EDGE('',*,*,#351,.T.);
#477=ORIENTED_EDGE('',*,*,#352,.F.);
#478=ORIENTED_EDGE('',*,*,#351,.F.);
#479=ORIENTED_EDGE('',*,*,#353,.F.);
#480=ORIENTED_EDGE('',*,*,#354,.T.);
#481=ORIENTED_EDGE('',*,*,#355,.F.);
#482=ORIENTED_EDGE('',*,*,#354,.F.);
#483=ORIENTED_EDGE('',*,*,#356,.F.);
#484=ORIENTED_EDGE('',*,*,#357,.T.);
#485=ORIENTED_EDGE('',*,*,#358,.F.);
#486=ORIENTED_EDGE('',*,*,#357,.F.);
#487=ORIENTED_EDGE('',*,*,#359,.F.);
#488=ORIENTED_EDGE('',*,*,#360,.T.);
#489=ORIENTED_EDGE('',*,*,#361,.F.);
#490=ORIENTED_EDGE('',*,*,#360,.F.);
#491=ORIENTED_EDGE('',*,*,#362,.F.);
#492=ORIENTED_EDGE('',*,*,#363,.F.);
#493=ORIENTED_EDGE('',*,*,#364,.F.);
#494=ORIENTED_EDGE('',*,*,#365,.F.);
#495=ORIENTED_EDGE('',*,*,#352,.T.);
#496=ORIENTED_EDGE('',*,*,#355,.T.);
#497=ORIENTED_EDGE('',*,*,#358,.T.);
#498=ORIENTED_EDGE('',*,*,#361,.T.);
#499=ORIENTED_EDGE('',*,*,#365,.T.);
#500=ORIENTED_EDGE('',*,*,#366,.T.);
#501=ORIENTED_EDGE('',*,*,#367,.F.);
#502=ORIENTED_EDGE('',*,*,#368,.F.);
#503=ORIENTED_EDGE('',*,*,#364,.T.);
#504=ORIENTED_EDGE('',*,*,#369,.T.);
#505=ORIENTED_EDGE('',*,*,#370,.F.);
#506=ORIENTED_EDGE('',*,*,#366,.F.);
#507=ORIENTED_EDGE('',*,*,#363,.T.);
#508=ORIENTED_EDGE('',*,*,#371,.T.);
#509=ORIENTED_EDGE('',*,*,#372,.F.);
#510=ORIENTED_EDGE('',*,*,#369,.F.);
#511=ORIENTED_EDGE('',*,*,#362,.T.);
#512=ORIENTED_EDGE('',*,*,#368,.T.);
#513=ORIENTED_EDGE('',*,*,#373,.F.);
#514=ORIENTED_EDGE('',*,*,#336,.T.);
#515=ORIENTED_EDGE('',*,*,#347,.F.);
#516=ORIENTED_EDGE('',*,*,#349,.F.);
#517=ORIENTED_EDGE('',*,*,#374,.F.);
#518=ORIENTED_EDGE('',*,*,#371,.F.);
#519=ORIENTED_EDGE('',*,*,#337,.T.);
#520=ORIENTED_EDGE('',*,*,#373,.T.);
#521=ORIENTED_EDGE('',*,*,#367,.T.);
#522=ORIENTED_EDGE('',*,*,#370,.T.);
#523=ORIENTED_EDGE('',*,*,#372,.T.);
#524=ORIENTED_EDGE('',*,*,#374,.T.);
#525=ORIENTED_EDGE('',*,*,#348,.T.);
#526=ORIENTED_EDGE('',*,*,#345,.T.);
#527=ORIENTED_EDGE('',*,*,#350,.T.);
#528=ORIENTED_EDGE('',*,*,#353,.T.);
#529=ORIENTED_EDGE('',*,*,#356,.T.);
#530=ORIENTED_EDGE('',*,*,#359,.T.);
#531=PLANE('',#599);
#532=PLANE('',#600);
#533=PLANE('',#601);
#534=PLANE('',#602);
#535=PLANE('',#603);
#536=PLANE('',#604);
#537=PLANE('',#605);
#538=PLANE('',#606);
#539=PLANE('',#607);
#540=PLANE('',#608);
#541=PLANE('',#609);
#542=PLANE('',#610);
#543=PLANE('',#614);
#544=PLANE('',#615);
#545=PLANE('',#619);
#546=PLANE('',#620);
#547=PLANE('',#621);
#548=PLANE('',#622);
#549=PLANE('',#635);
#550=PLANE('',#636);
#551=PLANE('',#637);
#552=PLANE('',#638);
#553=PLANE('',#639);
#554=PLANE('',#640);
#555=ADVANCED_FACE('',(#43),#531,.T.);
#556=ADVANCED_FACE('',(#44),#532,.T.);
#557=ADVANCED_FACE('',(#45),#533,.T.);
#558=ADVANCED_FACE('',(#46),#534,.T.);
#559=ADVANCED_FACE('',(#47),#535,.T.);
#560=ADVANCED_FACE('',(#48),#536,.T.);
#561=ADVANCED_FACE('',(#49),#537,.T.);
#562=ADVANCED_FACE('',(#50),#538,.T.);
#563=ADVANCED_FACE('',(#51),#539,.T.);
#564=ADVANCED_FACE('',(#52),#540,.T.);
#565=ADVANCED_FACE('',(#53),#541,.T.);
#566=ADVANCED_FACE('',(#54),#542,.T.);
#567=ADVANCED_FACE('',(#55),#37,.T.);
#568=ADVANCED_FACE('',(#56),#543,.T.);
#569=ADVANCED_FACE('',(#57,#15),#544,.T.);
#570=ADVANCED_FACE('',(#58),#38,.T.);
#571=ADVANCED_FACE('',(#59),#545,.T.);
#572=ADVANCED_FACE('',(#60),#546,.T.);
#573=ADVANCED_FACE('',(#61),#547,.T.);
#574=ADVANCED_FACE('',(#62,#16),#548,.T.);
#575=ADVANCED_FACE('',(#63),#39,.F.);
#576=ADVANCED_FACE('',(#64),#40,.F.);
#577=ADVANCED_FACE('',(#65),#41,.F.);
#578=ADVANCED_FACE('',(#66),#42,.F.);
#579=ADVANCED_FACE('',(#67,#17,#18,#19,#20),#549,.F.);
#580=ADVANCED_FACE('',(#68),#550,.T.);
#581=ADVANCED_FACE('',(#69),#551,.T.);
#582=ADVANCED_FACE('',(#70),#552,.T.);
#583=ADVANCED_FACE('',(#71),#553,.T.);
#584=ADVANCED_FACE('',(#72,#21,#22,#23,#24),#554,.T.);
#585=CLOSED_SHELL('',(#555,#556,#557,#558,#559,#560,#561,#562,#563,#564,
#565,#566,#567,#568,#569,#570,#571,#572,#573,#574,#575,#576,#577,#578,#579,
#580,#581,#582,#583,#584));
#586=DERIVED_UNIT_ELEMENT(#588,1.);
#587=DERIVED_UNIT_ELEMENT(#959,-3.);
#588=(
MASS_UNIT()
NAMED_UNIT(*)
SI_UNIT(.KILO.,.GRAM.)
);
#589=DERIVED_UNIT((#586,#587));
#590=MEASURE_REPRESENTATION_ITEM('density measure',
POSITIVE_RATIO_MEASURE(7850.),#589);
#591=PROPERTY_DEFINITION_REPRESENTATION(#596,#593);
#592=PROPERTY_DEFINITION_REPRESENTATION(#597,#594);
#593=REPRESENTATION('material name',(#595),#956);
#594=REPRESENTATION('density',(#590),#956);
#595=DESCRIPTIVE_REPRESENTATION_ITEM('Steel','Steel');
#596=PROPERTY_DEFINITION('material property','material name',#966);
#597=PROPERTY_DEFINITION('material property','density of part',#966);
#598=AXIS2_PLACEMENT_3D('',#793,#641,#642);
#599=AXIS2_PLACEMENT_3D('',#794,#643,#644);
#600=AXIS2_PLACEMENT_3D('',#803,#649,#650);
#601=AXIS2_PLACEMENT_3D('',#809,#654,#655);
#602=AXIS2_PLACEMENT_3D('',#818,#660,#661);
#603=AXIS2_PLACEMENT_3D('',#824,#665,#666);
#604=AXIS2_PLACEMENT_3D('',#833,#671,#672);
#605=AXIS2_PLACEMENT_3D('',#836,#675,#676);
#606=AXIS2_PLACEMENT_3D('',#839,#679,#680);
#607=AXIS2_PLACEMENT_3D('',#848,#685,#686);
#608=AXIS2_PLACEMENT_3D('',#851,#689,#690);
#609=AXIS2_PLACEMENT_3D('',#853,#692,#693);
#610=AXIS2_PLACEMENT_3D('',#855,#695,#696);
#611=AXIS2_PLACEMENT_3D('',#856,#697,#698);
#612=AXIS2_PLACEMENT_3D('',#859,#699,#700);
#613=AXIS2_PLACEMENT_3D('',#863,#702,#703);
#614=AXIS2_PLACEMENT_3D('',#865,#705,#706);
#615=AXIS2_PLACEMENT_3D('',#871,#710,#711);
#616=AXIS2_PLACEMENT_3D('',#882,#717,#718);
#617=AXIS2_PLACEMENT_3D('',#883,#719,#720);
#618=AXIS2_PLACEMENT_3D('',#885,#721,#722);
#619=AXIS2_PLACEMENT_3D('',#887,#724,#725);
#620=AXIS2_PLACEMENT_3D('',#891,#728,#729);
#621=AXIS2_PLACEMENT_3D('',#895,#732,#733);
#622=AXIS2_PLACEMENT_3D('',#899,#736,#737);
#623=AXIS2_PLACEMENT_3D('',#903,#740,#741);
#624=AXIS2_PLACEMENT_3D('',#905,#742,#743);
#625=AXIS2_PLACEMENT_3D('',#908,#745,#746);
#626=AXIS2_PLACEMENT_3D('',#909,#747,#748);
#627=AXIS2_PLACEMENT_3D('',#911,#749,#750);
#628=AXIS2_PLACEMENT_3D('',#914,#752,#753);
#629=AXIS2_PLACEMENT_3D('',#915,#754,#755);
#630=AXIS2_PLACEMENT_3D('',#917,#756,#757);
#631=AXIS2_PLACEMENT_3D('',#920,#759,#760);
#632=AXIS2_PLACEMENT_3D('',#921,#761,#762);
#633=AXIS2_PLACEMENT_3D('',#923,#763,#764);
#634=AXIS2_PLACEMENT_3D('',#926,#766,#767);
#635=AXIS2_PLACEMENT_3D('',#927,#768,#769);
#636=AXIS2_PLACEMENT_3D('',#936,#774,#775);
#637=AXIS2_PLACEMENT_3D('',#942,#779,#780);
#638=AXIS2_PLACEMENT_3D('',#946,#783,#784);
#639=AXIS2_PLACEMENT_3D('',#950,#787,#788);
#640=AXIS2_PLACEMENT_3D('',#953,#791,#792);
#641=DIRECTION('axis',(0.,0.,1.));
#642=DIRECTION('refdir',(1.,0.,0.));
#643=DIRECTION('center_axis',(0.707106781186547,0.707106781186548,0.));
#644=DIRECTION('ref_axis',(0.,0.,-1.));
#645=DIRECTION('',(0.707106781186548,-0.707106781186547,0.));
#646=DIRECTION('',(0.,0.,-1.));
#647=DIRECTION('',(0.707106781186548,-0.707106781186547,0.));
#648=DIRECTION('',(0.,0.,1.));
#649=DIRECTION('center_axis',(0.,1.,0.));
#650=DIRECTION('ref_axis',(1.,0.,0.));
#651=DIRECTION('',(1.,0.,0.));
#652=DIRECTION('',(0.,0.,-1.));
#653=DIRECTION('',(-1.,0.,0.));
#654=DIRECTION('center_axis',(0.707106781186547,0.707106781186548,0.));
#655=DIRECTION('ref_axis',(0.,0.,-1.));
#656=DIRECTION('',(-0.707106781186548,0.707106781186547,0.));
#657=DIRECTION('',(0.,0.,1.));
#658=DIRECTION('',(-0.707106781186548,0.707106781186547,0.));
#659=DIRECTION('',(0.,0.,-1.));
#660=DIRECTION('center_axis',(1.,0.,0.));
#661=DIRECTION('ref_axis',(0.,-1.,0.));
#662=DIRECTION('',(0.,1.,0.));
#663=DIRECTION('',(0.,0.,1.));
#664=DIRECTION('',(0.,-1.,0.));
#665=DIRECTION('center_axis',(-1.,0.,0.));
#666=DIRECTION('ref_axis',(0.,1.,0.));
#667=DIRECTION('',(0.,-1.,0.));
#668=DIRECTION('',(0.,0.,-1.));
#669=DIRECTION('',(0.,1.,0.));
#670=DIRECTION('',(0.,0.,-1.));
#671=DIRECTION('center_axis',(0.,1.,0.));
#672=DIRECTION('ref_axis',(1.,0.,0.));
#673=DIRECTION('',(1.,0.,0.));
#674=DIRECTION('',(-1.,0.,0.));
#675=DIRECTION('center_axis',(0.,-1.,0.));
#676=DIRECTION('ref_axis',(-1.,0.,0.));
#677=DIRECTION('',(1.,0.,0.));
#678=DIRECTION('',(-1.,0.,0.));
#679=DIRECTION('center_axis',(0.,-1.,0.));
#680=DIRECTION('ref_axis',(-1.,0.,0.));
#681=DIRECTION('',(-1.,0.,0.));
#682=DIRECTION('',(0.,0.,1.));
#683=DIRECTION('',(1.,0.,0.));
#684=DIRECTION('',(0.,0.,-1.));
#685=DIRECTION('center_axis',(1.,0.,0.));
#686=DIRECTION('ref_axis',(0.,-1.,0.));
#687=DIRECTION('',(0.,1.,0.));
#688=DIRECTION('',(0.,-1.,0.));
#689=DIRECTION('center_axis',(0.,0.,1.));
#690=DIRECTION('ref_axis',(1.,0.,0.));
#691=DIRECTION('',(0.,-1.,0.));
#692=DIRECTION('center_axis',(-1.,0.,0.));
#693=DIRECTION('ref_axis',(0.,1.,0.));
#694=DIRECTION('',(0.,1.,0.));
#695=DIRECTION('center_axis',(0.,0.,-1.));
#696=DIRECTION('ref_axis',(-1.,0.,0.));
#697=DIRECTION('center_axis',(0.,0.,1.));
#698=DIRECTION('ref_axis',(-0.707106781186547,0.707106781186547,0.));
#699=DIRECTION('center_axis',(0.,0.,-1.));
#700=DIRECTION('ref_axis',(-0.707106781186547,0.707106781186547,0.));
#701=DIRECTION('',(0.,0.,-1.));
#702=DIRECTION('center_axis',(0.,0.,1.));
#703=DIRECTION('ref_axis',(-0.707106781186547,0.707106781186547,0.));
#704=DIRECTION('',(0.,0.,1.));
#705=DIRECTION('center_axis',(0.,1.,0.));
#706=DIRECTION('ref_axis',(0.,0.,1.));
#707=DIRECTION('',(1.,0.,0.));
#708=DIRECTION('',(0.,0.,1.));
#709=DIRECTION('',(-1.,0.,0.));
#710=DIRECTION('center_axis',(0.,0.,1.));
#711=DIRECTION('ref_axis',(1.,0.,0.));
#712=DIRECTION('',(0.,1.,0.));
#713=DIRECTION('',(1.,0.,0.));
#714=DIRECTION('',(0.,1.,0.));
#715=DIRECTION('',(-1.,0.,0.));
#716=DIRECTION('',(0.447213595499958,-0.894427190999916,0.));
#717=DIRECTION('center_axis',(0.,0.,-1.));
#718=DIRECTION('ref_axis',(0.942809041582063,0.333333333333333,0.));
#719=DIRECTION('center_axis',(0.,0.,1.));
#720=DIRECTION('ref_axis',(0.942809041582063,0.333333333333333,0.));
#721=DIRECTION('center_axis',(0.,0.,1.));
#722=DIRECTION('ref_axis',(0.942809041582063,0.333333333333333,0.));
#723=DIRECTION('',(0.,0.,1.));
#724=DIRECTION('center_axis',(-1.,0.,0.));
#725=DIRECTION('ref_axis',(0.,0.,1.));
#726=DIRECTION('',(0.,1.,0.));
#727=DIRECTION('',(0.,0.,-1.));
#728=DIRECTION('center_axis',(0.894427190999916,0.447213595499958,0.));
#729=DIRECTION('ref_axis',(0.,0.,-1.));
#730=DIRECTION('',(-0.447213595499958,0.894427190999916,0.));
#731=DIRECTION('',(0.,0.,1.));
#732=DIRECTION('center_axis',(0.,1.,0.));
#733=DIRECTION('ref_axis',(0.,0.,1.));
#734=DIRECTION('',(-1.,0.,0.));
#735=DIRECTION('',(0.,0.,1.));
#736=DIRECTION('center_axis',(0.,0.,-1.));
#737=DIRECTION('ref_axis',(-1.,0.,0.));
#738=DIRECTION('',(1.,0.,0.));
#739=DIRECTION('',(0.,1.,0.));
#740=DIRECTION('center_axis',(0.,-1.,0.));
#741=DIRECTION('ref_axis',(-1.,0.,0.));
#742=DIRECTION('center_axis',(0.,-1.,0.));
#743=DIRECTION('ref_axis',(-1.,0.,0.));
#744=DIRECTION('',(0.,-1.,0.));
#745=DIRECTION('center_axis',(0.,1.,0.));
#746=DIRECTION('ref_axis',(-1.,0.,0.));
#747=DIRECTION('center_axis',(0.,-1.,0.));
#748=DIRECTION('ref_axis',(-1.,0.,0.));
#749=DIRECTION('center_axis',(0.,-1.,0.));
#750=DIRECTION('ref_axis',(-1.,0.,0.));
#751=DIRECTION('',(0.,-1.,0.));
#752=DIRECTION('center_axis',(0.,1.,0.));
#753=DIRECTION('ref_axis',(-1.,0.,0.));
#754=DIRECTION('center_axis',(0.,-1.,0.));
#755=DIRECTION('ref_axis',(-1.,0.,0.));
#756=DIRECTION('center_axis',(0.,-1.,0.));
#757=DIRECTION('ref_axis',(-1.,0.,0.));
#758=DIRECTION('',(0.,-1.,0.));
#759=DIRECTION('center_axis',(0.,1.,0.));
#760=DIRECTION('ref_axis',(-1.,0.,0.));
#761=DIRECTION('center_axis',(0.,-1.,0.));
#762=DIRECTION('ref_axis',(-1.,0.,0.));
#763=DIRECTION('center_axis',(0.,-1.,0.));
#764=DIRECTION('ref_axis',(-1.,0.,0.));
#765=DIRECTION('',(0.,-1.,0.));
#766=DIRECTION('center_axis',(0.,1.,0.));
#767=DIRECTION('ref_axis',(-1.,0.,0.));
#768=DIRECTION('center_axis',(0.,1.,0.));
#769=DIRECTION('ref_axis',(0.,0.,1.));
#770=DIRECTION('',(0.,0.,1.));
#771=DIRECTION('',(-1.,0.,0.));
#772=DIRECTION('',(0.,0.,-1.));
#773=DIRECTION('',(1.,0.,0.));
#774=DIRECTION('center_axis',(0.,0.,1.));
#775=DIRECTION('ref_axis',(1.,0.,0.));
#776=DIRECTION('',(0.,1.,0.));
#777=DIRECTION('',(1.,0.,0.));
#778=DIRECTION('',(0.,1.,0.));
#779=DIRECTION('center_axis',(1.,0.,0.));
#780=DIRECTION('ref_axis',(0.,0.,-1.));
#781=DIRECTION('',(0.,1.,0.));
#782=DIRECTION('',(0.,0.,-1.));
#783=DIRECTION('center_axis',(0.,0.,-1.));
#784=DIRECTION('ref_axis',(-1.,0.,0.));
#785=DIRECTION('',(0.,1.,0.));
#786=DIRECTION('',(-1.,0.,0.));
#787=DIRECTION('center_axis',(-1.,0.,0.));
#788=DIRECTION('ref_axis',(0.,0.,1.));
#789=DIRECTION('',(0.,0.,1.));
#790=DIRECTION('',(0.,0.,1.));
#791=DIRECTION('center_axis',(0.,1.,0.));
#792=DIRECTION('ref_axis',(0.,0.,1.));
#793=CARTESIAN_POINT('',(0.,0.,0.));
#794=CARTESIAN_POINT('Origin',(153.,93.,-20.));
#795=CARTESIAN_POINT('',(146.,100.,25.));
#796=CARTESIAN_POINT('',(160.,86.,25.));
#797=CARTESIAN_POINT('',(148.625,97.375,25.));
#798=CARTESIAN_POINT('',(160.,86.,20.));
#799=CARTESIAN_POINT('',(160.,86.,-20.));
#800=CARTESIAN_POINT('',(146.,100.,20.));
#801=CARTESIAN_POINT('',(144.25,101.75,20.));
#802=CARTESIAN_POINT('',(146.,100.,-20.));
#803=CARTESIAN_POINT('Origin',(105.,100.,-20.));
#804=CARTESIAN_POINT('',(105.,100.,20.));
#805=CARTESIAN_POINT('',(102.5,100.,20.));
#806=CARTESIAN_POINT('',(105.,100.,25.));
#807=CARTESIAN_POINT('',(105.,100.,-20.));
#808=CARTESIAN_POINT('',(160.,100.,25.));
#809=CARTESIAN_POINT('Origin',(153.,93.,-20.));
#810=CARTESIAN_POINT('',(160.,86.,-25.));
#811=CARTESIAN_POINT('',(146.,100.,-25.));
#812=CARTESIAN_POINT('',(148.625,97.375,-25.));
#813=CARTESIAN_POINT('',(146.,100.,-20.));
#814=CARTESIAN_POINT('',(146.,100.,-20.));
#815=CARTESIAN_POINT('',(160.,86.,-20.));
#816=CARTESIAN_POINT('',(164.25,81.75,-20.));
#817=CARTESIAN_POINT('',(160.,86.,-20.));
#818=CARTESIAN_POINT('Origin',(160.,100.,-20.));
#819=CARTESIAN_POINT('',(160.,80.,-20.));
#820=CARTESIAN_POINT('',(160.,87.5,-20.));
#821=CARTESIAN_POINT('',(160.,80.,-25.));
#822=CARTESIAN_POINT('',(160.,80.,-20.));
#823=CARTESIAN_POINT('',(160.,80.,-25.));
#824=CARTESIAN_POINT('Origin',(105.,80.,-20.));
#825=CARTESIAN_POINT('',(105.,100.,-20.));
#826=CARTESIAN_POINT('',(105.,80.,-20.));
#827=CARTESIAN_POINT('',(105.,77.5,-20.));
#828=CARTESIAN_POINT('',(105.,100.,-25.));
#829=CARTESIAN_POINT('',(105.,100.,-20.));
#830=CARTESIAN_POINT('',(105.,80.,-25.));
#831=CARTESIAN_POINT('',(105.,100.,-25.));
#832=CARTESIAN_POINT('',(105.,80.,-20.));
#833=CARTESIAN_POINT('Origin',(105.,100.,-20.));
#834=CARTESIAN_POINT('',(160.,100.,-25.));
#835=CARTESIAN_POINT('',(142.5,100.,-20.));
#836=CARTESIAN_POINT('Origin',(160.,80.,-20.));
#837=CARTESIAN_POINT('',(170.,80.,-20.));
#838=CARTESIAN_POINT('',(105.,80.,-25.));
#839=CARTESIAN_POINT('Origin',(160.,80.,-20.));
#840=CARTESIAN_POINT('',(160.,80.,20.));
#841=CARTESIAN_POINT('',(105.,80.,20.));
#842=CARTESIAN_POINT('',(130.,80.,20.));
#843=CARTESIAN_POINT('',(160.,80.,25.));
#844=CARTESIAN_POINT('',(160.,80.,-20.));
#845=CARTESIAN_POINT('',(105.,80.,25.));
#846=CARTESIAN_POINT('',(105.,80.,25.));
#847=CARTESIAN_POINT('',(105.,80.,-20.));
#848=CARTESIAN_POINT('Origin',(160.,100.,-20.));
#849=CARTESIAN_POINT('',(160.,80.,25.));
#850=CARTESIAN_POINT('',(160.,87.5,20.));
#851=CARTESIAN_POINT('Origin',(132.5,90.,25.));
#852=CARTESIAN_POINT('',(105.,100.,25.));
#853=CARTESIAN_POINT('Origin',(105.,80.,-20.));
#854=CARTESIAN_POINT('',(105.,77.5,20.));
#855=CARTESIAN_POINT('Origin',(132.5,90.,-25.));
#856=CARTESIAN_POINT('Origin',(157.5,107.5,-10.));
#857=CARTESIAN_POINT('',(155.,107.5,20.));
#858=CARTESIAN_POINT('',(157.5,110.,20.));
#859=CARTESIAN_POINT('Origin',(157.5,107.5,20.));
#860=CARTESIAN_POINT('',(157.5,110.,-20.));
#861=CARTESIAN_POINT('',(157.5,110.,-10.));
#862=CARTESIAN_POINT('',(155.,107.5,-20.));
#863=CARTESIAN_POINT('Origin',(157.5,107.5,-20.));
#864=CARTESIAN_POINT('',(155.,107.5,-10.));
#865=CARTESIAN_POINT('Origin',(160.,110.,0.));
#866=CARTESIAN_POINT('',(157.928932188135,110.,20.));
#867=CARTESIAN_POINT('',(165.,110.,20.));
#868=CARTESIAN_POINT('',(157.928932188135,110.,-20.));
#869=CARTESIAN_POINT('',(157.928932188135,110.,10.));
#870=CARTESIAN_POINT('',(155.,110.,-20.));
#871=CARTESIAN_POINT('Origin',(100.,75.,20.));
#872=CARTESIAN_POINT('',(155.,105.,20.));
#873=CARTESIAN_POINT('',(155.,105.,20.));
#874=CARTESIAN_POINT('',(100.,105.,20.));
#875=CARTESIAN_POINT('',(100.,105.,20.));
#876=CARTESIAN_POINT('',(100.,75.,20.));
#877=CARTESIAN_POINT('',(100.,75.,20.));
#878=CARTESIAN_POINT('',(180.,75.,20.));
#879=CARTESIAN_POINT('',(100.,75.,20.));
#880=CARTESIAN_POINT('',(165.,105.,20.));
#881=CARTESIAN_POINT('',(168.25,98.5,20.));
#882=CARTESIAN_POINT('Origin',(157.928932188135,102.5,20.));
#883=CARTESIAN_POINT('Origin',(157.928932188135,102.5,10.));
#884=CARTESIAN_POINT('',(165.,105.,-20.));
#885=CARTESIAN_POINT('Origin',(157.928932188135,102.5,-20.));
#886=CARTESIAN_POINT('',(165.,105.,10.));
#887=CARTESIAN_POINT('Origin',(155.,105.,-20.));
#888=CARTESIAN_POINT('',(155.,105.,-20.));
#889=CARTESIAN_POINT('',(155.,105.,-20.));
#890=CARTESIAN_POINT('',(155.,105.,-10.));
#891=CARTESIAN_POINT('Origin',(172.5,90.,10.));
#892=CARTESIAN_POINT('',(180.,75.,-20.));
#893=CARTESIAN_POINT('',(176.25,82.5,-20.));
#894=CARTESIAN_POINT('',(180.,75.,-2.5));
#895=CARTESIAN_POINT('Origin',(140.,105.,0.));
#896=CARTESIAN_POINT('',(100.,105.,-20.));
#897=CARTESIAN_POINT('',(180.,105.,-20.));
#898=CARTESIAN_POINT('',(100.,105.,-20.));
#899=CARTESIAN_POINT('Origin',(180.,75.,-20.));
#900=CARTESIAN_POINT('',(100.,75.,-20.));
#901=CARTESIAN_POINT('',(140.,75.,-20.));
#902=CARTESIAN_POINT('',(100.,75.,-20.));
#903=CARTESIAN_POINT('Origin',(192.000002712011,75.,-22.0000003278255));
#904=CARTESIAN_POINT('',(193.400002712011,75.,-22.0000003278255));
#905=CARTESIAN_POINT('Origin',(192.000002712011,75.,-22.0000003278255));
#906=CARTESIAN_POINT('',(193.400002712011,70.,-22.0000003278255));
#907=CARTESIAN_POINT('',(193.400002712011,75.,-22.0000003278255));
#908=CARTESIAN_POINT('Origin',(192.000002712011,70.,-22.0000003278255));
#909=CARTESIAN_POINT('Origin',(103.000001385808,75.,-22.0000003278255));
#910=CARTESIAN_POINT('',(104.400001385808,75.,-22.0000003278255));
#911=CARTESIAN_POINT('Origin',(103.000001385808,75.,-22.0000003278255));
#912=CARTESIAN_POINT('',(104.400001385808,70.,-22.0000003278255));
#913=CARTESIAN_POINT('',(104.400001385808,75.,-22.0000003278255));
#914=CARTESIAN_POINT('Origin',(103.000001385808,70.,-22.0000003278255));
#915=CARTESIAN_POINT('Origin',(192.000002712011,75.,22.0000003278255));
#916=CARTESIAN_POINT('',(193.400002712011,75.,22.0000003278255));
#917=CARTESIAN_POINT('Origin',(192.000002712011,75.,22.0000003278255));
#918=CARTESIAN_POINT('',(193.400002712011,70.,22.0000003278255));
#919=CARTESIAN_POINT('',(193.400002712011,75.,22.0000003278255));
#920=CARTESIAN_POINT('Origin',(192.000002712011,70.,22.0000003278255));
#921=CARTESIAN_POINT('Origin',(103.000001385808,75.,22.0000003278255));
#922=CARTESIAN_POINT('',(104.400001385808,75.,22.0000003278255));
#923=CARTESIAN_POINT('Origin',(103.000001385808,75.,22.0000003278255));
#924=CARTESIAN_POINT('',(104.400001385808,70.,22.0000003278255));
#925=CARTESIAN_POINT('',(104.400001385808,75.,22.0000003278255));
#926=CARTESIAN_POINT('Origin',(103.000001385808,70.,22.0000003278255));
#927=CARTESIAN_POINT('Origin',(100.,70.,-25.));
#928=CARTESIAN_POINT('',(100.,70.,-25.));
#929=CARTESIAN_POINT('',(100.,70.,25.));
#930=CARTESIAN_POINT('',(100.,70.,-3.75));
#931=CARTESIAN_POINT('',(195.,70.,-25.));
#932=CARTESIAN_POINT('',(147.5,70.,-25.));
#933=CARTESIAN_POINT('',(195.,70.,25.));
#934=CARTESIAN_POINT('',(195.,70.,0.));
#935=CARTESIAN_POINT('',(100.,70.,25.));
#936=CARTESIAN_POINT('Origin',(100.,60.,25.));
#937=CARTESIAN_POINT('',(195.,75.,25.));
#938=CARTESIAN_POINT('',(195.,60.,25.));
#939=CARTESIAN_POINT('',(100.,75.,25.));
#940=CARTESIAN_POINT('',(100.,75.,25.));
#941=CARTESIAN_POINT('',(100.,60.,25.));
#942=CARTESIAN_POINT('Origin',(195.,60.,25.));
#943=CARTESIAN_POINT('',(195.,75.,-25.));
#944=CARTESIAN_POINT('',(195.,60.,-25.));
#945=CARTESIAN_POINT('',(195.,75.,-25.));
#946=CARTESIAN_POINT('Origin',(195.,60.,-25.));
#947=CARTESIAN_POINT('',(100.,75.,-25.));
#948=CARTESIAN_POINT('',(100.,60.,-25.));
#949=CARTESIAN_POINT('',(100.,75.,-25.));
#950=CARTESIAN_POINT('Origin',(100.,60.,-25.));
#951=CARTESIAN_POINT('',(100.,75.,2.5));
#952=CARTESIAN_POINT('',(100.,75.,2.5));
#953=CARTESIAN_POINT('Origin',(100.,75.,-25.));
#954=UNCERTAINTY_MEASURE_WITH_UNIT(LENGTH_MEASURE(0.01),#958,
'DISTANCE_ACCURACY_VALUE',
'Maximum model space distance between geometric entities at asserted c
onnectivities');
#955=UNCERTAINTY_MEASURE_WITH_UNIT(LENGTH_MEASURE(0.01),#958,
'DISTANCE_ACCURACY_VALUE',
'Maximum model space distance between geometric entities at asserted c
onnectivities');
#956=(
GEOMETRIC_REPRESENTATION_CONTEXT(3)
GLOBAL_UNCERTAINTY_ASSIGNED_CONTEXT((#954))
GLOBAL_UNIT_ASSIGNED_CONTEXT((#958,#960,#961))
REPRESENTATION_CONTEXT('','3D')
);
#957=(
GEOMETRIC_REPRESENTATION_CONTEXT(3)
GLOBAL_UNCERTAINTY_ASSIGNED_CONTEXT((#955))
GLOBAL_UNIT_ASSIGNED_CONTEXT((#958,#960,#961))
REPRESENTATION_CONTEXT('','3D')
);
#958=(
LENGTH_UNIT()
NAMED_UNIT(*)
SI_UNIT(.MILLI.,.METRE.)
);
#959=(
LENGTH_UNIT()
NAMED_UNIT(*)
SI_UNIT($,.METRE.)
);
#960=(
NAMED_UNIT(*)
PLANE_ANGLE_UNIT()
SI_UNIT($,.RADIAN.)
);
#961=(
NAMED_UNIT(*)
SI_UNIT($,.STERADIAN.)
SOLID_ANGLE_UNIT()
);
#962=SHAPE_DEFINITION_REPRESENTATION(#963,#964);
#963=PRODUCT_DEFINITION_SHAPE('',$,#966);
#964=SHAPE_REPRESENTATION('',(#598),#956);
#965=PRODUCT_DEFINITION_CONTEXT('part definition',#970,'design');
#966=PRODUCT_DEFINITION('2026-08-03-14-40-19-866','robot',#967,#965);
#967=PRODUCT_DEFINITION_FORMATION('',$,#972);
#968=PRODUCT_RELATED_PRODUCT_CATEGORY('robot','robot',(#972));
#969=APPLICATION_PROTOCOL_DEFINITION('international standard',
'automotive_design',2009,#970);
#970=APPLICATION_CONTEXT(
'Core Data for Automotive Mechanical Design Process');
#971=PRODUCT_CONTEXT('part definition',#970,'mechanical');
#972=PRODUCT('2026-08-03-14-40-19-866','robot',
'Spur Gear; Module: 1.0; Num Teeth: 16; Pressure Angle: 20.0; Backlash
: 0.00 mm',(#971));
#973=PRESENTATION_STYLE_ASSIGNMENT((#999));
#974=PRESENTATION_STYLE_ASSIGNMENT((#1000));
#975=PRESENTATION_STYLE_ASSIGNMENT((#1001));
#976=PRESENTATION_STYLE_ASSIGNMENT((#1002));
#977=PRESENTATION_STYLE_ASSIGNMENT((#1003));
#978=PRESENTATION_STYLE_ASSIGNMENT((#1004));
#979=PRESENTATION_STYLE_ASSIGNMENT((#1005));
#980=PRESENTATION_STYLE_ASSIGNMENT((#1006));
#981=PRESENTATION_STYLE_ASSIGNMENT((#1007));
#982=PRESENTATION_STYLE_ASSIGNMENT((#1008));
#983=PRESENTATION_STYLE_ASSIGNMENT((#1009));
#984=PRESENTATION_STYLE_ASSIGNMENT((#1010));
#985=PRESENTATION_STYLE_ASSIGNMENT((#1011));
#986=PRESENTATION_STYLE_ASSIGNMENT((#1012));
#987=PRESENTATION_STYLE_ASSIGNMENT((#1013));
#988=PRESENTATION_STYLE_ASSIGNMENT((#1014));
#989=PRESENTATION_STYLE_ASSIGNMENT((#1015));
#990=PRESENTATION_STYLE_ASSIGNMENT((#1016));
#991=PRESENTATION_STYLE_ASSIGNMENT((#1017));
#992=PRESENTATION_STYLE_ASSIGNMENT((#1018));
#993=PRESENTATION_STYLE_ASSIGNMENT((#1019));
#994=PRESENTATION_STYLE_ASSIGNMENT((#1020));
#995=PRESENTATION_STYLE_ASSIGNMENT((#1021));
#996=PRESENTATION_STYLE_ASSIGNMENT((#1022));
#997=PRESENTATION_STYLE_ASSIGNMENT((#1023));
#998=PRESENTATION_STYLE_ASSIGNMENT((#1024));
#999=SURFACE_STYLE_USAGE(.BOTH.,#1025);
#1000=SURFACE_STYLE_USAGE(.BOTH.,#1026);
#1001=SURFACE_STYLE_USAGE(.BOTH.,#1027);
#1002=SURFACE_STYLE_USAGE(.BOTH.,#1028);
#1003=SURFACE_STYLE_USAGE(.BOTH.,#1029);
#1004=SURFACE_STYLE_USAGE(.BOTH.,#1030);
#1005=SURFACE_STYLE_USAGE(.BOTH.,#1031);
#1006=SURFACE_STYLE_USAGE(.BOTH.,#1032);
#1007=SURFACE_STYLE_USAGE(.BOTH.,#1033);
#1008=SURFACE_STYLE_USAGE(.BOTH.,#1034);
#1009=SURFACE_STYLE_USAGE(.BOTH.,#1035);
#1010=SURFACE_STYLE_USAGE(.BOTH.,#1036);
#1011=SURFACE_STYLE_USAGE(.BOTH.,#1037);
#1012=SURFACE_STYLE_USAGE(.BOTH.,#1038);
#1013=SURFACE_STYLE_USAGE(.BOTH.,#1039);
#1014=SURFACE_STYLE_USAGE(.BOTH.,#1040);
#1015=SURFACE_STYLE_USAGE(.BOTH.,#1041);
#1016=SURFACE_STYLE_USAGE(.BOTH.,#1042);
#1017=SURFACE_STYLE_USAGE(.BOTH.,#1043);
#1018=SURFACE_STYLE_USAGE(.BOTH.,#1044);
#1019=SURFACE_STYLE_USAGE(.BOTH.,#1045);
#1020=SURFACE_STYLE_USAGE(.BOTH.,#1046);
#1021=SURFACE_STYLE_USAGE(.BOTH.,#1047);
#1022=SURFACE_STYLE_USAGE(.BOTH.,#1048);
#1023=SURFACE_STYLE_USAGE(.BOTH.,#1049);
#1024=SURFACE_STYLE_USAGE(.BOTH.,#1050);
#1025=SURFACE_SIDE_STYLE('',(#1051));
#1026=SURFACE_SIDE_STYLE('',(#1052));
#1027=SURFACE_SIDE_STYLE('',(#1053));
#1028=SURFACE_SIDE_STYLE('',(#1054));
#1029=SURFACE_SIDE_STYLE('',(#1055));
#1030=SURFACE_SIDE_STYLE('',(#1056));
#1031=SURFACE_SIDE_STYLE('',(#1057));
#1032=SURFACE_SIDE_STYLE('',(#1058));
#1033=SURFACE_SIDE_STYLE('',(#1059));
#1034=SURFACE_SIDE_STYLE('',(#1060));
#1035=SURFACE_SIDE_STYLE('',(#1061));
#1036=SURFACE_SIDE_STYLE('',(#1062));
#1037=SURFACE_SIDE_STYLE('',(#1063));
#1038=SURFACE_SIDE_STYLE('',(#1064));
#1039=SURFACE_SIDE_STYLE('',(#1065));
#1040=SURFACE_SIDE_STYLE('',(#1066));
#1041=SURFACE_SIDE_STYLE('',(#1067));
#1042=SURFACE_SIDE_STYLE('',(#1068));
#1043=SURFACE_SIDE_STYLE('',(#1069));
#1044=SURFACE_SIDE_STYLE('',(#1070));
#1045=SURFACE_SIDE_STYLE('',(#1071));
#1046=SURFACE_SIDE_STYLE('',(#1072));
#1047=SURFACE_SIDE_STYLE('',(#1073));
#1048=SURFACE_SIDE_STYLE('',(#1074));
#1049=SURFACE_SIDE_STYLE('',(#1075));
#1050=SURFACE_SIDE_STYLE('',(#1076));
#1051=SURFACE_STYLE_FILL_AREA(#1077);
#1052=SURFACE_STYLE_FILL_AREA(#1078);
#1053=SURFACE_STYLE_FILL_AREA(#1079);
#1054=SURFACE_STYLE_FILL_AREA(#1080);
#1055=SURFACE_STYLE_FILL_AREA(#1081);
#1056=SURFACE_STYLE_FILL_AREA(#1082);
#1057=SURFACE_STYLE_FILL_AREA(#1083);
#1058=SURFACE_STYLE_FILL_AREA(#1084);
#1059=SURFACE_STYLE_FILL_AREA(#1085);
#1060=SURFACE_STYLE_FILL_AREA(#1086);
#1061=SURFACE_STYLE_FILL_AREA(#1087);
#1062=SURFACE_STYLE_FILL_AREA(#1088);
#1063=SURFACE_STYLE_FILL_AREA(#1089);
#1064=SURFACE_STYLE_FILL_AREA(#1090);
#1065=SURFACE_STYLE_FILL_AREA(#1091);
#1066=SURFACE_STYLE_FILL_AREA(#1092);
#1067=SURFACE_STYLE_FILL_AREA(#1093);
#1068=SURFACE_STYLE_FILL_AREA(#1094);
#1069=SURFACE_STYLE_FILL_AREA(#1095);
#1070=SURFACE_STYLE_FILL_AREA(#1096);
#1071=SURFACE_STYLE_FILL_AREA(#1097);
#1072=SURFACE_STYLE_FILL_AREA(#1098);
#1073=SURFACE_STYLE_FILL_AREA(#1099);
#1074=SURFACE_STYLE_FILL_AREA(#1100);
#1075=SURFACE_STYLE_FILL_AREA(#1101);
#1076=SURFACE_STYLE_FILL_AREA(#1102);
#1077=FILL_AREA_STYLE('Steel - Satin',(#1103));
#1078=FILL_AREA_STYLE('Opaque(76,76,76)',(#1104));
#1079=FILL_AREA_STYLE('Opaque(51,51,51)',(#1105));
#1080=FILL_AREA_STYLE('Opaque(223,223,223)',(#1106));
#1081=FILL_AREA_STYLE('Opaque(255,255,255)',(#1107));
#1082=FILL_AREA_STYLE('Opaque(255,202,0)',(#1108));
#1083=FILL_AREA_STYLE('Opaque(152,170,175)',(#1109));
#1084=FILL_AREA_STYLE('Opaque(153,153,153)',(#1110));
#1085=FILL_AREA_STYLE('Opaque(195,225,190)',(#1111));
#1086=FILL_AREA_STYLE('Opaque(255,153,0)',(#1112));
#1087=FILL_AREA_STYLE('Opaque(204,255,51)',(#1113));
#1088=FILL_AREA_STYLE('Opaque(0,153,0)',(#1114));
#1089=FILL_AREA_STYLE('Opaque(153,102,51)',(#1115));
#1090=FILL_AREA_STYLE('Opaque(0,153,255)',(#1116));
#1091=FILL_AREA_STYLE('Opaque(230,235,235)',(#1117));
#1092=FILL_AREA_STYLE('Opaque(255,245,227)',(#1118));
#1093=FILL_AREA_STYLE('Opaque(204,0,0)',(#1119));
#1094=FILL_AREA_STYLE('Opaque(0,0,172)',(#1120));
#1095=FILL_AREA_STYLE('Opaque(255,248,56)',(#1121));
#1096=FILL_AREA_STYLE('Opaque(112,112,112)',(#1122));
#1097=FILL_AREA_STYLE('Opaque(112,121,128)',(#1123));
#1098=FILL_AREA_STYLE('Opaque(234,234,234)',(#1124));
#1099=FILL_AREA_STYLE('Opaque(95,167,61)',(#1125));
#1100=FILL_AREA_STYLE('Opaque(131,188,104)',(#1126));
#1101=FILL_AREA_STYLE('Opaque(30,23,23)',(#1127));
#1102=FILL_AREA_STYLE('Opaque(202,209,238)',(#1128));
#1103=FILL_AREA_STYLE_COLOUR('Steel - Satin',#1129);
#1104=FILL_AREA_STYLE_COLOUR('Opaque(76,76,76)',#1130);
#1105=FILL_AREA_STYLE_COLOUR('Opaque(51,51,51)',#1131);
#1106=FILL_AREA_STYLE_COLOUR('Opaque(223,223,223)',#1132);
#1107=FILL_AREA_STYLE_COLOUR('Opaque(255,255,255)',#1133);
#1108=FILL_AREA_STYLE_COLOUR('Opaque(255,202,0)',#1134);
#1109=FILL_AREA_STYLE_COLOUR('Opaque(152,170,175)',#1135);
#1110=FILL_AREA_STYLE_COLOUR('Opaque(153,153,153)',#1136);
#1111=FILL_AREA_STYLE_COLOUR('Opaque(195,225,190)',#1137);
#1112=FILL_AREA_STYLE_COLOUR('Opaque(255,153,0)',#1138);
#1113=FILL_AREA_STYLE_COLOUR('Opaque(204,255,51)',#1139);
#1114=FILL_AREA_STYLE_COLOUR('Opaque(0,153,0)',#1140);
#1115=FILL_AREA_STYLE_COLOUR('Opaque(153,102,51)',#1141);
#1116=FILL_AREA_STYLE_COLOUR('Opaque(0,153,255)',#1142);
#1117=FILL_AREA_STYLE_COLOUR('Opaque(230,235,235)',#1143);
#1118=FILL_AREA_STYLE_COLOUR('Opaque(255,245,227)',#1144);
#1119=FILL_AREA_STYLE_COLOUR('Opaque(204,0,0)',#1145);
#1120=FILL_AREA_STYLE_COLOUR('Opaque(0,0,172)',#1146);
#1121=FILL_AREA_STYLE_COLOUR('Opaque(255,248,56)',#1147);
#1122=FILL_AREA_STYLE_COLOUR('Opaque(112,112,112)',#1148);
#1123=FILL_AREA_STYLE_COLOUR('Opaque(112,121,128)',#1149);
#1124=FILL_AREA_STYLE_COLOUR('Opaque(234,234,234)',#1150);
#1125=FILL_AREA_STYLE_COLOUR('Opaque(95,167,61)',#1151);
#1126=FILL_AREA_STYLE_COLOUR('Opaque(131,188,104)',#1152);
#1127=FILL_AREA_STYLE_COLOUR('Opaque(30,23,23)',#1153);
#1128=FILL_AREA_STYLE_COLOUR('Opaque(202,209,238)',#1154);
#1129=COLOUR_RGB('Steel - Satin',0.627450980392157,0.627450980392157,0.627450980392157);
#1130=COLOUR_RGB('Opaque(76,76,76)',0.298039215686275,0.298039215686275,
0.298039215686275);
#1131=COLOUR_RGB('Opaque(51,51,51)',0.2,0.2,0.2);
#1132=COLOUR_RGB('Opaque(223,223,223)',0.874509803921569,0.874509803921569,
0.874509803921569);
#1133=COLOUR_RGB('Opaque(255,255,255)',1.,1.,1.);
#1134=COLOUR_RGB('Opaque(255,202,0)',1.,0.792156862745098,0.);
#1135=COLOUR_RGB('Opaque(152,170,175)',0.596078431372549,0.666666666666667,
0.686274509803922);
#1136=COLOUR_RGB('Opaque(153,153,153)',0.6,0.6,0.6);
#1137=COLOUR_RGB('Opaque(195,225,190)',0.764705882352941,0.882352941176471,
0.745098039215686);
#1138=COLOUR_RGB('Opaque(255,153,0)',1.,0.6,0.);
#1139=COLOUR_RGB('Opaque(204,255,51)',0.8,1.,0.2);
#1140=COLOUR_RGB('Opaque(0,153,0)',0.,0.6,0.);
#1141=COLOUR_RGB('Opaque(153,102,51)',0.6,0.4,0.2);
#1142=COLOUR_RGB('Opaque(0,153,255)',0.,0.6,1.);
#1143=COLOUR_RGB('Opaque(230,235,235)',0.901960784313726,0.92156862745098,
0.92156862745098);
#1144=COLOUR_RGB('Opaque(255,245,227)',1.,0.96078431372549,0.890196078431372);
#1145=COLOUR_RGB('Opaque(204,0,0)',0.8,0.,0.);
#1146=COLOUR_RGB('Opaque(0,0,172)',0.,0.,0.674509803921569);
#1147=COLOUR_RGB('Opaque(255,248,56)',1.,0.972549019607843,0.219607843137255);
#1148=COLOUR_RGB('Opaque(112,112,112)',0.43921568627451,0.43921568627451,
0.43921568627451);
#1149=COLOUR_RGB('Opaque(112,121,128)',0.43921568627451,0.474509803921569,
0.501960784313725);
#1150=COLOUR_RGB('Opaque(234,234,234)',0.917647058823529,0.917647058823529,
0.917647058823529);
#1151=COLOUR_RGB('Opaque(95,167,61)',0.372549019607843,0.654901960784314,
0.23921568627451);
#1152=COLOUR_RGB('Opaque(131,188,104)',0.513725490196078,0.737254901960784,
0.407843137254902);
#1153=COLOUR_RGB('Opaque(30,23,23)',0.117647058823529,0.0901960784313725,
0.0901960784313725);
#1154=COLOUR_RGB('Opaque(202,209,238)',0.792156862745098,0.819607843137255,
0.933333333333333);
ENDSEC;
END-ISO-10303-21;
